<svg id="Слой_1" data-name="Слой 1" xmlns="http://www.w3.org/2000/svg" viewBox="0 0 137.76 137.76"><defs><style>.cls-1{fill:none;stroke:#737373;stroke-miterlimit:10;stroke-width:2.5px;}</style></defs><rect class="cls-1" x="37.81" y="37.06" width="63.59" height="68.25"/><line class="cls-1" x1="72.96" y1="50.57" x2="86.11" y2="37.42"/><line class="cls-1" x1="55.26" y1="105.03" x2="68.42" y2="91.88"/><line class="cls-1" x1="64.96" y1="69.59" x2="97.13" y2="37.42"/><line class="cls-1" x1="46.48" y1="105.31" x2="78.65" y2="73.14"/><line class="cls-1" x1="37.81" y1="69.59" x2="69.98" y2="37.42"/><path class="cls-1" d="M47.8,40.91,49,37.41a.22.22,0,0,1,.42,0l1.23,3.5a.73.73,0,0,0,.44.45l3.51,1.22a.23.23,0,0,1,0,.43l-3.51,1.23a.69.69,0,0,0-.44.44l-1.23,3.51a.22.22,0,0,1-.42,0L47.8,44.68a.71.71,0,0,0-.44-.44L43.85,43a.23.23,0,0,1,0-.43l3.51-1.22A.75.75,0,0,0,47.8,40.91Z"/><path class="cls-1" d="M90.44,92.89l1.23-3.51a.22.22,0,0,1,.42,0l1.23,3.51a.74.74,0,0,0,.44.44l3.51,1.23a.22.22,0,0,1,0,.42l-3.51,1.23a.69.69,0,0,0-.44.44l-1.23,3.51a.22.22,0,0,1-.42,0l-1.23-3.51a.71.71,0,0,0-.44-.44L86.49,95a.22.22,0,0,1,0-.42L90,93.33A.76.76,0,0,0,90.44,92.89Z"/><path class="cls-1" d="M30.58,73.5,31.81,70a.22.22,0,0,1,.42,0l1.23,3.51a.74.74,0,0,0,.44.44l3.51,1.22a.23.23,0,0,1,0,.43L33.9,76.82a.69.69,0,0,0-.44.44l-1.23,3.51a.22.22,0,0,1-.42,0l-1.23-3.51a.74.74,0,0,0-.44-.44l-3.51-1.23a.23.23,0,0,1,0-.43l3.51-1.22A.79.79,0,0,0,30.58,73.5Z"/></svg>