<?xml version="1.0" encoding="utf-8"?>
<!-- Generator: Adobe Illustrator 23.0.5, SVG Export Plug-In . SVG Version: 6.00 Build 0)  -->
<svg version="1.1" id="Слой_1" xmlns="http://www.w3.org/2000/svg" xmlns:xlink="http://www.w3.org/1999/xlink" x="0px" y="0px"
	 viewBox="0 0 137.8 137.8" style="enable-background:new 0 0 137.8 137.8;" xml:space="preserve">
<style type="text/css">
	.st0{fill:none;stroke:#737373;stroke-width:2.5;stroke-miterlimit:10;}
</style>
<rect x="37.8" y="37.1" class="st0" width="63.6" height="68.3"/>
<line class="st0" x1="73" y1="50.6" x2="86.1" y2="37.4"/>
<line class="st0" x1="55.3" y1="105" x2="68.4" y2="91.9"/>
<line class="st0" x1="65" y1="69.6" x2="97.1" y2="37.4"/>
<line class="st0" x1="46.5" y1="105.3" x2="78.7" y2="73.1"/>
<line class="st0" x1="37.8" y1="69.6" x2="70" y2="37.4"/>
<path class="st0" d="M47.8,40.9l1.2-3.5c0-0.1,0.2-0.2,0.3-0.1c0.1,0,0.1,0.1,0.1,0.1l1.2,3.5c0.1,0.2,0.2,0.4,0.4,0.5l3.5,1.2
	c0.1,0,0.2,0.2,0.1,0.3c0,0.1-0.1,0.1-0.1,0.1l-3.5,1.2c-0.2,0.1-0.4,0.2-0.4,0.4l-1.2,3.5c0,0.1-0.2,0.2-0.3,0.1
	c-0.1,0-0.1-0.1-0.1-0.1l-1.2-3.5c-0.1-0.2-0.2-0.4-0.4-0.4L43.8,43c-0.1,0-0.2-0.2-0.1-0.3c0-0.1,0.1-0.1,0.1-0.1l3.5-1.2
	C47.6,41.3,47.7,41.1,47.8,40.9z"/>
<path class="st0" d="M90.4,92.9l1.2-3.5c0-0.1,0.2-0.2,0.3-0.1c0.1,0,0.1,0.1,0.1,0.1l1.2,3.5c0.1,0.2,0.2,0.4,0.4,0.4l3.5,1.2
	c0.1,0,0.2,0.2,0.1,0.3c0,0.1-0.1,0.1-0.1,0.1l-3.5,1.2c-0.2,0.1-0.4,0.2-0.4,0.4l-1.2,3.5c0,0.1-0.2,0.2-0.3,0.1
	c-0.1,0-0.1-0.1-0.1-0.1l-1.2-3.5c-0.1-0.2-0.2-0.4-0.4-0.4L86.5,95c-0.1,0-0.2-0.2-0.1-0.3c0-0.1,0.1-0.1,0.1-0.1l3.5-1.3
	C90.2,93.3,90.4,93.1,90.4,92.9z"/>
<path class="st0" d="M30.6,73.5l1.2-3.5c0-0.1,0.2-0.2,0.3-0.1c0.1,0,0.1,0.1,0.1,0.1l1.2,3.5c0.1,0.2,0.2,0.4,0.4,0.4l3.5,1.2
	c0.1,0,0.2,0.2,0.1,0.3c0,0.1-0.1,0.1-0.1,0.1l-3.5,1.2c-0.2,0.1-0.4,0.2-0.4,0.4l-1.2,3.5c0,0.1-0.2,0.2-0.3,0.1
	c-0.1,0-0.1-0.1-0.1-0.1l-1.2-3.5c-0.1-0.2-0.2-0.4-0.4-0.4l-3.5-1.2c-0.1,0-0.2-0.2-0.1-0.3c0-0.1,0.1-0.1,0.1-0.1l3.5-1.2
	C30.3,73.9,30.5,73.7,30.6,73.5z"/>
</svg>
