<svg id="Слой_1" data-name="Слой 1" xmlns="http://www.w3.org/2000/svg" viewBox="0 0 137.76 137.76"><defs><style>.cls-1{fill:#737373;}.cls-2{fill:#e3e3e3;}</style></defs><path class="cls-1" d="M94.79,42.66c1.28-1,2.52-1.91,3.71-2.89a2.51,2.51,0,0,0,.3-3.83,2.55,2.55,0,0,0-3.86.16,7,7,0,0,1-1.22,1.32,1.63,1.63,0,0,1-1.43.18,1.48,1.48,0,0,1-.38-1.4c1.24-1.79,2.68-3.43,5.13-3.37a4.72,4.72,0,0,1,4.43,3,4.64,4.64,0,0,1-1.06,5.32,47.06,47.06,0,0,1-3.93,3.11,1.92,1.92,0,0,0-.9,1.88c.08,6,.07,11.93,0,17.89a8.35,8.35,0,0,1-2.76,5.91Q75.89,86.83,59,103.76a3.56,3.56,0,0,1-5.28,0Q42.35,92.5,31.07,81.2c-1.88-1.89-1.84-3.86.06-5.76q16.79-16.81,33.6-33.6A9.42,9.42,0,0,1,71.8,39c4.73,0,9.45,0,14.17,0C90.89,39,91.35,39.21,94.79,42.66ZM92.68,44a5.38,5.38,0,0,0-5.07-2.69H71.76a7.5,7.5,0,0,0-5.62,2.35q-16.48,16.57-33,33.07c-1.38,1.38-1.38,1.79,0,3.16L54.68,101.5c1.42,1.42,1.82,1.41,3.25,0Q74.39,85.06,90.85,68.65a8,8,0,0,0,2.49-6.09c0-4.89,0-9.78,0-14.67V46.45c-1.12.67-2,1.26-3,1.75a1.68,1.68,0,0,0-1.07,1.88,4.62,4.62,0,0,1-4,4.88,4.77,4.77,0,0,1-5.41-3.31,4.9,4.9,0,0,1,1.68-5.41,4.77,4.77,0,0,1,5.75,0,1.31,1.31,0,0,0,1.8.06C90.24,45.49,91.44,44.81,92.68,44Zm-6.77,4c-1.33-.59-2.39-.56-3.25.36a2.37,2.37,0,0,0-.37,2.95,2.33,2.33,0,0,0,2.81,1.24A2.24,2.24,0,0,0,87,50.21l-1.57.84c-.74.41-1.46.41-1.9-.37s.13-1.35.79-1.75C84.75,48.66,85.24,48.42,85.91,48.06Z"/><path class="cls-1" d="M56.31,105.94A4.76,4.76,0,0,1,53,104.47c-8.73-8.68-15.91-15.85-22.6-22.57-2.25-2.26-2.23-4.87.06-7.17L47,58.13l17-17A10.35,10.35,0,0,1,71.7,38h.11q5,0,9.93,0H86c4.88,0,5.8.26,8.9,3.3l.48-.36c.86-.66,1.7-1.3,2.51-2a1.76,1.76,0,0,0,.69-1.24,1.48,1.48,0,0,0-.46-1.12,1.56,1.56,0,0,0-1.11-.5h0a1.78,1.78,0,0,0-1.29.65c-.12.13-.23.27-.34.41a4.57,4.57,0,0,1-1.08,1.07,2.53,2.53,0,0,1-2.54.15,2.38,2.38,0,0,1-.62-2.78c1.38-2,3-3.89,6-3.81a5.71,5.71,0,0,1,5.32,3.55,5.64,5.64,0,0,1-1.3,6.48,48.46,48.46,0,0,1-4,3.18c-.4.29-.5.43-.49,1.06.07,5.24.08,10.76,0,17.91a9.25,9.25,0,0,1-3,6.61L81.63,82.52l-22,22A4.72,4.72,0,0,1,56.31,105.94ZM71.7,40a8.4,8.4,0,0,0-6.26,2.53q-8.49,8.51-17,17L31.84,76.15c-1.52,1.52-1.54,2.86-.07,4.34,6.69,6.71,13.87,13.88,22.6,22.56a2.57,2.57,0,0,0,3.87,0l22-21.94L92.13,69.2A7.32,7.32,0,0,0,94.6,64c.06-7.13.05-12.64,0-17.86a2.94,2.94,0,0,1,1.31-2.71,44,44,0,0,0,3.84-3,3.62,3.62,0,0,0,.83-4.16A3.73,3.73,0,0,0,97,33.83c-1.81-.07-2.94,1-4.16,2.76a.29.29,0,0,0,0,.09.87.87,0,0,0,.31-.11,2.55,2.55,0,0,0,.56-.6,4.79,4.79,0,0,1,.46-.55,3.8,3.8,0,0,1,2.72-1.28,3.61,3.61,0,0,1,2.58,1.09,3.46,3.46,0,0,1,1,2.63,3.69,3.69,0,0,1-1.42,2.68c-.83.69-1.69,1.34-2.56,2L94.7,44l-.62-.62C90.84,40.12,90.61,40,86,40H81.74q-5,0-9.94,0ZM56.29,103.55A3.57,3.57,0,0,1,54,102.21L32.38,80.63a3.4,3.4,0,0,1-1.32-2.28,3.5,3.5,0,0,1,1.33-2.29l8.52-8.51Q53.18,55.3,65.43,43a8.49,8.49,0,0,1,6.32-2.65H87.61a6.36,6.36,0,0,1,5.93,3.18l.5.84-.83.52-1.12.68c-.84.51-1.64,1-2.41,1.52a2.26,2.26,0,0,1-3-.08,3.77,3.77,0,0,0-4.54,0,3.87,3.87,0,0,0-1.34,4.31A3.78,3.78,0,0,0,85.14,54a3.63,3.63,0,0,0,3.18-3.82,2.66,2.66,0,0,1,1.6-2.84c.61-.31,1.19-.67,1.87-1.09l1-.63,1.52-.91v7.5c0,3.46,0,6.92,0,10.37a9.05,9.05,0,0,1-2.78,6.81c-8.19,8.11-16.47,16.39-24.48,24.4l-8.44,8.43A3.58,3.58,0,0,1,56.29,103.55Zm15.46-61.2a6.53,6.53,0,0,0-4.91,2.06Q54.61,56.71,42.32,69L33.8,77.48c-.6.6-.72.82-.74.9a5.19,5.19,0,0,0,.73.84l21.59,21.57c.63.63.86.75.93.77a4.34,4.34,0,0,0,.92-.79l8.43-8.43c8-8,16.3-16.29,24.49-24.4a6.94,6.94,0,0,0,2.19-5.37c0-3.46,0-6.93,0-10.4V48.24c-.5.3-1,.59-1.49.85s-.57.34-.53.93A5.65,5.65,0,0,1,85.46,56a5.75,5.75,0,0,1-6.52-4,5.91,5.91,0,0,1,2-6.5,5.76,5.76,0,0,1,7,0,.86.86,0,0,0,.32.18.89.89,0,0,0,.3-.16c.81-.55,1.64-1,2.51-1.58l.18-.11a4.53,4.53,0,0,0-3.63-1.4H71.75ZM84.37,53.71a3.32,3.32,0,0,1-3-1.84,3.35,3.35,0,0,1,.51-4.13c1.11-1.2,2.59-1.4,4.39-.59l1.85.84-2.4,1.27c-.36.19-.67.35-1,.53a2.16,2.16,0,0,0-.46.34.61.61,0,0,0,0,.06c.05.09.09.13.1.13s.16,0,.43-.14.65-.36,1-.55L88,48.52l0,1.71a3.24,3.24,0,0,1-2.62,3.35A3.78,3.78,0,0,1,84.37,53.71Z"/><path class="cls-2" d="M92.68,44c-1.24.77-2.44,1.45-3.56,2.23a1.31,1.31,0,0,1-1.8-.06,4.77,4.77,0,0,0-5.75,0,4.9,4.9,0,0,0-1.68,5.41A4.77,4.77,0,0,0,85.3,55a4.62,4.62,0,0,0,4-4.88,1.68,1.68,0,0,1,1.07-1.88c.94-.49,1.83-1.08,3-1.75v1.44c0,4.89,0,9.78,0,14.67a8,8,0,0,1-2.49,6.09Q74.34,85,57.93,101.48c-1.43,1.43-1.83,1.44-3.25,0L33.09,79.93c-1.37-1.37-1.37-1.78,0-3.16q16.53-16.53,33-33.07a7.5,7.5,0,0,1,5.62-2.35H87.61A5.38,5.38,0,0,1,92.68,44ZM63.4,70.12q0,3.61,0,7.21c0,1.67-.07,3.35.06,5,0,.43.66,1.13,1,1.13s.86-.59,1.22-1c.13-.15,0-.49.05-.75,0-3.73,0-7.46,0-11.19q0-6.06,0-12.1c0-.09,0-.17,0-.26,0-.78-.26-1.51-1.2-1.52s-1.18.69-1.18,1.51Q63.41,64.15,63.4,70.12Zm-2.75,0a4.93,4.93,0,0,0-4.91-4.88,4.82,4.82,0,0,0-4.88,4.88,4.9,4.9,0,1,0,9.79,0Zm17.62,0a4.92,4.92,0,0,0-5-4.85,5,5,0,0,0-4.87,4.84,5.12,5.12,0,0,0,4.93,5A5,5,0,0,0,78.27,70.07Z"/><path class="cls-2" d="M85.91,48.06c-.67.36-1.16.6-1.62.87-.66.4-1.26.91-.79,1.75s1.16.78,1.9.37L87,50.21a2.24,2.24,0,0,1-1.87,2.4,2.33,2.33,0,0,1-2.81-1.24,2.37,2.37,0,0,1,.37-2.95C83.52,47.5,84.58,47.47,85.91,48.06Z"/><path class="cls-1" d="M63.41,70.12q0-6,0-12c0-.82.23-1.51,1.18-1.51s1.15.74,1.2,1.52c0,.09,0,.17,0,.26q0,6,0,12.1c0,3.73,0,7.46,0,11.19,0,.26.08.6-.05.75-.36.41-.82,1-1.22,1s-1-.7-1-1.13c-.13-1.66-.06-3.34-.06-5Q63.4,73.73,63.41,70.12Z"/><path class="cls-1" d="M64.49,84h0A2,2,0,0,1,63,82.38c-.09-1.25-.08-2.53-.07-3.76,0-.43,0-.86,0-1.29v-9.6q0-4.78,0-9.57a2.14,2.14,0,0,1,.51-1.58,1.67,1.67,0,0,1,1.17-.43c1,0,1.61.68,1.69,2a1.61,1.61,0,0,1,0,.22l0,12.17V81.72a1.1,1.1,0,0,0,0,.18,1.15,1.15,0,0,1-.19.9L66,83C65.54,83.43,65.08,84,64.49,84Zm.08-26.82c-.32,0-.42.1-.45.14s-.22.32-.22.87q0,4.79,0,9.57v9.6c0,.43,0,.87,0,1.3,0,1.21,0,2.46.07,3.68a1.21,1.21,0,0,0,.56.66,4,4,0,0,0,.66-.66l.09-.11c0-.06,0-.15,0-.22a2.46,2.46,0,0,1,0-.26V70.53l0-12.1v-.15c0-1.05-.35-1.13-.7-1.13Zm.71,25.08Zm0-.09Z"/><path class="cls-1" d="M60.65,70.1a4.9,4.9,0,1,1-9.79,0,4.82,4.82,0,0,1,4.88-4.88A4.93,4.93,0,0,1,60.65,70.1ZM58.32,70a2.58,2.58,0,0,0-2.6-2.49A2.54,2.54,0,1,0,58.32,70Z"/><path class="cls-1" d="M55.73,76a5.75,5.75,0,0,1-4.1-1.73,5.9,5.9,0,0,1-.06-8.37,5.84,5.84,0,0,1,4.16-1.7h0A5.87,5.87,0,0,1,59.91,66a5.8,5.8,0,0,1,1.74,4.15A6,6,0,0,1,55.75,76Zm0-9.8a3.84,3.84,0,0,0-3.87,3.88A4,4,0,0,0,53,72.88,3.78,3.78,0,0,0,55.73,74h0a4,4,0,0,0,3.91-3.93h0a3.82,3.82,0,0,0-1.15-2.72,3.88,3.88,0,0,0-2.76-1.15Zm0,7.41a3.66,3.66,0,0,1-3.56-3.48,3.54,3.54,0,0,1,1-2.48,3.6,3.6,0,0,1,2.5-1.12h.06A3.58,3.58,0,0,1,59.32,70h0a3.55,3.55,0,0,1-1,2.49,3.61,3.61,0,0,1-2.5,1.13Zm0-5.08h0a1.59,1.59,0,0,0-1.09.51,1.47,1.47,0,0,0-.44,1,1.65,1.65,0,0,0,1.56,1.53h0a1.61,1.61,0,0,0,1.09-.51,1.49,1.49,0,0,0,.44-1.05h0A1.57,1.57,0,0,0,55.76,68.55Z"/><path class="cls-1" d="M78.27,70.07a5,5,0,0,1-4.9,5,5.12,5.12,0,0,1-4.93-5,5,5,0,0,1,4.87-4.84A4.92,4.92,0,0,1,78.27,70.07Zm-2.39.07a2.5,2.5,0,1,0-5-.1,2.52,2.52,0,0,0,2.46,2.6A2.48,2.48,0,0,0,75.88,70.14Z"/><path class="cls-1" d="M73.39,76h0a6,6,0,0,1-4.17-1.83,5.9,5.9,0,0,1-1.75-4.15A5.91,5.91,0,0,1,77.5,65.92a5.85,5.85,0,0,1,1.77,4.15h0a6,6,0,0,1-1.78,4.21A5.88,5.88,0,0,1,73.39,76Zm0-9.81h0a4,4,0,0,0-3.89,3.85,3.93,3.93,0,0,0,1.17,2.73A4,4,0,0,0,73.37,74h0a3.87,3.87,0,0,0,2.69-1.17,4,4,0,0,0,1.19-2.78h0a3.93,3.93,0,0,0-3.89-3.86Zm0,7.42h-.11a3.58,3.58,0,0,1-2.37-6.12,3.6,3.6,0,0,1,2.52-1,3.5,3.5,0,0,1,3.42,3.61,3.58,3.58,0,0,1-1.09,2.54A3.38,3.38,0,0,1,73.42,73.64Zm0-5.1a1.55,1.55,0,0,0,0,3.1,1.43,1.43,0,0,0,1-.39,1.61,1.61,0,0,0,.47-1.12h0a1.48,1.48,0,0,0-1.46-1.59Z"/><path class="cls-2" d="M58.32,70a2.56,2.56,0,1,1-2.6-2.49A2.58,2.58,0,0,1,58.32,70Z"/><path class="cls-2" d="M75.88,70.14a2.48,2.48,0,0,1-2.54,2.5A2.52,2.52,0,0,1,70.88,70a2.5,2.5,0,1,1,5,.1Z"/></svg>