<svg id="Слой_1" data-name="Слой 1" xmlns="http://www.w3.org/2000/svg" viewBox="0 0 137.76 137.76"><defs><style>.cls-1{fill:#737373;}</style></defs><path class="cls-1" d="M70.81,111a63.4,63.4,0,0,1-18.16-2.73,4,4,0,0,1-3.21-4.49c.07-1,.05-2,0-3.13,0-.5,0-1,0-1.49V97.25h.06a23.24,23.24,0,0,1,.12-4.55c1.22-8,7.07-13.18,15.28-13.56a73.18,73.18,0,0,1,10.69.16A15.54,15.54,0,0,1,89.26,92.86a64.68,64.68,0,0,1,.21,7.33c0,1.39,0,2.83,0,4.23a3.79,3.79,0,0,1-2.74,3.77A41,41,0,0,1,73.87,111C72.85,111,71.84,111,70.81,111Zm-17.39-6.69a2.79,2.79,0,0,0,.37.13A58.87,58.87,0,0,0,73.66,107a36.86,36.86,0,0,0,11.61-2.48l.21-.09c0-1.45,0-2.86,0-4.23a59.79,59.79,0,0,0-.19-6.87,11.46,11.46,0,0,0-10.08-10,67.67,67.67,0,0,0-10.1-.14c-6.28.29-10.58,4.08-11.5,10.16a19.63,19.63,0,0,0-.08,3.86c0,.68,0,1.37,0,2v2h-.09a28.63,28.63,0,0,1-.06,2.92Z"/><path class="cls-1" d="M48.1,101c-.43,0-.89,0-1.38-.08a63,63,0,0,1-13.13-2.7,3,3,0,0,1-2.38-3.05c0-1.39,0-2.83-.05-4.22a47,47,0,0,1,.32-8.92A15.45,15.45,0,0,1,46.29,69.34c1,0,2,0,3,0,.46,0,.93,0,1.38,0h4.8a3.13,3.13,0,0,1,3.32,3.15,9.8,9.8,0,0,0,2.59,5.85,2.61,2.61,0,0,1-1,4.6c-6,2.4-8.94,6.89-9,13.72,0,1.65,0,2.79-1,3.65A3.06,3.06,0,0,1,48.1,101ZM35.22,94.56A57.32,57.32,0,0,0,47,97l.28,0v-.33c.12-8,3.54-13.67,10.17-16.84a13.52,13.52,0,0,1-2.61-6.48H50.7c-.49,0-1,0-1.42,0-1,0-1.9,0-2.85,0a11.44,11.44,0,0,0-11,9.38,43.09,43.09,0,0,0-.27,8.16C35.19,92.08,35.23,93.32,35.22,94.56Z"/><path class="cls-1" d="M90.66,101.24a2.93,2.93,0,0,1-2-.74,3.5,3.5,0,0,1-1-2.72,18.53,18.53,0,0,0-1.23-7.43,13.18,13.18,0,0,0-7.52-7.26,2.81,2.81,0,0,1-1.26-5,9.49,9.49,0,0,0,2.42-5.51,3.3,3.3,0,0,1,3.71-3.26c1.13,0,2.25,0,3.44,0a34,34,0,0,1,6.49.29,15.36,15.36,0,0,1,12.93,15.23c0,1,0,2,0,3v3.1c0,1.18,0,2.41,0,3.59a3.71,3.71,0,0,1-2.41,3.82A42.47,42.47,0,0,1,91,101.23ZM81.41,79.81a17.15,17.15,0,0,1,8.67,8.91,21.15,21.15,0,0,1,1.57,8.44,37.46,37.46,0,0,0,11-2.53v0c0-1.26,0-2.53,0-3.75V87.79c0-1,0-2,0-2.92A11.42,11.42,0,0,0,93,73.55a30.84,30.84,0,0,0-5.73-.23c-1.07,0-2.17,0-3.29,0A13.63,13.63,0,0,1,81.41,79.81Z"/><path class="cls-1" d="M69,53.64h-.18A13.57,13.57,0,0,1,55.42,40.2,13.37,13.37,0,0,1,68.91,26.73h0A13.46,13.46,0,0,1,69,53.64Zm-.1-24.91v2a9.4,9.4,0,0,0-9.49,9.48,9.55,9.55,0,0,0,9.47,9.43,9.29,9.29,0,0,0,6.69-2.78,9.4,9.4,0,0,0-6.66-16.13h0Z"/><path class="cls-1" d="M69.4,82.85A12.81,12.81,0,0,1,56.86,70.27,12.67,12.67,0,0,1,69.39,57.6h0a12.52,12.52,0,0,1,8.89,3.67A12.38,12.38,0,0,1,82,70.13a12.7,12.7,0,0,1-12.5,12.72Zm0-21.25h0a8.67,8.67,0,0,0-8.54,8.63,8.86,8.86,0,0,0,8.55,8.62h.07A8.8,8.8,0,0,0,78,70.14a8.45,8.45,0,0,0-2.53-6A8.59,8.59,0,0,0,69.41,61.6Z"/><path class="cls-1" d="M51.27,73A13,13,0,0,1,47,72.26a12.55,12.55,0,0,1,4.17-24.4h0a12.57,12.57,0,0,1,12.57,12A3.77,3.77,0,0,1,62.45,63,10.82,10.82,0,0,0,59,68.82a4.3,4.3,0,0,1-2.37,2.91A11.46,11.46,0,0,1,51.27,73Zm-.15-21.16A8.43,8.43,0,0,0,44,55.67,8.52,8.52,0,0,0,48.3,68.49a8.08,8.08,0,0,0,6.47-.3,1.67,1.67,0,0,0,.32-.21,14.75,14.75,0,0,1,4.62-7.87,8.51,8.51,0,0,0-8.57-8.25h0Z"/><path class="cls-1" d="M86.55,73a10.36,10.36,0,0,1-1.39-.09c-3.52-.44-4.37-1.17-5.35-4.55A10.07,10.07,0,0,0,76,62.74a4,4,0,0,1-1.7-4.12A12.45,12.45,0,0,1,86.74,47.86h0A12.37,12.37,0,0,1,99.3,60.09,12.55,12.55,0,0,1,87.89,72.92,12.82,12.82,0,0,1,86.55,73Zm-2.42-4.32a10,10,0,0,0,1.53.26,8.88,8.88,0,0,0,1.87,0A8.55,8.55,0,0,0,95.3,60.2a8.43,8.43,0,0,0-8.55-8.34h0a8.41,8.41,0,0,0-8.5,7.38.62.62,0,0,0,0,.17.35.35,0,0,0,.11.09,14.23,14.23,0,0,1,5.32,7.74A11.39,11.39,0,0,0,84.13,68.67Z"/><path class="cls-1" d="M63.83,61.67a2.44,2.44,0,0,1-1.19-.31,2.67,2.67,0,0,1-1.33-2.21,12.06,12.06,0,0,0-1.53-4.69,2.76,2.76,0,0,1-.18-2.89,2.85,2.85,0,0,1,2.68-1.35h13a3.19,3.19,0,0,1,2.89,1.37A2.94,2.94,0,0,1,78,54.66a10.36,10.36,0,0,0-1.34,3.86A2.8,2.8,0,0,1,72.76,61a9.9,9.9,0,0,0-7.55.36A3.16,3.16,0,0,1,63.83,61.67Zm.28-7.46A15.4,15.4,0,0,1,65,57.1a13.84,13.84,0,0,1,7.85-.25,14.41,14.41,0,0,1,.87-2.65H71v0H64.11Z"/></svg>