<svg id="Слой_1" data-name="Слой 1" xmlns="http://www.w3.org/2000/svg" viewBox="0 0 137.76 137.76"><defs><style>.cls-1{fill:#737373;}.cls-2{fill:none;}.cls-3{fill:#fff;}</style></defs><path class="cls-1" d="M43.05,64.45V27.69c0-2.6.21-2.8,2.82-2.8,13.19,0,26.39,0,39.58,0a4.33,4.33,0,0,1,3.45,1.46c3.73,3.9,7.53,7.74,11.32,11.58a3,3,0,0,1,.94,2.25q0,30.76,0,61.55c0,1.82-.39,2.19-2.27,2.19q-26.78,0-53.54,0c-2,0-2.35-.34-2.35-2.4q0-18.52,0-37ZM72.1,101q12.27,0,24.53,0c1.05,0,1.65-.19,1.65-1.46q0-28.68,0-57.35c0-1.08-.34-1.51-1.46-1.49-2.58.05-5.17,0-7.75,0-3,0-4-.93-4-3.92,0-2.49.17-5,.21-7.46,0-1.84,0-1.87-1.9-1.87q-17.76,0-35.52,0c-2,0-2,0-2,2.07q0,34.74,0,69.47c0,2,0,2,1.93,2ZM88,29.74c0,2.69,0,5,0,7.32,0,.59.43.8,1,.81q3.09,0,6.17,0c.61,0,.82-.27.34-.75C93,34.75,90.65,32.4,88,29.74Z"/><path class="cls-1" d="M70.64,104.27H45.36c-2.22,0-2.73-.52-2.73-2.78V74.55l0-46.86c0-2.79.39-3.18,3.18-3.18h9.45q15.07,0,30.14,0h0a4.68,4.68,0,0,1,3.69,1.57c3.65,3.81,7.42,7.62,11.07,11.31l.25.26a3.38,3.38,0,0,1,1.05,2.52V101.7c0,2-.57,2.57-2.65,2.57ZM43.38,64.82v36.67c0,1.86.17,2,2,2H98.9c1.69,0,1.9-.21,1.9-1.82V40.15a2.65,2.65,0,0,0-.83-2l-.26-.26c-3.65-3.69-7.42-7.51-11.07-11.32a4,4,0,0,0-3.15-1.34h0q-15.06,0-30.14,0H45.86c-2.39,0-2.43,0-2.43,2.43V64.82ZM96.65,101.4h0q-9.33,0-18.66,0H68.64q-10.38,0-20.78,0c-2.14,0-2.31-.17-2.31-2.36l0-69.47c0-2.26.18-2.45,2.38-2.45H83.4c1,0,1.58,0,1.94.37s.35.89.33,1.89,0,2.13-.09,3.19c-.06,1.4-.11,2.84-.11,4.26,0,2.75.81,3.55,3.61,3.55h2.15c1.83,0,3.73,0,5.59,0a1.84,1.84,0,0,1,1.4.42,1.9,1.9,0,0,1,.45,1.45c0,21.36,0,40.11,0,57.35a1.86,1.86,0,0,1-.44,1.39A2.13,2.13,0,0,1,96.65,101.4Zm-12.82-.77q6.4,0,12.8,0h0c.57,0,.87-.07,1-.23a1.22,1.22,0,0,0,.22-.86c0-17.23,0-36,0-57.35a1.28,1.28,0,0,0-.23-.92,1.2,1.2,0,0,0-.85-.2c-1.87,0-3.77,0-5.61,0H89.08c-3.22,0-4.36-1.13-4.36-4.3,0-1.43,0-2.88.11-4.28,0-1.06.08-2.12.09-3.18A3.07,3.07,0,0,0,84.8,28a3,3,0,0,0-1.4-.15H47.88c-1.63,0-1.63,0-1.63,1.7L46.3,99c0,1.61,0,1.61,1.56,1.61q10.39,0,20.78,0H83.83ZM93,38.25H88.91a1.18,1.18,0,0,1-1.33-1.17c0-1.68,0-3.36,0-5.18V28.84l2.73,2.7c1.87,1.85,3.63,3.58,5.37,5.32a.88.88,0,0,1,.34.94c-.09.2-.32.45-.93.45Zm-4.67-7.62v1.26c0,1.82,0,3.49,0,5.17,0,.15,0,.43.58.43,2.06,0,4.11,0,6.17,0h.17l-.1-.1c-1.74-1.74-3.5-3.47-5.37-5.32Zm7,6.83Z"/><path class="cls-1" d="M72,64.42H53.3c-2,0-2.38-.33-2.38-2.37,0-2.91,0-5.82,0-8.73,0-1.66.57-2.22,2.21-2.22q18.95,0,37.9,0c1.65,0,2.21.56,2.23,2.2,0,3,0,6,0,9,0,1.74-.4,2.11-2.2,2.11Zm0-10.45C66.54,54,61,54,55.47,54c-1.31,0-1.77.42-1.69,1.7a29.24,29.24,0,0,1,0,4.08c-.11,1.43.43,1.87,1.85,1.86,6.85-.06,13.7,0,20.56,0,4.13,0,8.26-.05,12.39,0,1.44,0,1.92-.48,1.82-1.88a29.24,29.24,0,0,1,0-4.08c.09-1.31-.43-1.7-1.7-1.68C83.16,54,77.62,54,72.08,54Z"/><path class="cls-1" d="M82.42,64.79H53.3c-2.26,0-2.75-.49-2.76-2.74q0-4.36,0-8.73c0-1.87.74-2.6,2.58-2.6H91c1.86,0,2.59.72,2.6,2.57,0,2.78,0,5.73,0,9,0,1.94-.57,2.48-2.58,2.48ZM72,64h19c1.61,0,1.83-.21,1.84-1.74,0-3.28,0-6.22,0-9,0-1.43-.41-1.82-1.85-1.82H53.13c-1.42,0-1.82.4-1.83,1.85q0,4.36,0,8.73c0,1.82.18,2,2,2H72ZM88.68,62h-.11c-2.95-.05-6,0-8.86,0H70.77c-5,0-10.09,0-15.14,0a2.36,2.36,0,0,1-1.81-.54,2.16,2.16,0,0,1-.41-1.71,30.06,30.06,0,0,0,0-4,2,2,0,0,1,.41-1.61,2.05,2.05,0,0,1,1.65-.5c4.06,0,8.2,0,12.19,0h8.86c4,0,8.12,0,12.17,0a2.3,2.3,0,0,1,1.68.51,2,2,0,0,1,.41,1.58,27.1,27.1,0,0,0,0,4A1.81,1.81,0,0,1,88.68,62Zm-5.47-.79c1.79,0,3.59,0,5.37,0a1.58,1.58,0,0,0,1.22-.29A1.55,1.55,0,0,0,90,59.74a28.46,28.46,0,0,1,0-4.13,1.38,1.38,0,0,0-.2-1,1.65,1.65,0,0,0-1.13-.27c-4.06,0-8.19,0-12.18,0H67.66c-4,0-8.13,0-12.2,0-.58,0-.92.08-1.1.27a1.38,1.38,0,0,0-.2,1,29.83,29.83,0,0,1,0,4.13,1.54,1.54,0,0,0,.22,1.15,1.7,1.7,0,0,0,1.26.3c5,0,10.18,0,15.14,0H83.21Z"/><path class="cls-1" d="M72,72.31c-7.33,0-14.65,0-22,0-1.25,0-1.83-.34-1.72-1.67.07-.82.37-1.22,1.19-1.21H94.05c.83,0,1.73-.16,1.79,1.17s-.38,1.72-1.68,1.72C86.79,72.29,79.41,72.31,72,72.31Z"/><path class="cls-1" d="M94.19,72.71h0c-5.51,0-11,0-16.53,0H66.54c-5.49,0-11,0-16.48,0a2.32,2.32,0,0,1-1.71-.52A1.94,1.94,0,0,1,48,70.63c.08-1,.58-1.55,1.53-1.55H94.28c.74,0,1.86,0,1.94,1.53a1.72,1.72,0,0,1-2,2.11Zm-11-.78q5.48,0,11,0h0a1.41,1.41,0,0,0,1-.27,1.37,1.37,0,0,0,.22-1c0-.8-.33-.83-1.18-.82H49.53c-.53,0-.76.11-.82.86a1.28,1.28,0,0,0,.19,1c.18.19.53.26,1.16.28,5.49,0,11,0,16.48,0H83.21Z"/><path class="cls-1" d="M62.93,32.77c4.27,0,8.54,0,12.8,0,1.11,0,1.78.18,1.76,1.52s-.84,1.34-1.78,1.34q-12.81,0-25.61,0c-1.09,0-1.81-.16-1.75-1.52,0-1.08.54-1.35,1.5-1.34C54.21,32.78,58.57,32.77,62.93,32.77Z"/><path class="cls-1" d="M50.08,36a2.27,2.27,0,0,1-1.69-.48A1.82,1.82,0,0,1,48,34.08c.06-1.49,1-1.7,1.84-1.7h0q4.9,0,9.81,0h3.27v0h3.61q4.6,0,9.19,0a2.27,2.27,0,0,1,1.69.46,1.9,1.9,0,0,1,.44,1.44c0,1.71-1.24,1.7-2.11,1.7Q62.88,36,50.1,36Zm-.26-2.86c-.84,0-1.06.21-1.09,1a1.21,1.21,0,0,0,.2.88,1.72,1.72,0,0,0,1.15.25h0q12.8,0,25.61,0h0c1,0,1.35,0,1.36-1a1.27,1.27,0,0,0-.22-.9c-.18-.18-.51-.23-1.15-.24-3.07,0-6.13,0-9.2,0H59.66q-4.9,0-9.82,0Z"/><path class="cls-1" d="M62.9,40.73c-4.28,0-8.55,0-12.82,0-1,0-1.72,0-1.74-1.37s.71-1.5,1.78-1.5q12.81,0,25.63,0c1.1,0,1.8.19,1.74,1.53,0,1.08-.53,1.35-1.5,1.34C71.63,40.72,67.26,40.73,62.9,40.73Z"/><path class="cls-1" d="M76,41.12h0c-3.25,0-6.51,0-9.76,0H62.9v0H59.19c-3,0-6.07,0-9.11,0-.88,0-2.09,0-2.12-1.75A1.9,1.9,0,0,1,48.4,38a2.3,2.3,0,0,1,1.69-.46h0q12.81,0,25.63,0a2.23,2.23,0,0,1,1.7.49,1.89,1.89,0,0,1,.42,1.44C77.8,40.91,76.91,41.12,76,41.12Zm-6-.77,6,0h0c.83,0,1-.21,1.09-1a1.21,1.21,0,0,0-.21-.89c-.17-.18-.5-.26-1.14-.26h0q-12.81,0-25.63,0c-.59,0-1,0-1.18.24a1.21,1.21,0,0,0-.23.87c0,1,.37,1,1.37,1,3,0,6.07,0,9.11,0H70Z"/><path class="cls-1" d="M62.93,43.2c4.32,0,8.64,0,13,0,1.12,0,1.63.33,1.6,1.53S77,46.08,76,46.08c-4,0-8.08,0-12.12,0H50.09c-1,0-1.73,0-1.75-1.37s.68-1.51,1.76-1.51C54.38,43.22,58.65,43.2,62.93,43.2Z"/><path class="cls-1" d="M76,46.45h0c-2.89,0-5.78,0-8.68,0H50.09c-.87,0-2.1,0-2.13-1.75a1.91,1.91,0,0,1,.44-1.42,2.3,2.3,0,0,1,1.71-.46c3.06,0,6.12,0,9.18,0h7.17c3.14,0,6.29,0,9.43,0a2.12,2.12,0,0,1,1.54.47,1.9,1.9,0,0,1,.44,1.45C77.83,46.25,76.88,46.45,76,46.45Zm-5.28-.76h5.29c.83,0,1-.21,1.07-1a1.25,1.25,0,0,0-.22-.91,1.62,1.62,0,0,0-1-.24c-3.15,0-6.29,0-9.44,0H59.29c-3.06,0-6.13,0-9.19,0a1.75,1.75,0,0,0-1.17.24,1.3,1.3,0,0,0-.22.88c0,.94.35,1,1.3,1H70.76Z"/><path class="cls-1" d="M85.2,74.76c3,0,6.1,0,9.15,0,1.07,0,1.5.36,1.5,1.47s-.51,1.44-1.54,1.44q-9.09,0-18.16,0c-1,0-1.57-.23-1.58-1.41s.51-1.52,1.62-1.5C79.19,74.79,82.19,74.76,85.2,74.76Z"/><path class="cls-1" d="M76.12,78c-.94,0-1.91-.22-1.92-1.77a1.89,1.89,0,0,1,.44-1.44,2.15,2.15,0,0,1,1.55-.45c2.13,0,4.25,0,6.37,0h5.13c2.22,0,4.44,0,6.65,0a1.62,1.62,0,0,1,1.89,1.85,1.8,1.8,0,0,1-.44,1.36,1.86,1.86,0,0,1-1.48.45c-5.94,0-12,0-18.16,0Zm0-2.91a1.39,1.39,0,0,0-.94.23,1.27,1.27,0,0,0-.22.9c0,.83.24,1,1.17,1h0c6.1,0,12.21,0,18.16,0,.49,0,.8-.07,1-.23a1.12,1.12,0,0,0,.22-.82,1.27,1.27,0,0,0-.23-.89,1.34,1.34,0,0,0-.9-.22c-2.22,0-4.44,0-6.66,0H82.56c-2.12,0-4.25,0-6.38,0Z"/><path class="cls-2" d="M48.31,111c.32.68.74,1.41.82,1.62-.1-.24-.56-1.06-.78-1.7Z"/><path class="cls-2" d="M49.66,111.28a8.58,8.58,0,0,0-.95-1.22l-.05.12A4,4,0,0,1,49.66,111.28Z"/><path class="cls-3" d="M58.28,86.5c-.14-2.77-.44-3-3.17-3.21a6.16,6.16,0,0,1-4.38-1.8,8.22,8.22,0,0,0-.9-.76,2,2,0,0,0-2.89,0c-.52.42-1,.83-1.55,1.29a4.24,4.24,0,0,1-2.83,1.16,20.43,20.43,0,0,0-2.21.23,1.87,1.87,0,0,0-1.75,1.7c-.12.78-.18,1.57-.23,2.36a4.18,4.18,0,0,1-1,2.6c-.53.59-1,1.21-1.51,1.83a2,2,0,0,0,0,2.62c.53.68,1.15,1.29,1.61,2a6.36,6.36,0,0,1,.86,1.94,21.77,21.77,0,0,1,.27,2.56,2.06,2.06,0,0,0,2,2.07c.65.07,1.29.13,1.94.17a4.18,4.18,0,0,1,2.78,1.1,17.6,17.6,0,0,0,1.78,1.45,9.69,9.69,0,0,0,1.37.68,10.07,10.07,0,0,0,1.71-1.08,6.84,6.84,0,0,1,5.11-2.26,6.69,6.69,0,0,0,.9-.06,2.05,2.05,0,0,0,2-2c0-.3.07-.61.08-.91a5.85,5.85,0,0,1,1.79-4.59,1.92,1.92,0,0,0,.18-.22c1.62-2,1.67-2.41,0-4.33A7.11,7.11,0,0,1,58.28,86.5Z"/><path class="cls-3" d="M44.29,105.06a10.62,10.62,0,0,0-1.06-.63l-3.95,9.49.15,0,1.94-.53c1.45-.4,1.64-.32,2.37,1l1.07,1.94c1.27-3,2.47-5.93,3.7-8.9a3.74,3.74,0,0,1-2.66-1.14C45.34,105.9,44.83,105.46,44.29,105.06Z"/><path class="cls-3" d="M50.22,112.2,52,116.38c.48-.87.88-1.61,1.29-2.33a1.25,1.25,0,0,1,1.72-.73c.8.21,1.6.44,2.57.72-1.35-3.25-2.66-6.38-4-9.62-.42.25-.79.43-1.11.67-.77.6-1.53,1.21-2.27,1.85a1.88,1.88,0,0,0-.43.69c-.35.81-.68,1.62-1,2.43a8.58,8.58,0,0,1,.95,1.22A6.34,6.34,0,0,1,50.22,112.2Z"/><path class="cls-1" d="M61.24,90.44a5.53,5.53,0,0,1-1.81-4.35,5.49,5.49,0,0,0,0-.7c-.17-1.9-1.25-3.14-3.14-3.16a7.84,7.84,0,0,1-5.65-2.35c-1.36-1.32-2.93-1.23-4.4,0a10.13,10.13,0,0,0-.8.67,4.67,4.67,0,0,1-3.64,1.57,8.92,8.92,0,0,0-1.25.11,3.12,3.12,0,0,0-3.08,3.16,7.85,7.85,0,0,1-2.14,5.46c-1.61,1.71-1.58,3.13,0,4.87a6.81,6.81,0,0,1,2.08,5,3,3,0,0,0,0,.42,3.19,3.19,0,0,0,3.14,3.18c.46,0,.91.1,1.42.16-.11.27-.18.48-.27.7-1.25,3-2.51,6-3.73,9a1.15,1.15,0,0,0,0,1,1.19,1.19,0,0,0,1,.17c1-.21,1.93-.5,2.88-.8a.56.56,0,0,1,.77.34c.48.93,1,1.85,1.5,2.75.41.7,1.08.66,1.45-.06a5.72,5.72,0,0,0,.24-.57q1.24-3,2.48-5.94c-.29-.63-.49-1.23-.24-1.32s.38.11.64.37c.34-.81.67-1.62,1-2.43a1.88,1.88,0,0,1,.43-.69c.74-.64,1.5-1.25,2.27-1.85.32-.24.69-.42,1.11-.67,1.34,3.24,2.65,6.37,4,9.62-1-.28-1.77-.51-2.57-.72a1.25,1.25,0,0,0-1.72.73c-.41.72-.81,1.46-1.29,2.33l-1.74-4.18a9.76,9.76,0,0,0-.56-.92,4,4,0,0,0-1-1.1c-.11.25-.21.5-.31.75.22.64.68,1.46.78,1.7.66,1.58,1.31,3.18,2,4.75a1.21,1.21,0,0,0,.77.64c.24,0,.61-.29.77-.56.51-.82,1-1.69,1.41-2.56a.64.64,0,0,1,.93-.37,24.1,24.1,0,0,0,2.61.73,1.43,1.43,0,0,0,1.12-.13,1.38,1.38,0,0,0,0-1.13c-.75-1.9-1.56-3.78-2.35-5.66-.54-1.3-1.07-2.6-1.63-3.94l1.54-.16a3.11,3.11,0,0,0,3-2.72c.13-.78.18-1.57.24-2.36A3.31,3.31,0,0,1,60.41,97,22.66,22.66,0,0,0,62,95.07a3,3,0,0,0,0-3.65A6.22,6.22,0,0,0,61.24,90.44ZM44.81,116.38l-1.07-1.94c-.73-1.32-.92-1.4-2.37-1l-1.94.53-.15,0,3.95-9.49a10.62,10.62,0,0,1,1.06.63c.54.4,1.05.84,1.56,1.28a3.74,3.74,0,0,0,2.66,1.14C47.28,110.45,46.08,113.33,44.81,116.38Zm15.45-21a1.92,1.92,0,0,1-.18.22,5.85,5.85,0,0,0-1.79,4.59c0,.3,0,.61-.08.91a2.05,2.05,0,0,1-2,2,6.69,6.69,0,0,1-.9.06,6.84,6.84,0,0,0-5.11,2.26,10.07,10.07,0,0,1-1.71,1.08,9.69,9.69,0,0,1-1.37-.68,17.6,17.6,0,0,1-1.78-1.45,4.18,4.18,0,0,0-2.78-1.1c-.65,0-1.29-.1-1.94-.17a2.06,2.06,0,0,1-2-2.07,21.77,21.77,0,0,0-.27-2.56,6.36,6.36,0,0,0-.86-1.94c-.46-.72-1.08-1.33-1.61-2a2,2,0,0,1,0-2.62c.49-.62,1-1.24,1.51-1.83a4.18,4.18,0,0,0,1-2.6c.05-.79.11-1.58.23-2.36a1.87,1.87,0,0,1,1.75-1.7,20.43,20.43,0,0,1,2.21-.23A4.24,4.24,0,0,0,45.39,82c.5-.46,1-.87,1.55-1.29a2,2,0,0,1,2.89,0,8.22,8.22,0,0,1,.9.76,6.16,6.16,0,0,0,4.38,1.8c2.73.16,3,.44,3.17,3.21a7.11,7.11,0,0,0,1.93,4.55C61.93,93,61.88,93.41,60.26,95.38Z"/><path class="cls-1" d="M44.86,119.08a1.84,1.84,0,0,1-1.58-1c-.45-.77-.91-1.61-1.4-2.54-1,.3-1.81.54-2.67.73A1.78,1.78,0,0,1,37,113.74c.93-2.28,1.88-4.55,2.82-6.82l.7-1.67h-.09a4.19,4.19,0,0,1-4.06-4.11V101a2.07,2.07,0,0,1,0-.43,5.8,5.8,0,0,0-1.82-4.26c-1.94-2.13-1.94-4.16,0-6.22a6.82,6.82,0,0,0,1.87-4.81,4.12,4.12,0,0,1,4-4.12l.33,0a5.12,5.12,0,0,1,1.07-.08,3.73,3.73,0,0,0,2.89-1.28,5.3,5.3,0,0,1,.67-.57l.2-.17a4,4,0,0,1,5.73.11,6.89,6.89,0,0,0,5,2.06,4.09,4.09,0,0,1,4.13,4.07c0,.33,0,.57,0,.8a4.55,4.55,0,0,0,1.49,3.61h0a6.54,6.54,0,0,1,.91,1.13,4,4,0,0,1,0,4.81,23.24,23.24,0,0,1-1.65,2,2.34,2.34,0,0,0-.61,1.53,22.52,22.52,0,0,1-.25,2.46,4.11,4.11,0,0,1-3.87,3.56l-.19,0L58,109.54c.57,1.36,1.15,2.72,1.69,4.1a2.23,2.23,0,0,1-.22,2.16,2.3,2.3,0,0,1-2.06.44,24.59,24.59,0,0,1-2.53-.7c-.48.94-.92,1.73-1.36,2.45a2,2,0,0,1-1.73,1,2.18,2.18,0,0,1-1.57-1.23c-.53-1.19-1-2.39-1.52-3.58l-.33-.78-1.69,4.07a3.48,3.48,0,0,1-.21.48,1.86,1.86,0,0,1-1.58,1.1Zm-2.37-6.84c.93,0,1.45.5,2.13,1.72l.07.12,2.41-5.81a5.84,5.84,0,0,1-1.9-1.17l-.1-.09c-.45-.39-.91-.78-1.38-1.14l-2.78,6.65.16,0A5.18,5.18,0,0,1,42.49,112.24Zm7.37-2.33a8.62,8.62,0,0,1,.63.8,10.57,10.57,0,0,1,.65,1.11l.94,2.26.3-.52a2.22,2.22,0,0,1,2.85-1.21l.59.16-2.76-6.64h0c-.81.63-1.54,1.22-2.22,1.82a1,1,0,0,0-.17.31Zm-1.47-28.8a1.4,1.4,0,0,0-.82.4l-.21.16c-.44.36-.88.71-1.29,1.09a5.29,5.29,0,0,1-3.47,1.42,19.82,19.82,0,0,0-2,.2l-.13,0a.9.9,0,0,0-.9.86c-.12.77-.18,1.58-.22,2.28a5.17,5.17,0,0,1-1.29,3.2c-.51.58-1,1.2-1.46,1.78a1,1,0,0,0,0,1.39c.19.26.4.5.61.74a12.88,12.88,0,0,1,1,1.34,7,7,0,0,1,1,2.25,11.12,11.12,0,0,1,.23,1.86c0,.27,0,.55.06.83.09.8.37,1.09,1.16,1.17.62.07,1.25.13,1.88.17A5.19,5.19,0,0,1,46,103.64,18.26,18.26,0,0,0,47.67,105a5.1,5.1,0,0,0,.67.34l.07,0,.12-.07a4.46,4.46,0,0,0,.95-.62,7.76,7.76,0,0,1,5.85-2.53,4.59,4.59,0,0,0,.7,0c.83-.1,1.07-.35,1.18-1.15a6.87,6.87,0,0,0,.08-.78,6.83,6.83,0,0,1,2.12-5.32.49.49,0,0,1,.07-.11c1.29-1.57,1.29-1.57,0-3a8.06,8.06,0,0,1-2.19-5.17c-.11-2.13-.11-2.13-2.23-2.26a7.23,7.23,0,0,1-5-2.12,5.49,5.49,0,0,0-.52-.44l-.3-.23A1.31,1.31,0,0,0,48.39,81.11Z"/><path class="cls-1" d="M50.22,112.2a6.34,6.34,0,0,0-.56-.92A9.76,9.76,0,0,1,50.22,112.2Z"/><path class="cls-1" d="M49.3,112.6a6.9,6.9,0,0,0-.47-.76l1.66-1.13a8.74,8.74,0,0,1,.65,1.1h0Z"/><path class="cls-1" d="M48.35,110.1a.4.4,0,0,1,.31.08l.05-.12c-.26-.26-.49-.43-.64-.37s0,.69.24,1.32l0-.08C48.2,110.52,48.15,110.18,48.35,110.1Z"/><path class="cls-1" d="M48.36,113.36l-1-1.94a2.63,2.63,0,0,1-.35-2,1.15,1.15,0,0,1,.66-.64,1.64,1.64,0,0,1,1.71.6l.46.47L49.42,111v0Z"/><path class="cls-1" d="M48.35,110.93c.1-.25.2-.5.31-.75a.4.4,0,0,0-.31-.08C48.15,110.18,48.2,110.52,48.35,110.93Z"/><path class="cls-1" d="M48.28,113.71l-.88-2.45c-.52-1.48.24-2,.59-2.09a1.32,1.32,0,0,1,1.18.15l.75.45Zm0-2.83-.09.16a.74.74,0,0,0,.55,0,.86.86,0,0,0,.44-.39l-.79.28Z"/></svg>