<svg id="Слой_1" data-name="Слой 1" xmlns="http://www.w3.org/2000/svg" viewBox="0 0 137.76 137.76"><defs><style>.cls-1{fill:#e3e3e3;}.cls-2{fill:#737373;}.cls-3{fill:#00adad;}</style></defs><path class="cls-1" d="M89.67,79.35c-.71-2.58-1.41-5.16-2.14-7.83L36.84,85.59a2.65,2.65,0,0,0,0,.41c1.61,5.74,3.23,11.47,4.81,17.22.31,1.1,1,1,1.78.73Q67.3,97.32,91.18,90.72c1.27-.35,1.44-.88,1.09-2.06C91.34,85.58,90.53,82.45,89.67,79.35Z"/><path class="cls-1" d="M84.32,60.06l-4.88-1q-14.35,4-28.72,8c-5.43,1.51-10.86,3-16.28,4.58-.64.18-1.47.27-1.21,1.25.49,1.94,1.06,3.86,1.62,5.89L85.57,64.62C85.12,63,84.68,61.51,84.32,60.06Z"/><path class="cls-1" d="M91.87,61.65l-1.71-.36a11.93,11.93,0,0,0,1.17.26Z"/><path class="cls-1" d="M101.09,67.56c-1.59-.36-3.19-.68-4.79-1a1.76,1.76,0,0,0-2.42,1.52c-.41,1.73-.75,3.47-1.1,5.21a1.61,1.61,0,0,0,1.28,2.08c1.91.46,3.85.82,5.39,1.15,1.55.13,2-.58,2.27-1.55.37-1.59.7-3.19,1-4.78A1.9,1.9,0,0,0,101.09,67.56Z"/><path class="cls-1" d="M84.15,59.37c-.27-1.19-.81-1.43-2-1.11L79.44,59l4.88,1C84.26,59.83,84.2,59.6,84.15,59.37Z"/><path class="cls-1" d="M109.65,56.38l-57-12.09L50.57,53l.68.14c1.5.29,3,.56,4.45.87,5.22,1.11,10.44,2.27,15.67,3.33a6.8,6.8,0,0,0,2.8-.13c2.67-.65,5.29-1.45,8-2.12,2.28-.58,4.43.42,4.81,2.67a4,4,0,0,0,3.23,3.58l1.71.36c4.9.86,9.75,2,14.62,3,.34.07.68.17,1.08.27l.32.07Z"/><path class="cls-2" d="M91.87,61.65l-.54-.1a11.93,11.93,0,0,1-1.17-.26,4,4,0,0,1-3.23-3.58c-.38-2.25-2.53-3.25-4.81-2.67-2.66.67-5.28,1.47-8,2.12a6.8,6.8,0,0,1-2.8.13C66.14,56.23,60.92,55.07,55.7,54c-1.47-.31-3-.58-4.45-.87L50.51,53c-.74,3.46-1.47,6.71-2.1,10a2.09,2.09,0,0,1-1.75,1.91c-4.47,1.17-8.92,2.44-13.37,3.71-2.84.81-3.89,2.67-3.11,5.5q4.16,15,8.36,30.05c.77,2.75,2.63,3.84,5.38,3.08q24.22-6.69,48.44-13.43c2.91-.81,3.91-2.71,3.11-5.63-.41-1.51-.83-3-1.29-4.68l4.27.9c3.81.79,5.4-.25,6.18-4,1-5,2.1-10.06,3.2-15.28l-.26-.07c-.4-.1-.74-.2-1.08-.27C101.62,63.66,96.77,62.51,91.87,61.65ZM33.23,72.84c-.26-1,.57-1.07,1.21-1.25,5.42-1.53,10.85-3.07,16.28-4.58q14.36-4,28.72-8l2.76-.77c1.14-.32,1.68-.08,2,1.11,0,.23.11.46.17.69.36,1.45.8,2.91,1.25,4.56L34.85,78.73C34.29,76.7,33.72,74.78,33.23,72.84Zm58,17.88Q67.29,97.29,43.43,104c-.81.22-1.47.37-1.78-.73-1.58-5.75-3.2-11.48-4.81-17.22a2.65,2.65,0,0,1,0-.41L87.53,71.52c.73,2.67,1.43,5.25,2.14,7.83.86,3.1,1.67,6.23,2.6,9.31C92.62,89.84,92.45,90.37,91.18,90.72Zm11.58-20.53c-.34,1.59-.67,3.19-1,4.78-.22,1-.72,1.68-2.27,1.55-1.54-.33-3.48-.69-5.39-1.15a1.61,1.61,0,0,1-1.28-2.08c.35-1.74.69-3.48,1.1-5.21a1.76,1.76,0,0,1,2.42-1.52c1.6.32,3.2.64,4.79,1A1.9,1.9,0,0,1,102.76,70.19Z"/><path class="cls-2" d="M109.65,56.38,52.58,44.29a65.37,65.37,0,0,1,1.34-6.77c.54-1.84,2.46-2.65,4.47-2.23q14.35,3,28.68,6L107,45.52c3.22.67,4.38,2.34,3.83,5.58C110.53,52.8,110,54.46,109.65,56.38Z"/><path class="cls-1" d="M36.84,85.59,87.53,71.52c.73,2.67,1.43,5.25,2.14,7.83.86,3.1,1.67,6.23,2.6,9.31.35,1.18.18,1.71-1.09,2.06Q67.29,97.29,43.43,104c-.81.22-1.47.37-1.78-.73-1.58-5.75-3.2-11.48-4.81-17.22A2.65,2.65,0,0,1,36.84,85.59Zm15.54,11.7c-.6-2.2-1.1-4.1-1.64-6-.42-1.45-1.11-1.86-2.59-1.47-1.68.43-3.33,1-5,1.42a1.69,1.69,0,0,0-1.34,2.3c.45,1.77.93,3.53,1.46,5.27.29,1,.92,1.65,2,1.36,1.91-.48,3.82-1,5.68-1.62C51.56,98.37,52,97.69,52.38,97.29Z"/><path class="cls-1" d="M85.57,64.62,34.85,78.73c-.56-2-1.13-4-1.62-5.89-.26-1,.57-1.07,1.21-1.25,5.42-1.53,10.85-3.07,16.28-4.58,10.49-2.92,21-5.81,31.48-8.75,1.14-.32,1.68-.08,2,1.11C84.53,61.06,85.05,62.71,85.57,64.62Z"/><path class="cls-1" d="M99.45,76.52c-1.54-.33-3.48-.69-5.39-1.15a1.61,1.61,0,0,1-1.28-2.08c.35-1.74.69-3.48,1.1-5.21a1.76,1.76,0,0,1,2.42-1.52c1.6.32,3.2.64,4.79,1a1.9,1.9,0,0,1,1.67,2.63c-.34,1.59-.67,3.19-1,4.78C101.5,75.94,101,76.65,99.45,76.52Z"/><path class="cls-2" d="M52.38,97.29c-.42.4-.82,1.08-1.38,1.27-1.86.64-3.77,1.14-5.68,1.62-1.12.29-1.75-.4-2-1.36-.53-1.74-1-3.5-1.46-5.27a1.69,1.69,0,0,1,1.34-2.3c1.66-.46,3.31-1,5-1.42,1.48-.39,2.17,0,2.59,1.47C51.28,93.19,51.78,95.09,52.38,97.29Z"/><path class="cls-3" d="M68.88,137.76a68.88,68.88,0,1,1,68.88-68.88A69,69,0,0,1,68.88,137.76ZM68.88,4a64.88,64.88,0,1,0,64.88,64.88A64.95,64.95,0,0,0,68.88,4Z"/></svg>