<svg id="Слой_1" data-name="Слой 1" xmlns="http://www.w3.org/2000/svg" viewBox="0 0 137.76 137.76"><defs><style>.cls-1{fill:#00adad;}.cls-2{fill:#e3e3e3;}.cls-3{fill:#737373;}.cls-4{fill:#fff;}</style></defs><path class="cls-1" d="M68.88,137.76a68.88,68.88,0,1,1,68.88-68.88A69,69,0,0,1,68.88,137.76ZM68.88,4a64.88,64.88,0,1,0,64.88,64.88A64.95,64.95,0,0,0,68.88,4Z"/><polygon class="cls-2" points="103.04 86.1 66.46 104.07 34.57 84.18 74.05 72.41 103.04 86.1"/><path class="cls-3" d="M102.1,84.48l-32,15.74-4.54,2.23h1.89l-27.9-17.4-4-2.49L35.07,86,69.58,75.7l5-1.48L73.1,74,98.5,86l3.6,1.7c2.17,1,4.07-2.2,1.89-3.24L75.82,71.18a4.69,4.69,0,0,0-1.77-.65,4.84,4.84,0,0,0-1.3.31L67,72.55l-19.44,5.8-13.51,4a1.9,1.9,0,0,0-.45,3.42L62.87,104c1.34.83,2.9,2.31,4.55,1.64,1.24-.5,2.44-1.2,3.65-1.79l18.74-9.2,14.18-7C106.16,86.66,104.26,83.42,102.1,84.48Z"/><polygon class="cls-2" points="103.04 75.06 66.46 93.03 34.57 73.14 74.05 61.37 103.04 75.06"/><path class="cls-3" d="M102.1,73.44l-32,15.74-4.54,2.23h1.89L39.51,74l-4-2.48L35.07,75,69.58,64.66l5-1.48L73.1,63,98.5,75l3.6,1.7c2.17,1,4.07-2.2,1.89-3.24L75.82,60.14a4.69,4.69,0,0,0-1.77-.65,4.84,4.84,0,0,0-1.3.31L67,61.51l-19.44,5.8-13.51,4a1.9,1.9,0,0,0-.45,3.42L62.87,93c1.34.84,2.9,2.31,4.55,1.65,1.24-.51,2.44-1.21,3.65-1.8l18.74-9.2,14.18-7C106.16,75.62,104.26,72.38,102.1,73.44Z"/><polygon class="cls-2" points="103.04 64.03 66.46 81.99 34.57 62.1 74.05 50.33 103.04 64.03"/><path class="cls-3" d="M102.1,62.41l-32,15.73-4.54,2.23h1.89L39.51,63l-4-2.49-.45,3.42L69.58,53.62l5-1.48L73.1,52l25.4,12,3.6,1.7c2.17,1,4.07-2.2,1.89-3.23L75.82,49.1a4.67,4.67,0,0,0-1.77-.64,4.82,4.82,0,0,0-1.3.3L67,50.47l-19.44,5.8-13.51,4a1.9,1.9,0,0,0-.45,3.42L62.87,82c1.34.84,2.9,2.32,4.55,1.65,1.24-.51,2.44-1.21,3.65-1.8l18.74-9.2,14.18-7C106.16,64.58,104.26,61.34,102.1,62.41Z"/><polygon class="cls-4" points="103.04 52.98 66.46 70.95 34.57 51.07 74.05 39.29 103.04 52.98"/><path class="cls-3" d="M102.1,51.37l-32,15.73-4.54,2.23h1.89L39.51,51.94l-4-2.49-.45,3.42L69.58,42.58l5-1.48-1.45-.19,25.4,12,3.6,1.7c2.17,1,4.07-2.2,1.89-3.23L75.82,38.06a4.67,4.67,0,0,0-1.77-.64,4.82,4.82,0,0,0-1.3.3L67,39.43l-19.44,5.8-13.51,4a1.9,1.9,0,0,0-.45,3.42L62.87,70.92c1.34.84,2.9,2.32,4.55,1.65,1.24-.51,2.44-1.21,3.65-1.8l18.74-9.2,14.18-7C106.16,53.54,104.26,50.31,102.1,51.37Z"/></svg>