<svg id="Слой_1" data-name="Слой 1" xmlns="http://www.w3.org/2000/svg" viewBox="0 0 137.76 137.76"><defs><style>.cls-1{fill:#737373;}.cls-2{fill:#e3e3e3;}.cls-3{fill:#00adad;}</style></defs><path class="cls-1" d="M103.22,86c-.83,5.07-3.74,7.89-7.94,7.91S88.1,91,87.35,86.11H59.68c-1.17,5.14-3.74,7.68-7.86,7.76s-6.59-2.22-8.2-7.9H38.05c-2.67,0-3.42-.77-3.43-3.45V80.69H31c-.9,0-1.66-.27-1.63-1.31s.77-1.19,1.61-1.19q5.51,0,11,0c.92,0,1.67.28,1.65,1.29S42.87,80.7,42,80.69H37.17V83.5c2.24,0,4.44,0,6.63,0,.28,0,.63-.47.8-.8a7.86,7.86,0,0,1,14.16,0,1.6,1.6,0,0,0,1.11.79c8.19,0,16.38,0,24.57,0,0,0,.08,0,.36-.24V80.36c0-1.88,0-12.19,0-14.07,0-.87.13-1.72,1.18-1.74s1.29.87,1.28,1.8c0,2.44,0,13.31,0,15.75,0,.45.06.89.08,1.33l.37.1.69-1.25c2.85-5.15,10.27-5.54,13.3-.52,1.1,1.82,2.3,1.95,4.09,1.62V78.26c-.09-.05-.17-.13-.25-.14-4.15-.42-5.69-2.45-4.84-6.58a2,2,0,0,1,1.39-1.19,20,20,0,0,1,3.38-.06,3.12,3.12,0,0,0-3-2.71c-5-.11-10,0-15.14,0,0,.53.07,1.08-.14,1.43A2.19,2.19,0,0,1,86,70c-.33,0-.85-.57-1.08-1s-.07-.83-.07-1.25c0-6.68,0-13.36,0-20,0-1-.27-1.37-1.35-1.37q-22.59,0-45.18,0c-.33,0-.65,0-1.11,0,0,.61-.09,1.15-.09,1.69q0,9.67,0,19.34c0,.38,0,.75,0,1.13,0,.83-.29,1.52-1.3,1.48s-1.15-.67-1.15-1.46c0-7.38,0-14.77,0-22.16a2.41,2.41,0,0,1,2.48-2.52c.42,0,.85,0,1.27,0H83.3c3.33,0,3.93.6,4,3.92v1.27c.58,0,1.07.08,1.56.08,2.55,0,5.09,0,7.63,0,3.57.06,6.38,3.29,5.18,6.61s.92,5.88,1.15,8.82c0,.25.57.54.92.66a6.48,6.48,0,0,1,4.68,6.34c0,4.19,0,8.38,0,12.56,0,1.26-.54,1.82-1.77,1.81S104.39,86,103.22,86Zm-16-21.08h13c-.61-2.47-1.16-4.84-1.81-7.19a1.44,1.44,0,0,0-1.08-.76c-1.5-.09-3,0-4.51,0H87.26v8ZM51.77,80.71A5.39,5.39,0,0,0,46.31,86a5.47,5.47,0,0,0,5.28,5.39A5.4,5.4,0,0,0,57,86.06,5.33,5.33,0,0,0,51.77,80.71Zm43.56,0A5.32,5.32,0,0,0,89.93,86a5.34,5.34,0,1,0,10.67,0A5.33,5.33,0,0,0,95.33,80.71Zm4-26.38c-.14-1.5-.89-2.54-2.22-2.6-3.22-.14-6.45,0-9.71,0v2.64Zm3.91,18.53c-.25,2.36.52,3.07,2.63,2.52V72.86Z"/><path class="cls-1" d="M51.62,94.62c-4.29,0-6.88-2.38-8.56-7.9H38c-3.07,0-4.16-1.11-4.17-4.2V81.44H31a2.49,2.49,0,0,1-1.88-.64,1.92,1.92,0,0,1-.5-1.44c0-.58.29-1.92,2.36-1.92q5.51,0,11,0h0a2.52,2.52,0,0,1,1.87.63,1.93,1.93,0,0,1,.52,1.43c0,1.22-.89,1.94-2.34,1.94H37.92v1.31h.83c1.68,0,3.28,0,4.9,0a2.25,2.25,0,0,0,.29-.42,8.43,8.43,0,0,1,7.68-4.82h.05a8.41,8.41,0,0,1,7.76,4.85,1,1,0,0,0,.47.4c7.17,0,14.36,0,21.56,0h2.59V78.6c0-2.52,0-6.82,0-9.68a3.19,3.19,0,0,1,0-.87c0-.11,0-.21,0-.31V63.18q0-7.74,0-15.49a1.47,1.47,0,0,0-.06-.55,1.5,1.5,0,0,0-.53-.06h0q-17.53,0-35.07,0H38.29l-.41,0c0,.33,0,.65-.05,1V67.7c0,.3,0,.6,0,.9-.1,2-1.34,2.23-2.08,2.19-.56,0-1.87-.28-1.87-2.21V62.09q0-7.83,0-15.67a3.13,3.13,0,0,1,3.18-3.26c.32,0,.64,0,1,0H83.29c3.77,0,4.69.92,4.72,4.67v.57c.57,0,1.09,0,1.63,0h2c1.61,0,3.23,0,4.84,0a6.48,6.48,0,0,1,5.23,2.73,5.31,5.31,0,0,1,.64,4.89c-.68,1.89-.15,3.52.42,5.25a14.49,14.49,0,0,1,.76,3.05,2.16,2.16,0,0,0,.43.21,7.24,7.24,0,0,1,5.19,7c0,2.18,0,4.36,0,6.55,0,2,0,4,0,6a2.61,2.61,0,0,1-.65,1.93,2.48,2.48,0,0,1-1.88.63h-2.78c-1,5-4.12,7.89-8.56,7.91h0c-4.42,0-7.57-2.89-8.53-7.76H60.27c-1.31,5.07-4.14,7.68-8.44,7.76Zm-8-9.4h.56l.16.54c1.52,5.36,3.61,7.44,7.47,7.36s6-2.35,7.14-7.18l.13-.58H88l.1.63c.69,4.53,3.3,7.13,7.16,7.13h0c3.88,0,6.44-2.6,7.2-7.28l.1-.63h4.07a1.23,1.23,0,0,0,.8-.2,1.29,1.29,0,0,0,.21-.85c0-2,0-4,0-6,0-2.18,0-4.36,0-6.54A5.74,5.74,0,0,0,103.45,66c-.4-.14-1.35-.55-1.41-1.31a12.55,12.55,0,0,0-.72-2.9c-.59-1.81-1.26-3.86-.4-6.23a3.81,3.81,0,0,0-.46-3.53,5.06,5.06,0,0,0-4-2.08c-1.61,0-3.21,0-4.82,0-.93,0-1.86,0-2.8,0-.34,0-.69,0-1.07,0l-1.24-.07v-2c0-2.91-.29-3.18-3.22-3.18H38c-.28,0-.56,0-.84,0a1.68,1.68,0,0,0-1.78,1.78q0,7.83,0,15.66v6.49c0,.7.17.7.43.71s.48,0,.52-.77c0-.27,0-.54,0-.81V48.09c0-.38,0-.76.06-1.17l.08-1.23,1.11-.06.7,0H48.41q17.54,0,35.06,0h0a1.81,1.81,0,0,1,2.09,2.12q0,7.74,0,15.48v.67a2.29,2.29,0,0,1,1,0V56.14H94c1.1,0,2.23,0,3.36,0a2.15,2.15,0,0,1,1.75,1.31c.5,1.77.92,3.53,1.37,5.39l.68,2.75H88a5.94,5.94,0,0,1,0,.72v.44h3.6c3.57,0,7.26,0,10.88,0a3.85,3.85,0,0,1,3.72,3.31l.18.9h-.92l-1,0a10.88,10.88,0,0,0-2.23.07,1.46,1.46,0,0,0-.79.61c-.37,1.84-.24,3.17.41,4.06s1.89,1.42,3.78,1.61a1.11,1.11,0,0,1,.52.22l.31.23.09.44V84l-.61.11c-2,.38-3.57.19-4.87-2A6.65,6.65,0,0,0,95.19,79a7.12,7.12,0,0,0-6.14,3.69l-1,1.75L86.63,84l-.06-1q0-.48-.06-1c0-1.69,0-7.35,0-11.52a2.06,2.06,0,0,1-.47.13,1,1,0,0,1-.48,0c0,2.67,0,5.88,0,7.93v5l-.33.23A1.4,1.4,0,0,0,85,84a.94.94,0,0,1-.56.21h-3q-10.8,0-21.59,0A2.29,2.29,0,0,1,58.1,83a6.9,6.9,0,0,0-6.43-4h-.05a6.92,6.92,0,0,0-6.36,4c-.23.44-.73,1.18-1.43,1.2-1.69.05-3.42.05-5.09,0H36.42V79.94H42c.82,0,.83-.28.83-.47a.51.51,0,0,0-.09-.35,1,1,0,0,0-.8-.18q-5.52,0-11,0c-.84,0-.85.25-.86.47a.57.57,0,0,0,.08.35s.22.18.8.18h4.39v2.57c0,2.27.43,2.7,2.68,2.7h5.57Zm51.71-7.77a8.1,8.1,0,0,1,7,3.92,2.35,2.35,0,0,0,2.7,1.37V78.82a6.15,6.15,0,0,1-4.41-2.17c-.92-1.25-1.13-3-.66-5.26a2.71,2.71,0,0,1,2-1.78,11.68,11.68,0,0,1,2.43-.09,2.21,2.21,0,0,0-2-1.19c-3.6-.08-7.28-.07-10.84,0H88.08a3.37,3.37,0,0,1-.07.62c0,3.77,0,10,0,12.55a8.57,8.57,0,0,1,7.16-4Zm-9.78-8.77a2.53,2.53,0,0,0,.41.51,2.08,2.08,0,0,0,.55-.56V66.34c0-.64-.09-.88-.17-1s-.24-.07-.35-.08-.41,0-.44.72v2.66ZM88,64.13H99.29l-.22-.9c-.45-1.84-.88-3.59-1.36-5.33a1,1,0,0,0-.41-.22c-1.07-.06-2.17-.06-3.25,0H88Zm7.31,28h-.14a6.17,6.17,0,0,1-6-6.12A6,6,0,0,1,91,81.73,6.2,6.2,0,0,1,95.34,80a6.07,6.07,0,0,1,4.13,10.46A5.9,5.9,0,0,1,95.32,92.16Zm0-10.7A4.58,4.58,0,0,0,90.68,86a4.66,4.66,0,0,0,4.53,4.62,4.51,4.51,0,0,0,3.22-1.31A4.68,4.68,0,0,0,99.85,86a4.58,4.58,0,0,0-4.52-4.58h-.06ZM51.7,92.16h-.13a6.24,6.24,0,0,1-6-6.14,6,6,0,0,1,1.82-4.28A6.23,6.23,0,0,1,51.78,80,6.08,6.08,0,0,1,55.9,90.42,6,6,0,0,1,51.7,92.16Zm0-10.7a4.62,4.62,0,0,0-3.27,1.35A4.47,4.47,0,0,0,47.06,86a4.71,4.71,0,0,0,4.54,4.64,4.52,4.52,0,0,0,3.25-1.31,4.66,4.66,0,0,0,1.41-3.29,4.58,4.58,0,0,0-4.5-4.6H51.7Zm53-5.15a2.21,2.21,0,0,1-1.49-.49c-.86-.74-.82-2.09-.72-3l.07-.67h4V76l-.56.15A5.62,5.62,0,0,1,104.66,76.31Zm-.76-2.7c0,.75.16,1,.25,1.07s.33.19.92.1V73.61Zm-3.8-18.53H86.6V50.94h.75l2.8,0c2.28,0,4.63,0,6.94.07,1.66.07,2.75,1.3,2.94,3.28Zm-12-1.5H98.37A1.46,1.46,0,0,0,97,52.48c-2.27-.1-4.6-.08-6.86-.06l-2.06,0Z"/><path class="cls-1" d="M71.4,78.19c2.87,0,5.74,0,8.61,0,.94,0,1.93,0,1.89,1.31s-1,1.22-1.86,1.22H63c-1,0-1.93-.14-1.9-1.33s.95-1.21,1.87-1.2C65.76,78.21,68.58,78.19,71.4,78.19Z"/><path class="cls-1" d="M63,81.47a2.88,2.88,0,0,1-2.13-.65,1.88,1.88,0,0,1-.51-1.45c0-1.28.9-1.93,2.58-1.93H80a2.9,2.9,0,0,1,2.15.62,1.94,1.94,0,0,1,.49,1.46c-.06,2-1.91,2-2.61,2H63Zm-.08-2.53c-1,0-1,.21-1.06.47a.58.58,0,0,0,.08.36c.13.14.49.2,1.07.2H80c1.1,0,1.1-.18,1.11-.5a.56.56,0,0,0-.07-.37c-.15-.16-.78-.15-1.07-.16H62.87Z"/><path class="cls-1" d="M34.12,72c-2.44,0-4.89,0-7.33,0-.89,0-1.68-.19-1.7-1.21s.76-1.3,1.64-1.3H41.66c.87,0,1.66.25,1.63,1.3S42.45,72,41.58,72Z"/><path class="cls-1" d="M26.75,72.76c-2.05,0-2.39-1.21-2.41-1.94a1.86,1.86,0,0,1,.51-1.42,2.49,2.49,0,0,1,1.88-.65H41.66a2.47,2.47,0,0,1,1.88.64,1.88,1.88,0,0,1,.5,1.43c0,1.29-.86,1.93-2.46,1.93H32.06c-1.75,0-3.51,0-5.26,0Zm4.44-2.51H26.73c-.58,0-.77.15-.81.19a.45.45,0,0,0-.08.34c0,.26,0,.46.95.48,1.76,0,3.51,0,5.27,0h9.52c.93,0,1-.17,1-.47a.46.46,0,0,0-.08-.35c-.05,0-.23-.18-.8-.18Z"/><path class="cls-1" d="M38.68,63.44c-2.44,0-4.88,0-7.32,0-.9,0-1.68-.19-1.71-1.22s.76-1.29,1.64-1.29H46.22c.87,0,1.67.24,1.64,1.3s-.85,1.19-1.72,1.19Z"/><path class="cls-1" d="M31.31,64.2c-2,0-2.39-1.22-2.41-1.94a1.87,1.87,0,0,1,.51-1.43,2.54,2.54,0,0,1,1.88-.64q7.47,0,14.93,0a2.51,2.51,0,0,1,1.88.63,1.9,1.9,0,0,1,.5,1.44c0,1.27-.85,1.92-2.44,1.92H36.62c-1.75,0-3.5,0-5.26,0ZM36,61.69H31.29c-.58,0-.77.14-.81.19a.44.44,0,0,0-.08.34c0,.26,0,.46,1,.48,1.76,0,3.51,0,5.27,0h9.52c.93,0,1-.16,1-.46a.5.5,0,0,0-.09-.35c-.05-.06-.23-.18-.8-.18Z"/><path class="cls-1" d="M32.37,54.87c-2.44,0-4.88,0-7.32,0-.9,0-1.68-.19-1.71-1.21s.77-1.3,1.65-1.3H39.91c.87,0,1.67.25,1.64,1.3s-.85,1.2-1.72,1.2Z"/><path class="cls-1" d="M25,55.63c-2.05,0-2.39-1.21-2.41-1.94a1.91,1.91,0,0,1,.51-1.43A2.57,2.57,0,0,1,25,51.62H39.92a2.49,2.49,0,0,1,1.87.63,1.88,1.88,0,0,1,.51,1.44c0,1.29-.89,1.89-2.47,1.93H30.26c-1.73,0-3.47,0-5.2,0Zm5.11-2.51H25c-.59,0-.77.15-.81.19a.5.5,0,0,0-.09.34c0,.26,0,.49.95.48,1.74,0,3.48,0,5.22,0h9.58c.93,0,.95-.17,1-.47a.55.55,0,0,0-.08-.35c0-.05-.24-.18-.81-.18Z"/><path class="cls-1" d="M39.21,46.31c-2.44,0-4.88,0-7.32,0-.9,0-1.68-.19-1.71-1.21s.77-1.29,1.65-1.29q7.47,0,14.93,0c.87,0,1.66.24,1.63,1.3s-.85,1.19-1.71,1.19C44.19,46.3,41.7,46.31,39.21,46.31Z"/><path class="cls-1" d="M31.84,47.06c-1.94,0-2.38-1.05-2.41-1.94a1.9,1.9,0,0,1,.51-1.42,2.53,2.53,0,0,1,1.89-.64q7.47,0,14.93,0a2.49,2.49,0,0,1,1.88.63,1.88,1.88,0,0,1,.5,1.44c0,1.28-.86,1.92-2.47,1.92H31.84Zm4.45-2.5H31.83c-.58,0-.77.14-.81.19a.47.47,0,0,0-.09.33c0,.27,0,.48.95.48h14.8c1,0,1-.16,1-.47a.59.59,0,0,0-.08-.35c-.05-.05-.23-.17-.81-.17Z"/><path class="cls-2" d="M87.26,64.88v-8h5.58c1.51,0,3,0,4.51,0a1.44,1.44,0,0,1,1.08.76c.65,2.35,1.2,4.72,1.81,7.19Z"/><path class="cls-2" d="M51.77,80.71A5.33,5.33,0,0,1,57,86.06a5.4,5.4,0,0,1-5.42,5.35A5.47,5.47,0,0,1,46.31,86,5.39,5.39,0,0,1,51.77,80.71ZM54.19,86a2.57,2.57,0,0,0-2.5-2.5,2.63,2.63,0,0,0-2.56,2.6,2.75,2.75,0,0,0,2.6,2.47A2.64,2.64,0,0,0,54.19,86Z"/><path class="cls-2" d="M95.33,80.71A5.33,5.33,0,0,1,100.6,86a5.34,5.34,0,1,1-10.67,0A5.32,5.32,0,0,1,95.33,80.71Zm0,2.81A2.61,2.61,0,0,0,92.75,86a2.67,2.67,0,0,0,2.5,2.57,2.72,2.72,0,0,0,2.55-2.53A2.63,2.63,0,0,0,95.29,83.52Z"/><path class="cls-2" d="M99.28,54.33H87.35V51.69c3.26,0,6.49-.1,9.71,0C98.39,51.79,99.14,52.83,99.28,54.33Z"/><path class="cls-2" d="M103.19,72.86h2.63v2.52C103.71,75.93,102.94,75.22,103.19,72.86Z"/><path class="cls-1" d="M54.19,86a2.64,2.64,0,0,1-2.46,2.57,2.75,2.75,0,0,1-2.6-2.47,2.63,2.63,0,0,1,2.56-2.6A2.57,2.57,0,0,1,54.19,86Z"/><path class="cls-1" d="M51.67,89.35a3.51,3.51,0,0,1-3.29-3.18,3.21,3.21,0,0,1,.93-2.34,3.3,3.3,0,0,1,2.36-1h0A3.32,3.32,0,0,1,54.94,86h0a3.4,3.4,0,0,1-3.19,3.33Zm0-5.07a1.84,1.84,0,0,0-1.28.59,1.68,1.68,0,0,0-.51,1.22,2,2,0,0,0,1.83,1.76A1.89,1.89,0,0,0,53.44,86h0a1.83,1.83,0,0,0-1.76-1.76Z"/><path class="cls-1" d="M95.29,83.52a2.63,2.63,0,0,1,2.51,2.55,2.72,2.72,0,0,1-2.55,2.53A2.67,2.67,0,0,1,92.75,86,2.61,2.61,0,0,1,95.29,83.52Z"/><path class="cls-1" d="M95.27,89.35h0A3.42,3.42,0,0,1,92,86a3.21,3.21,0,0,1,1-2.28,3.34,3.34,0,0,1,2.29-1,3.3,3.3,0,0,1,2.3,1,3.19,3.19,0,0,1,1,2.29A3.47,3.47,0,0,1,95.27,89.35Zm0-5.08a1.77,1.77,0,0,0-1.22.54A1.74,1.74,0,0,0,93.5,86a1.91,1.91,0,0,0,1.75,1.82A2,2,0,0,0,97,86.05a1.72,1.72,0,0,0-.52-1.21,1.81,1.81,0,0,0-1.24-.57h0Z"/><path class="cls-3" d="M68.88,137.76a68.88,68.88,0,1,1,68.88-68.88A69,69,0,0,1,68.88,137.76ZM68.88,4a64.88,64.88,0,1,0,64.88,64.88A64.95,64.95,0,0,0,68.88,4Z"/></svg>