<svg id="Слой_1" data-name="Слой 1" xmlns="http://www.w3.org/2000/svg" viewBox="0 0 137.76 137.76"><defs><style>.cls-1{fill:#00adad;}.cls-2{fill:#737373;}.cls-3{fill:none;}.cls-4{fill:#e3e3e3;}</style></defs><path class="cls-1" d="M68.88,137.76a68.88,68.88,0,1,1,68.88-68.88A69,69,0,0,1,68.88,137.76ZM68.88,4a64.88,64.88,0,1,0,64.88,64.88A64.95,64.95,0,0,0,68.88,4Z"/><path class="cls-2" d="M74.39,107.24c1-1.8,1.83-3.32,2.68-4.82,1-1.67,1.76-2,3.58-1.52,1.66.45,3.32.93,5.34,1.49L77.67,82.47a22.13,22.13,0,0,0-2.3,1.39c-1.61,1.23-3.18,2.5-4.72,3.83a3.86,3.86,0,0,0-.91,1.41q-4.06,9.66-8.09,19.32c-.17.4-.31.81-.51,1.2-.76,1.48-2.15,1.55-3,.11C57,107.86,56,106,55,104a1.13,1.13,0,0,0-1.59-.69c-2,.61-4,1.2-6,1.65a2.46,2.46,0,0,1-2-.35,2.46,2.46,0,0,1-.11-2.09C47.82,96.31,50.44,90.1,53,83.88c.18-.44.33-.88.55-1.44-1.06-.12-2-.26-3-.33-3.89-.32-6.23-2.68-6.53-6.6a6.36,6.36,0,0,1-.07-.86c.16-4.11-1.59-7.32-4.32-10.31-3.29-3.6-3.37-6.54,0-10.08a16.15,16.15,0,0,0,4.46-11.32c.11-3.82,2.57-6.14,6.42-6.54a17.43,17.43,0,0,1,2.59-.23,9.72,9.72,0,0,0,7.57-3.26c.51-.51,1.11-.93,1.67-1.39,3.06-2.46,6.31-2.64,9.14.1a16.27,16.27,0,0,0,11.74,4.85c3.94.06,6.18,2.61,6.55,6.56a13.91,13.91,0,0,1,.09,1.44,11.51,11.51,0,0,0,3.76,9,12,12,0,0,1,1.63,2,6.29,6.29,0,0,1-.06,7.55,45.51,45.51,0,0,1-3.29,4,6.91,6.91,0,0,0-1.79,4.45c-.11,1.63-.23,3.27-.5,4.89a6.46,6.46,0,0,1-6.2,5.65c-1,.09-2,.2-3.19.33l3.39,8.15c1.63,3.91,3.32,7.8,4.87,11.74a2.76,2.76,0,0,1,0,2.33c-.4.44-1.57.43-2.32.27a48.52,48.52,0,0,1-5.43-1.51,1.33,1.33,0,0,0-1.93.77c-.91,1.81-1.87,3.59-2.94,5.31-.33.54-1.1,1.22-1.59,1.16a2.5,2.5,0,0,1-1.61-1.34c-1.46-3.25-2.79-6.56-4.17-9.84-.34-.81-.58-1.65.48-2.07s1.45.39,1.78,1.19C71.93,101.39,73.11,104.18,74.39,107.24ZM67.11,86.78a21.15,21.15,0,0,0,3.55-2.25c3-2.84,6.31-4.87,10.64-4.68a11.76,11.76,0,0,0,1.87-.13c2.6-.31,3.85-1.54,4.21-4.15a16.66,16.66,0,0,0,.17-1.87c0-3.65.9-7,3.73-9.52a3.23,3.23,0,0,0,.36-.45c3.37-4.09,3.48-5-.09-9a14.59,14.59,0,0,1-4-9.44c-.31-5.74-.91-6.3-6.61-6.65-3.52-.21-6.61-1.11-9.09-3.73A19.19,19.19,0,0,0,70,33.37c-2.08-1.69-3.87-1.7-6,0-1.09.88-2.2,1.74-3.23,2.68a8.77,8.77,0,0,1-5.88,2.4,44.26,44.26,0,0,0-4.6.48,3.87,3.87,0,0,0-3.63,3.53c-.25,1.61-.38,3.25-.49,4.89A8.61,8.61,0,0,1,44,52.73c-1.09,1.22-2.12,2.5-3.13,3.79a4,4,0,0,0,0,5.43c1.09,1.41,2.38,2.68,3.35,4.16a13,13,0,0,1,1.78,4,44.43,44.43,0,0,1,.56,5.31,4.28,4.28,0,0,0,4.25,4.28c1.34.14,2.68.28,4,.35a8.77,8.77,0,0,1,5.78,2.29,39.51,39.51,0,0,0,3.7,3A21.61,21.61,0,0,0,67.11,86.78ZM48,102.14c.24.08.28.12.32.11l4-1.09c3-.84,3.42-.68,4.94,2.07l2.23,4c2.63-6.32,5.12-12.28,7.69-18.44-2.41.06-4-1.07-5.53-2.37-1.07-.91-2.13-1.82-3.24-2.66a22.4,22.4,0,0,0-2.21-1.29C53.45,89.16,50.74,95.61,48,102.14Z"/><path class="cls-2" d="M59.62,111.27A2.29,2.29,0,0,1,57.71,110c-1-1.72-2.05-3.59-3.15-5.72-.28-.54-.45-.62-1-.45-1.8.56-3.9,1.2-6,1.67A2.91,2.91,0,0,1,45,105a2.92,2.92,0,0,1-.19-2.6c1.92-4.73,3.93-9.51,5.86-14.14l1.91-4.54c.11-.27.21-.53.32-.83l-.36,0c-.67-.08-1.3-.16-1.94-.22-4.12-.33-6.67-2.9-7-7l0-.27a3.6,3.6,0,0,1,0-.65c.14-3.56-1.15-6.63-4.19-9.95-3.51-3.84-3.52-7.06,0-10.76a15.71,15.71,0,0,0,4.32-11c.11-4,2.68-6.6,6.87-7l.74-.09a11.06,11.06,0,0,1,1.92-.14,9.28,9.28,0,0,0,7.2-3.12,14.11,14.11,0,0,1,1.27-1.07l.44-.35c3.4-2.74,6.88-2.7,9.8.13A15.79,15.79,0,0,0,83.29,36c4.06.06,6.62,2.61,7,7v.16a11.9,11.9,0,0,1,.08,1.34A10.93,10.93,0,0,0,94,53.13a12.83,12.83,0,0,1,1.68,2.09,6.78,6.78,0,0,1,0,8.15,44.53,44.53,0,0,1-3.32,4.08,6.38,6.38,0,0,0-1.66,4.14c-.12,1.68-.24,3.32-.51,4.94a6.94,6.94,0,0,1-6.64,6.07l-2.13.21-.39,0,.78,1.89,2.35,5.65c.46,1.1.92,2.19,1.39,3.29,1.16,2.76,2.37,5.62,3.49,8.45a3.19,3.19,0,0,1-.14,2.86c-.61.67-2,.58-2.79.42a49.64,49.64,0,0,1-5.48-1.52c-.76-.25-1-.16-1.34.52-1,2-2,3.77-3,5.34-.38.62-1.3,1.48-2.08,1.4a3,3,0,0,1-2-1.64c-1.1-2.44-2.14-4.94-3.15-7.37l-1-2.48a2.37,2.37,0,0,1-.21-1.86,1.61,1.61,0,0,1,1-.86c1.56-.61,2.14.79,2.42,1.46l2.7,6.45.52,1.25.42-.76c.62-1.12,1.19-2.15,1.77-3.17,1.06-1.86,2.11-2.3,4.14-1.75,1.13.3,2.25.62,3.49,1l.86.24L77.42,83.19l-.32.18a11.75,11.75,0,0,0-1.43.88C74,85.56,72.44,86.8,71,88.06a3.59,3.59,0,0,0-.78,1.24Q67,97,63.77,104.66L62,109a8.41,8.41,0,0,1-.37.87,2.33,2.33,0,0,1-1.92,1.42ZM54,102.74a1.62,1.62,0,0,1,1.48,1.06c1.09,2.11,2.11,4,3.12,5.68a1.32,1.32,0,0,0,1.07.79,1.37,1.37,0,0,0,1.06-.88,7.43,7.43,0,0,0,.33-.77l.16-.39,1.65-4q3.21-7.68,6.44-15.36a4.42,4.42,0,0,1,1-1.6c1.47-1.28,3-2.53,4.73-3.85a11.51,11.51,0,0,1,1.55-1l.8-.46.5-.29,8.94,21.4-2.85-.8-3.48-1c-1.61-.43-2.17-.19-3,1.28-.58,1-1.15,2-1.76,3.17l-1.42,2.55L73,105.23c-.94-2.22-1.82-4.33-2.7-6.45-.42-1-.64-1.1-1.14-.91a.67.67,0,0,0-.41.32A1.68,1.68,0,0,0,69,99.28l1,2.48c1,2.42,2,4.92,3.14,7.34a2,2,0,0,0,1.21,1.05c.17,0,.8-.42,1.11-.92,1-1.55,1.91-3.27,2.91-5.27a1.81,1.81,0,0,1,2.54-1,48.86,48.86,0,0,0,5.37,1.49,2.7,2.7,0,0,0,1.85-.12,2.45,2.45,0,0,0,0-1.81c-1.12-2.82-2.32-5.67-3.48-8.43-.47-1.1-.93-2.2-1.39-3.3-.78-1.87-1.56-3.74-2.35-5.65L79.56,82l1.73-.18,2.14-.22a6,6,0,0,0,5.75-5.24c.26-1.57.38-3.18.49-4.83a7.39,7.39,0,0,1,1.92-4.76,42.61,42.61,0,0,0,3.25-4,5.75,5.75,0,0,0,.06-7,12.7,12.7,0,0,0-1.56-2,12,12,0,0,1-3.92-9.39,10.38,10.38,0,0,0-.07-1.23l0-.16C89,39.19,86.81,37,83.27,37a16.76,16.76,0,0,1-12.08-5c-3.21-3.12-6.38-1.76-8.48-.07l-.44.35a15.29,15.29,0,0,0-1.19,1c-2.49,2.48-5,3.57-7.95,3.41a10.58,10.58,0,0,0-1.74.13l-.77.1c-3.7.38-5.87,2.59-6,6.06a16.67,16.67,0,0,1-4.59,11.65c-3.14,3.31-3.13,6,0,9.4s4.6,6.82,4.45,10.66a2.69,2.69,0,0,0,0,.49c0,.11,0,.21,0,.31.28,3.66,2.44,5.84,6.07,6.14.65,0,1.3.13,2,.21l1.62.19-.42,1.13c-.13.34-.24.64-.36.94l-1.9,4.54c-1.94,4.62-3.94,9.4-5.86,14.12a2.05,2.05,0,0,0,0,1.58,2.17,2.17,0,0,0,1.56.18c2.08-.46,4.16-1.09,5.94-1.64A2.45,2.45,0,0,1,54,102.74Zm5.62,5.66-2.73-4.93c-1.4-2.53-1.56-2.6-4.36-1.83l-3.42.93-.62.16a.58.58,0,0,1-.43,0l-.68-.25L56,81.77l.49.28.77.43a12.8,12.8,0,0,1,1.49.9c1.08.82,2.13,1.71,3.14,2.57l.12.11a7.37,7.37,0,0,0,5.2,2.25l.77,0Zm-4.92-8.18c1.32,0,2,.76,3.07,2.77l1.72,3.11,7-16.81a8.76,8.76,0,0,1-5.12-2.47l-.12-.11c-1-.85-2-1.73-3.09-2.53a11.37,11.37,0,0,0-1.36-.82l-.3-.16-7.72,18.42,0,0,3.41-.92A9.69,9.69,0,0,1,54.67,100.22ZM67.14,87.35l-.25-.12c-.38-.19-.73-.34-1.06-.48a10.47,10.47,0,0,1-1.86-1,38.29,38.29,0,0,1-3.75-3.06,8.37,8.37,0,0,0-5.47-2.15c-1.4-.08-2.83-.22-4.06-.36A4.75,4.75,0,0,1,46,75.5c-.07-.61-.1-1.22-.14-1.83a20.9,20.9,0,0,0-.41-3.43,12.36,12.36,0,0,0-1.71-3.85,24.77,24.77,0,0,0-2-2.5c-.47-.54-.93-1.08-1.36-1.64a4.49,4.49,0,0,1,0-6c1-1.23,2-2.54,3.15-3.82a8.15,8.15,0,0,0,2-5.09c.1-1.49.23-3.22.49-4.93a4.4,4.4,0,0,1,4.06-3.95l.22,0a43.15,43.15,0,0,1,4.43-.45,8.3,8.3,0,0,0,5.56-2.27c.92-.83,1.89-1.61,2.84-2.36l.42-.34c2.3-1.84,4.34-1.84,6.62,0l.55.43A11.89,11.89,0,0,1,72.2,34.6C74.33,36.84,77,37.94,81,38.17c6,.36,6.76,1.16,7.08,7.13a14.23,14.23,0,0,0,3.88,9.13c3.68,4.1,3.69,5.27.11,9.62a7.27,7.27,0,0,1-.42.5c-2.39,2.17-3.52,5.08-3.56,9.16a15.21,15.21,0,0,1-.18,1.93c-.39,2.83-1.82,4.24-4.64,4.58a13.48,13.48,0,0,1-2,.13C77.66,80.18,74.5,81.59,71,84.9a11.94,11.94,0,0,1-2.5,1.66c-.38.21-.76.42-1.13.64ZM67,32.59a4.41,4.41,0,0,0-2.69,1.16l-.42.34c-.93.74-1.89,1.51-2.78,2.32a9.29,9.29,0,0,1-6.21,2.53c-1.43.05-2.9.25-4.32.44l-.23,0a3.4,3.4,0,0,0-3.2,3.11c-.26,1.67-.38,3.38-.48,4.85a9.12,9.12,0,0,1-2.27,5.69c-1.12,1.25-2.16,2.55-3.11,3.77a3.5,3.5,0,0,0,0,4.81c.42.55.87,1.07,1.33,1.6a26.27,26.27,0,0,1,2,2.6A13.28,13.28,0,0,1,46.42,70a20.82,20.82,0,0,1,.43,3.59c0,.59.08,1.19.14,1.78a3.8,3.8,0,0,0,3.81,3.83c1.21.13,2.62.28,4,.35A9.29,9.29,0,0,1,60.9,82a37.34,37.34,0,0,0,3.65,3,9.38,9.38,0,0,0,1.68.87l.85.38.94-.53a11.22,11.22,0,0,0,2.29-1.51c2.5-2.36,6-5,11-4.82a9.79,9.79,0,0,0,1.7-.12c2.48-.29,3.53-1.34,3.86-3.73a14,14,0,0,0,.17-1.8c0-4.38,1.28-7.52,3.89-9.89a1,1,0,0,0,.17-.21l.15-.18c3.26-4,3.26-4.6-.08-8.33A15.09,15.09,0,0,1,87,45.35c-.29-5.45-.69-5.85-6.14-6.18-4.21-.25-7.11-1.45-9.42-3.88a11.48,11.48,0,0,0-1.27-1.09l-.57-.44A4.31,4.31,0,0,0,67,32.59Z"/><path class="cls-3" d="M48,102.14c2.73-6.53,5.44-13,8.23-19.65a22.4,22.4,0,0,1,2.21,1.29c1.11.84,2.17,1.75,3.24,2.66,1.52,1.3,3.12,2.43,5.53,2.37-2.57,6.16-5.06,12.12-7.69,18.44l-2.23-4c-1.52-2.75-1.91-2.91-4.94-2.07l-4,1.09S48.25,102.22,48,102.14Z"/><path class="cls-4" d="M67.42,42.75A16.69,16.69,0,1,0,84.11,59.44,16.68,16.68,0,0,0,67.42,42.75ZM77.81,56.81c-3.57,3.76-7.25,7.42-11,11a3.23,3.23,0,0,1-4.75,0c-1.77-1.67-3.47-3.42-5.12-5.21A3.33,3.33,0,0,1,57,58.16a3.26,3.26,0,0,1,4.62-.38,28.81,28.81,0,0,1,2.52,2.85c3-2.92,5.61-5.5,8.24-8.1a3.7,3.7,0,0,1,3.4-1.23A3.31,3.31,0,0,1,77.81,56.81Z"/><path class="cls-4" d="M67.42,76.49a17.06,17.06,0,1,1,17.06-17A17.07,17.07,0,0,1,67.42,76.49Zm0-33.36A16.31,16.31,0,1,0,83.73,59.44,16.32,16.32,0,0,0,67.42,43.13ZM64.53,69.26a4,4,0,0,1-2.69-1.17c-1.6-1.51-3.29-3.22-5.14-5.23a3.71,3.71,0,0,1,.07-5,3.63,3.63,0,0,1,5.14-.4,15.32,15.32,0,0,1,1.8,2l.5.6,2.29-2.25c2-1.93,3.81-3.74,5.65-5.57a4,4,0,0,1,3.74-1.32,3.86,3.86,0,0,1,3,2.57,3.52,3.52,0,0,1-.82,3.56h0c-3.82,4-7.69,7.84-11,11.05A3.66,3.66,0,0,1,64.53,69.26Zm-5-11.9a3.14,3.14,0,0,0-2.26,1.06,2.92,2.92,0,0,0-.06,3.93c1.83,2,3.5,3.7,5.1,5.19a2.86,2.86,0,0,0,4.23,0c3.27-3.21,7.14-7,11-11h0a2.72,2.72,0,0,0,.64-2.8,3.11,3.11,0,0,0-2.42-2.08,3.33,3.33,0,0,0-3.08,1.12C70.84,54.62,69,56.44,67,58.36l-2.87,2.82-.26-.3L63.13,60a14.18,14.18,0,0,0-1.72-1.88A2.73,2.73,0,0,0,59.58,57.36Z"/></svg>