<?xml version="1.0" ?><svg enable-background="new 0 0 100 100" id="instagram" version="1.1" viewBox="0 0 100 100" xml:space="preserve" xmlns="http://www.w3.org/2000/svg" xmlns:xlink="http://www.w3.org/1999/xlink"><path d="M68.133,70.655c7.377,0,13.379-6.002,13.379-13.379S75.51,43.897,68.133,43.897s-13.379,6.002-13.379,13.379  S60.756,70.655,68.133,70.655z" fill="#847E64"/><path d="M88.094,50.622h-6.118c0.974,2.017,1.535,4.268,1.535,6.654c0,8.48-6.899,15.379-15.379,15.379  s-15.379-6.899-15.379-15.379c0-2.386,0.562-4.637,1.535-6.654h-6.118c-3.329,0-6.027,2.698-6.027,6.027v20.588  c0,3.329,2.698,6.027,6.027,6.027h32.133c6.949-6.334,11.902-14.816,13.817-24.396v-2.219C94.122,53.32,91.423,50.622,88.094,50.622  z" fill="#847E64"/><path d="M85.231,34.905c-0.807,0-1.461,0.654-1.461,1.461v4.48c0,0.807,0.654,1.461,1.461,1.461h4.48  c0.807,0,1.461-0.654,1.461-1.461v-4.48c0-0.807-0.654-1.461-1.461-1.461H85.231z" fill="#847E64"/><path d="M46.172,85.264c-3.329,0-6.027-2.698-6.027-6.027V35.314c0-3.329,2.698-6.027,6.027-6.027h43.775  C82.45,14.861,67.381,5,50,5C25.147,5,5,25.147,5,50c0,24.853,20.147,45,45,45c10.559,0,20.261-3.646,27.937-9.736H46.172z" fill="#847E64"/></svg>