<svg id="Слой_1" data-name="Слой 1" xmlns="http://www.w3.org/2000/svg" viewBox="0 0 137.76 137.76"><defs><style>.cls-1,.cls-2,.cls-3{fill:#737373;}.cls-2,.cls-3{stroke:#737373;stroke-miterlimit:10;}.cls-3{stroke-width:2px;}</style></defs><path class="cls-1" d="M90.68,42.72c0,3.33.06,6.66,0,10,0,1.34.43,1.82,1.71,2.07a19,19,0,0,1,15.54,15.56c2,10.19-5.4,20.74-15.63,22.24-1.22.17-1.63.63-1.61,1.84.07,3.52,0,7,0,10.57A2.53,2.53,0,0,1,89,107.65c-5.21,2.29-3.45,2.49-8.5,0-2.06-1-3.79-1.09-5.61.2-2.52,1.78-5.08,1.91-7.6.09a5.1,5.1,0,0,0-6.48.1c-.16.11-.36.16-.52.26a4.91,4.91,0,0,1-5.92,0c-2.5-1.73-5-2-7.54-.12-3,2.29-5.62.48-8.24-.92a1.89,1.89,0,0,1-.92-1.57,16.57,16.57,0,0,1-.06-1.73q0-35.17,0-70.35a4,4,0,0,1,2.56-4.13c2.52-1.31,4.77-1.59,7.14.07a5.12,5.12,0,0,0,6.49.05c2.48-1.78,5-1.63,7.48.09a4.74,4.74,0,0,0,6,0,6.14,6.14,0,0,1,7.74,0A4.69,4.69,0,0,0,81,29.61c3.1-2.38,5.87-1,8.67.6a2.24,2.24,0,0,1,1,2.23C90.67,35.87,90.68,39.3,90.68,42.72ZM41.16,68.83v34c0,2.43,1.57,3.38,3.81,2.31,1.22-.57,2.48-1.08,3.66-1.72a3.25,3.25,0,0,1,3.69,0c3.31,2.35,6.57,2.42,9.9,0a3.12,3.12,0,0,1,3.8,0c3.27,2.21,6.5,2.55,9.76,0a4.16,4.16,0,0,1,.52-.25,3,3,0,0,1,2.91,0c1.44.69,2.88,1.36,4.32,2a2.33,2.33,0,0,0,3.56-2.15c0-2.89,0-5.79,0-8.68,0-1.19-.39-1.68-1.6-1.89a18,18,0,0,1-11.34-6.64,2.87,2.87,0,0,0-2.49-1.12c-6.75,0-13.51,0-20.26,0-.43,0-.87,0-1.3,0a1.56,1.56,0,0,1-1.57-1.72,1.54,1.54,0,0,1,1.52-1.62,14,14,0,0,1,1.45,0c6.12,0,12.25,0,18.38,0,.4,0,1,.36,1.18-.4a3.36,3.36,0,0,0-3-3.47H51.85c-.44,0-.87,0-1.31,0-1.14-.07-2-.55-2-1.82s.84-1.65,1.92-1.75c.38,0,.77,0,1.15,0,5.45,0,10.91,0,16.36,0,1.19,0,1.65-.26,1.75-1.58A17.93,17.93,0,0,1,72.9,63a19.53,19.53,0,0,1,12.59-8.29c.8-.15,1.62-.21,1.61-1.42,0-6.46,0-12.93,0-19.39a1.71,1.71,0,0,0-.9-1.5c-1.41-1-2.55-.19-3.76.38-5.45,2.59-3.62,2.53-8.88,0a5.17,5.17,0,0,0-5.08.07c-5.09,2.54-3.82,2.33-8.48,0-1.8-.89-3.33-1.24-5.09,0A26.89,26.89,0,0,1,52,34.27a3.13,3.13,0,0,1-3,0c-1.38-.69-2.79-1.34-4.19-2a2.42,2.42,0,0,0-3.65,2.36ZM89,58.09c-9.15,0-15.72,6.57-15.78,15.82a15.71,15.71,0,0,0,31.42.17C104.63,64.37,97.47,58,89,58.09Z"/><path class="cls-1" d="M64.24,88.7c1.73,0,3.47,0,5.21,0,1.41,0,2.16.72,2.1,1.84-.07,1.3-1,1.72-2.08,1.72q-5.28,0-10.56,0c-1.16,0-2.19-.4-2.19-1.77s1-1.77,2.16-1.79C60.67,88.67,62.45,88.7,64.24,88.7Z"/><path class="cls-2" d="M87.89,73.38l4.44-11.12c.3-.76.77-1.32,1.65-1s.79,1.11.54,1.86a2.29,2.29,0,0,1-.1.23l-4.5,11.23Q87.84,79.81,85.77,85c-.1.23-.15.58-.33.67-.48.25-1.12.64-1.5.48a1.56,1.56,0,0,1-.53-1.42c.5-1.59,1.19-3.13,1.8-4.68Z"/><path class="cls-3" d="M87.7,69.1a4.9,4.9,0,1,1-9.1-3.63A4.83,4.83,0,0,1,85,62.75,4.92,4.92,0,0,1,87.7,69.1Zm-2.15-.92a2.58,2.58,0,0,0-1.49-3.28,2.54,2.54,0,1,0,1.49,3.28Z"/><path class="cls-3" d="M99.21,82.59a5,5,0,0,1-6.39,2.78,5.11,5.11,0,0,1-2.73-6.44,5,5,0,0,1,6.32-2.69A4.93,4.93,0,0,1,99.21,82.59ZM97,81.76a2.5,2.5,0,1,0-4.6-2,2.51,2.51,0,0,0,1.32,3.33A2.46,2.46,0,0,0,97,81.76Z"/></svg>