<svg id="Слой_1" data-name="Слой 1" xmlns="http://www.w3.org/2000/svg" viewBox="0 0 137.76 137.76"><defs><style>.cls-1{fill:#737373;stroke:#737373;stroke-miterlimit:10;stroke-width:2px;}</style></defs><path class="cls-1" d="M31.55,69c0-10.73,0-21.46,0-32.2,0-1.37.39-1.88,1.82-1.87,11.27,0,22.53,0,33.8.1a6.5,6.5,0,0,1,3.63,1.57C80.86,44.74,90.88,53,100.91,61.22c4.51,3.69,9,7.4,13.55,11.06a4,4,0,0,1,1.64,4.38c-.39,1.68-.66,3.39-.93,5.09a3,3,0,0,1-2.68,2.68c-5.68,1.25-11.35,2.62-17,3.92C90.25,89.54,85,90.68,79.82,91.89s-10.16,2.47-15.25,3.66-10.2,2.32-15.3,3.5S39.08,101.37,34,102.61c-2,.48-2.22.39-2.22-1.61V69Zm77.73,4.94.13-.4a27.76,27.76,0,0,0-2.79-1.26C102.83,71,99,69.92,95.22,68.69c-6.84-2.21-13.66-4.49-20.5-6.7a4,4,0,0,0-1.94-.08c-3.61.68-7.22,1.44-10.83,2.16C55.42,65.38,48.9,66.67,42.37,68c-2.44.5-4.86,1.1-7.32,1.55-1.45.27-1.75,1.1-1.72,2.41.07,2.8,0,5.6,0,8.41,0,2.47.1,2.65,2.52,2.17,5.24-1,10.46-2.21,15.68-3.37,7-1.55,14-3.17,21.06-4.69a6.25,6.25,0,0,1,2.64.16c3.82.86,7.63,1.81,11.45,2.68a10.38,10.38,0,0,0,3.69.53c4.85-.77,9.69-1.72,14.51-2.68C106.39,74.86,107.83,74.34,109.28,73.92ZM71.64,60.5l.31-.56c-.55-.42-1.14-.8-1.66-1.25C63.79,53.09,57,47.83,50.92,41.77c-4.41-4.43-9.06-6.2-15.08-5.45-2.64.33-2.92.35-2.77,3.1,0,.89,0,1.79.06,2.68l.18,24c0,2,.29,2.22,2.23,1.88,2.34-.41,4.67-.95,7-1.42,4.25-.88,8.51-1.76,12.77-2.61s8.53-1.62,12.79-2.47C69.29,61.22,70.46,60.82,71.64,60.5ZM110.8,72l.19-.37c-.8-.76-1.56-1.56-2.41-2.25q-19.53-16-39.11-32a4.44,4.44,0,0,0-2.55-1c-5.6-.09-11.2-.06-16.8,0a8.46,8.46,0,0,0-2,.5,8.41,8.41,0,0,0,1.2,1.78c5.65,4.93,11.22,10,17,14.67,3.56,2.87,6.34,6.78,11.12,8.1s9.5,3,14.24,4.55c3.89,1.26,7.78,2.54,11.68,3.78C105.87,70.54,108.34,71.25,110.8,72ZM33.37,97.34h0c0,.83,0,1.67,0,2.5s.45,1.45,1.48,1.19c1.73-.44,3.47-.84,5.2-1.26,3.58-.86,7.16-1.73,10.74-2.57,3.88-.91,7.76-1.78,11.64-2.68l15.63-3.64c3.76-.87,7.51-1.78,11.28-2.65s7.3-1.66,10.94-2.52c3.93-.92,7.87-1.82,11.78-2.87a2.86,2.86,0,0,0,1.54-1.62,13.06,13.06,0,0,0,.73-3.3c.22-1.78-.19-2.24-2-1.9-4.31.82-8.6,1.74-12.89,2.68-4,.88-8,1.85-12,2.76L75.69,84.11c-3.6.81-7.19,1.63-10.79,2.42-3.83.84-7.67,1.64-11.5,2.49-5.45,1.23-10.87,2.59-16.34,3.7-3.68.76-3.71.61-3.69,4.26Zm0-9.23v1.07c0,3,.22,3,3.06,2.27,3.61-1,7.28-1.73,10.93-2.54,5.34-1.17,10.69-2.29,16-3.48q11.06-2.45,22.08-5a6.55,6.55,0,0,0,1.7-1,7.22,7.22,0,0,0-1.81-1.08c-2.31-.58-4.69-.88-7-1.55a15.21,15.21,0,0,0-7.74-.49L55.49,79.67C49.4,81,43.31,82.36,37.2,83.6,33.4,84.37,33.37,84.29,33.36,88.11Z"/></svg>