<svg id="Слой_1" data-name="Слой 1" xmlns="http://www.w3.org/2000/svg" viewBox="0 0 137.76 137.76"><defs><style>.cls-1{fill:#e3e3e3;}.cls-2{fill:#737373;}</style></defs><path class="cls-1" d="M58.63,110.94C48.82,106.86,41.19,100.5,37.84,90c-2.31-7.24-1.47-19.65,1.33-22.92,1.93,1.68,3.89,3.4,5.87,5.08s2.73,1.42,3.35-1.18a39.74,39.74,0,0,1,15-23.31c5.57-4.19,7.45-9.48,6.75-16.09-.13-1.15,0-2.33,0-4.15A53.93,53.93,0,0,1,80.68,40.17,38.16,38.16,0,0,1,86.07,66.1c-.25,1.7-.87,3.33-1.19,5-.11.57,0,1.62.35,1.75a2.25,2.25,0,0,0,2-.2c2.41-2.51,4.71-5.12,7-7.73A24.13,24.13,0,0,0,95.9,62.5c9.2,13.78,6.18,35.43-7,44.59.46-1.63.8-2.79,1.12-4,2.21-7.87-.29-14.64-4.83-21a109.46,109.46,0,0,1-7.61-11.38c-.87-1.6-.12-4-.2-6.1-.22-4.95,0-1.84,0-2.77a7.9,7.9,0,0,0-2.63.85c-5.83,4.72-9.59,10.66-10.34,18.28-.15,1.63-.29,3.26-.44,4.88l-.68.35c-.46-.91-.92-1.82-1.39-2.73-.32-.59-.67-1.17-1-1.76-.59.44-1.41.76-1.74,1.36-4.62,8.39-5.42,16.87-.49,25.47a11.49,11.49,0,0,1,.7,1.89Z"/><path class="cls-1" d="M60.68,87.08a14.21,14.21,0,0,0,1.15,2.5,5.62,5.62,0,0,0,1.94,1.82,11,11,0,0,0,2.75.63A16.58,16.58,0,0,0,67,89.55c.08-3.59-.28-7.22.21-10.75.59-4.36,2.82-8.1,6.32-11.64a17.26,17.26,0,0,0,1,2.65c2.26,3.86,4.25,7.93,7,11.45a36.45,36.45,0,0,1,6.79,13.21c1.38,5.3-1.82,14.42-6.42,17A19.49,19.49,0,0,1,67,113.36c-3.79-1-5.67-4.56-7.31-7.88A20.13,20.13,0,0,1,59.5,88Z"/><path class="cls-2" d="M88.87,68.26c3-2.8,5.21-6.05,5.39-9.37.06-1.17,2-1.36,2.67-.28,4.95,8.28,7.68,17.14,6.6,26.91-1.33,12-9.12,24.62-22.13,29.12-9.38,3.24-18.35,1.72-27-2.85-7.5-4-13.72-9.15-17.32-17a30.79,30.79,0,0,1-2.92-16.26c.59-5.31,2.26-10.5,3.55-15.72a2.25,2.25,0,0,1,1.44-1.32c.37-.08,1.05.59,1.39,1.07,1.21,1.74,2.2,3.65,3.53,5.29s2.44,1.24,2.94-.63c2.39-9,7.75-16.12,15-21.57,6.73-5.06,6.64-12.29,4.73-18.77-.36-1.26-1-2.45-1.26-3.72a2.23,2.23,0,0,1,.56-1.67c.14-.18,1.07.07,1.44.37,8.08,6.54,14.63,14.25,18.55,24a41,41,0,0,1,2.6,19A24.26,24.26,0,0,0,88.87,68.26ZM58.63,110.94l.69-.43a11.49,11.49,0,0,0-.7-1.89c-4.93-8.6-4.13-17.08.49-25.47.33-.6,2.08-3.75,2.74.4a9.79,9.79,0,0,0,1.39,2.73l.68-.35c.15-1.62.29-3.25.44-4.88.75-7.62,4.51-13.56,10.34-18.28.67-.54,2.66-2.9,2.67,1.92,0,2.06-.67,4.5.2,6.1a109.46,109.46,0,0,0,7.61,11.38c4.54,6.33,7,13.1,4.83,21-.32,1.16-.66,2.32-1.12,4,13.19-9.16,16.21-30.81,7-44.59a24.13,24.13,0,0,1-1.67,2.44c-2.3,2.61-4.6,5.22-7,7.73a2.25,2.25,0,0,1-2,.2c-.32-.13-.46-1.18-.35-1.75.32-1.69.94-3.32,1.19-5a38.16,38.16,0,0,0-5.39-25.93A53.93,53.93,0,0,0,70.11,27.43c0,1.82-.11,3,0,4.15.7,6.61-1.18,11.9-6.75,16.09A39.74,39.74,0,0,0,48.39,71c-.62,2.6-1.33,2.9-3.35,1.18s-3.94-3.4-5.87-5.08C38,73.06,35.53,82.76,37.84,90,41.19,100.5,48.82,106.86,58.63,110.94Zm2-23.86L59.5,88a20.13,20.13,0,0,0,.22,17.44c1.64,3.32,3.52,6.9,7.31,7.88a19.49,19.49,0,0,0,14.78-1.85c4.6-2.62,7.8-11.74,6.42-17a36.45,36.45,0,0,0-6.79-13.21c-2.71-3.52-5.11-8.28-7.37-12.14-.4-.69-6.3,5.32-6.89,9.68-.49,3.53-.13,7.16-.21,10.75,0,.83-2.39,2.26-3.2,1.85a5.62,5.62,0,0,1-1.94-1.82A14.21,14.21,0,0,1,60.68,87.08Z"/><path class="cls-2" d="M71.28,117.38a36.83,36.83,0,0,1-17.35-4.71c-8.78-4.64-14.42-10.2-17.76-17.51a31.71,31.71,0,0,1-3-16.78A81.07,81.07,0,0,1,35.7,66.55c.35-1.34.71-2.68,1-4a3.21,3.21,0,0,1,2.18-2.05c1.17-.27,2.24,1.18,2.44,1.47.48.7.93,1.42,1.38,2.14a30.94,30.94,0,0,0,2.1,3.09c.49.6.76.63.77.63h0s.26-.23.43-.89c2.33-8.76,7.5-16.2,15.38-22.11,5.27-4,6.71-9.75,4.38-17.69-.15-.51-.34-1-.54-1.53a15.89,15.89,0,0,1-.74-2.24,3.19,3.19,0,0,1,.76-2.55c.78-.91,2.46-.07,2.84.24,9,7.3,15.18,15.29,18.85,24.43A41.63,41.63,0,0,1,89.63,65a6.48,6.48,0,0,0,0,1.06c2.24-2.5,3.48-5,3.6-7.2A2,2,0,0,1,94.89,57a2.62,2.62,0,0,1,2.9,1.11c5.55,9.29,7.75,18.3,6.73,27.54-1.26,11.43-8.8,25.12-22.79,30A31.73,31.73,0,0,1,71.28,117.38ZM39.18,62.51a1.49,1.49,0,0,0-.5.51c-.33,1.34-.69,2.69-1,4A79.65,79.65,0,0,0,35.15,78.6,29.72,29.72,0,0,0,38,94.33c3.14,6.89,8.51,12.15,16.88,16.57,9.11,4.82,17.69,5.74,26.21,2.79,13.16-4.55,20.26-17.48,21.45-28.28,1-8.79-1.14-17.39-6.46-26.29a.56.56,0,0,0-.41-.22.61.61,0,0,0-.42.08,11.45,11.45,0,0,1-1.75,5.29,12.58,12.58,0,0,0,1-1.47l.56-.86.84-1.23L96.73,62c9.59,14.37,6.06,36.7-7.27,46l-2.29,1.59,1.24-4.37c.24-.83.44-1.54.64-2.26,1.87-6.66.38-13.05-4.68-20.12-.44-.62-.88-1.23-1.33-1.84a89.6,89.6,0,0,1-6.35-9.64c-.75-1.39-.59-3.09-.44-4.73.06-.65.12-1.27.12-1.85a6.71,6.71,0,0,0-.19-1.87,6.22,6.22,0,0,0-.56.47l-.29.25c-6,4.88-9.29,10.64-10,17.61-.11,1.12-.21,2.23-.31,3.34l-.18,2.09-2.07,1-.45-.89c-.14-.27-.31-.53-.48-.8a5.74,5.74,0,0,1-1-2.22,6.31,6.31,0,0,0-.24-1,6,6,0,0,0-.63,1c-4.8,8.7-5,16.72-.5,24.49a7.78,7.78,0,0,1,.59,1.47l.18.57.28.77-1.82,1.13-.47-.2C47,107.2,40,100.14,36.89,90.3c-2.18-6.81-.38-15.38.93-21.64.13-.62.26-1.21.37-1.77l.34-1.68,3.12,2.7c1.33,1.16,2.68,2.33,4,3.49a4,4,0,0,0,1.2.82,4.42,4.42,0,0,0,.52-1.47A40.73,40.73,0,0,1,62.78,46.87c5-3.78,7-8.61,6.35-15.18a20,20,0,0,1,0-2.6c0-.49,0-1,0-1.66V25.21l1.66,1.47a54.66,54.66,0,0,1,10.76,13,39.24,39.24,0,0,1,5.53,26.6,24.79,24.79,0,0,1-.67,2.89c-.2.74-.39,1.45-.53,2.16a2.37,2.37,0,0,0,0,.7,1.59,1.59,0,0,0,.67-.07c.49-.52,1-1,1.48-1.57l-.16-2c0-.53-.09-1-.13-1.4a10.55,10.55,0,0,1-.1-2.13,39.73,39.73,0,0,0-2.53-18.59c-3.53-8.81-9.5-16.53-18.25-23.61a1.06,1.06,0,0,0-.28-.13,1.06,1.06,0,0,0-.11.43,15.32,15.32,0,0,0,.66,2c.2.54.42,1.1.59,1.67,2.55,8.72.84,15.39-5.1,19.85-7.51,5.65-12.44,12.72-14.64,21-.45,1.67-1.31,2.18-2,2.32s-1.64,0-2.73-1.32A31.94,31.94,0,0,1,41,65.15c-.43-.7-.86-1.39-1.32-2.06A3.43,3.43,0,0,0,39.18,62.51ZM39.8,69a.52.52,0,0,1,0,.11c-1.27,6-3,14.32-1,20.63,2.85,8.93,9.13,15.44,19.17,19.86a3.1,3.1,0,0,0-.21-.45c-4.76-8.31-4.6-17.21.49-26.45.58-1,1.5-2.42,2.77-2.2s1.71,2.2,1.82,2.94a2.63,2.63,0,0,0,.25.69c.09-1,.19-2.09.29-3.13.72-7.43,4.32-13.81,10.71-19l.2-.18c.56-.51,1.61-1.45,2.73-1s1.35,2.33,1.36,3.84c0,.67-.07,1.36-.13,2a7.19,7.19,0,0,0,.21,3.6,88.38,88.38,0,0,0,6.21,9.41c.45.62.89,1.24,1.34,1.85,5.44,7.61,7,14.54,5,21.83l-.27,1c10.14-9.23,12.62-27.39,5.18-40A10.85,10.85,0,0,1,95,65.59c-2.33,2.66-4.62,5.26-7,7.77a3.19,3.19,0,0,1-3.09.44c-1.14-.46-1-2.41-.95-2.87.15-.79.36-1.57.57-2.32A22.84,22.84,0,0,0,85.08,66a37.34,37.34,0,0,0-5.25-25.27,52.94,52.94,0,0,0-8.76-11,14.49,14.49,0,0,0,.05,1.79c.77,7.25-1.57,12.81-7.14,17A38.76,38.76,0,0,0,49.36,71.21c-.36,1.52-.81,2.6-1.84,2.94s-2.14-.38-3.13-1.23q-2-1.74-4-3.5Zm32.49,46.09a22,22,0,0,1-5.51-.72c-4.37-1.13-6.44-5.34-8-8.41a21.13,21.13,0,0,1-.26-18.27l.1-.23,2.39-1.94.53,1.19c.12.27.23.55.34.83a7.22,7.22,0,0,0,.72,1.5,4.62,4.62,0,0,0,1.51,1.47,3.45,3.45,0,0,0,1.81-1c0-1.17,0-2.37,0-3.54a47.22,47.22,0,0,1,.23-7.22c.57-4.14,5.81-10.23,7.53-10.57a1.13,1.13,0,0,1,1.22.52c.62,1,1.24,2.16,1.87,3.29a74.66,74.66,0,0,0,5.43,8.75,37.28,37.28,0,0,1,7,13.56c1.53,5.91-2.07,15.42-6.89,18.17A20.08,20.08,0,0,1,72.29,115.05Zm-12-26.29A19.13,19.13,0,0,0,60.62,105c1.74,3.53,3.44,6.52,6.66,7.36a18.43,18.43,0,0,0,14-1.76c4-2.29,7.25-10.93,6-15.92a35.14,35.14,0,0,0-6.61-12.85,74.51,74.51,0,0,1-5.59-9c-.48-.85-.94-1.68-1.41-2.49-1.51,1.28-5.06,5.46-5.48,8.55a44,44,0,0,0-.22,6.9c0,1.22,0,2.48,0,3.73,0,1-1.12,1.83-1.76,2.21s-1.94,1-2.89.51A6.79,6.79,0,0,1,61,90.15,7.13,7.13,0,0,1,60.28,88.76Z"/></svg>