<svg id="Слой_1" data-name="Слой 1" xmlns="http://www.w3.org/2000/svg" viewBox="0 0 137.76 137.76"><defs><style>.cls-1{fill:#737373;}</style></defs><path class="cls-1" d="M39.91,69V32.28c0-2.59.21-2.79,2.81-2.79,13.16,0,26.33,0,39.49,0a4.31,4.31,0,0,1,3.44,1.45c3.72,3.89,7.51,7.72,11.3,11.55a3,3,0,0,1,.93,2.25q0,30.69,0,61.4c0,1.82-.39,2.18-2.27,2.19H42.22c-2,0-2.35-.35-2.35-2.4q0-18.48,0-36.95Zm29,36.47q12.24,0,24.47,0c1,0,1.64-.19,1.64-1.45q0-28.61,0-57.21c0-1.08-.35-1.52-1.46-1.49-2.58,0-5.15,0-7.73,0-3,0-4-.93-4-3.91,0-2.48.16-5,.21-7.44,0-1.84,0-1.87-1.9-1.87H44.73c-2,0-2,0-2,2.07q0,34.65.05,69.3c0,2,0,2,1.93,2ZM84.7,34.32c0,2.69,0,5,0,7.31,0,.58.43.8,1,.8,2,0,4.11,0,6.16,0,.61,0,.81-.28.33-.75C89.78,39.33,87.39,37,84.7,34.32Z"/><path class="cls-1" d="M68.13,108.67H42.22c-2.22,0-2.73-.52-2.73-2.77V79l0-46.75c0-2.78.39-3.17,3.18-3.17h9.37q15.06,0,30.12,0h0a4.68,4.68,0,0,1,3.69,1.57c3.63,3.79,7.37,7.58,11,11.25l.29.3a3.36,3.36,0,0,1,1.05,2.51v61.4c0,2-.57,2.56-2.65,2.56ZM40.24,69.32V105.9c0,1.85.17,2,2,2h53.4c1.68,0,1.9-.2,1.9-1.81V44.71a2.65,2.65,0,0,0-.83-2l-.3-.3C92.76,38.76,89,35,85.38,31.17a4,4,0,0,0-3.15-1.34h0q-15.06.06-30.12,0H42.72c-2.39,0-2.43.05-2.43,2.42v37Zm53.14,36.49h0q-9.35,0-18.69,0h-30c-2.13,0-2.3-.17-2.31-2.35l0-69.3c0-1.13,0-1.7.35-2.07s.92-.38,2-.38H80.16c1,0,1.57,0,1.94.37s.35.89.33,1.89-.06,2.12-.1,3.19c0,1.39-.1,2.83-.1,4.24,0,2.74.8,3.53,3.6,3.54h2.08c1.86,0,3.77,0,5.64,0a1.57,1.57,0,0,1,1.84,1.87c0,20.78,0,39.5,0,57.21a1.85,1.85,0,0,1-.44,1.38A2.13,2.13,0,0,1,93.38,105.81ZM80.43,105q6.46,0,12.93,0a1.58,1.58,0,0,0,1-.23,1.26,1.26,0,0,0,.22-.85c0-17.71,0-36.43,0-57.21a1.32,1.32,0,0,0-.22-.92,1.2,1.2,0,0,0-.85-.2c-1.89,0-3.81,0-5.66,0H85.83c-3.22,0-4.36-1.13-4.35-4.29,0-1.43,0-2.87.1-4.27,0-1.06.08-2.12.1-3.18a3,3,0,0,0-.12-1.34,3,3,0,0,0-1.4-.15H44.73c-.77,0-1.33,0-1.47.15a3.48,3.48,0,0,0-.15,1.55l0,69.3c0,1.6,0,1.6,1.56,1.6H80.43Zm9.32-62.22H85.66a1.18,1.18,0,0,1-1.32-1.18c0-1.64,0-3.29,0-5.08V33.43l2.74,2.7,5.35,5.29c.33.34.45.66.33.95s-.32.44-.93.44Zm-4.67-7.6v1.33c0,1.79,0,3.43,0,5.08,0,.15,0,.42.57.43H92l-.09-.1-5.34-5.28Zm7,6.8Z"/><path class="cls-1" d="M68.83,95.55c-7.31,0-14.62,0-21.93,0-1.25,0-1.82-.35-1.71-1.67.06-.82.37-1.22,1.18-1.21H90.79c.83,0,1.72-.16,1.79,1.17s-.39,1.72-1.68,1.71C83.54,95.52,76.19,95.55,68.83,95.55Z"/><path class="cls-1" d="M90.93,95.94h0q-8.24,0-16.47,0H63.32q-8.22,0-16.42,0a2.21,2.21,0,0,1-1.7-.52,2,2,0,0,1-.39-1.55c.09-1.05.59-1.55,1.54-1.55H91c.74,0,1.85,0,1.93,1.53a1.71,1.71,0,0,1-2,2.1ZM80,95.17c3.63,0,7.25,0,10.87,0h0A1.49,1.49,0,0,0,92,94.93a1.43,1.43,0,0,0,.21-1.05c0-.8-.33-.84-1.17-.82H46.37c-.52,0-.75.11-.81.86a1.26,1.26,0,0,0,.19,1c.18.2.53.29,1.15.28,5.47,0,10.94,0,16.42,0H80Z"/><path class="cls-1" d="M68.83,90.25c-7.31,0-14.62,0-21.93,0-1.25,0-1.82-.34-1.71-1.67.06-.82.37-1.21,1.18-1.2H90.79c.83,0,1.72-.15,1.79,1.18s-.39,1.72-1.68,1.71C83.54,90.23,76.19,90.25,68.83,90.25Z"/><path class="cls-1" d="M90.93,90.65h0q-8.25,0-16.5,0H63.32q-8.22,0-16.42,0a2.21,2.21,0,0,1-1.7-.52,2,2,0,0,1-.39-1.56c.09-1,.59-1.55,1.54-1.55H91c.74,0,1.85,0,1.93,1.53a1.72,1.72,0,0,1-2,2.1Zm-11-.78q5.46,0,10.92,0h0A1.44,1.44,0,0,0,92,89.63a1.4,1.4,0,0,0,.21-1c0-.8-.33-.84-1.17-.82H46.37c-.52,0-.75.12-.81.86a1.28,1.28,0,0,0,.19,1c.18.19.53.27,1.15.28q8.2,0,16.42,0H80Z"/><path class="cls-1" d="M68.83,85c-7.31,0-14.62,0-21.93,0-1.25,0-1.82-.34-1.71-1.67.06-.82.37-1.21,1.18-1.2H90.79c.83,0,1.72-.15,1.79,1.17S92.19,85,90.9,85C83.54,84.94,76.19,85,68.83,85Z"/><path class="cls-1" d="M90.93,85.36h0c-5.5,0-11,0-16.5,0H63.19c-5.43,0-10.86,0-16.29,0h0a2.23,2.23,0,0,1-1.66-.52,2,2,0,0,1-.39-1.56c.09-1,.59-1.55,1.54-1.55H91c.73,0,1.85,0,1.93,1.54a2.07,2.07,0,0,1-.42,1.6A2.09,2.09,0,0,1,90.93,85.36Zm-11-.78q5.46,0,10.92,0h0A1.49,1.49,0,0,0,92,84.34a1.42,1.42,0,0,0,.21-1c0-.8-.32-.83-1.17-.82H46.37c-.52,0-.75.12-.81.86a1.28,1.28,0,0,0,.19,1c.18.19.53.26,1.15.28,5.43,0,10.86,0,16.29,0H80Z"/><path class="cls-1" d="M59.74,37.34c4.26,0,8.52,0,12.78,0,1.1,0,1.76.18,1.74,1.52s-.83,1.33-1.77,1.33q-12.78,0-25.55,0c-1.08,0-1.8-.16-1.74-1.52,0-1.08.53-1.34,1.49-1.34C51,37.36,55.39,37.35,59.74,37.34Z"/><path class="cls-1" d="M46.91,40.56a2.27,2.27,0,0,1-1.68-.48,1.88,1.88,0,0,1-.41-1.42c.07-1.51,1-1.69,1.87-1.7,3.25,0,6.51,0,9.76,0h6.81c3.09,0,6.17,0,9.25,0a2.27,2.27,0,0,1,1.68.47,1.89,1.89,0,0,1,.45,1.43c0,1.71-1.22,1.72-2.11,1.71H72q-12.53,0-25.07,0Zm-.25-2.85c-.84,0-1,.2-1.09,1a1.24,1.24,0,0,0,.2.87,1.73,1.73,0,0,0,1.15.25h0q12.54,0,25.07,0h.51c1,0,1.36-.06,1.37-1a1.25,1.25,0,0,0-.23-.89c-.18-.18-.49-.24-1.14-.25-3.09,0-6.17,0-9.26,0H56.45c-3.25,0-6.51,0-9.76,0Z"/><path class="cls-1" d="M59.71,45.29c-4.26,0-8.52,0-12.79,0-1,0-1.72,0-1.73-1.37s.71-1.5,1.77-1.49q12.78,0,25.57,0c1.1,0,1.79.19,1.74,1.53,0,1.08-.53,1.35-1.5,1.34C68.42,45.28,64.06,45.29,59.71,45.29Z"/><path class="cls-1" d="M72.8,45.68h0c-3.26,0-6.53,0-9.79,0h-6.8q-4.63,0-9.25,0c-.92,0-2.09,0-2.12-1.73a1.87,1.87,0,0,1,.44-1.41A2.26,2.26,0,0,1,47,42.06q12.8,0,25.57,0a2.27,2.27,0,0,1,1.7.48A1.89,1.89,0,0,1,74.64,44C74.58,45.47,73.68,45.68,72.8,45.68Zm-6.11-.77,6.09,0c.81,0,1.08-.2,1.11-1a1.22,1.22,0,0,0-.2-.89c-.17-.18-.5-.25-1.14-.25h0q-12.78,0-25.57,0h0c-.56,0-1,0-1.15.24a1.23,1.23,0,0,0-.22.87c0,1,.39,1,1.36,1,3.09,0,6.17,0,9.26,0H66.69Z"/><path class="cls-1" d="M59.74,47.76c4.31,0,8.62,0,12.93,0,1.12,0,1.63.33,1.6,1.53s-.5,1.36-1.47,1.35c-4,0-8.06,0-12.09,0H46.93c-1,0-1.73,0-1.75-1.37s.69-1.51,1.77-1.51C51.21,47.77,55.48,47.76,59.74,47.76Z"/><path class="cls-1" d="M72.83,51h0q-4.31,0-8.63,0H56.74c-3.27,0-6.54,0-9.81,0-.87,0-2.1,0-2.12-1.74a1.87,1.87,0,0,1,.44-1.42,2.36,2.36,0,0,1,1.7-.46q4.62,0,9.25,0h7c3.16,0,6.33,0,9.49,0a2.07,2.07,0,0,1,1.54.46,1.85,1.85,0,0,1,.43,1.44C74.61,50.79,73.66,51,72.83,51Zm-5.22-.77,5.19,0h0c.83,0,1-.21,1.06-1a1.26,1.26,0,0,0-.21-.9,1.35,1.35,0,0,0-1-.24c-3.17,0-6.34,0-9.5,0h-7q-4.62,0-9.26,0a1.74,1.74,0,0,0-1.16.24,1.24,1.24,0,0,0-.22.88c0,.94.34,1,1.29,1h.08c3.27,0,6.54,0,9.81,0H67.61Z"/><path class="cls-1" d="M82,98c3,0,6.09,0,9.13,0,1.07,0,1.5.36,1.5,1.47s-.51,1.43-1.54,1.43q-9.06,0-18.11,0c-1,0-1.56-.23-1.58-1.4S71.87,98,73,98C76,98,79,98,82,98Z"/><path class="cls-1" d="M91.07,101.25h0c-6,0-12,0-18.11,0h0c-.94,0-1.9-.21-1.92-1.77a1.88,1.88,0,0,1,.45-1.43A2.13,2.13,0,0,1,73,97.6c2.13,0,4.27,0,6.4,0h5.14c2.19,0,4.38,0,6.57,0A1.91,1.91,0,0,1,92.5,98,1.9,1.9,0,0,1,93,99.45a1.81,1.81,0,0,1-.44,1.36A2,2,0,0,1,91.07,101.25Zm-18.18-2.9a1.29,1.29,0,0,0-.93.23,1.22,1.22,0,0,0-.23.9c0,.82.22,1.07,1.2,1,6.07,0,12.16,0,18.12,0a1.43,1.43,0,0,0,.94-.22,1.16,1.16,0,0,0,.22-.83,1.26,1.26,0,0,0-.23-.88,1.23,1.23,0,0,0-.89-.22c-2.19,0-4.39,0-6.58,0H79.37c-2.14,0-4.27,0-6.41,0Z"/></svg>