<svg id="Слой_1" data-name="Слой 1" xmlns="http://www.w3.org/2000/svg" viewBox="0 0 137.76 137.76"><defs><style>.cls-1{fill:#737373;stroke:#737373;stroke-width:0.75px;}.cls-1,.cls-2{stroke-miterlimit:10;}.cls-2{fill:#e3e3e3;stroke:#e3e3e3;stroke-width:3px;}</style></defs><path class="cls-1" d="M66.64,58.8c.24-.88.33-1.34.48-1.78.54-1.61.94-2.67-.6-4.51-1-1.17-.65-2.52,1.38-2.55.81,0,1.44,0,2.25,0,1.45.07,2.51.86,1.15,2.55-1.75,2.17-.83,3.84-.18,6.2.8-2.19,1.48-4,2.16-5.87,1.18-3.2,1.67-3.43,4.93-2.49s5.81,2.8,7,6.1a11.82,11.82,0,0,1,.59,3.75q.11,7.26,0,14.5a10.82,10.82,0,0,1-.8,2.8,1.91,1.91,0,0,1-.31.47c-1.53,2.39-3.66,4.61-4.43,7.22s-.2,5.64-.2,8.48c0,4,0,8,0,11.94,0,2.32-.77,3.09-3.06,3.09H60.89c-2.38,0-3.1-.74-3.1-3.18,0-6.44,0-12.89,0-19.33a4.35,4.35,0,0,0-.62-2.1c-1.42-2.29-3-4.51-4.39-6.8A4.24,4.24,0,0,1,52,75.2c0-5.36-.15-10.72.08-16.07.18-4.26,2.65-7.09,6.64-8.5s4.48-1.24,6,2.85C65.28,55.12,65.89,56.75,66.64,58.8Zm-6.22-3.9c-2.78,1-3.88,2.54-3.9,5.31q0,6.81,0,13.64a3.66,3.66,0,0,0,.55,1.84c1.45,2.28,3,4.47,4.43,6.77a5.48,5.48,0,0,1,.78,2.63c.07,5.83,0,11.66,0,17.49V104H75.46c0-6.26,0-12.42,0-18.58a7.16,7.16,0,0,1,1-3.28c1.28-2.21,2.77-4.3,4.16-6.45a2.61,2.61,0,0,0,.55-1.26c0-5.17,0-10.33-.09-15.49-.06-2.06-1.51-3.42-3.72-4-.18.46-.37.94-.55,1.42C74.94,61.61,73,66.81,71.15,72a2.28,2.28,0,0,1-2.24,1.81A2.33,2.33,0,0,1,66.62,72c-.49-1.33-1-2.67-1.44-4C63.61,63.68,62,59.33,60.42,54.9Z"/><path class="cls-1" d="M78.48,38.75A9.61,9.61,0,1,1,69,29.05,9.67,9.67,0,0,1,78.48,38.75ZM68.9,43.66a5.05,5.05,0,0,0,5-5.06,5,5,0,0,0-10.07,0A5,5,0,0,0,68.9,43.66Z"/><path class="cls-2" d="M60.45,54.9c1.6,4.43,3.18,8.78,4.75,13.12l1.44,4a2.33,2.33,0,0,0,2.29,1.79A2.28,2.28,0,0,0,71.17,72q2.82-7.8,5.7-15.59c.17-.48.37-1,.55-1.42,2.21.56,3.66,1.92,3.71,4,.13,5.16.1,10.32.09,15.49a2.61,2.61,0,0,1-.55,1.26c-1.39,2.15-2.88,4.24-4.16,6.45a7.16,7.16,0,0,0-1,3.28c-.09,6.16,0,12.32,0,18.58H62.36v-1.46c0-5.83,0-11.66,0-17.49a5.6,5.6,0,0,0-.79-2.63c-1.4-2.3-3-4.49-4.42-6.77a3.67,3.67,0,0,1-.56-1.84q-.08-6.82,0-13.64C56.56,57.44,57.66,55.93,60.45,54.9Z"/><path class="cls-2" d="M68.89,43.66a5,5,0,0,1-5-5,5,5,0,1,1,5,5Z"/></svg>