<svg id="Слой_1" data-name="Слой 1" xmlns="http://www.w3.org/2000/svg" viewBox="0 0 137.76 137.76"><defs><style>.cls-1,.cls-3{fill:#737373;}.cls-1{stroke:#737373;}.cls-1,.cls-2{stroke-miterlimit:10;stroke-width:0.75px;}.cls-2{fill:#e3e3e3;stroke:#e3e3e3;}</style></defs><path class="cls-1" d="M45,66.09q0-18.35,0-36.67c0-2.59.21-2.79,2.8-2.79,13.17,0,26.33,0,39.49,0a4.33,4.33,0,0,1,3.45,1.45c3.72,3.89,7.51,7.72,11.29,11.55a3,3,0,0,1,.94,2.25q0,30.69,0,61.4c0,1.82-.4,2.19-2.27,2.19H47.33c-2,0-2.35-.35-2.35-2.4V66.09Zm29,36.47q12.22,0,24.46,0c1.06,0,1.65-.19,1.65-1.45q0-28.61,0-57.21c0-1.08-.34-1.52-1.45-1.49-2.58,0-5.16,0-7.74,0-3,0-4-.93-4-3.91,0-2.48.16-5,.2-7.44,0-1.84,0-1.87-1.9-1.87H49.84c-2,0-2,0-2,2.07q0,34.65,0,69.3c0,2,0,2,1.94,2Zm15.81-71.1c0,2.69,0,5,0,7.31,0,.58.42.8,1,.8,2,0,4.1,0,6.15,0,.61,0,.81-.28.34-.75Z"/><path class="cls-1" d="M73.94,66.06H55.25c-2,0-2.37-.33-2.38-2.36q0-4.37,0-8.71c0-1.65.56-2.22,2.2-2.22q18.9,0,37.8,0c1.66,0,2.22.56,2.23,2.19,0,3,0,6,0,9,0,1.74-.4,2.1-2.21,2.11Zm0-10.42c-5.53,0-11,0-16.58,0-1.3,0-1.76.43-1.68,1.71a29.1,29.1,0,0,1,0,4.07c-.11,1.42.43,1.86,1.84,1.84,6.84-.06,13.67,0,20.51,0,4.12,0,8.24-.06,12.36,0,1.44,0,1.92-.48,1.82-1.88a29.1,29.1,0,0,1,0-4.07c.09-1.3-.43-1.69-1.7-1.68C85,55.67,79.51,55.64,74,55.64Z"/><path class="cls-1" d="M73.94,73.93c-7.3,0-14.61,0-21.92,0-1.25,0-1.82-.34-1.72-1.67.07-.82.37-1.21,1.19-1.2H95.91c.82,0,1.71-.15,1.78,1.18S97.31,74,96,74C88.66,73.91,81.3,73.93,73.94,73.93Z"/><path class="cls-1" d="M64.86,34.49c4.26,0,8.51,0,12.77,0,1.1,0,1.77.18,1.75,1.52s-.84,1.33-1.78,1.33q-12.76,0-25.54,0c-1.09,0-1.8-.16-1.75-1.52,0-1.08.54-1.34,1.5-1.33C56.16,34.5,60.51,34.49,64.86,34.49Z"/><path class="cls-1" d="M64.82,42.43c-4.26,0-8.52,0-12.78,0-1,0-1.72,0-1.74-1.37s.71-1.5,1.78-1.49q12.78,0,25.57,0c1.1,0,1.79.19,1.73,1.53,0,1.08-.53,1.35-1.49,1.34C73.53,42.42,69.18,42.43,64.82,42.43Z"/><path class="cls-1" d="M64.85,44.9c4.32,0,8.63,0,12.94,0,1.12,0,1.62.33,1.59,1.53s-.5,1.36-1.47,1.35c-4,0-8.06,0-12.09,0H52c-1,0-1.72,0-1.74-1.37s.68-1.51,1.76-1.5C56.33,44.91,60.59,44.9,64.85,44.9Z"/><path class="cls-1" d="M87.07,76.38c3,0,6.09,0,9.13,0,1.07,0,1.5.36,1.5,1.47s-.51,1.43-1.54,1.42q-9.06,0-18.12,0c-1,0-1.56-.23-1.57-1.39s.51-1.52,1.61-1.51C81.08,76.41,84.07,76.38,87.07,76.38Z"/><path class="cls-2" d="M68.6,85.3c-1.75-1-3.56-1.78-5.35-2.65s-3.94-1-4.38.54c-1,3.43-3.15,4.87-6.47,3.54C48.69,85.24,47.25,85,44,82.59c-3.06-2.27-6-4-8-7.29-1.08-1.8-2.38-4.07-.94-5.54.6-.61,1.24-1.19,1.89-1.76a2.06,2.06,0,0,0,.23-2.6c-1.75-2-2.31-3.35-4.47-5-1.3-1-2.76-1.29-4-.16A9.68,9.68,0,0,0,26.4,63.9c-.61,1.65-1.56,4.62-.88,6.57,1.64,4.72,4,7.6,7.5,10.93A58.42,58.42,0,0,0,41.3,88a65.27,65.27,0,0,0,7,4.22c1.76.86,3.49,1.81,5.29,2.54,2.05.82,4,2,6.36,1.89a7.09,7.09,0,0,0,2.69-.42c2.24-.91,4.64-3.22,6.17-5C70.74,88.88,71.16,86.75,68.6,85.3Z"/><path class="cls-3" d="M69.28,81.78A37.06,37.06,0,0,0,59.71,78a2.89,2.89,0,0,0-3.09,1.36,8,8,0,0,0-1.49,3.35c-.08.91-.36,1.26-1.54.8A31.42,31.42,0,0,1,48,80.81c-3.35-2.15-6.62-4.39-9-7.65-.59-.8-.44-1.23.26-1.82.9-.75,2-1.22,2.71-2.27a3,3,0,0,0,0-3.53,36,36,0,0,0-8.57-9.35c-.22-.17-4.22-2.18-6,.54a67,67,0,0,0-4.6,8.35,8.49,8.49,0,0,0-.35,6.26,27.6,27.6,0,0,0,4.74,8.41c2.9,3.72,6.7,6.45,10.34,9.36A56.42,56.42,0,0,0,47,95c1.54.79,3.13,1.44,4.69,2.16,2.6,1.21,5.19,2.66,8.11,2.68,3.77,0,5.24-.87,7.74-2.62a20.45,20.45,0,0,0,6-8.22C74.56,86.32,70.75,82.7,69.28,81.78Zm-.52,9.43c-1.53,1.79-3.93,4.1-6.17,5a7.09,7.09,0,0,1-2.69.42c-2.33.09-4.31-1.07-6.36-1.89-1.8-.73-3.53-1.68-5.29-2.54a65.27,65.27,0,0,1-7-4.22A58.42,58.42,0,0,1,33,81.4c-3.53-3.33-5.86-6.21-7.5-10.93-.68-2,.27-4.92.88-6.57a9.68,9.68,0,0,1,2.35-3.67c1.25-1.13,2.71-.84,4,.16,2.16,1.66,2.72,3,4.47,5A2.06,2.06,0,0,1,37,68c-.65.57-1.29,1.15-1.89,1.76-1.44,1.47-.14,3.74.94,5.54,2,3.33,4.91,5,8,7.29,3.23,2.4,4.67,2.65,8.38,4.14,3.32,1.33,5.46-.11,6.47-3.54.44-1.51,2.47-1.45,4.38-.54s3.6,1.66,5.35,2.65C71.16,86.75,70.74,88.88,68.76,91.21Z"/></svg>