<svg id="Слой_1" data-name="Слой 1" xmlns="http://www.w3.org/2000/svg" viewBox="0 0 137.76 137.76"><defs><style>.cls-1{fill:#737373;}</style></defs><path class="cls-1" d="M31.3,69c0-10.74,0-21.47,0-32.2,0-1.71.53-2.14,2.18-2.13,16.07,0,32.14,0,48.21,0a10.06,10.06,0,0,0,2.25.07c2.07-.5,2.88.66,3.55,2.3,1.94,4.69,4,9.34,5.93,14,2.18,5.21,4.31,10.44,6.48,15.65,2,4.84,4.08,9.66,6.08,14.51a6.8,6.8,0,0,1,.53,2.51c0,4.82,0,9.63,0,14.45,0,1.66-.64,2.36-2.31,3-4.45,1.78-9,1.88-13.64,1.87-18.8-.06-37.59,0-56.39,0-2.51,0-2.88.59-2.78-2.77.18-6,0-12-.07-17.92C31.28,77.92,31.3,73.46,31.3,69Zm1.21,2.74a24.39,24.39,0,0,0,2.1-1.32q13.28-10.48,26.55-21a7.84,7.84,0,0,1,1.57-.75l.24.45c-.2.19-.38.39-.59.56q-9.5,7.58-19,15.14c-3.4,2.69-6.84,5.34-10.21,8.07-.41.34-.52,1.06-.77,1.61.49.21,1,.46,1.46.62a2.47,2.47,0,0,0,.86,0l55.52-1L96.51,74c1.12,0,1.44-.55,1-1.59-1.69-4.35-3.37-8.72-5.08-13.08-2.87-7.31-5.8-14.6-8.58-21.95a2.31,2.31,0,0,0-2.56-1.75c-2.67,0-5.34-.09-8,.06a5.67,5.67,0,0,0-3,1.12c-7.83,6.13-15.61,12.33-23.41,18.5a6.5,6.5,0,0,1-1.24.61l-.4-.58,23.88-19-.3-.57c-.66-.06-1.33-.17-2-.17q-16,0-32,0c-2.3,0-2.56.26-2.56,2.64q0,15.57,0,31.16C32.29,70.11,32.41,70.78,32.51,71.74Zm35.76,28.37V100q16.89,0,33.77,0c2.21,0,2.43-.25,2.4-2.38,0-4-.17-8-.19-12,0-1.64-.63-2.27-2.3-2.2q-6.51.24-13,.29-27.16.23-54.32.38c-1.64,0-2.33.63-2.31,2.26,0,3.54,0,7.08,0,10.62,0,3.08,0,3.13,3.08,3.13ZM62.85,83.17v-.23c2.09,0,4.18,0,6.27,0q14.88-.22,29.75-.49c2.26,0,2.64-.77,1.66-2.82a28.16,28.16,0,0,1-1.48-3.33A1.63,1.63,0,0,0,97.16,75c-5.51.18-11,.3-16.53.4q-22.09.39-44.21.77c-4.35.07-4.17-.58-4.15,4.31,0,2.67,0,2.7,2.73,2.7ZM99,101.4"/><path class="cls-1" d="M32.55,69c0-8.92,0-17.84,0-26.75,0-1.08,0-2.15,0-3.22a8.48,8.48,0,0,1,0-2.89c.11-.28.39-.21.88-.22,1.16,0,2.32,0,3.48,0l13.42,0H80.41c1.06,0,2.18.19,3.23.11.65-.06,1.32-.36,1.87.11a5.76,5.76,0,0,1,1.11,2.14c1.7,4.08,3.46,8.14,5.18,12.21,3.45,8.23,6.82,16.49,10.28,24.72.86,2,1.74,4.07,2.56,6.12s.6,4.24.6,6.4,0,4.31,0,6.47v3.49a2.27,2.27,0,0,1-.4,1.77,5.22,5.22,0,0,1-1.89.89,24.15,24.15,0,0,1-3.13.86,35.62,35.62,0,0,1-6.27.61c-4.41.1-8.83,0-13.24,0q-13.47,0-26.95,0H39.89c-2.1,0-4.19,0-6.29,0a5,5,0,0,0-1.18,0c-.12.09.27.11.22.19a1.48,1.48,0,0,1,0-.34,12.92,12.92,0,0,0,0-2.41c0-1.16,0-2.32,0-3.48,0-2.24,0-4.48-.06-6.72-.07-4.47-.09-8.94-.09-13.42,0-2.23,0-4.46,0-6.69a1.25,1.25,0,0,0-2.5,0c0,9.77.27,19.55.12,29.32,0,2.18-.78,6,2.38,6.05,4.26.13,8.56,0,12.83,0q14.59,0,29.19,0l14.73,0c4.42,0,8.92.05,13.2-1.21,1.52-.45,3.38-1,4.42-2.26s.82-3.47.82-5.16c0-2.41,0-4.82,0-7.23,0-2.19.28-4.62-.32-6.76A57.23,57.23,0,0,0,104.68,75l-2.76-6.57c-1.89-4.51-3.74-9-5.61-13.56-1.8-4.35-3.65-8.69-5.49-13-.88-2.07-1.6-4.32-2.69-6.3a3.79,3.79,0,0,0-3.35-2.17c-1,0-1.9.12-2.9.07-1.23-.07-2.48,0-3.71,0H41.64l-7.2,0c-1.4,0-3.14-.12-4,1.26S30,38.41,30,40c0,2.39,0,4.79,0,7.18q0,7.3,0,14.61V69A1.25,1.25,0,0,0,32.55,69Z"/><path class="cls-1" d="M33.14,72.82a70,70,0,0,0,7-5.22L48,61.43l7.61-6C58,53.47,60.49,51,63.36,49.76l-1.71-.45.24.45.19-1.51a101.27,101.27,0,0,1-8.14,6.58L45.6,61.48q-4,3.18-8,6.34c-1.39,1.09-2.78,2.18-4.16,3.29a6.47,6.47,0,0,0-1.5,1.36,8.73,8.73,0,0,0-.71,1.7,1.25,1.25,0,0,0,.57,1.42,6.55,6.55,0,0,0,2.95.8c1.41,0,2.81,0,4.22-.08l8.18-.14,16.11-.29c10.77-.2,21.54-.37,32.32-.6,1.57,0,3.5-.25,3.4-2.31a11.14,11.14,0,0,0-1.08-3.14L96.39,66Q93.53,58.6,90.6,51.23q-1.48-3.76-3-7.54c-.94-2.39-1.68-5-2.82-7.27-.82-1.66-2.24-2-4-2-2.56,0-5.17-.18-7.73.07s-4.57,2.18-6.6,3.77q-3.61,2.84-7.22,5.7l-7,5.55-3.7,2.94a16.82,16.82,0,0,1-3.52,2.42l1.71.45-.4-.58-.19,1.51L70.05,37.28a1.27,1.27,0,0,0,.2-1.52c-.54-1-1-1.16-2.18-1.28-1.38-.13-2.77-.08-4.15-.08H35.33a9,9,0,0,0-2.48.19c-1.4.42-1.75,1.73-1.81,3-.23,5.31,0,10.68,0,16V63a79.4,79.4,0,0,0,.23,8.73c.17,1.59,2.67,1.6,2.5,0-.51-4.67-.23-9.47-.23-14.17,0-4.87,0-9.73,0-14.6V39.26c0-.45-.25-1.9.07-2.29a3.52,3.52,0,0,1,.76-.08c1.23,0,2.46,0,3.68,0H61c2.64,0,5.29-.08,7.91.18l-1.08-.62.3.57.19-1.51L44.41,54.45a1.25,1.25,0,0,0-.2,1.52l.4.58a1.29,1.29,0,0,0,1.71.45c2-.89,3.68-2.53,5.39-3.89l5.66-4.48q5.75-4.56,11.51-9.1a21.37,21.37,0,0,1,2.76-2.07,7.4,7.4,0,0,1,3.55-.58c1.1,0,2.2,0,3.3,0a20.86,20.86,0,0,1,3.26,0c.86.15,1,1,1.27,1.73.43,1.14.87,2.29,1.32,3.44.85,2.21,1.72,4.42,2.59,6.63,1.8,4.56,3.61,9.11,5.38,13.67q1.27,3.27,2.54,6.54l1.23,3.16c.08.21.15.72.31.82s.31-.2.36-.17a6.11,6.11,0,0,0-1.69.07c-9.78.21-19.57.36-29.35.54l-16.36.3-8.18.14-4,.08c-.74,0-1.49,0-2.23,0A4.14,4.14,0,0,1,33,73.43l.58,1.41a2.89,2.89,0,0,1,.82-1.36c.6-.53,1.26-1,1.88-1.51q2-1.57,4-3.13c2.63-2.06,5.24-4.14,7.85-6.21l7.76-6.18a98.77,98.77,0,0,0,8-6.43,1.3,1.3,0,0,0,.2-1.52l-.24-.45a1.29,1.29,0,0,0-1.71-.45c-2.72,1.16-5,3.44-7.3,5.26L47,59l-7.61,6a78.38,78.38,0,0,1-7.51,5.61C30.51,71.5,31.76,73.67,33.14,72.82Z"/><path class="cls-1" d="M69.52,100.11V100l-1.25,1.25h30.3c1.45,0,2.93.09,4.38,0a3,3,0,0,0,2.06-.78,3.29,3.29,0,0,0,.68-2.21c.06-1.56,0-3.13-.07-4.69s-.06-3-.08-4.57a21.71,21.71,0,0,0-.16-4.56c-.57-2.38-2.9-2.27-4.88-2.2q-4.83.17-9.66.22c-13.43.16-26.87.22-40.3.31l-10,.06-5,0a5.48,5.48,0,0,0-3.36.65,3,3,0,0,0-1.16,2.22,48.65,48.65,0,0,0,0,5,69.39,69.39,0,0,0,.06,8.16c.23,2,1.68,2.45,3.47,2.49,3.58.08,7.18,0,10.76,0H68.27a1.25,1.25,0,0,0,0-2.5H37.11a17.65,17.65,0,0,1-3.41,0c-.29-.06-.07.17-.13-.15a20,20,0,0,1,0-3.37c0-2.9,0-5.8,0-8.69,0-1,0-1.2,1.06-1.25,1.57-.07,3.16,0,4.73,0L48,85.27Q66,85.17,83.92,85c5.77-.05,11.54-.1,17.31-.31.66,0,1.53-.27,1.74.4a6.26,6.26,0,0,1,0,1.73l0,2.4c0,2.86.15,5.72.15,8.57a2.51,2.51,0,0,1-.06,1c.18-.32,0-.06-.32-.07-1.49-.06-3,0-4.49,0h-30A1.26,1.26,0,0,0,67,100v.08A1.25,1.25,0,0,0,69.52,100.11Z"/><path class="cls-1" d="M64.1,83.17v-.23l-1.25,1.25C68.91,84.2,75,84.1,81,84S92.93,84,98.87,83.7c1.57-.06,3.38-.51,3.41-2.41a5.88,5.88,0,0,0-.77-2.5c-.57-1.19-1-2.57-1.63-3.69-1.2-2-4.19-1.31-6.12-1.26q-4.5.14-9,.22c-12.05.25-24.11.42-36.17.63l-9.19.16c-1.91,0-3.89-.08-5.8.1-3.18.29-2.64,3.94-2.57,6.3,0,1.66.55,2.92,2.36,3.12a81.08,81.08,0,0,0,8.82,0H62.85a1.25,1.25,0,0,0,0-2.5H39a33.24,33.24,0,0,1-5.57-.06c.38.07,0,.33.15,0a3.88,3.88,0,0,0,0-.9c0-.86,0-1.73,0-2.58,0-.28.12-.92.09-1s.08.12-.11.12.21,0,.26,0c4.26-.27,8.58-.13,12.85-.21l31.79-.54c5.12-.09,10.24-.19,15.36-.34l1.94-.06a6,6,0,0,1,1.79,0c.57.24.9,1.8,1.16,2.37s1.17,1.8,1.13,2.59c0,0,.3-.22,0-.11a3.93,3.93,0,0,1-1.45.12c-11.84.26-23.69.49-35.53.48a1.27,1.27,0,0,0-1.25,1.25v.23A1.25,1.25,0,0,0,64.1,83.17Z"/><path class="cls-1" d="M99,102.65a1.25,1.25,0,0,0,0-2.5,1.25,1.25,0,0,0,0,2.5Z"/></svg>