<svg id="Слой_1" data-name="Слой 1" xmlns="http://www.w3.org/2000/svg" viewBox="0 0 137.76 137.76"><defs><style>.cls-1{fill:#737373;}.cls-2{fill:#e3e3e3;stroke:#e3e3e3;stroke-miterlimit:10;stroke-width:4px;}</style></defs><path class="cls-1" d="M68.92,28.34a40.54,40.54,0,1,1-40.6,40.5A40.67,40.67,0,0,1,68.92,28.34ZM34.12,68.83a34.76,34.76,0,1,0,34.81-34.7A34.9,34.9,0,0,0,34.12,68.83Z"/><path class="cls-2" d="M34.12,68.83a34.76,34.76,0,1,1,34.56,34.79A34.91,34.91,0,0,1,34.12,68.83ZM68.75,86.27a16.8,16.8,0,0,0,10.09-3.2,3.73,3.73,0,0,0,1.55-2.26,3.94,3.94,0,0,0-1.19-2.69c-1-.93-2.29-.7-3.46.08-4.47,3-9,3-13.55.14a5.49,5.49,0,0,0-1.55-.73,2.85,2.85,0,0,0-2.36,5C61.31,85.18,64.94,86.1,68.75,86.27ZM60.19,63.14a5.8,5.8,0,1,0-5.85,5.74A5.82,5.82,0,0,0,60.19,63.14ZM83.4,57.29a5.8,5.8,0,1,0,5.76,5.83A5.82,5.82,0,0,0,83.4,57.29Z"/><path class="cls-1" d="M68.75,86.27c-3.81-.17-7.44-1.09-10.47-3.7a2.85,2.85,0,0,1,2.36-5,5.49,5.49,0,0,1,1.55.73c4.55,2.85,9.08,2.82,13.55-.14,1.17-.78,2.46-1,3.46-.08a3.94,3.94,0,0,1,1.19,2.69,3.73,3.73,0,0,1-1.55,2.26A16.8,16.8,0,0,1,68.75,86.27Z"/><path class="cls-1" d="M60.19,63.14a5.8,5.8,0,1,1-5.74-5.85A5.82,5.82,0,0,1,60.19,63.14Z"/><path class="cls-1" d="M83.4,57.29a5.8,5.8,0,1,1-5.83,5.76A5.82,5.82,0,0,1,83.4,57.29Z"/></svg>