<svg id="Слой_1" data-name="Слой 1" xmlns="http://www.w3.org/2000/svg" viewBox="0 0 137.76 137.76"><defs><style>.cls-1{fill:#737373;}</style></defs><path class="cls-1" d="M101.37,51.38l-4,11H101a31.81,31.81,0,0,0-62.27,0c-.5,2.35,3.12,3.36,3.61,1a28.08,28.08,0,0,1,55,0c.42,2,3,1.61,3.62,0l4-11c.82-2.27-2.81-3.25-3.62-1Z"/><path class="cls-1" d="M88.19,58.91,97,63.77l1.26.69a1.87,1.87,0,1,0,1.89-3.23l-8.83-4.86-1.26-.69a1.87,1.87,0,1,0-1.89,3.23Z"/><path class="cls-1" d="M51.68,78.28,41.46,73a1.9,1.9,0,0,0-2.75,2.12,31.81,31.81,0,0,0,62.47-.51c.43-2.36-3.18-3.37-3.62-1a28.08,28.08,0,0,1-55.24.51l-2.75,2.12,10.22,5.23c2.14,1.1,4-2.13,1.89-3.23Z"/><path class="cls-1" d="M36.2,85.75l4.87-8.54.69-1.2a1.88,1.88,0,1,0-3.24-1.89l-4.87,8.54L33,83.86a1.89,1.89,0,0,0,.67,2.56,1.91,1.91,0,0,0,2.57-.67Z"/><path class="cls-1" d="M52.37,68.37H45.7a1.89,1.89,0,0,0-1.87,1.87,1.91,1.91,0,0,0,1.87,1.88h6.67a1.88,1.88,0,1,0,0-3.75Z"/><path class="cls-1" d="M71.82,92V84.8a1.88,1.88,0,0,0-3.75,0V92a1.88,1.88,0,0,0,3.75,0Z"/><path class="cls-1" d="M68.07,50.55V68.88a1.9,1.9,0,0,0,1.87,1.87h9.52a1.88,1.88,0,0,0,0-3.75H69.94l1.88,1.88V50.55a1.88,1.88,0,0,0-3.75,0Z"/></svg>