<svg id="Слой_1" data-name="Слой 1" xmlns="http://www.w3.org/2000/svg" viewBox="0 0 137.76 137.76"><defs><style>.cls-1{fill:#737373;}.cls-2{fill:#e3e3e3;stroke:#e3e3e3;stroke-miterlimit:10;}</style></defs><path class="cls-1" d="M74.83,70.48c-.06-1.39-.14-2.77-.16-4.15,0-2.8-.3-3.08-3.08-3.16-.78,0-1.56,0-2.34,0-2.75,0-3.42-.58-3.45-3.38q-.1-9.28,0-18.56c0-2.73.91-3.51,3.66-3.52q16.13,0,32.27,0c2.41,0,3.39.76,3.43,3.17.1,6.49.08,13,0,19.46,0,2.1-.94,2.81-3.15,2.83-4.86,0-9.74.15-14.6,0a8.45,8.45,0,0,0-6.57,2.67c-1.72,1.64-3.51,3.22-5.27,4.83Zm.56-24.33a3.45,3.45,0,0,0-3.32,3.09,3.31,3.31,0,0,0,6.61.07A3.57,3.57,0,0,0,75.39,46.15Zm6.52,3a3.24,3.24,0,0,0,3.3,3.29,3,3,0,0,0,2.9-3.06,3.06,3.06,0,0,0-3.06-3.27A3.17,3.17,0,0,0,81.91,49.18Zm16,.21a3,3,0,0,0-3.05-3.23,3,3,0,0,0-3,3.07,2.82,2.82,0,0,0,3.09,3.13C96.9,52.3,97.88,51.34,97.87,49.39Z"/><path class="cls-1" d="M80.58,90a46.06,46.06,0,0,0-9.65-8.48,3.62,3.62,0,0,0-4.2.3,9.9,9.9,0,0,0-3.15,3.31c-.48,1-1,1.33-2.15.29A39.27,39.27,0,0,1,56,79.93C52.94,76,50,72,48.55,67.15c-.37-1.19,0-1.62,1.06-2,1.38-.51,2.88-.59,4.14-1.54a3.68,3.68,0,0,0,1.53-4.12,45.15,45.15,0,0,0-6.15-14.58C49,44.6,45.08,40.57,41.89,43A85,85,0,0,0,33,50.91a10.55,10.55,0,0,0-3,7.2A34.26,34.26,0,0,0,32,70c1.85,5.59,5.16,10.39,8.22,15.33a71.16,71.16,0,0,0,8.61,10.9c1.48,1.58,3.07,3,4.6,4.51,2.55,2.5,5,5.29,8.4,6.54,4.42,1.61,6.52,1.18,10.19.16,3.11-.86,7.57-3.89,10.45-7.15C84.88,97.54,81.92,91.69,80.58,90ZM76,100.85c-2.55,1.46-6.34,3.17-9.35,3.3a9,9,0,0,1-3.33-.64c-2.77-.86-4.61-3.06-6.67-4.88-1.81-1.62-3.45-3.46-5.16-5.19a84.27,84.27,0,0,1-6.39-7.88,73.06,73.06,0,0,1-7-11.21c-2.75-5.38-4.28-9.74-4.23-16,0-2.58,2.38-5.66,3.79-7.36A12.36,12.36,0,0,1,42,47.7c1.94-.8,3.53.15,4.64,1.88,1.84,2.85,2,4.62,3.15,7.74a2.59,2.59,0,0,1-1.36,3c-1,.39-2,.8-3,1.27-2.31,1.13-1.73,4.34-1.21,6.91,1,4.75,3.67,7.94,6.3,11.89,2.8,4.17,4.38,5.07,8.11,8.38,3.34,3,6.45,2.15,9.08-1.45,1.15-1.59,3.51-.67,5.36,1.2s3.55,3.45,5.18,5.35C80.7,96.62,79.31,99,76,100.85Z"/><path class="cls-2" d="M78.3,93.84c-1.63-1.9-3.43-3.59-5.18-5.35s-4.21-2.79-5.36-1.2c-2.63,3.6-5.74,4.4-9.08,1.45-3.73-3.31-5.31-4.21-8.11-8.38-2.63-4-5.34-7.14-6.3-11.89-.52-2.57-1.1-5.78,1.21-6.91,1-.47,2-.88,3-1.27a2.59,2.59,0,0,0,1.36-3c-1.2-3.12-1.31-4.89-3.15-7.74C45.54,47.85,44,46.9,42,47.7A12.36,12.36,0,0,0,37.71,51c-1.41,1.7-3.77,4.78-3.79,7.36-.05,6.23,1.48,10.59,4.23,16a73.06,73.06,0,0,0,7,11.21,84.27,84.27,0,0,0,6.39,7.88c1.71,1.73,3.35,3.57,5.16,5.19,2.06,1.82,3.9,4,6.67,4.88a9,9,0,0,0,3.33.64c3-.13,6.8-1.84,9.35-3.3C79.31,99,80.7,96.62,78.3,93.84Z"/></svg>