<svg id="Слой_1" data-name="Слой 1" xmlns="http://www.w3.org/2000/svg" viewBox="0 0 137.76 137.76"><defs><style>.cls-1{fill:#737373;}</style></defs><path class="cls-1" d="M70.62,36.43C80.14,36.37,90,42.66,93,51.6c1.12,3.35,3.17,3.93,5.73,4.94,2.85,1.11,6.42,2.93,4.84,6.42-2.13,4.7-5.41,9.17-10.89,10.62-3.25.86-5.34-1.53-6.1-4.32-2.15-7.85-5.26-5.72-9.43-1.48C67.14,78,56.93,88,46.69,97.93c-2.79,2.72-5.72,5.36-9.9,1.5-3.9-3.61-4-6.57-.16-10.32C47.1,78.93,57.41,68.59,67.68,58.21c5.69-5.76,5-9-1.76-12.58-2.62-1.39-8.09-.61-7-5.15.86-3.7,5.78-3.43,9.26-4A14.65,14.65,0,0,1,70.62,36.43Zm-3.05,4.75c3.3,3.36,11.66,7.11,8.16,15.37-1.23,2.92.83,4.09,3.53,3.4,5.78-1.48,9.66.19,11.42,6.11.44,1.49,1.6,2.36,3.12,1.64,2-1,3.88-2.39,4.4-4.61.39-1.73-1.39-2.1-2.67-2.44-4.21-1.1-6-3.89-7.12-8C86.27,44.88,77.22,40.5,67.57,41.18Z"/></svg>