<svg id="Слой_1" data-name="Слой 1" xmlns="http://www.w3.org/2000/svg" viewBox="0 0 137.76 137.76"><defs><style>.cls-1{fill:#737373;}</style></defs><path class="cls-1" d="M28.21,101.48c-.11-2.36,1.31-4.32,3-6Q42.57,84,54,72.72l8.5-8.48A4,4,0,0,1,65,63c2.63-.28,4.59-4.52,3.27-6.86-1-1.82-1-2,.45-3.45Q80.1,41.3,91.52,29.89c2.26-2.25,4.38-2.24,6.66,0q4.88,4.85,9.72,9.72c2.22,2.24,2.2,4.41-.05,6.67q-5.56,5.58-11.16,11.15c-1.68,1.68-2.06,1.66-3.75-.06-.57-.59-1.18-1.14-1.74-1.74a1,1,0,0,0-1.59-.07c-.62.57-.53,1,0,1.56.78.73,1.51,1.5,2.25,2.25A1.77,1.77,0,0,1,92,62.18c-3.45,3.55-3.26,3.61-6.6.25C85,62,84.5,61.06,84,61.59s.42,1,.83,1.43c3.23,3.26,3.23,3.26-.07,6.42a1.94,1.94,0,0,1-2.79.32c-2.08-1.33-3.57-1.1-5.3.64-1,.95-2.22,1.71-2,3.41.05.5-.53.89-.9,1.26Q57.74,91,41.75,107c-4.53,4.5-11.65,2.81-13.32-3.07A9.72,9.72,0,0,1,28.21,101.48ZM36,106.54c1.61.2,2.8-.74,3.92-1.87,4.43-4.44,8.87-8.85,13.3-13.29,5.63-5.62,11.22-11.27,16.88-16.86.93-.93.84-1.49-.07-2.32-1.5-1.36-2.88-2.84-4.32-4.27s-1.43-1.39-2.91.08Q52.53,78.36,42.18,88.67c-3.21,3.21-6.43,6.39-9.59,9.64a4.62,4.62,0,0,0-1.07,5.57A4.35,4.35,0,0,0,36,106.54Zm70.44-63.7a1.89,1.89,0,0,0-.71-1.37c-3.17-3.17-6.35-6.33-9.51-9.52a1.63,1.63,0,0,0-2.7,0q-10.93,11-21.9,21.89a1.4,1.4,0,0,0-.42,1.79,5.8,5.8,0,0,1,0,5.17,1.2,1.2,0,0,0,.32,1.55l3.89,3.89a1.17,1.17,0,0,0,1.41.37,6.6,6.6,0,0,1,5.61,0c.32.15.67.21.9-.14s0-.64-.22-.9a7,7,0,0,0-.6-.62c-3.56-3.31-3-3.45.22-6.63l.11-.09a1.58,1.58,0,0,1,2.51.07c.83.88,1.7,1.71,2.56,2.55.24.23.54.52.87.18s0-.63-.19-.86c-.84-.87-1.68-1.73-2.55-2.57A1.56,1.56,0,0,1,86,55.12c1-1,2-2.07,3.07-3.07a1.64,1.64,0,0,1,2.55,0c.76.74,1.53,1.47,2.26,2.24s1.13.76,1.82.07c3.36-3.4,6.74-6.76,10.12-10.14A1.7,1.7,0,0,0,106.47,42.84ZM68.78,64.17a1.86,1.86,0,0,0-1,.92c-.23.38,0,.63.29.86l3.68,3.66c.48.49.9.63,1.46.07a1,1,0,0,0,0-1.58C72,67,70.81,65.79,69.65,64.64A1.21,1.21,0,0,0,68.78,64.17Z"/><path class="cls-1" d="M35.78,109.8A7.82,7.82,0,0,1,28.19,104a9,9,0,0,1-.22-2.24v-.26c-.12-2.65,1.6-4.72,3.1-6.24,5.68-5.71,11.48-11.49,17.09-17.08l14.14-14.1A4.12,4.12,0,0,1,65,62.77a3.92,3.92,0,0,0,2.81-2.31A4.59,4.59,0,0,0,68,56.29c-1.09-1.93-1-2.21.5-3.76q11.4-11.41,22.82-22.81c2.35-2.35,4.64-2.35,7,0,3.83,3.8,6.92,6.89,9.73,9.72,2.33,2.36,2.31,4.65,0,7q-5.58,5.6-11.16,11.15c-.88.88-1.43,1.32-2,1.32h0c-.6,0-1.15-.45-2.06-1.38l-.71-.69c-.35-.34-.7-.69-1-1a1,1,0,0,0-.62-.38.93.93,0,0,0-.62.32.84.84,0,0,0-.35.57c0,.18.13.38.39.63.55.52,1.09,1.08,1.61,1.61l.64.65a2,2,0,0,1,.06,3.14l-.36.37c-1.56,1.61-2.35,2.41-3.21,2.42h0c-.86,0-1.64-.79-3.2-2.36l-.18-.19a4.07,4.07,0,0,1-.3-.36c-.18-.23-.42-.55-.58-.56s-.07,0-.16.08-.07.11-.07.13c0,.18.36.47.59.67l.31.28c1.67,1.68,2.5,2.52,2.49,3.43s-.86,1.72-2.54,3.34A2.2,2.2,0,0,1,81.8,70c-2-1.25-3.31-1.09-5,.6l-.53.5c-.8.74-1.57,1.44-1.43,2.71.06.53-.36.92-.73,1.25l-.23.22q-4.56,4.55-9.09,9.1c-7.49,7.48-15.22,15.23-22.86,22.81A8.74,8.74,0,0,1,35.78,109.8ZM94.83,28.45a4.58,4.58,0,0,0-3.14,1.62L68.87,52.88c-1.39,1.4-1.4,1.43-.41,3.16a5.1,5.1,0,0,1-.25,4.64A4.38,4.38,0,0,1,65,63.26a3.7,3.7,0,0,0-2.36,1.16L48.5,78.52C42.9,84.11,37.1,89.89,31.42,95.6c-1.44,1.45-3.07,3.42-3,5.86v.28a8.63,8.63,0,0,0,.2,2.11,7.26,7.26,0,0,0,5.2,5.21,8.06,8.06,0,0,0,7.71-2.25C49.21,99.22,57,91.48,64.43,84l9.09-9.09.25-.24c.3-.27.61-.55.58-.83-.17-1.52.76-2.37,1.58-3.13l.52-.48c1.84-1.85,3.47-2,5.62-.67a1.7,1.7,0,0,0,2.48-.29c1.55-1.48,2.4-2.3,2.4-3s-.82-1.55-2.34-3.08c-.08-.08-.18-.16-.29-.25-.35-.3-.74-.64-.75-1a.6.6,0,0,1,.21-.49.76.76,0,0,1,.54-.23c.39,0,.68.41.94.75a3.21,3.21,0,0,0,.27.32l.18.18c1.41,1.43,2.19,2.22,2.84,2.22h0c.65,0,1.43-.81,2.85-2.27l.36-.37a1.52,1.52,0,0,0,0-2.44l-.64-.65c-.52-.53-1.06-1.08-1.61-1.6a1.38,1.38,0,0,1-.54-1,1.33,1.33,0,0,1,.51-.94,1.28,1.28,0,0,1,1-.45,1.42,1.42,0,0,1,1,.54c.33.35.68.69,1,1s.48.46.71.7c.8.82,1.29,1.23,1.72,1.23h0c.42,0,.92-.41,1.68-1.17q5.6-5.57,11.15-11.15c2.16-2.17,2.18-4.17,0-6.31-2.81-2.84-5.9-5.93-9.72-9.72A4.59,4.59,0,0,0,94.83,28.45ZM36.45,106.82a3.11,3.11,0,0,1-.43,0A4.62,4.62,0,0,1,31.3,104a4.87,4.87,0,0,1,1.11-5.85c2.42-2.49,4.92-5,7.34-7.4l9.84-9.83q6.54-6.54,13.07-13.07l.07-.07c1.51-1.52,1.65-1.52,3.18,0,.49.48,1,1,1.45,1.46.93.93,1.88,1.9,2.86,2.8a1.54,1.54,0,0,1,.08,2.67c-3.9,3.86-7.84,7.81-11.65,11.64l-5.22,5.23L48,97q-3.93,3.93-7.87,7.87A5.33,5.33,0,0,1,36.45,106.82Zm-.41-.53h0c1.42.17,2.52-.6,3.72-1.81q3.93-3.93,7.87-7.87l5.43-5.41L58.3,86C62.11,82.15,66.05,78.2,70,74.34c.4-.4.59-.71.58-1s-.2-.57-.64-1c-1-.91-2-1.88-2.88-2.82-.48-.49-1-1-1.45-1.46-1.24-1.23-1.24-1.23-2.48,0l-.07.07L49.94,81.26l-9.83,9.83c-2.42,2.42-4.92,4.91-7.34,7.4a4.34,4.34,0,0,0-1,5.28A4.09,4.09,0,0,0,36,106.29Zm36.43-36h0a1.41,1.41,0,0,1-1-.5c-.75-.76-1.5-1.51-2.26-2.26l-1.41-1.4c-.27-.27-.66-.65-.34-1.17a2.16,2.16,0,0,1,1.2-1h.06a1.47,1.47,0,0,1,1.06.54L71,65.66c.76.75,1.51,1.51,2.28,2.26a1.39,1.39,0,0,1,.52,1,1.42,1.42,0,0,1-.48,1A1.25,1.25,0,0,1,72.47,70.29Zm-3.66-5.87a1.64,1.64,0,0,0-.87.8c-.1.15-.06.24.22.52l1.45,1.44c.76.75,1.52,1.5,2.27,2.26a.94.94,0,0,0,.59.35h0a.77.77,0,0,0,.51-.28.93.93,0,0,0,.34-.61,1,1,0,0,0-.37-.62c-.77-.75-1.53-1.51-2.28-2.27l-1.19-1.19C69.24,64.59,69.07,64.43,68.81,64.42ZM82.9,67a1.35,1.35,0,0,1-.56-.14,6.3,6.3,0,0,0-5.4,0,1.4,1.4,0,0,1-1.69-.43l-.14-.14q-1.86-1.87-3.75-3.74A1.47,1.47,0,0,1,71,60.68a5.56,5.56,0,0,0,0-5,1.64,1.64,0,0,1,.47-2.07q11-10.94,21.89-21.89A2.22,2.22,0,0,1,94.9,31h0a2.18,2.18,0,0,1,1.53.79c2.32,2.35,4.65,4.67,7,7l2.53,2.52a2.15,2.15,0,0,1,.78,1.54,2,2,0,0,1-.72,1.58l-2.47,2.46q-3.84,3.83-7.66,7.67a1.51,1.51,0,0,1-1.05.55h0a1.59,1.59,0,0,1-1.11-.62c-.55-.58-1.13-1.14-1.69-1.69l-.56-.54a1.41,1.41,0,0,0-2.21,0c-1.12,1.07-2.17,2.15-3.06,3.06a1.57,1.57,0,0,0-.53,1.09,1.54,1.54,0,0,0,.58,1.07c.87.84,1.73,1.72,2.56,2.58.24.24.69.71.19,1.21s-1,0-1.22-.18l-.33-.32c-.75-.72-1.52-1.47-2.24-2.24A1.34,1.34,0,0,0,83,58.44l-.1.09-.51.51c-1.35,1.31-2.09,2-2.08,2.73s.81,1.57,2.37,3a6.35,6.35,0,0,1,.62.65c.23.27.59.69.24,1.2A.78.78,0,0,1,82.9,67Zm-3.23-1.26a6.74,6.74,0,0,1,2.89.66c.38.18.5.07.59,0s.06-.28-.19-.58-.4-.43-.6-.62c-1.74-1.62-2.52-2.49-2.53-3.38s.79-1.69,2.23-3.1l.6-.58a1.83,1.83,0,0,1,2.89.06c.72.76,1.49,1.51,2.23,2.22l.33.32c.33.32.39.31.51.19s.14-.17-.17-.49c-.85-.88-1.7-1.75-2.57-2.58A1.82,1.82,0,0,1,85.82,55c.89-.92,2-2,3.08-3.08a1.89,1.89,0,0,1,2.9,0l.55.54c.57.55,1.16,1.12,1.71,1.71a1.2,1.2,0,0,0,.75.46h0a1.07,1.07,0,0,0,.7-.4q3.81-3.86,7.66-7.67l2.46-2.46a1.48,1.48,0,0,0,.58-1.2v0a1.68,1.68,0,0,0-.63-1.19l-2.54-2.53c-2.33-2.33-4.66-4.65-7-7a1.75,1.75,0,0,0-1.18-.64h0a1.75,1.75,0,0,0-1.17.64Q82.79,43.09,71.83,54c-.54.54-.64.94-.37,1.5a6,6,0,0,1,0,5.39,1,1,0,0,0,.27,1.26l3.76,3.75.13.14c.42.42.71.5,1.14.32A7.72,7.72,0,0,1,79.67,65.75Z"/><path class="cls-1" d="M102.56,42.91a7.76,7.76,0,0,1-7.79,7.82A8,8,0,0,1,87.05,43a7.76,7.76,0,0,1,7.82-7.8A7.55,7.55,0,0,1,102.56,42.91Zm-7.71,4.83a4.78,4.78,0,0,0,4.8-5.67c-.1-.41,0-1.19-.67-1.08s-.31.77-.26,1.23A4,4,0,0,1,95,46.89a4,4,0,0,1-4.07-4,4,4,0,0,1,4.65-3.8c.46.05,1.14.38,1.25-.23s-.74-.66-1.17-.73A4.59,4.59,0,0,0,91,40a4.7,4.7,0,0,0-.5,5.18A4.43,4.43,0,0,0,94.85,47.74Z"/><path class="cls-1" d="M94.86,51h-.1a8.2,8.2,0,0,1-8-7.95,7.86,7.86,0,0,1,2.29-5.64A8,8,0,0,1,94.87,35a7.77,7.77,0,0,1,7.94,7.93h0a8,8,0,0,1-2.4,5.78A7.84,7.84,0,0,1,94.86,51Zm0-15.5a7.53,7.53,0,0,0-5.42,2.26A7.35,7.35,0,0,0,87.3,43a7.79,7.79,0,0,0,7.47,7.45h.09a7.37,7.37,0,0,0,5.2-2.14,7.6,7.6,0,0,0,2.25-5.43h0A7.28,7.28,0,0,0,94.87,35.48ZM94.77,48a4.67,4.67,0,0,1-4.47-2.75,4.93,4.93,0,0,1,.53-5.44,4.88,4.88,0,0,1,4.83-1.93l.22,0a1.43,1.43,0,0,1,1,.38.78.78,0,0,1,.12.61.66.66,0,0,1-.27.46,1.2,1.2,0,0,1-1,0l-.3-.05a4,4,0,0,0-3.13.88,3.61,3.61,0,0,0-.11,5.35A3.57,3.57,0,0,0,95,46.64a3.67,3.67,0,0,0,2.67-1.28,4,4,0,0,0,.85-3.11c0-.09,0-.19,0-.29a1.2,1.2,0,0,1,0-.93.7.7,0,0,1,.48-.29.73.73,0,0,1,.55.11,1.29,1.29,0,0,1,.37.9,2,2,0,0,0,0,.26A4.68,4.68,0,0,1,99,46a5.28,5.28,0,0,1-4.09,2Zm0-9.69a4.28,4.28,0,0,0-3.51,1.8A4.44,4.44,0,0,0,90.76,45a4.17,4.17,0,0,0,4,2.47h.09a4.76,4.76,0,0,0,3.69-1.79,4.16,4.16,0,0,0,.84-3.58c0-.08,0-.19-.05-.3s-.06-.49-.17-.57a.2.2,0,0,0-.16,0,.22.22,0,0,0-.16.07c-.06.09,0,.35,0,.54s0,.23.06.34a4.51,4.51,0,0,1-1,3.5,4.15,4.15,0,0,1-3,1.45,4.27,4.27,0,0,1-4.33-4.27,4.1,4.1,0,0,1,1.42-3,4.48,4.48,0,0,1,3.51-1,2.41,2.41,0,0,1,.35.07c.19,0,.47.1.56,0a.3.3,0,0,0,.06-.14.26.26,0,0,0,0-.21c-.1-.14-.43-.17-.68-.19l-.25,0A4.92,4.92,0,0,0,94.74,38.3Z"/></svg>