<svg id="Слой_1" data-name="Слой 1" xmlns="http://www.w3.org/2000/svg" viewBox="0 0 137.76 137.76"><defs><style>.cls-1{fill:#e3e3e3;}.cls-2{fill:#737373;}</style></defs><path class="cls-1" d="M76,31.07c-4.48-.08-9,.05-13.46-.05a11.21,11.21,0,0,0-11.7,9.62c-1,6.27-2,12.56-3.08,18.82-.19,1.08.07,1.23,1.06,1,1.56-.31,6.3-1,7.88-1.21S59.57,59,61,59c8.35-.29,19.25-.17,27.49,1.37,1.18.22,1.47-.11,1.26-1.26-.55-3-1-6.07-1.53-9.11a5.54,5.54,0,0,1-.07-.57c-.32-1.75-1.4-8.57-1.73-9.87A10.91,10.91,0,0,0,76,31.07Z"/><path class="cls-1" d="M53.81,76.56c-2,0-2,0-2.27,2.07-.79,5.37-1.62,10.75-2.43,16.12-.6,3.94-1.2,7.87-1.86,12.22a2.47,2.47,0,0,0,1-1.54q3.89-13,7.78-26C56.88,76.56,56.85,76.55,53.81,76.56Z"/><path class="cls-1" d="M89.23,104.76c.19.65.23,1.4,1.13,1.78q-.89-5.83-1.76-11.68c-.83-5.43-1.67-10.85-2.47-16.28-.3-2-.26-2-2.32-2-3,0-3,0-2.15,2.92.61,2.14,3.07,10.09,3.74,12.38h0Q87.31,98.31,89.23,104.76Z"/><path class="cls-1" d="M44.93,67.53c0,.86,0,1.73,0,2.6.17,2.44,1.46,3.67,3.89,3.69,3.62,0,7.24,0,10.85,0H88.19c3.39,0,4.55-1.19,4.56-4.64,0-4.71-.53-5.43-5.23-6.27-8.49-1.52-19.62-1.69-28.21-1-.82.06-1.64.06-2.46.08-1.75.31-6.37,1-8.13,1.28C46.16,63.65,45,64.92,44.93,67.53Z"/><path class="cls-1" d="M76.75,76.57c-2.65,0-5.3,0-8,0s-5.3,0-7.95,0a1.78,1.78,0,0,0-1.67,2c.11,1,1,.6,1.48.61,1.88,0,3.76,0,5.64,0,3.66,0,7.32,0,11,0,.49,0,1.14.23,1.26-.58A1.84,1.84,0,0,0,76.75,76.57Z"/><path class="cls-2" d="M55.22,60.73c.07,1,.76,1.25,1.63,1.23s-.41-.3-.61-1.22,1.26-1.58.45-1.46S55.15,59.73,55.22,60.73Z"/><path class="cls-2" d="M94.39,63.53A10.33,10.33,0,0,1,92.33,58c-.48-3.05-1-6.09-1.52-9.13a3.06,3.06,0,0,0-.16-.63c.06.45.12.79.14.94a1.29,1.29,0,0,1-1.08,1.62c-.84.13-1.34-.38-1.51-1.21,0,0,0-.13,0-.2a5.54,5.54,0,0,0,.07.57c.5,3,1,6.08,1.53,9.11.21,1.15-.08,1.48-1.26,1.26C80.26,58.78,69.36,58.66,61,59c-1.44,0-2.89.17-4.32.33.81-.12-.63.6-.45,1.46s1.5,1.06.61,1.22c.82,0,1.64,0,2.46-.08,8.59-.65,19.72-.48,28.21,1,4.7.84,5.26,1.56,5.23,6.27,0,3.45-1.17,4.63-4.56,4.64H59.68c-3.61,0-7.23,0-10.85,0-2.43,0-3.72-1.25-3.89-3.69,0-.87,0-1.74,0-2.6.09-2.61,1.23-3.88,3.79-4.29,1.76-.28,6.38-1,8.13-1.28-.87,0-1.56-.25-1.63-1.23s.65-1.36,1.47-1.45c-1.58.23-6.32.9-7.88,1.21-1,.2-1.25,0-1.06-1,1.06-6.26,2-12.55,3.08-18.82A11.21,11.21,0,0,1,62.53,31c4.49.1,9,0,13.46.05a10.91,10.91,0,0,1,10.44,8.44c.33,1.3,1.41,8.12,1.73,9.87,0-.05,0-.1,0-.15-.06-.87,0-1.73,1.08-1.87a1.22,1.22,0,0,1,1.42.87c-.33-2.16-1.09-7-1.21-7.74-1-6.23-5-10.93-11.24-11.84s-12.5-.44-18.76-.15c-.09,0-.18.05-.28.07C52.93,30.11,49,34.42,48,40.92q-1.62,10-3.21,20a2,2,0,0,1-.39,1.22c-2.28,2.18-2.28,5-2.15,7.81.18,4,2,6.06,5.9,6.6,1.06.15.91.68.8,1.41q-2.19,14.22-4.34,28.43a2.47,2.47,0,0,0,2.56,3.18c2.12.09,2.86-.46,3.51-2.63L57.18,85a4.61,4.61,0,0,1,4.38-3.26c4.87,0,9.74,0,14.61,0a5.24,5.24,0,0,1,2,.57c2,.84,4.06,8.55,4.55,10.3,0,.15.1.3.15.45l-.13-.46c-.24-.88-.2-1.71.83-2s1.52.34,1.78,1.23c-.67-2.29-3.13-10.24-3.74-12.38-.84-2.92-.83-2.92,2.15-2.92,2.06,0,2,0,2.32,2,.8,5.43,1.64,10.85,2.47,16.28q.89,5.83,1.76,11.68c-.9-.38-.94-1.13-1.13-1.78q-1.94-6.45-3.83-12.89h0l0,.1c.28,1,.3,1.84-.89,2.14-.9.24-1.35-.32-1.62-1,.2.68.39,1.36.59,2,1.22,4.06,2.41,8.13,3.66,12.18.62,2,1.92,2.67,4.06,2.19,1.53-.34,2.1-1.5,1.8-3.52-1.43-9.38-2.84-18.76-4.3-28.14-.16-1,.18-1.24,1.1-1.31a5.75,5.75,0,0,0,4.22-2.23C95.83,72,96.23,65.73,94.39,63.53ZM56,79.42q-3.87,13-7.78,26a2.47,2.47,0,0,1-1,1.54c.66-4.35,1.26-8.28,1.86-12.22.81-5.37,1.64-10.75,2.43-16.12.31-2.06.26-2.07,2.27-2.07C56.85,76.55,56.88,76.56,56,79.42Zm22.51-.77c-.12.81-.77.58-1.26.58-3.66,0-7.32,0-11,0-1.88,0-3.76,0-5.64,0-.53,0-1.37.43-1.48-.61a1.78,1.78,0,0,1,1.67-2c2.65,0,5.3,0,7.95,0s5.3,0,8,0A1.84,1.84,0,0,1,78.54,78.65Z"/><path class="cls-2" d="M84.54,94.1c1.19-.3,1.17-1.19.89-2.14l0-.1c-.26-.89-.78-1.5-1.78-1.23s-1.07,1.11-.83,2l.13.46C83.19,93.78,83.64,94.34,84.54,94.1Z"/><path class="cls-2" d="M89.23,47.36c-1.1.14-1.14,1-1.08,1.87,0,.05,0,.1,0,.15s0,.15,0,.2c.17.83.67,1.34,1.51,1.21a1.29,1.29,0,0,0,1.08-1.62c0-.15-.08-.49-.14-.94A1.22,1.22,0,0,0,89.23,47.36Z"/></svg>