<svg id="Слой_1" data-name="Слой 1" xmlns="http://www.w3.org/2000/svg" viewBox="0 0 137.76 137.76"><defs><style>.cls-1{fill:#737373;}.cls-2{fill:none;}.cls-3{fill:#fff;}</style></defs><path class="cls-1" d="M98.09,100.61H32V29.86H98.09ZM34.5,98.11H95.59V32.36H34.5Z"/><rect class="cls-1" x="65.68" y="36.79" width="18.6" height="2.5" transform="translate(-4.94 64.16) rotate(-45)"/><rect class="cls-1" x="47.64" y="91.59" width="18.6" height="2.5" transform="translate(-48.97 67.46) rotate(-45)"/><rect class="cls-1" x="53.74" y="46.3" width="45.5" height="2.5" transform="translate(-11.22 68.01) rotate(-45)"/><rect class="cls-1" x="35.26" y="82.02" width="45.5" height="2.5" transform="translate(-41.89 65.41) rotate(-45)"/><rect class="cls-1" x="26.58" y="46.3" width="45.5" height="2.5" transform="translate(-19.17 48.81) rotate(-45)"/><path class="cls-1" d="M83.75,74.79a1.47,1.47,0,0,1-1.39-1l-1.15-3.27L78,69.39a1.47,1.47,0,0,1,0-2.78l3.26-1.15,1.15-3.26a1.47,1.47,0,0,1,1.39-1h0a1.47,1.47,0,0,1,1.39,1l1.14,3.26,3.27,1.15a1.47,1.47,0,0,1,0,2.78l-3.27,1.14L85.14,73.8a1.47,1.47,0,0,1-1.39,1Zm-1-1.82h0Zm-1.24-5,.74.26a2,2,0,0,1,1.21,1.2l.26.75.26-.74a2,2,0,0,1,1.2-1.21L86,68l-.74-.26A2,2,0,0,1,84,66.53l-.26-.74-.26.74a2,2,0,0,1-1.21,1.21Zm7.18,1h0Zm-9.94,0h0Zm4-5.94h0Z"/><path class="cls-1" d="M102.38,61.64h0a1.48,1.48,0,0,1-1.39-1l-1.14-3.26-3.27-1.14a1.48,1.48,0,0,1,0-2.79l3.27-1.14L101,49a1.48,1.48,0,0,1,1.39-1h0a1.47,1.47,0,0,1,1.39,1l1.15,3.27,3.26,1.14a1.48,1.48,0,0,1,0,2.79l-3.27,1.14-1.15,3.27A1.47,1.47,0,0,1,102.38,61.64Zm1-1.82Zm-3.18-5,.74.26a2,2,0,0,1,1.21,1.2l.26.75.26-.75a2,2,0,0,1,1.21-1.2l.74-.26-.74-.27a1.92,1.92,0,0,1-1.21-1.2l-.26-.75-.26.75a1.92,1.92,0,0,1-1.21,1.2Zm-.41-2.3Zm3.59-2.68Z"/><path class="cls-2" d="M90.47,107.56c.32.69.74,1.42.82,1.62-.1-.24-.56-1.05-.79-1.7Z"/><path class="cls-2" d="M91.82,107.83a9.43,9.43,0,0,0-.95-1.21l-.05.11A4.21,4.21,0,0,1,91.82,107.83Z"/><path class="cls-3" d="M100.44,83.05c-.15-2.77-.44-3-3.18-3.21A6.15,6.15,0,0,1,92.89,78a11,11,0,0,0-.9-.76,2,2,0,0,0-2.89,0c-.52.42-1,.84-1.55,1.29a4.26,4.26,0,0,1-2.83,1.16,20.43,20.43,0,0,0-2.21.23,1.88,1.88,0,0,0-1.75,1.7c-.12.78-.18,1.57-.23,2.36a4.19,4.19,0,0,1-1,2.6c-.53.59-1,1.21-1.51,1.84a1.94,1.94,0,0,0,0,2.61c.52.68,1.15,1.3,1.61,2A6.36,6.36,0,0,1,80.44,95a21.72,21.72,0,0,1,.26,2.57,2.07,2.07,0,0,0,2,2.06c.64.07,1.29.13,1.94.17a4.23,4.23,0,0,1,2.78,1.1,19.18,19.18,0,0,0,1.78,1.46,10.9,10.9,0,0,0,1.37.68,10.26,10.26,0,0,0,1.7-1.09,6.86,6.86,0,0,1,5.12-2.26,5.45,5.45,0,0,0,.9-.06,2,2,0,0,0,2-2c0-.3.08-.6.09-.9a5.86,5.86,0,0,1,1.79-4.6,1.12,1.12,0,0,0,.17-.21c1.62-2,1.68-2.41,0-4.33A7.11,7.11,0,0,1,100.44,83.05Z"/><path class="cls-3" d="M86.45,101.61a9,9,0,0,0-1.06-.62l-4,9.48c.12,0,.14.06.16,0l1.94-.52c1.45-.41,1.64-.33,2.37,1l1.07,2c1.27-3,2.47-5.93,3.7-8.9A3.79,3.79,0,0,1,88,102.89C87.5,102.45,87,102,86.45,101.61Z"/><path class="cls-3" d="M92.38,108.76c.56,1.35,1.12,2.7,1.74,4.17.48-.87.88-1.6,1.29-2.33a1.25,1.25,0,0,1,1.72-.73l2.57.72c-1.35-3.25-2.66-6.37-4-9.61a11.8,11.8,0,0,0-1.1.67c-.77.59-1.53,1.21-2.27,1.84a1.9,1.9,0,0,0-.44.69c-.34.81-.67,1.62-1,2.44a9.43,9.43,0,0,1,.95,1.21A6.28,6.28,0,0,1,92.38,108.76Z"/><path class="cls-1" d="M103.39,87a5.58,5.58,0,0,1-1.8-4.36c0-.23,0-.46,0-.7-.18-1.9-1.25-3.13-3.15-3.16a7.8,7.8,0,0,1-5.64-2.34,3,3,0,0,0-4.4,0,10.13,10.13,0,0,0-.8.67,4.68,4.68,0,0,1-3.64,1.58,7.64,7.64,0,0,0-1.25.11,3.11,3.11,0,0,0-3.08,3.15,7.81,7.81,0,0,1-2.15,5.46c-1.6,1.71-1.57,3.13,0,4.87a6.76,6.76,0,0,1,2.07,5c0,.14,0,.28,0,.42a3.17,3.17,0,0,0,3.14,3.18c.45,0,.91.1,1.41.16-.1.27-.17.49-.26.7-1.25,3-2.51,6-3.73,9a.8.8,0,0,0,1,1.18c1-.22,1.93-.51,2.88-.8a.55.55,0,0,1,.77.33c.48.93,1,1.85,1.5,2.75.41.7,1.08.66,1.45,0,.09-.19.16-.39.24-.58q1.24-3,2.48-5.94c-.29-.63-.49-1.22-.24-1.32s.38.11.64.38c.34-.82.67-1.63,1-2.44a1.9,1.9,0,0,1,.44-.69c.74-.63,1.5-1.25,2.27-1.84a11.8,11.8,0,0,1,1.1-.67c1.35,3.24,2.66,6.36,4,9.61l-2.57-.72a1.25,1.25,0,0,0-1.72.73c-.41.73-.81,1.46-1.29,2.33-.62-1.47-1.18-2.82-1.74-4.17a8.4,8.4,0,0,0-.56-.93,4.21,4.21,0,0,0-1-1.1l-.32.75c.23.65.69,1.46.79,1.7.66,1.59,1.3,3.18,2,4.75a1.23,1.23,0,0,0,.77.65c.24,0,.61-.3.77-.56.51-.83,1-1.69,1.41-2.56.22-.45.46-.53.93-.38a23.47,23.47,0,0,0,2.61.73c.36.08.92.08,1.11-.13a1.28,1.28,0,0,0,0-1.12c-.74-1.91-1.55-3.78-2.34-5.67C98,103.59,97.51,102.3,97,101c.57-.06,1-.12,1.54-.16a3.12,3.12,0,0,0,3-2.73,23.27,23.27,0,0,0,.23-2.36,3.33,3.33,0,0,1,.87-2.14,22.8,22.8,0,0,0,1.58-1.95,3.06,3.06,0,0,0,0-3.65A5.68,5.68,0,0,0,103.39,87ZM87,112.94l-1.07-2c-.73-1.32-.92-1.4-2.37-1l-1.94.52s0,0-.16,0l4-9.48a9,9,0,0,1,1.06.62c.54.4,1,.84,1.56,1.28A3.79,3.79,0,0,0,90.67,104C89.44,107,88.24,109.89,87,112.94Zm15.44-21a1.12,1.12,0,0,1-.17.21,5.86,5.86,0,0,0-1.79,4.6c0,.3,0,.6-.09.9a2,2,0,0,1-2,2,5.45,5.45,0,0,1-.9.06A6.86,6.86,0,0,0,92.32,102a10.26,10.26,0,0,1-1.7,1.09,10.9,10.9,0,0,1-1.37-.68,19.18,19.18,0,0,1-1.78-1.46,4.23,4.23,0,0,0-2.78-1.1c-.65,0-1.3-.1-1.94-.17a2.07,2.07,0,0,1-2-2.06A21.72,21.72,0,0,0,80.44,95a6.36,6.36,0,0,0-.86-1.94c-.46-.71-1.09-1.33-1.61-2a1.94,1.94,0,0,1,0-2.61c.49-.63,1-1.25,1.51-1.84a4.19,4.19,0,0,0,1-2.6c0-.79.11-1.58.23-2.36A1.88,1.88,0,0,1,82.51,80a20.43,20.43,0,0,1,2.21-.23,4.26,4.26,0,0,0,2.83-1.16c.5-.45,1-.87,1.55-1.29a2,2,0,0,1,2.89,0,11,11,0,0,1,.9.76,6.15,6.15,0,0,0,4.37,1.8c2.74.17,3,.44,3.18,3.21a7.11,7.11,0,0,0,1.93,4.56C104.09,89.53,104,90,102.41,91.94Z"/><path class="cls-1" d="M87,115.63a1.83,1.83,0,0,1-1.57-1c-.45-.78-.91-1.61-1.4-2.55-.83.25-1.74.52-2.67.73a1.78,1.78,0,0,1-2.18-2.53c.93-2.29,1.89-4.58,2.84-6.87l.68-1.61h-.09a4.18,4.18,0,0,1-4.06-4.1v-.11a3,3,0,0,1,0-.42,5.79,5.79,0,0,0-1.81-4.27c-1.94-2.12-1.94-4.16,0-6.22a6.82,6.82,0,0,0,1.87-4.8,4.12,4.12,0,0,1,4-4.13l.33,0A6,6,0,0,1,84,77.64a3.72,3.72,0,0,0,2.89-1.29,7.54,7.54,0,0,1,.67-.58l.2-.16a4,4,0,0,1,5.72.11,6.8,6.8,0,0,0,5,2.06,4.1,4.1,0,0,1,4.13,4.07c0,.32,0,.56,0,.8a4.52,4.52,0,0,0,1.49,3.61h0a7.51,7.51,0,0,1,.91,1.13,4,4,0,0,1,0,4.82,22.8,22.8,0,0,1-1.66,2,2.41,2.41,0,0,0-.6,1.54,23.39,23.39,0,0,1-.25,2.45,4.09,4.09,0,0,1-3.87,3.56l-.19,0,1.76,4.23c.58,1.38,1.16,2.76,1.71,4.15a2.25,2.25,0,0,1-.21,2.16,2.3,2.3,0,0,1-2.07.44,22.29,22.29,0,0,1-2.53-.7c-.48.94-.92,1.73-1.36,2.45a2,2,0,0,1-1.73,1,2.19,2.19,0,0,1-1.58-1.23c-.52-1.18-1-2.38-1.51-3.58l-.33-.77L88.85,114a4.4,4.4,0,0,1-.21.5,1.83,1.83,0,0,1-1.58,1.09Zm-2.36-6.84c.92,0,1.45.5,2.13,1.72l.06.13,2.42-5.82a5.73,5.73,0,0,1-1.9-1.17c-.53-.45-1-.85-1.49-1.22l-2.77,6.65.16,0A5.62,5.62,0,0,1,84.65,108.79ZM92,106.46a7.21,7.21,0,0,1,.64.8,11.71,11.71,0,0,1,.65,1.11l.94,2.26.3-.52a2.21,2.21,0,0,1,2.85-1.2l.59.16-2.77-6.64h0c-.81.62-1.54,1.21-2.22,1.81,0,0-.07.07-.17.31ZM90.55,77.67a1.35,1.35,0,0,0-.82.39l-.2.16c-.44.35-.89.7-1.3,1.09a5.25,5.25,0,0,1-3.48,1.42c-.64,0-1.29.11-2,.2l-.14,0a.89.89,0,0,0-.89.87c-.12.77-.18,1.57-.22,2.27a5.15,5.15,0,0,1-1.29,3.2c-.53.6-1,1.23-1.46,1.78a1,1,0,0,0,0,1.39c.19.26.4.5.61.74a14.41,14.41,0,0,1,1,1.34,7,7,0,0,1,1,2.26,10,10,0,0,1,.22,1.85c0,.28,0,.56.07.83.08.8.37,1.09,1.16,1.17.62.07,1.25.14,1.88.17a5.19,5.19,0,0,1,3.41,1.37,16.5,16.5,0,0,0,1.68,1.37,3.17,3.17,0,0,0,.67.34l.06,0,.13-.07a4.88,4.88,0,0,0,1-.61,7.89,7.89,0,0,1,5.84-2.54,4.51,4.51,0,0,0,.7,0c.84-.1,1.08-.34,1.19-1.15a6.7,6.7,0,0,0,.08-.77,6.85,6.85,0,0,1,2.12-5.33l.07-.11c1.29-1.57,1.29-1.57,0-3a8.1,8.1,0,0,1-2.18-5.17C99.33,81,99.33,81,97.2,80.84a7.16,7.16,0,0,1-5-2.11,4.51,4.51,0,0,0-.53-.45l-.29-.22A1.34,1.34,0,0,0,90.55,77.67Z"/><path class="cls-1" d="M92.38,108.76a6.28,6.28,0,0,0-.56-.93A8.4,8.4,0,0,1,92.38,108.76Z"/><path class="cls-1" d="M91.46,109.15c0-.06-.19-.34-.47-.76l1.66-1.12a8.45,8.45,0,0,1,.64,1.08v0Z"/><path class="cls-1" d="M90.51,106.65a.4.4,0,0,1,.31.08l.05-.11c-.26-.27-.49-.44-.64-.38s0,.69.24,1.32l0-.08C90.36,107.07,90.31,106.73,90.51,106.65Z"/><path class="cls-1" d="M90.54,110l-1-2a2.64,2.64,0,0,1-.35-2,1.18,1.18,0,0,1,.65-.65,1.66,1.66,0,0,1,1.72.61l.47.47-.48,1.12h0Zm-.24-2.37h0Zm1.07-.69Z"/><path class="cls-1" d="M90.5,107.48l.32-.75a.4.4,0,0,0-.31-.08C90.31,106.73,90.36,107.07,90.5,107.48Z"/><path class="cls-1" d="M90.42,110.27l-.86-2.45c-.52-1.49.24-2,.59-2.1a1.33,1.33,0,0,1,1.18.15l.75.45Zm0-2.83-.1.15a.8.8,0,0,0,.57,0,.83.83,0,0,0,.43-.39l-.8.28Z"/></svg>