<svg id="Слой_1" data-name="Слой 1" xmlns="http://www.w3.org/2000/svg" viewBox="0 0 137.76 137.76"><defs><style>.cls-1{fill:#737373;}</style></defs><path class="cls-1" d="M33.77,52.37l4,11c.57,1.6,3.2,2,3.61,0a28.08,28.08,0,0,1,55,0c.5,2.36,4.12,1.36,3.62-1a31.81,31.81,0,0,0-62.27,0h3.61l-4-11c-.82-2.26-4.44-1.29-3.62,1Z"/><path class="cls-1" d="M48.68,55.68l-8.83,4.85-1.26.7a1.9,1.9,0,0,0-.68,2.56,1.92,1.92,0,0,0,2.57.67l8.83-4.85,1.26-.7a1.87,1.87,0,1,0-1.89-3.23Z"/><path class="cls-1" d="M89,81.51l10.22-5.23-2.76-2.12a28.07,28.07,0,0,1-55.23-.51c-.44-2.37-4.05-1.36-3.62,1a31.81,31.81,0,0,0,62.47.51A1.9,1.9,0,0,0,97.3,73L87.08,78.28c-2.15,1.1-.26,4.33,1.89,3.23Z"/><path class="cls-1" d="M105.8,83.86l-4.87-8.54-.69-1.2A1.88,1.88,0,1,0,97,76l4.87,8.54.69,1.2a1.88,1.88,0,0,0,3.24-1.89Z"/><path class="cls-1" d="M53.57,86.13,57.7,82l.59-.58a1.88,1.88,0,1,0-2.65-2.66l-4.13,4.13-.59.59a1.87,1.87,0,1,0,2.65,2.65Z"/><path class="cls-1" d="M70.69,92V84.8a1.89,1.89,0,0,0-1.87-1.87,1.91,1.91,0,0,0-1.88,1.87V92a1.88,1.88,0,0,0,3.75,0Z"/><path class="cls-1" d="M56.9,61.46,67.1,71.67a1.92,1.92,0,0,0,2.66,0l24-24,3.36-3.36a1.87,1.87,0,0,0-2.65-2.65l-24,24L67.1,69h2.66L59.55,58.81a1.87,1.87,0,0,0-2.65,2.65Z"/></svg>