<svg id="Слой_1" data-name="Слой 1" xmlns="http://www.w3.org/2000/svg" viewBox="0 0 137.76 137.76"><defs><style>.cls-1{fill:#737373;}</style></defs><rect class="cls-1" x="46.82" y="46.24" width="30.55" height="3" transform="translate(-16.22 46.27) rotate(-36.47)"/><polygon class="cls-1" points="62.98 57.55 61.22 55.12 78.07 42.88 88.03 55.4 85.69 57.27 77.51 46.99 62.98 57.55"/><path class="cls-1" d="M61.67,84.47,39.91,56.34,75,29.18,96.79,57.31ZM44.12,56.88,62.2,80.26,92.58,56.77,74.5,33.39Z"/><path class="cls-1" d="M95.72,55.57a5.51,5.51,0,0,1,4.54,5.23c0,1.58,0,3.17,0,4.75,0,2.06-.34,4.19,1.91,5.54.77.47.69,1.53.69,2.4,0,2.37,0,4.74,0,7.11,0,1.83.08,3.62-2,4.62-.72.35-.63,1.24-.63,2,0,2,0,4,0,6,0,4.28-2,6.31-6.28,6.31H43.29c-5.07,0-6.43-1.34-6.43-6.38,0-12.44,0-19.67,0-32.11,0-4.84,1.9-5.92,5-5.92C53.11,55.1,94.77,55.43,95.72,55.57Zm-27.42,3h0c-8.63,0-17.25,0-25.88,0-1.66,0-2.38.43-2.43,2.32-.3,10.57,0,21.13-.12,31.7,0,3.59.38,4,3.92,4H92.53c.72,0,1.44,0,2.16-.08a2.08,2.08,0,0,0,2.17-2.37q-.09-3.35,0-6.69c.05-1.6-.71-2.16-2.23-2.12-2.15,0-4.31.06-6.46,0-2.69-.13-4.18-1.75-4.24-4.45,0-2.08,0-4.17,0-6.25,0-3.2,1.32-4.59,4.53-4.72,2.08-.08,4.17-.08,6.25,0,1.58,0,2.21-.65,2.16-2.2,0-1.72,0-3.45,0-5.17,0-3.63-.23-3.87-4-3.88Q80.59,58.5,68.3,58.52ZM93.55,82.37c1.44,0,2.87,0,4.31,0,1.12,0,2.06-.3,2.08-1.62,0-2,0-4-.09-6a1.65,1.65,0,0,0-2.12-1.79,40.18,40.18,0,0,1-7.75.2c-2.12-.07-2.73.82-2.68,2.81C87.47,83.35,86.34,82.16,93.55,82.37Z"/></svg>