<svg id="Слой_1" data-name="Слой 1" xmlns="http://www.w3.org/2000/svg" viewBox="0 0 137.76 137.76"><defs><style>.cls-1{fill:#737373;}.cls-2{fill:#fff;}.cls-3{fill:#e3e3e3;}.cls-4{fill:#00adad;}</style></defs><path class="cls-1" d="M69,107.39c-9.65,0-19.29-.1-28.94,0A12.11,12.11,0,0,1,28,92.66a11.92,11.92,0,0,1,6.67-8.1c2.2-1,3.1-2.34,2.71-4.81a16.67,16.67,0,0,1,0-3.46,2.78,2.78,0,0,1,2.71-2.62c3,0,6.1-.06,9.15,0,1.79,0,2.3.63,2.34,2.39s0,3.42,0,5.12c0,1.55.51,2.14,2,2.17,2.11,0,4.22,0,6.33,0,1.16,0,1.64-.59,1.64-1.67,0-1.68,0-3.36,0-5a3.09,3.09,0,0,1,3.06-3c2.86,0,5.73,0,8.59,0a3,3,0,0,1,2.94,3c0,1.66,0,3.33,0,5,0,1.42.81,1.91,2.62,1.87h4.18c2.18.07,3.1-.3,3-2S85.9,78,86,76.19a2.59,2.59,0,0,1,2.52-2.5c3.11-.06,6.23-.06,9.34,0,1.63,0,2.4.86,2.49,2.61a45.77,45.77,0,0,1,0,5A2.41,2.41,0,0,0,102.07,84c3.32,1.29,5.41,3.75,7.23,6.84,1.24,2.1,1.12,8.6-1.11,10.83A11.51,11.51,0,0,1,98,107.38C88.34,107.42,78.64,107.39,69,107.39Zm-17.06-4.87q16.92,0,33.86,0c1.34-1.75.54-4.7.25-6.84a10.07,10.07,0,0,1,1.46-6.35c.11-.19-.22-.85-.49-1a3.73,3.73,0,0,0-1.47-.15l-25.89,0c-2.61,0-5.22,0-7.83,0-1.65,0-1.84.44-1.23,1.89a12.89,12.89,0,0,1,.94,3.49,19.75,19.75,0,0,1,0,4.21,15.1,15.1,0,0,1-.79,2.62M98,102.49a7,7,0,0,0,7.09-7.26,7.16,7.16,0,0,0-7.76-6.91,6.79,6.79,0,0,0-6.4,7A7,7,0,0,0,98,102.49Zm-58.33,0a7,7,0,0,0,7.19-6.9,6.86,6.86,0,0,0-6.91-7.3,7,7,0,0,0-7.32,6.95A7.13,7.13,0,0,0,39.63,102.49ZM71.25,80.94c0-2.33-.1-2.41-2.63-2.4-2.08,0-2.2.16-2.19,2.72,0,1.79.36,2.11,2.4,2.1A2.42,2.42,0,0,0,71.25,80.94ZM44.54,78.55c-2.29,0-2.37.11-2.36,2.83,0,1.67.42,2,2.54,2s2.22-.32,2.21-2.61C46.91,78.7,46.73,78.53,44.54,78.55Zm46.3,2.31c0,2.24.17,2.48,2,2.49,2.4,0,2.71-.26,2.73-2.3,0-2.3-.16-2.49-2.3-2.5C90.91,78.53,90.85,78.58,90.84,80.86Z"/><path class="cls-1" d="M95.09,48.86a11.64,11.64,0,0,1-12.65,10C75.7,58.14,69,57.18,62.27,56.32c-2.89-.37-5.78-.75-8.66-1.18-1.58-.24-1.92,1-1.91,1.94,0,2.84-1.6,4.43-3.68,5.9-.49.35-.6,1.28-.8,2s-.12,1.72-.56,2.26a3.29,3.29,0,0,1-2.2,1.18,2,2,0,0,1-2-1.86,6.15,6.15,0,0,1-.07-1.35,2.44,2.44,0,0,0-1.3-2.49,7.2,7.2,0,0,1-3.56-6.54c0-2.76.1-5.53,0-8.29-.23-5,2.71-7.89,7.43-8.48,6.63-.82,13.26-1.6,19.88-2.42,1.65-.2,3.28-.47,4.93-.67a1.54,1.54,0,0,0,1.55-1.8c0-1.7.1-3.42-.06-5.12A6.41,6.41,0,0,1,72.38,25a1.87,1.87,0,0,1,1.37-.65q9.57-.06,19.14,0c1.31,0,2.45,1.75,2.49,3.75.05,2.21,0,4.42,0,6.63C95.4,35.78,95.51,45.25,95.09,48.86Zm-19-9.53h0c0,2.56-.08,5.13,0,7.69a7.17,7.17,0,0,0,8.46,6.84,7.09,7.09,0,0,0,5.84-7.06c.16-5.07.07-10.15.1-15.22,0-1.32-.78-1.58-1.87-1.58-3.62,0-7.23,0-10.85,0-1.33,0-1.76.55-1.73,1.82C76.17,34.31,76.13,36.82,76.13,39.33Zm-5.2,6.06.3-.06c0-.85,0-1.71,0-2.56.06-1.25-.5-1.71-1.73-1.56q-8.43,1.09-16.86,2.11c-.88.1-1.26.51-1.14,1.38A20.76,20.76,0,0,1,52,48.08c0,1.48.56,2.06,2,2.23,5.66.72,11.32,1.5,17,2.25,1.16.15,1.5-.34,1.23-1.5C71.69,49.18,71.33,47.28,70.93,45.39ZM42.4,51.64h0c0,1.45,0,2.9,0,4.35a2.38,2.38,0,1,0,4.72.17q.12-4.57,0-9.15a2.66,2.66,0,0,0-2.42-2.62,2.66,2.66,0,0,0-2.26,2.74C42.36,48.63,42.4,50.13,42.4,51.64Z"/><path class="cls-2" d="M70.37,103.54q-9.26,0-18.49,0a1.87,1.87,0,0,1-1.46-.9,3.29,3.29,0,0,1-.71-2.49c.1-.32.21-.63.33-.94a6.43,6.43,0,0,0,.43-1.49,19.14,19.14,0,0,0,0-4,11.44,11.44,0,0,0-.86-3.21,2,2,0,0,1,2.14-3.28h7.84l25.89,0h.22a4.05,4.05,0,0,1,1.67.24,2.28,2.28,0,0,1,1,1.26,1.32,1.32,0,0,1-.06,1.11A9,9,0,0,0,87,95.55c0,.07.7,6.35-.37,7.58a1.15,1.15,0,0,1-.87.4H70.37Zm-18.27-2q16.51,0,33,0A28.62,28.62,0,0,0,85,95.82a10.85,10.85,0,0,1,1.37-6.58,4.42,4.42,0,0,0-.64,0H85.5l-25.89,0H57.69c-2,0-3.93,0-5.9,0l-.49,0a3.46,3.46,0,0,0,.18.47,14.06,14.06,0,0,1,1,3.77,21.1,21.1,0,0,1,0,4.42,7.49,7.49,0,0,1-.55,2c-.09.25-.18.49-.26.74A2.42,2.42,0,0,0,52.1,101.52Zm33.65,0Zm-34.1-.94ZM86.4,89.18ZM68.87,98.7h-.14a3.51,3.51,0,0,1-2.41-1.15,3.22,3.22,0,0,1-.87-2.36A3.66,3.66,0,0,1,68.88,92a3.45,3.45,0,0,1,2.38,1.09,3.36,3.36,0,0,1,1,2.37h0a3.29,3.29,0,0,1-1,2.35A3.37,3.37,0,0,1,68.87,98.7Zm0-4.72a1.66,1.66,0,0,0-1.38,1.31,1.29,1.29,0,0,0,.35.92,1.52,1.52,0,0,0,1,.49,1.37,1.37,0,0,0,1-.36,1.29,1.29,0,0,0,.41-.94,1.4,1.4,0,0,0-.41-.94,1.48,1.48,0,0,0-1-.48Zm-9.63,4.7h0a3.6,3.6,0,0,1-2.48-1.12,3.25,3.25,0,0,1-1-2.24,3.21,3.21,0,0,1,1.05-2.24,3.52,3.52,0,0,1,2.52-1h0a3.35,3.35,0,0,1,2.4,1.08,3.32,3.32,0,0,1-2.49,5.55Zm0-4.63a1.59,1.59,0,0,0-1,.47,1.27,1.27,0,0,0-.44.82,1.25,1.25,0,0,0,.41.82,1.64,1.64,0,0,0,1.06.52h0a1.26,1.26,0,0,0,1.35-1.25,1.27,1.27,0,0,0-.33-1,1.4,1.4,0,0,0-1-.43h0ZM78.5,98.66a4.19,4.19,0,0,1-.5,0A3.3,3.3,0,0,1,75.13,95a3.41,3.41,0,0,1,6.09-1.62A3.11,3.11,0,0,1,82,95.68h0a3.3,3.3,0,0,1-1.29,2.24A3.52,3.52,0,0,1,78.5,98.66Zm0-4.63a1.57,1.57,0,0,0-1.41,1.16,1.29,1.29,0,0,0,1.16,1.46,1.56,1.56,0,0,0,1.18-.31,1.33,1.33,0,0,0,.52-.89,1.14,1.14,0,0,0-.31-.81A1.64,1.64,0,0,0,78.6,94Z"/><path class="cls-2" d="M98,103.49a7.94,7.94,0,0,1-8.07-8.15A7.83,7.83,0,0,1,98,87.28h0a7.86,7.86,0,0,1,8,8A8,8,0,0,1,98,103.49ZM98,89.28a5.83,5.83,0,0,0-6.12,6.06,6.13,6.13,0,0,0,1.75,4.42A6,6,0,0,0,98,101.49h0A6.11,6.11,0,1,0,98,89.28ZM98,98.66h-.17a3.2,3.2,0,0,1-3.16-3.36h0A3.35,3.35,0,0,1,97.91,92h0a3.32,3.32,0,1,1,0,6.64ZM98,94h0a1.35,1.35,0,0,0-1.31,1.31h0a1.22,1.22,0,0,0,1.24,1.33,1.41,1.41,0,0,0,1-.31,1.39,1.39,0,0,0,.37-1,1.32,1.32,0,0,0-.37-1A1.3,1.3,0,0,0,98,94Z"/><path class="cls-2" d="M39.7,103.49h-.08a8,8,0,0,1-5.69-2.43,8.15,8.15,0,0,1-2.34-5.83A8,8,0,0,1,34,89.57a8.23,8.23,0,0,1,5.93-2.28,7.84,7.84,0,0,1,7.89,8.31A8,8,0,0,1,39.7,103.49Zm.07-14.21A6.21,6.21,0,0,0,35.39,91a6,6,0,0,0-1.8,4.24,6.15,6.15,0,0,0,1.77,4.41,6,6,0,0,0,4.28,1.83h.06a6,6,0,0,0,6.12-5.92,5.85,5.85,0,0,0-5.93-6.28Zm0,9.38a3.19,3.19,0,0,1-3.35-3.12A3.25,3.25,0,0,1,39.64,92h0a3.44,3.44,0,0,1,3.48,3.14,3.28,3.28,0,0,1-.91,2.4,3.36,3.36,0,0,1-2.41,1.08Zm0-4.62a1.25,1.25,0,0,0-1.3,1.4,1.22,1.22,0,0,0,1.37,1.22,1.32,1.32,0,0,0,1-.45,1.25,1.25,0,0,0,.37-.92A1.49,1.49,0,0,0,39.71,94Z"/><path class="cls-3" d="M71.25,80.94c0,2.18-.23,2.41-2.39,2.42s-2.43-.3-2.43-2.1c0-2.56.11-2.71,2.19-2.72C71.15,78.53,71.24,78.61,71.25,80.94Z"/><path class="cls-3" d="M68.77,84.86a4,4,0,0,1-3-.85,3.7,3.7,0,0,1-.83-2.75c0-2.85.35-4.2,3.68-4.22,1.48,0,2.56,0,3.35.78s.79,1.86.79,3.12h0c0,3-.9,3.91-3.89,3.92Zm-.82-3a5.79,5.79,0,0,0,.9,0,8.3,8.3,0,0,0,.87,0,8.53,8.53,0,0,0,0-.88h0c0-.22,0-.6,0-.89-.33,0-.81,0-1.11,0l-.67,0c0,.37,0,.92,0,1.2S67.94,81.71,68,81.82Z"/><path class="cls-3" d="M44.54,78.55c2.19,0,2.37.15,2.39,2.2,0,2.29-.24,2.59-2.21,2.61s-2.54-.31-2.54-2C42.17,78.66,42.25,78.57,44.54,78.55Z"/><path class="cls-3" d="M44.57,84.86A4.16,4.16,0,0,1,41.51,84a3.44,3.44,0,0,1-.83-2.61c0-3.28.51-4.31,3.85-4.33h0a4.13,4.13,0,0,1,3.09.77,3.93,3.93,0,0,1,.81,2.92c0,2.72-.55,4.1-3.7,4.12Zm-.87-3a5.43,5.43,0,0,0,1,0c.33,0,.55,0,.68,0a10.56,10.56,0,0,0,0-1.07c0-.29,0-.53,0-.7-.21,0-.49,0-.86,0h0c-.21,0-.58,0-.85,0,0,.37,0,.92,0,1.3A4.17,4.17,0,0,0,43.7,81.81Z"/><path class="cls-3" d="M90.84,80.86c0-2.28.07-2.33,2.4-2.31,2.14,0,2.31.2,2.3,2.5,0,2-.33,2.31-2.73,2.3C91,83.34,90.82,83.1,90.84,80.86Z"/><path class="cls-3" d="M92.87,84.85H92.8a3.5,3.5,0,0,1-2.67-.79c-.75-.76-.8-1.81-.79-3.21h0c0-1.31,0-2.34.79-3.09s1.74-.72,3.13-.71c3,0,3.79.88,3.78,4S95.62,84.85,92.87,84.85Zm-.51-3h.55a7.82,7.82,0,0,0,1.09,0c0-.14,0-.37,0-.76,0-.19,0-.65,0-1l-.79,0h-.88c0,.26,0,.59,0,.82h0A9,9,0,0,0,92.36,81.84Z"/><path class="cls-2" d="M83.3,55a8.07,8.07,0,0,1-5-1.77,8.24,8.24,0,0,1-3.09-6.16c-.06-1.79,0-3.59,0-5.34,0-.51,0-1,0-1.53v-.85c0-.73,0-1.47,0-2.2,0-1.74,0-3.54,0-5.31a2.88,2.88,0,0,1,.68-2.15A2.83,2.83,0,0,1,77.86,29c3,.05,6.12,0,9.1,0H88.7a3,3,0,0,1,2.2.72,2.51,2.51,0,0,1,.66,1.87c0,1.7,0,3.41,0,5.11,0,3.32,0,6.75-.1,10.13a8.09,8.09,0,0,1-6.65,8A8.57,8.57,0,0,1,83.3,55ZM77.13,38.33h0v1c0,.8,0,1.6,0,2.4,0,1.72,0,3.51,0,5.25a6.28,6.28,0,0,0,2.34,4.67,6.15,6.15,0,0,0,10-4.89c.11-3.34.1-6.75.1-10,0-1.71,0-3.43,0-5.14a.77.77,0,0,0-.08-.44S89.34,31,88.7,31H87c-3,0-6.09,0-9.14,0a1.15,1.15,0,0,0-.62.1s-.11.12-.1.69c0,1.8,0,3.61,0,5.37C77.13,37.54,77.13,37.93,77.13,38.33Z"/><path class="cls-2" d="M71.28,53.59a2.89,2.89,0,0,1-.5,0l-5.71-.76Q59.43,52,53.8,51.31A2.86,2.86,0,0,1,51,48.06,9.9,9.9,0,0,0,50.71,46c-.07-.38-.14-.76-.19-1.14a2.16,2.16,0,0,1,.37-1.69,2.27,2.27,0,0,1,1.64-.81q8.43-1,16.85-2.11a2.56,2.56,0,0,1,2.17.52,2.53,2.53,0,0,1,.69,2.07,62.64,62.64,0,0,0,.87,8A2.44,2.44,0,0,1,72.78,53,2,2,0,0,1,71.28,53.59Zm-18.8-9.22a1.54,1.54,0,0,1,0,.19c0,.35.11.7.18,1A11.49,11.49,0,0,1,53,48.11c0,.91.14,1.09,1.09,1.21,3.77.48,7.52,1,11.28,1.49l5.71.76.18,0a2.62,2.62,0,0,0-.06-.3h0a62.83,62.83,0,0,1-.92-8.56,1.13,1.13,0,0,0,0-.53,1,1,0,0,0-.24,0l-.32,0q-8.43,1.08-16.86,2.1A1.83,1.83,0,0,0,52.48,44.37Z"/><path class="cls-2" d="M44.76,59.77h-.08A3.55,3.55,0,0,1,41.39,56c0-1,0-2,0-3l0-2.32v-.37c0-1.06,0-2.12,0-3.17a3.64,3.64,0,0,1,3.19-3.7,3,3,0,0,1,2.2.85A3.84,3.84,0,0,1,48.09,47c.09,3.15.1,6.25,0,9.21a3.86,3.86,0,0,1-1,2.56A3.23,3.23,0,0,1,44.76,59.77Zm-1.38-7.13V53c0,1,0,2,0,3s.57,1.78,1.35,1.8a1.19,1.19,0,0,0,.88-.4,1.92,1.92,0,0,0,.49-1.24c.08-2.92.07-6,0-9.09a1.9,1.9,0,0,0-.63-1.31,1,1,0,0,0-.72-.34,1.7,1.7,0,0,0-1.33,1.77c0,1,0,2.06,0,3.09,0,.46,0,.92,0,1.39Z"/><path class="cls-3" d="M81,95.56a2.47,2.47,0,0,1-2.83,2.08,2.28,2.28,0,0,1-2-2.55,2.44,2.44,0,0,1,4.84.47Z"/><path class="cls-3" d="M78.49,99.16l-.56,0A3.79,3.79,0,0,1,74.64,95a4,4,0,0,1,4.16-3.41,4.14,4.14,0,0,1,2.81,1.51,3.57,3.57,0,0,1,.85,2.69h0A3.8,3.8,0,0,1,81,98.32,4.09,4.09,0,0,1,78.49,99.16Zm0-4.63a1.11,1.11,0,0,0-.91.71.78.78,0,0,0,.73.91,1.07,1.07,0,0,0,.8-.2.84.84,0,0,0,.33-.56h0a.67.67,0,0,0-.19-.44,1.18,1.18,0,0,0-.73-.42Z"/><path class="cls-3" d="M71.23,95.42a2.33,2.33,0,0,1-2.46,2.28,2.45,2.45,0,0,1-2.32-2.46A2.63,2.63,0,0,1,68.86,93,2.53,2.53,0,0,1,71.23,95.42Z"/><path class="cls-3" d="M68.88,99.2h-.17A4,4,0,0,1,66,97.89a3.76,3.76,0,0,1-1-2.73,4.12,4.12,0,0,1,3.88-3.68h.07a4,4,0,0,1,2.72,1.25,3.86,3.86,0,0,1,1.11,2.72h0a3.81,3.81,0,0,1-1.2,2.71A3.88,3.88,0,0,1,68.88,99.2Zm0-4.72a1.22,1.22,0,0,0-.89.84.81.81,0,0,0,.23.55,1,1,0,0,0,.66.33.84.84,0,0,0,.65-.23.79.79,0,0,0,.25-.58.88.88,0,0,0-.27-.59,1,1,0,0,0-.63-.32Z"/><path class="cls-3" d="M59.25,93.05a2.3,2.3,0,0,1,2.3,2.43,2.27,2.27,0,0,1-2.37,2.2,2.62,2.62,0,0,1-2.46-2.35A2.58,2.58,0,0,1,59.25,93.05Z"/><path class="cls-3" d="M59.2,99.18h0a4.11,4.11,0,0,1-2.84-1.27,3.76,3.76,0,0,1-1.12-2.6,3.7,3.7,0,0,1,1.21-2.59,4,4,0,0,1,2.87-1.17,3.91,3.91,0,0,1,2.76,1.24,3.82,3.82,0,0,1-2.86,6.39Zm0-4.63a1.1,1.1,0,0,0-.69.34.81.81,0,0,0-.28.46.83.83,0,0,0,.27.46,1.11,1.11,0,0,0,.71.37h0a.76.76,0,0,0,.84-.78.79.79,0,0,0-.2-.58.89.89,0,0,0-.65-.27h0Z"/><path class="cls-3" d="M95.63,95.31A2.35,2.35,0,0,1,97.92,93a2.3,2.3,0,0,1,2.34,2.38,2.19,2.19,0,0,1-2.43,2.26A2.23,2.23,0,0,1,95.63,95.31Z"/><path class="cls-3" d="M98,99.16h-.17a3.74,3.74,0,0,1-3.65-3.86,3.85,3.85,0,0,1,3.78-3.78,3.92,3.92,0,0,1,2.77,1.14A3.78,3.78,0,0,1,98,99.16Zm0-4.64h0a.86.86,0,0,0-.81.81h0a.73.73,0,0,0,.76.83.91.91,0,0,0,.65-.18.89.89,0,0,0,.22-.62.78.78,0,0,0-.23-.6A.81.81,0,0,0,98,94.52Z"/><path class="cls-3" d="M39.68,93a2.44,2.44,0,0,1,2.44,2.19,2.39,2.39,0,0,1-2.33,2.43,2.2,2.2,0,0,1-2.38-2.17A2.24,2.24,0,0,1,39.68,93Z"/><path class="cls-3" d="M39.76,99.16a3.68,3.68,0,0,1-3.85-3.6,3.75,3.75,0,0,1,3.71-4h0a3.91,3.91,0,0,1,4,3.61,3.82,3.82,0,0,1-1,2.77,3.88,3.88,0,0,1-2.78,1.24Zm0-4.62a.9.9,0,0,0-.64.24.87.87,0,0,0-.18.64c0,.32.12.74.84.74h0a.84.84,0,0,0,.62-.29.77.77,0,0,0,.23-.56,1,1,0,0,0-.89-.77Z"/><path class="cls-4" d="M68.88,137.76a68.88,68.88,0,1,1,68.88-68.88A69,69,0,0,1,68.88,137.76ZM68.88,4a64.88,64.88,0,1,0,64.88,64.88A64.95,64.95,0,0,0,68.88,4Z"/><path class="cls-1" d="M98,107.11a11.72,11.72,0,1,1,11.72-11.72A11.73,11.73,0,0,1,98,107.11Zm0-20.44a8.72,8.72,0,1,0,8.72,8.72A8.73,8.73,0,0,0,98,86.67Z"/><path class="cls-1" d="M39.76,107.11A11.72,11.72,0,1,1,51.48,95.39,11.74,11.74,0,0,1,39.76,107.11Zm0-20.44a8.72,8.72,0,1,0,8.72,8.72A8.73,8.73,0,0,0,39.76,86.67Z"/></svg>