<svg id="Слой_1" data-name="Слой 1" xmlns="http://www.w3.org/2000/svg" viewBox="0 0 137.76 137.76"><defs><style>.cls-1{fill:#737373;}.cls-2{fill:#fff;}.cls-3{fill:#00adad;}</style></defs><path class="cls-1" d="M28.24,60.36c0-4.87,0-9.74,0-14.62,0-1.82.72-2.53,2.46-2.37,4.46.42,8.94.71,13.28,2a21.29,21.29,0,0,1,3,1.12A2.51,2.51,0,0,1,48.71,49c-.05.75.36,1,1.06,1H61.35a3.45,3.45,0,0,0,1.95-.87,11.3,11.3,0,0,1,11.14-1.29c3.25,1.23,6.45,2.59,9.65,3.93.88.37,1.47.46,1.87-.64.34-.89,1.3-1.1,2.11-1.4a51.6,51.6,0,0,1,12.7-2.67,52.21,52.21,0,0,1,6.5-.31c1.59,0,2.23.61,2.24,2.17q0,14.84,0,29.67c0,1.54-.67,2.17-2.25,2.19-3.09,0-6.17,0-9.26,0a2.26,2.26,0,0,1-2.09-1c-.29-.43,0-1.6-1-1.18s-2,.77-1.87,2.1a4.9,4.9,0,0,1-.49,2.38,5.38,5.38,0,0,1-4.2,3.19,2,2,0,0,0-1.52.89,6.41,6.41,0,0,1-5.53,2.89,2.17,2.17,0,0,0-1.82.92,5.9,5.9,0,0,1-6.09,2.45,1.44,1.44,0,0,0-1,.08c-3.5,1.75-6.82.79-9.68-1.25C56,87.44,49.25,82.53,43.51,76.48c-.63-.67-1.13-1.4-1.8,0a2.3,2.3,0,0,1-2.25,1.06c-2.9,0-5.79,0-8.69,0-1.92,0-2.52-.72-2.53-2.71C28.23,70,28.24,65.19,28.24,60.36ZM68.9,90.46a6.18,6.18,0,0,0-1.54-1.79c-1.48-1.51-3-3-4.47-4.53-1-1.11-1.12-2.31-.3-3.07s1.88-.63,3,.51l7.07,7a5.77,5.77,0,0,0,1.1.94c1.11.63,2,0,2.66-.77s-.16-1.26-.63-1.73c-2-2-3.93-4-5.89-6a5.37,5.37,0,0,1-.66-.77,1.8,1.8,0,0,1,.12-2.6,1.73,1.73,0,0,1,2.59.1,31.47,31.47,0,0,1,2.43,2.47c1.65,1.91,3.62,3.47,5.36,5.28a2.33,2.33,0,0,0,3.16.25c.79-.46,1.07-1,.2-1.78-2.48-2.36-4.89-4.8-7.3-7.23a17.64,17.64,0,0,1-1.6-1.86,1.57,1.57,0,0,1,.12-2.23,1.72,1.72,0,0,1,2.25-.27,6.23,6.23,0,0,1,1.19,1q4.2,4.19,8.38,8.39c.75.76,1.5,1.07,2.39.3a1.74,1.74,0,0,0,.39-2.56,17.4,17.4,0,0,0-1.82-2.42C82,72,76,67.93,70.69,63a1.1,1.1,0,0,0-1.32-.17c-1.63.69-3.29,1.19-4.53,2.67a6.39,6.39,0,0,1-4.63,2.13c-2.18.14-4.43,0-5.91-2s-1.07-4-.24-6.06a18.72,18.72,0,0,1,2.81-4.7c.22-.28.65-.46.5-1h-8.5c-.74,0-1,.44-1.1,1.08q-1.7,7.71-4,15.24A1.63,1.63,0,0,0,44.19,72C50.4,78.63,57.66,84,65,89.28A5.71,5.71,0,0,0,68.9,90.46Zm1.18-39.75a7.49,7.49,0,0,0-3.48.79,21.34,21.34,0,0,0-6.32,5.21,14.51,14.51,0,0,0-3,4.92c-.5,1.41-.21,2,1.25,2.3,2.18.49,3.65-.76,5-2.24.48-.54.85-1.19,1.64-1.32a18.53,18.53,0,0,0,4.08-1.45,2.54,2.54,0,0,1,2.93.47c1.25,1.14,2.49,2.27,3.79,3.35,5,4.2,10.38,8,14.75,13a1,1,0,0,0,1.6.07c.74-.66,2.17-.77,1.54-2.44-1.88-5-3.67-9.94-5.46-14.93a2.54,2.54,0,0,0-1.67-1.63c-4.37-1.53-8.61-3.4-12.87-5.19A9.5,9.5,0,0,0,70.08,50.71Zm35.77,13.16c0-4,0-8,0-12,0-.59.18-1.28-.88-1.25a58.14,58.14,0,0,0-13.69,2c-1,.28-1,.73-.66,1.56.66,1.44,1.28,2.91,1.85,4.39,2.17,5.67,4.32,11.35,6,17.19a1.65,1.65,0,0,0,1.93,1.43,28.35,28.35,0,0,1,3.91,0c1.25.08,1.55-.46,1.53-1.61C105.82,71.68,105.85,67.77,105.85,63.87ZM31.91,60.41c0,3.81,0,7.62,0,11.43,0,1.88,0,1.88,1.95,1.88,1.15,0,2.31-.06,3.46,0a1.66,1.66,0,0,0,1.94-1.44c2-6.94,4.16-13.84,5.39-21,.24-1.35,0-2.07-1.44-2.38a85.41,85.41,0,0,0-9.54-1.56c-1.7-.19-1.76-.2-1.76,1.46C31.9,52.7,31.91,56.56,31.91,60.41Z"/><path class="cls-2" d="M68.67,94.66a10.45,10.45,0,0,1-6.1-2.21c-6.9-4.91-13.56-9.81-19.24-15.8l-.16-.17c-.26-.28-.52-.59-.71-.54s-.27.12-.53.67a2.47,2.47,0,0,1-2.47,1.2h-1.8c-2.26,0-4.6,0-6.89,0-2.05,0-2.77-.82-2.78-3,0-3.4,0-6.79,0-10.19V56.34q0-5.3,0-10.6a2.76,2.76,0,0,1,.69-2.15,2.62,2.62,0,0,1,2-.47l1.56.14a63.54,63.54,0,0,1,11.77,1.82,21.39,21.39,0,0,1,3,1.13A2.74,2.74,0,0,1,49,49a.75.75,0,0,0,.14.57.91.91,0,0,0,.67.2H61.35a3,3,0,0,0,1.7-.75l.11-.08a11.56,11.56,0,0,1,11.37-1.31c3,1.15,6.07,2.43,9,3.66l.64.27a1.47,1.47,0,0,0,1,.19,1.12,1.12,0,0,0,.49-.68,2.7,2.7,0,0,1,1.92-1.44l.33-.12a53.44,53.44,0,0,1,12.76-2.68,50.46,50.46,0,0,1,6.53-.31c1.76,0,2.48.75,2.49,2.42,0,9.5,0,19.48,0,29.67,0,1.67-.77,2.42-2.5,2.44s-3.7,0-5.56,0H98a2.54,2.54,0,0,1-2.3-1.14,1.86,1.86,0,0,1-.21-.64c0-.2-.08-.46-.18-.51a.46.46,0,0,0-.32,0l-.15.07c-.81.35-1.65.71-1.58,1.79a5,5,0,0,1-.51,2.5,5.63,5.63,0,0,1-4.37,3.33A1.77,1.77,0,0,0,87,87.3a6.65,6.65,0,0,1-5.73,3,1.87,1.87,0,0,0-1.62.82,6.17,6.17,0,0,1-6.33,2.53,1.19,1.19,0,0,0-.83.07A8.54,8.54,0,0,1,68.67,94.66ZM42.49,75.43c.39,0,.71.35,1,.71l.15.17c5.65,6,12.29,10.84,19.16,15.74,3.25,2.31,6.42,2.72,9.43,1.23a1.66,1.66,0,0,1,1.14-.11,5.63,5.63,0,0,0,5.85-2.35,2.37,2.37,0,0,1,2-1A6.19,6.19,0,0,0,86.6,87a2.24,2.24,0,0,1,1.69-1,5.14,5.14,0,0,0,4-3,4.74,4.74,0,0,0,.47-2.26c-.1-1.43,1-1.92,1.87-2.28l.15-.06a.84.84,0,0,1,.75,0,1.17,1.17,0,0,1,.45.86,1.15,1.15,0,0,0,.13.45,2,2,0,0,0,1.86.93h3.72c1.86,0,3.71,0,5.56,0,1.45,0,2-.54,2-1.94,0-10.19,0-20.17,0-29.67,0-1.4-.51-1.88-2-1.92a49.36,49.36,0,0,0-6.46.31A52.67,52.67,0,0,0,88.15,50l-.33.12c-.71.25-1.38.48-1.62,1.14a1.51,1.51,0,0,1-.76,1A1.87,1.87,0,0,1,84,52l-.64-.27c-2.93-1.23-6-2.51-9-3.65a11.09,11.09,0,0,0-10.91,1.25l-.1.08a3.42,3.42,0,0,1-2,.84H49.77a1.41,1.41,0,0,1-1-.36,1.26,1.26,0,0,1-.27-1,2.23,2.23,0,0,0-1.61-2.31,21.75,21.75,0,0,0-2.93-1.11,63,63,0,0,0-11.68-1.8l-1.55-.14A2.07,2.07,0,0,0,29,44a2.31,2.31,0,0,0-.53,1.78q0,5.3,0,10.59v8.31c0,3.4,0,6.79,0,10.18,0,1.88.52,2.43,2.29,2.47,2.29,0,4.62,0,6.88,0h1.8c1.07,0,1.73-.3,2-.91s.57-.91.91-1Zm25.93,15.3a6,6,0,0,1-3.6-1.25C57,83.8,50,78.58,44,72.18a1.87,1.87,0,0,1-.49-2.05c1.52-4.9,2.86-10,4-15.22.14-.63.41-1.28,1.34-1.28h8.71l0,.19a1,1,0,0,1-.4,1.09l-.16.16a18.79,18.79,0,0,0-2.77,4.65c-.68,1.68-1.28,3.86.21,5.81s3.59,2,5.7,1.88a6.14,6.14,0,0,0,4.45-2,9.19,9.19,0,0,1,3.91-2.45l.71-.29a1.37,1.37,0,0,1,1.59.21c2.27,2.09,4.71,4.06,7.07,6A109.18,109.18,0,0,1,87.3,77a13.86,13.86,0,0,1,1.56,2l.29.43a2,2,0,0,1-.43,2.89A1.81,1.81,0,0,1,86,82.06q-4.07-4.11-8.18-8.2l-.35-.35a5.25,5.25,0,0,0-1-.85,1.45,1.45,0,0,0-1.94.23,1.33,1.33,0,0,0-.1,1.9A16.9,16.9,0,0,0,76,76.63l.94,1c2.07,2.08,4.2,4.22,6.36,6.27A1.18,1.18,0,0,1,83,86c-1.38.8-2.51.71-3.46-.29-.73-.76-1.51-1.48-2.27-2.19a37.78,37.78,0,0,1-3.1-3.1A33.3,33.3,0,0,0,71.8,78a1.49,1.49,0,0,0-2.25-.1c-.68.64-.71,1.36-.08,2.28a4.48,4.48,0,0,0,.63.73c.75.77,1.5,1.53,2.26,2.29,1.21,1.23,2.43,2.46,3.63,3.69.09.09.19.17.3.26a1.53,1.53,0,0,1,.69,1,1.16,1.16,0,0,1-.36.85c-.64.71-1.64,1.57-3,.81a5,5,0,0,1-1.06-.89l-.09-.08-7.07-7c-1-1-1.91-1.21-2.67-.51a1.47,1.47,0,0,0-.48,1,2.46,2.46,0,0,0,.79,1.7c.91,1,1.87,1.92,2.79,2.84.56.56,1.13,1.12,1.68,1.69l.38.36a4.7,4.7,0,0,1,1.21,1.49l.15.33-.36,0ZM48.86,54.13c-.5,0-.7.21-.85.89-1.14,5.21-2.49,10.34-4,15.26a1.38,1.38,0,0,0,.37,1.56c6,6.37,12.93,11.57,20.74,17.23a5.49,5.49,0,0,0,3.31,1.16h.07a4.66,4.66,0,0,0-.91-1l-.4-.38c-.55-.57-1.11-1.13-1.67-1.69-.93-.92-1.89-1.88-2.8-2.85a2.93,2.93,0,0,1-.93-2.06,2,2,0,0,1,.64-1.37c.68-.62,1.8-1,3.36.52l7.07,7,.09.08a4.86,4.86,0,0,0,1,.81c.8.46,1.48.25,2.35-.72a.7.7,0,0,0,.23-.47c0-.21-.27-.42-.51-.63a2.36,2.36,0,0,1-.33-.29Q73.83,85.39,72,83.55c-.75-.77-1.51-1.53-2.26-2.29a6.74,6.74,0,0,1-.69-.8,2,2,0,0,1,.16-2.93,2,2,0,0,1,2.93.1,32.48,32.48,0,0,1,2.45,2.49,40.16,40.16,0,0,0,3.06,3.06c.77.71,1.55,1.44,2.29,2.21s1.67.89,2.85.2c.39-.22.59-.43.61-.62s-.13-.45-.45-.76c-2.16-2-4.3-4.2-6.36-6.28l-1-1A18,18,0,0,1,74,75.09a1.83,1.83,0,0,1,.15-2.55,2,2,0,0,1,2.56-.31,5.31,5.31,0,0,1,1.08.93l.36.35c2.73,2.73,5.46,5.45,8.18,8.2.77.78,1.37.86,2,.28a1.5,1.5,0,0,0,.35-2.23l-.3-.43a13.74,13.74,0,0,0-1.5-2,110.28,110.28,0,0,0-9.33-8.16c-2.36-1.91-4.81-3.89-7.09-6a.85.85,0,0,0-1-.12l-.72.3A8.58,8.58,0,0,0,65,65.7a6.66,6.66,0,0,1-4.81,2.22c-2.16.13-4.55,0-6.13-2.08s-1-4.49-.27-6.3a19,19,0,0,1,2.84-4.77,2.08,2.08,0,0,1,.21-.21c.16-.15.26-.26.27-.42H48.86Zm55.72,23.32h-.26a27.77,27.77,0,0,0-3.87,0,1.89,1.89,0,0,1-2.19-1.61c-1.66-5.68-3.71-11.14-6-17.17-.54-1.41-1.15-2.84-1.85-4.38A1.57,1.57,0,0,1,90.22,53a1.44,1.44,0,0,1,1-.65,57.64,57.64,0,0,1,13.76-2,1.16,1.16,0,0,1,.89.27,1.25,1.25,0,0,1,.24,1V67.09c0,2.78,0,5.66,0,8.49a1.91,1.91,0,0,1-.43,1.51A1.53,1.53,0,0,1,104.58,77.45Zm-2.18-.57q1,0,1.95.06a1.36,1.36,0,0,0,1-.21c.2-.19.28-.54.27-1.14,0-2.84,0-5.72,0-8.5V51.62a1,1,0,0,0-.09-.64.84.84,0,0,0-.53-.12,57.64,57.64,0,0,0-13.63,2c-.38.11-.6.23-.67.38s0,.42.17.83c.7,1.55,1.31,3,1.85,4.41,2.32,6.05,4.37,11.51,6,17.21.29,1,.73,1.3,1.68,1.25Q101.41,76.88,102.4,76.88ZM91.52,76.4a1.33,1.33,0,0,1-1-.54A86.51,86.51,0,0,0,79.62,66c-1.26-1-2.56-2.05-3.81-3.09s-2.45-2.14-3.63-3.21L72,59.58a2.28,2.28,0,0,0-2.67-.43l-.52.23a15.69,15.69,0,0,1-3.61,1.23,2.12,2.12,0,0,0-1.22.92l-.28.33c-1.34,1.51-2.91,2.83-5.21,2.31A2.09,2.09,0,0,1,57,63.32a2.12,2.12,0,0,1,.08-1.77,14.69,14.69,0,0,1,3-5,21.68,21.68,0,0,1,6.39-5.27,7.83,7.83,0,0,1,3.6-.82,9.52,9.52,0,0,1,3.87.89l2.41,1c3.39,1.43,6.91,2.92,10.45,4.16a2.72,2.72,0,0,1,1.82,1.79l.72,2c1.53,4.25,3.11,8.64,4.74,12.93.55,1.44-.3,1.93-1,2.31a3.58,3.58,0,0,0-.61.4,1.46,1.46,0,0,1-1,.45Zm-21.08-18a2.77,2.77,0,0,1,1.91.81l.17.15c1.17,1.07,2.38,2.17,3.61,3.19s2.55,2.09,3.8,3.09a88.22,88.22,0,0,1,11,9.89.85.85,0,0,0,.61.37h0a1,1,0,0,0,.63-.32,3.52,3.52,0,0,1,.7-.46c.67-.38,1.16-.66.76-1.7-1.63-4.29-3.21-8.69-4.74-12.94l-.72-2A2.27,2.27,0,0,0,86.64,57c-3.55-1.24-7.07-2.73-10.48-4.17l-2.4-1A9.45,9.45,0,0,0,70.09,51h0a7.32,7.32,0,0,0-3.37.77,20.94,20.94,0,0,0-6.24,5.15,14.51,14.51,0,0,0-2.93,4.83,1.8,1.8,0,0,0-.12,1.37c.15.27.52.45,1.19.6,1.93.44,3.29-.54,4.73-2.16a3.88,3.88,0,0,0,.26-.31,2.6,2.6,0,0,1,1.53-1.09,15.16,15.16,0,0,0,3.49-1.2l.53-.23A3.33,3.33,0,0,1,70.44,58.4ZM37.55,74h-.24c-.77,0-1.57,0-2.34,0H33.85c-2.07,0-2.19-.12-2.19-2.13V57.2c0-2.78,0-5.57,0-8.35,0-.87,0-1.33.31-1.6s.77-.22,1.7-.11a87.1,87.1,0,0,1,9.6,1.56c1.67.37,1.86,1.34,1.63,2.67a165.33,165.33,0,0,1-4.59,18.2l-.81,2.8A1.88,1.88,0,0,1,37.55,74ZM36,73.45c.45,0,.9,0,1.35,0,.95.06,1.39-.26,1.68-1.26s.54-1.87.82-2.8a167.25,167.25,0,0,0,4.57-18.15c.23-1.34-.06-1.83-1.25-2.09a86.41,86.41,0,0,0-9.52-1.55c-.73-.08-1.2-.14-1.34,0s-.14.65-.14,1.22c0,2.78,0,5.57,0,8.35V71.84c0,1.63,0,1.63,1.7,1.63H36Z"/><path class="cls-3" d="M68.88,137.76a68.88,68.88,0,1,1,68.88-68.88A69,69,0,0,1,68.88,137.76ZM68.88,4a64.88,64.88,0,1,0,64.88,64.88A64.95,64.95,0,0,0,68.88,4Z"/></svg>