<svg id="Слой_1" data-name="Слой 1" xmlns="http://www.w3.org/2000/svg" viewBox="0 0 137.76 137.76"><defs><style>.cls-1{fill:#737373;}.cls-2{fill:#fff;}.cls-3{fill:#e3e3e3;}.cls-4{fill:#00adad;}</style></defs><path class="cls-1" d="M89.65,95.4H65.83v1.74c0,4.51,0,9,0,13.54,0,1.75-.47,2.22-2.25,2.22H52.41c-1.93,0-2.32-.39-2.33-2.28,0-4.46,0-8.92,0-13.38V95.33H45.61c-3,0-6.09,0-9.13,0a11,11,0,0,1-11-11.14V42c0-7.63,4.61-12.21,12.27-12.22,1.42,0,2.84,0,4.25,0s2.1.63,2.08,2.08c0,3,0,6.07,0,9.31H78.61c-.07-5.71,3.67-10.11,5.58-15.19a2,2,0,0,1,1.47-1.12A2.14,2.14,0,0,1,87.09,26c1.72,3.59,3.44,7.19,4.93,10.88.53,1.3.43,2.86.65,4.57,3.28,0,6.69-.17,10.06.07a11.75,11.75,0,0,1,5,1.55,7.19,7.19,0,0,1,3.46,6.51q0,25.74,0,51.47a8.42,8.42,0,0,1-8.42,8.41c-3.62,0-7.24,0-10.86,0-1.81,0-2.12-.32-2.13-2.11,0-3.83,0-7.66,0-11.49A3.66,3.66,0,0,0,89.65,95.4Zm18.51-.94a2.32,2.32,0,0,0,.17-.45q0-22.28,0-44.54a4.87,4.87,0,0,0-4.4-5c-3.75-.24-7.52-.06-11.47-.06v1.82q0,12.9,0,25.81a21.45,21.45,0,0,1-.14,2.66A6.71,6.71,0,0,1,86,80.52c-4.22.18-7.25-2.82-7.26-7.29,0-9.07,0-18.15,0-27.22V44.17H44.05V73.8c0,2-.31,2.26-2.3,2.27s-3.78-.06-5.66,0a8.22,8.22,0,0,0-7.78,7.67c-.2,4.3,2.71,8.3,6.86,8.58,4.9.33,9.83.08,14.91.08V55.55c0-2,.37-2.41,2.35-2.42,3.62,0,7.25,0,10.87,0,2.14,0,2.53.42,2.53,2.6q0,17.46,0,34.93v1.82h2c11.18,0,22.36,0,33.53,0A10.39,10.39,0,0,1,108.16,94.46Zm-67-61.84c-1.48,0-2.79,0-4.1,0-5.32.08-8.72,3.52-8.72,8.82q0,16.74,0,33.49c0,.5,0,1,.08,1.88,3.63-4,8.23-3.65,12.74-3.59ZM53,82c1.3.23,3.08-.41,3.12,1.47.06,2.16-2,1.1-3.08,1.57v4a9.41,9.41,0,0,1,2.62,0c.61.2,1.07.9,1.6,1.38-.53.46-1,1.16-1.61,1.34a9.85,9.85,0,0,1-2.61.06v4.13c1.22.31,3-.37,3.07,1.5C56.17,99.58,54,98.5,53,99.09V103a9.54,9.54,0,0,1,2.58.06c.63.19,1.48.78,1.58,1.32.19,1-.66,1.43-1.62,1.45s-1.65,0-2.53,0v4.12h9.86V56.16H53v5.16c.92,0,1.75,0,2.57,0s1.8.5,1.59,1.49c-.11.53-1,1.11-1.58,1.28a10.1,10.1,0,0,1-2.58.05v4c1.2.36,3.12-.46,3.12,1.57s-2,1.09-3.1,1.55v3.93a9.59,9.59,0,0,1,2.59.06c.62.19,1.1.86,1.64,1.32-.52.48-1,1.2-1.57,1.38A10,10,0,0,1,53,78ZM81.63,39.5c0,.42,0,.67,0,.93q0,16.37,0,32.74a6.7,6.7,0,0,0,.07,1.1,3.94,3.94,0,0,0,4.06,3.41,3.82,3.82,0,0,0,3.78-3.51,14.71,14.71,0,0,0,.1-1.88V39.5Zm11.06,67.1c3.68,0,7.28.14,10.87,0,2.63-.14,4.59-2.61,4.75-5.44.15-2.42-1.59-5.19-4.08-5.41-3.81-.34-7.68-.09-11.54-.09ZM82.55,36.4H88.7l-3.08-6.77Z"/><path class="cls-2" d="M108.16,94.46a10.39,10.39,0,0,0-6.77-2c-11.17,0-22.35,0-33.53,0h-2V90.66q0-17.46,0-34.93c0-2.18-.39-2.59-2.53-2.6-3.62,0-7.25,0-10.87,0-2,0-2.35.41-2.35,2.42V92.41c-5.08,0-10,.25-14.91-.08-4.15-.28-7.06-4.28-6.86-8.58a8.22,8.22,0,0,1,7.78-7.67c1.88-.07,3.78,0,5.66,0s2.3-.31,2.3-2.27V44.17H78.74V46c0,9.07,0,18.15,0,27.22,0,4.47,3,7.47,7.26,7.29a6.71,6.71,0,0,0,6.3-5.78,21.45,21.45,0,0,0,.14-2.66q0-12.91,0-25.81V44.45c4,0,7.72-.18,11.47.06a4.87,4.87,0,0,1,4.4,5q.06,22.27,0,44.54A2.32,2.32,0,0,1,108.16,94.46Z"/><path class="cls-3" d="M41.13,32.62v40.6c-4.51-.06-9.11-.43-12.74,3.59,0-.88-.08-1.38-.08-1.88q0-16.74,0-33.49c0-5.3,3.4-8.74,8.72-8.82C38.34,32.6,39.65,32.62,41.13,32.62Z"/><path class="cls-3" d="M53,82V78a10,10,0,0,0,2.69-.06c.61-.18,1.05-.9,1.57-1.38-.54-.46-1-1.13-1.64-1.32A9.59,9.59,0,0,0,53,75.17V71.24c1.11-.46,3.1.48,3.1-1.55S54.21,68.48,53,68.12v-4a10.1,10.1,0,0,0,2.58-.05c.62-.17,1.47-.75,1.58-1.28.21-1-.64-1.45-1.59-1.49s-1.65,0-2.57,0V56.16h9.88v53.78H53v-4.12c.88,0,1.71,0,2.53,0s1.81-.46,1.62-1.45c-.1-.54-1-1.13-1.58-1.32A9.54,9.54,0,0,0,53,103V99.09c1-.59,3.15.49,3.09-1.65,0-1.87-1.85-1.19-3.07-1.5V91.81a9.85,9.85,0,0,0,2.61-.06c.62-.18,1.08-.88,1.61-1.34-.53-.48-1-1.18-1.6-1.38A9.41,9.41,0,0,0,53,89V85c1-.47,3.14.59,3.08-1.57C56.08,81.56,54.3,82.2,53,82Z"/><path class="cls-3" d="M81.63,39.5h8V72.29a14.71,14.71,0,0,1-.1,1.88,3.82,3.82,0,0,1-3.78,3.51,3.94,3.94,0,0,1-4.06-3.41,6.7,6.7,0,0,1-.07-1.1q0-16.37,0-32.74C81.59,40.17,81.61,39.92,81.63,39.5Z"/><path class="cls-3" d="M92.69,106.6v-11c3.86,0,7.73-.25,11.54.09,2.49.22,4.23,3,4.08,5.41-.16,2.83-2.12,5.3-4.75,5.44C100,106.74,96.37,106.6,92.69,106.6Z"/><path class="cls-3" d="M82.55,36.4l3.07-6.77L88.7,36.4Z"/><path class="cls-4" d="M68.88,137.76a68.88,68.88,0,1,1,68.88-68.88A69,69,0,0,1,68.88,137.76ZM68.88,4a64.88,64.88,0,1,0,64.88,64.88A64.95,64.95,0,0,0,68.88,4Z"/></svg>