<svg id="Слой_1" data-name="Слой 1" xmlns="http://www.w3.org/2000/svg" viewBox="0 0 137.76 137.76"><defs><style>.cls-1{fill:#00adad;}.cls-2{fill:#737373;}.cls-3{fill:#e3e3e3;}</style></defs><path class="cls-1" d="M68.88,137.76a68.88,68.88,0,1,1,68.88-68.88A69,69,0,0,1,68.88,137.76ZM68.88,4a64.88,64.88,0,1,0,64.88,64.88A64.95,64.95,0,0,0,68.88,4Z"/><path class="cls-2" d="M45.81,54.69c.24-.88.33-1.34.48-1.78.54-1.6.94-2.67-.61-4.51-1-1.17-.64-2.51,1.39-2.55.8,0,1.44,0,2.24,0,1.45.07,2.52.87,1.16,2.55-1.75,2.17-.84,3.84-.18,6.2.8-2.19,1.48-4,2.15-5.87,1.18-3.19,1.68-3.42,4.94-2.49s5.81,2.8,7,6.1a11.91,11.91,0,0,1,.59,3.75c.06,4.84.07,9.67,0,14.51a10.86,10.86,0,0,1-.8,2.79,2.8,2.8,0,0,1-.31.48c-1.53,2.38-3.66,4.6-4.43,7.21s-.2,5.64-.21,8.48c0,4,0,8,0,12,0,2.31-.77,3.08-3.06,3.08H40.06c-2.38,0-3.1-.74-3.11-3.17,0-6.45,0-12.89,0-19.34A4.11,4.11,0,0,0,36.3,80c-1.41-2.3-3-4.52-4.38-6.81a4.36,4.36,0,0,1-.76-2.09c0-5.36-.14-10.72.09-16.06.18-4.27,2.64-7.09,6.64-8.51s4.48-1.24,6,2.85C44.45,51,45.06,52.64,45.81,54.69Zm-6.22-3.9c-2.78,1-3.88,2.54-3.9,5.31q0,6.82,0,13.64a3.66,3.66,0,0,0,.55,1.84c1.44,2.28,3,4.47,4.43,6.78A5.44,5.44,0,0,1,41.47,81c.07,5.82,0,11.65,0,17.48v1.46H54.62c0-6.26,0-12.42.05-18.58a7.16,7.16,0,0,1,1-3.28c1.28-2.21,2.77-4.29,4.15-6.44a2.71,2.71,0,0,0,.56-1.27c0-5.16,0-10.33-.1-15.49-.05-2-1.5-3.42-3.71-4-.18.47-.37.94-.55,1.42-1.9,5.2-3.81,10.39-5.69,15.59a2.33,2.33,0,0,1-4.53,0c-.49-1.34-1-2.68-1.44-4C42.77,59.57,41.2,55.22,39.59,50.79Z"/><path class="cls-2" d="M48.09,105h-8c-2.6,0-3.48-.9-3.48-3.55V95.54c0-4.49,0-9,0-13.46a3.92,3.92,0,0,0-.57-1.9c-.73-1.2-1.51-2.37-2.28-3.55s-1.42-2.16-2.1-3.25a4.57,4.57,0,0,1-.81-2.29l0-2.57c-.05-4.43-.09-9,.1-13.51.18-4.25,2.56-7.31,6.89-8.84s4.88-1.23,6.45,3.07c.4,1.11.8,2.21,1.26,3.44l.28.75q.09-.34.18-.63l0-.1c.53-1.55.82-2.41-.56-4.06a2,2,0,0,1-.49-2.11c.18-.38.69-1,2.15-1.05h.42c.63,0,1.18,0,1.85,0a2.22,2.22,0,0,1,2,1c.26.59.06,1.31-.6,2.14-1.35,1.67-1,3-.43,4.77l1.76-4.8c1.24-3.36,1.94-3.72,5.39-2.73,3.68,1,6.11,3.18,7.22,6.33a12.06,12.06,0,0,1,.61,3.88c.07,5.17.07,9.91,0,14.51a6.13,6.13,0,0,1-.53,2.1c-.1.27-.2.54-.29.8a1.33,1.33,0,0,1-.25.44.6.6,0,0,0-.09.13c-.48.74-1,1.47-1.53,2.17a16.9,16.9,0,0,0-2.86,5,16.89,16.89,0,0,0-.29,5.75c0,.86.1,1.76.1,2.62v5.16q0,3.39,0,6.79c0,2.52-.94,3.45-3.43,3.46ZM41,46.06a10.92,10.92,0,0,0-3,.81c-4,1.43-6.22,4.25-6.39,8.17-.19,4.48-.15,9.05-.1,13.47l0,2.57a3.85,3.85,0,0,0,.69,1.9c.68,1.09,1.39,2.17,2.1,3.24s1.55,2.36,2.29,3.57a4.62,4.62,0,0,1,.68,2.29c0,4.48,0,9,0,13.46v5.88c0,2.22.56,2.79,2.73,2.8q8,0,16.06,0c2.07,0,2.68-.61,2.68-2.72q0-3.39,0-6.78V89.56c0-.84-.05-1.72-.1-2.57A17.71,17.71,0,0,1,59,81a17.3,17.3,0,0,1,3-5.18c.51-.7,1-1.42,1.5-2.14l.13-.18a1.32,1.32,0,0,0,.13-.2q.13-.42.3-.84a5.83,5.83,0,0,0,.48-1.85c.08-4.59.08-9.33,0-14.49A11.75,11.75,0,0,0,64,52.46c-1-3-3.24-4.87-6.73-5.86-3.08-.88-3.37-.73-4.47,2.27l-2.56,7-.31-1.12c-.1-.33-.19-.65-.29-1-.58-1.91-1.09-3.56.54-5.57.46-.57.63-1.06.49-1.36s-.67-.55-1.38-.59-1.17,0-1.79,0h-.42c-.77,0-1.31.23-1.49.61A1.32,1.32,0,0,0,46,48.16c1.65,2,1.23,3.21.71,4.78l0,.09c-.09.28-.16.56-.26.95-.06.23-.12.49-.21.8l-.3,1.15-1.11-3L43.5,49.5C42.6,47,42.2,46.06,41,46.06Zm14,54.25H41.13V94.19c0-4.32,0-8.8,0-13.2a5.12,5.12,0,0,0-.73-2.44c-.79-1.28-1.64-2.56-2.47-3.79-.66-1-1.32-2-2-3a4.17,4.17,0,0,1-.61-2c0-4.34,0-8.81,0-13.65,0-2.93,1.23-4.57,4.15-5.66l.35-.13,5.58,15.4.75,2.09a2,2,0,0,0,1.93,1.54h0c.92,0,1.49-.47,1.89-1.56q2.22-6.16,4.48-12.31l1.21-3.29c.12-.33.25-.65.37-1l.3-.76.32.08c2.49.63,3.94,2.21,4,4.33.12,4.63.11,9.33.1,13.88v1.62a2.76,2.76,0,0,1-.59,1.43c-.49.77-1,1.5-1.47,2.23-.91,1.37-1.86,2.79-2.7,4.24a6.72,6.72,0,0,0-.94,3.1c-.06,4.58-.06,9.27,0,13.8Zm-13.12-.75H54.25v-4.4c0-4.53,0-9.22,0-13.81a7.57,7.57,0,0,1,1-3.47c.85-1.46,1.81-2.89,2.73-4.28.48-.72,1-1.44,1.44-2.18A2.49,2.49,0,0,0,60,70.36V68.74c0-4.55,0-9.25-.1-13.86,0-1.7-1.15-3-3.11-3.54l-.06.14-.37,1-1.2,3.29c-1.5,4.1-3,8.19-4.49,12.3a2.65,2.65,0,0,1-2.59,2.06h0a2.69,2.69,0,0,1-2.64-2L44.68,66,39.37,51.28c-2.38,1-3.29,2.31-3.31,4.82,0,4.84,0,9.3,0,13.64a3.41,3.41,0,0,0,.5,1.64c.63,1,1.29,2,1.94,3,.83,1.24,1.69,2.52,2.49,3.82A6,6,0,0,1,41.85,81c0,4.41,0,8.88,0,13.22Z"/><path class="cls-2" d="M57.65,34.64a9.61,9.61,0,1,1-9.47-9.7A9.66,9.66,0,0,1,57.65,34.64Zm-9.59,4.92a5,5,0,1,0-5-5A5.07,5.07,0,0,0,48.06,39.56Z"/><path class="cls-2" d="M48.13,44.52H48a10.06,10.06,0,0,1-9.91-10,10,10,0,0,1,10-9.94h.15A10,10,0,0,1,58,34.64h0a10,10,0,0,1-9.89,9.88ZM48,25.32a9.27,9.27,0,0,0-9.22,9.19A9.3,9.3,0,0,0,48,43.77a8.85,8.85,0,0,0,6.47-2.63,9.1,9.1,0,0,0,2.81-6.5,9.26,9.26,0,0,0-9.09-9.32Zm0,14.61a5.41,5.41,0,0,1-5.41-5.41A5.48,5.48,0,0,1,48,29.13a5.39,5.39,0,0,1,3.84,1.55,5.32,5.32,0,0,1,1.66,3.81A5.26,5.26,0,0,1,51.9,38.3a5.34,5.34,0,0,1-3.84,1.63Zm0-.75v0a4.64,4.64,0,0,0,3.31-1.4,4.58,4.58,0,0,0-.09-6.56,4.62,4.62,0,0,0-7.88,3.3,4.66,4.66,0,0,0,4.66,4.66Z"/><path class="cls-3" d="M39.61,50.79c1.61,4.43,3.19,8.78,4.76,13.13.48,1.33,1,2.67,1.44,4a2.33,2.33,0,0,0,2.29,1.78,2.28,2.28,0,0,0,2.24-1.81c1.88-5.2,3.79-10.39,5.69-15.59.18-.48.37-1,.55-1.42,2.21.56,3.66,1.93,3.72,4,.13,5.16.1,10.33.09,15.49a2.79,2.79,0,0,1-.55,1.27c-1.39,2.15-2.88,4.23-4.16,6.44a7.16,7.16,0,0,0-1,3.28c-.09,6.16,0,12.32,0,18.58H41.53V98.47c0-5.83,0-11.66,0-17.48a5.44,5.44,0,0,0-.78-2.63c-1.41-2.31-3-4.5-4.43-6.78a3.66,3.66,0,0,1-.55-1.84q-.07-6.81,0-13.64C35.73,53.33,36.83,51.83,39.61,50.79Z"/><path class="cls-3" d="M56.15,101.43H40V94.22c0-4.33,0-8.81,0-13.22a3.93,3.93,0,0,0-.56-1.86c-.77-1.26-1.62-2.52-2.43-3.75-.67-1-1.34-2-2-3a5.08,5.08,0,0,1-.79-2.62c0-4.37,0-8.84,0-13.67,0-3.39,1.53-5.46,4.88-6.71l1.42-.53,6.71,18.56c.29.82.6.83.89.8s.53,0,.82-.82c1.48-4.1,3-8.21,4.49-12.31l1.2-3.29.39-1,.66-1.68,1.28.33c3,.75,4.78,2.76,4.85,5.39.12,4.64.11,9.35.09,13.91v1.62a3.81,3.81,0,0,1-.77,2c-.5.78-1,1.51-1.48,2.24C58.73,76,57.8,77.41,57,78.82a5.61,5.61,0,0,0-.79,2.56c-.07,4.56-.06,9.24,0,13.76ZM43,98.43H53.14V95.14c0-4.53,0-9.22,0-13.81a8.53,8.53,0,0,1,1.19-4c.87-1.5,1.83-2.94,2.77-4.34.48-.72,1-1.44,1.42-2.16a4.39,4.39,0,0,0,.32-.54V68.73c0-4.53,0-9.22-.09-13.82a2.41,2.41,0,0,0-1.36-2.09h0l-1.2,3.29Q54,62.26,51.75,68.41a3.73,3.73,0,0,1-3.65,2.8h0a3.78,3.78,0,0,1-3.7-2.77L38.76,52.85a3.36,3.36,0,0,0-1.55,3.26c0,4.82,0,9.27,0,13.62a2.18,2.18,0,0,0,.32,1c.63,1,1.28,2,1.94,2.94.83,1.25,1.7,2.54,2.5,3.86A6.84,6.84,0,0,1,43,81c0,4.42,0,8.91,0,13.26ZM58.9,70.25Z"/><path class="cls-3" d="M48.05,39.56a5,5,0,1,1,5-5.07A5,5,0,0,1,48.05,39.56Z"/><path class="cls-3" d="M48,41.06a6.54,6.54,0,0,1-6.53-6.54,6.51,6.51,0,0,1,11.07-4.65,6.5,6.5,0,0,1,2,4.6,6.41,6.41,0,0,1-1.89,4.62,6.48,6.48,0,0,1-4.63,2h0ZM48,31H48a3.58,3.58,0,0,0-3.47,3.52A3.55,3.55,0,0,0,48,38.06h0A3.55,3.55,0,0,0,50.56,37a3.46,3.46,0,0,0,1-2.48A3.6,3.6,0,0,0,48,31Z"/><path class="cls-2" d="M87.48,54.69c.23-.88.33-1.34.47-1.78.54-1.6.94-2.67-.6-4.51-1-1.17-.65-2.51,1.39-2.55.8,0,1.44,0,2.24,0,1.45.07,2.51.87,1.15,2.55-1.75,2.17-.83,3.84-.18,6.2.81-2.19,1.48-4,2.16-5.87,1.18-3.19,1.67-3.42,4.93-2.49s5.81,2.8,7,6.1a11.9,11.9,0,0,1,.58,3.75q.11,7.26,0,14.51a10.48,10.48,0,0,1-.8,2.79,2.25,2.25,0,0,1-.3.48c-1.54,2.38-3.67,4.6-4.44,7.21s-.2,5.64-.2,8.48c0,4,0,8,0,12,0,2.31-.77,3.08-3.06,3.08H81.72c-2.38,0-3.1-.74-3.1-3.17,0-6.45,0-12.89,0-19.34A4.31,4.31,0,0,0,78,80c-1.42-2.3-3-4.52-4.39-6.81a4.34,4.34,0,0,1-.75-2.09c0-5.36-.14-10.72.08-16.06.18-4.27,2.65-7.09,6.64-8.51s4.49-1.24,6,2.85C86.11,51,86.72,52.64,87.48,54.69Zm-6.22-3.9c-2.79,1-3.89,2.54-3.9,5.31q-.06,6.82,0,13.64a3.77,3.77,0,0,0,.56,1.84c1.44,2.28,3,4.47,4.42,6.78A5.35,5.35,0,0,1,83.14,81c.06,5.82,0,11.65,0,17.48v1.46H96.29c0-6.26-.05-12.42,0-18.58a7,7,0,0,1,1-3.28c1.28-2.21,2.78-4.29,4.16-6.44a2.69,2.69,0,0,0,.55-1.27c0-5.16,0-10.33-.09-15.49,0-2-1.5-3.42-3.71-4-.18.47-.38.94-.55,1.42Q94.82,60.11,92,67.9a2.28,2.28,0,0,1-2.24,1.81,2.33,2.33,0,0,1-2.29-1.78l-1.44-4C84.44,59.57,82.86,55.22,81.26,50.79Z"/><path class="cls-2" d="M89.76,105h-8c-2.6,0-3.47-.9-3.48-3.55V95.6c0-4.51,0-9,0-13.52a3.91,3.91,0,0,0-.56-1.9c-.74-1.2-1.51-2.37-2.28-3.55S74,74.47,73.26,73.38a4.67,4.67,0,0,1-.81-2.29l0-2.57c0-4.43-.08-9,.11-13.51.18-4.25,2.56-7.31,6.89-8.84s4.88-1.23,6.44,3.07c.4,1.11.81,2.21,1.26,3.44l.28.75c.07-.23.12-.44.19-.63l0-.1c.52-1.55.81-2.41-.57-4.06a2,2,0,0,1-.48-2.11c.17-.38.68-1,2.15-1.05h.42c.63,0,1.17,0,1.85,0a2.19,2.19,0,0,1,2,1c.27.59.07,1.31-.59,2.14-1.35,1.67-1,3-.44,4.77l1.77-4.8c1.24-3.36,1.94-3.72,5.39-2.73,3.68,1,6.11,3.18,7.22,6.33a12.34,12.34,0,0,1,.61,3.88c.07,5.17.06,9.91,0,14.51a6.37,6.37,0,0,1-.53,2.1c-.1.27-.21.54-.29.8a1.54,1.54,0,0,1-.25.44.64.64,0,0,0-.1.13c-.47.74-1,1.47-1.52,2.17a16.93,16.93,0,0,0-2.87,5,17.47,17.47,0,0,0-.29,5.76c0,.86.11,1.75.1,2.61V94.9c0,2.2,0,4.4,0,6.61,0,2.52-.94,3.45-3.44,3.46ZM82.7,46.06a10.88,10.88,0,0,0-3,.81c-4,1.43-6.23,4.25-6.39,8.17-.19,4.48-.15,9.05-.11,13.47l0,2.57a4,4,0,0,0,.7,1.9c.68,1.09,1.39,2.17,2.09,3.24s1.56,2.36,2.3,3.57A4.51,4.51,0,0,1,79,82.08c0,4.5,0,9,0,13.52v5.82c0,2.22.57,2.79,2.74,2.8q8,0,16,0c2.08,0,2.68-.61,2.69-2.72s0-4.4,0-6.6V89.56c0-.84,0-1.72-.1-2.57a18,18,0,0,1,.32-6,17.74,17.74,0,0,1,3-5.18c.51-.7,1-1.42,1.5-2.14l.13-.18a.92.92,0,0,0,.14-.2c.08-.28.19-.56.29-.84a5.6,5.6,0,0,0,.49-1.85c.07-4.59.08-9.33,0-14.49a11.44,11.44,0,0,0-.57-3.64c-1-3-3.24-4.87-6.72-5.86-3.08-.88-3.37-.73-4.48,2.27l-2.56,7-.31-1.12c-.09-.33-.19-.65-.28-1-.59-1.91-1.09-3.56.53-5.57.46-.57.64-1.06.5-1.36s-.67-.55-1.38-.59-1.18,0-1.8,0h-.42c-.77,0-1.31.23-1.48.61a1.32,1.32,0,0,0,.38,1.32c1.65,2,1.23,3.21.7,4.78l0,.09c-.09.28-.16.56-.26.95l-.21.8-.31,1.15-1.1-3L85.17,49.5C84.26,47,83.87,46.06,82.7,46.06Zm14,54.25H82.8V94.19c0-4.32,0-8.8,0-13.2A5,5,0,0,0,82,78.55c-.78-1.28-1.63-2.55-2.46-3.78-.66-1-1.32-2-2-3a4,4,0,0,1-.61-2c0-4.34,0-8.81,0-13.65,0-2.93,1.22-4.57,4.15-5.66l.35-.13L87.8,67.8a2,2,0,0,0,1.94,1.54h0c.93,0,1.5-.47,1.89-1.56,1.48-4.11,3-8.21,4.49-12.31l1.2-3.29c.12-.33.25-.65.38-1l.3-.76.32.08c2.48.63,3.94,2.21,4,4.33.13,4.63.11,9.33.1,13.88v1.62a2.91,2.91,0,0,1-.59,1.44L100.36,74c-.92,1.38-1.88,2.8-2.71,4.25a6.72,6.72,0,0,0-.94,3.1c-.07,4.58-.06,9.26,0,13.78,0,1.59,0,3.19,0,4.79Zm-13.12-.75H95.92c0-1.48,0-3,0-4.42,0-4.53,0-9.21,0-13.79a7.42,7.42,0,0,1,1-3.47c.85-1.47,1.81-2.9,2.73-4.29.48-.72,1-1.44,1.43-2.17a2.4,2.4,0,0,0,.5-1.06V68.74c0-4.55,0-9.25-.1-13.86,0-1.7-1.14-3-3.11-3.54l0,.14c-.13.32-.25.64-.37,1l-1.21,3.29c-1.5,4.1-3,8.19-4.48,12.3a2.65,2.65,0,0,1-2.6,2.06h0a2.69,2.69,0,0,1-2.64-2L81,51.28c-2.38,1-3.28,2.31-3.3,4.82,0,4.84,0,9.3,0,13.64a3.29,3.29,0,0,0,.49,1.64c.64,1,1.3,2,2,3,.83,1.24,1.68,2.52,2.47,3.81A5.74,5.74,0,0,1,83.51,81c0,4.41,0,8.88,0,13.22Z"/><path class="cls-2" d="M99.32,34.64a9.61,9.61,0,1,1-9.47-9.7A9.67,9.67,0,0,1,99.32,34.64Zm-9.59,4.92a5,5,0,1,0-5-5A5.08,5.08,0,0,0,89.73,39.56Z"/><path class="cls-2" d="M89.8,44.52h-.15a10.07,10.07,0,0,1-9.92-10,10,10,0,0,1,10-9.94h.14a10,10,0,0,1,9.84,10.07h0a9.92,9.92,0,0,1-3,7A9.8,9.8,0,0,1,89.8,44.52Zm-.09-19.2a9.29,9.29,0,0,0-9.23,9.19,9.31,9.31,0,0,0,9.18,9.26,8.88,8.88,0,0,0,6.47-2.63,9.16,9.16,0,0,0,2.81-6.5,9.26,9.26,0,0,0-9.1-9.32Zm0,14.61a5.41,5.41,0,0,1-5.41-5.41,5.38,5.38,0,0,1,9.16-3.84,5.4,5.4,0,0,1,1.66,3.81,5.3,5.3,0,0,1-1.56,3.81,5.36,5.36,0,0,1-3.84,1.63Zm0-.75v0a4.62,4.62,0,0,0,3.22-8,4.64,4.64,0,0,0-6.52,6.6,4.62,4.62,0,0,0,3.29,1.36Z"/><path class="cls-3" d="M81.28,50.79c1.61,4.43,3.18,8.78,4.75,13.13.49,1.33,1,2.67,1.44,4a2.33,2.33,0,0,0,2.29,1.78A2.29,2.29,0,0,0,92,67.9c1.88-5.2,3.79-10.39,5.69-15.59.17-.48.37-1,.55-1.42,2.21.56,3.66,1.93,3.71,4,.14,5.16.11,10.33.1,15.49a2.81,2.81,0,0,1-.56,1.27c-1.38,2.15-2.88,4.23-4.16,6.44a7,7,0,0,0-1,3.28c-.1,6.16,0,12.32,0,18.58H83.19V98.47c0-5.83,0-11.66,0-17.48a5.35,5.35,0,0,0-.79-2.63c-1.4-2.31-3-4.5-4.42-6.78a3.77,3.77,0,0,1-.56-1.84q-.06-6.81,0-13.64C77.4,53.33,78.5,51.83,81.28,50.79Z"/><path class="cls-3" d="M97.81,101.43H81.69V94.16c0-4.32,0-8.78,0-13.16a3.84,3.84,0,0,0-.57-1.86c-.77-1.26-1.61-2.52-2.43-3.75-.67-1-1.34-2-2-3a5.17,5.17,0,0,1-.79-2.62c0-4.37,0-9,0-13.67,0-3.39,1.52-5.46,4.87-6.71l1.42-.53,6.71,18.56c.3.82.62.83.9.8s.53,0,.82-.82q2.22-6.15,4.49-12.31l1.2-3.29c.12-.33.26-.67.39-1l.65-1.68,1.29.33c3,.75,4.77,2.76,4.84,5.39.12,4.62.11,9.3.1,13.83v1.7a3.89,3.89,0,0,1-.77,2c-.5.78-1,1.51-1.48,2.24-.91,1.36-1.85,2.77-2.67,4.18a5.59,5.59,0,0,0-.78,2.56c-.07,4.56-.06,9.24,0,13.76Zm-13.12-3H94.81V95.14c0-4.53,0-9.22,0-13.81a8.53,8.53,0,0,1,1.19-4c.86-1.5,1.83-2.94,2.76-4.34.48-.72,1-1.44,1.43-2.16a6.19,6.19,0,0,0,.32-.54V68.65c0-4.51,0-9.17-.1-13.74a2.38,2.38,0,0,0-1.35-2.09h0L97.9,56.12q-2.25,6.14-4.48,12.29a3.73,3.73,0,0,1-3.66,2.8h0a3.8,3.8,0,0,1-3.7-2.77L80.43,52.85a3.34,3.34,0,0,0-1.55,3.26c0,4.69,0,9.27,0,13.62a2.3,2.3,0,0,0,.33,1c.63,1,1.28,2,1.93,2.94.84,1.25,1.7,2.54,2.5,3.86a6.85,6.85,0,0,1,1,3.39c0,4.4,0,8.87,0,13.19Zm15.88-28.18Z"/><path class="cls-3" d="M89.72,39.56a5,5,0,1,1,5-5.07A5,5,0,0,1,89.72,39.56Z"/><path class="cls-3" d="M89.71,41.06a6.54,6.54,0,0,1-6.53-6.54A6.63,6.63,0,0,1,89.6,28a6.75,6.75,0,0,1,4.65,1.87,6.54,6.54,0,0,1,2,4.61,6.36,6.36,0,0,1-1.88,4.61,6.5,6.5,0,0,1-4.64,2h0ZM89.7,31h0a3.58,3.58,0,0,0-3.47,3.52,3.55,3.55,0,0,0,3.53,3.54h0A3.57,3.57,0,0,0,92.22,37a3.42,3.42,0,0,0,1-2.48A3.6,3.6,0,0,0,89.7,31Z"/><path class="cls-2" d="M66.49,62.9c.24-.88.33-1.33.48-1.77.54-1.61.94-2.67-.6-4.52-1-1.17-.65-2.51,1.38-2.54.81,0,1.44,0,2.24,0,1.45.07,2.52.86,1.16,2.55-1.75,2.17-.84,3.84-.18,6.2.8-2.19,1.48-4,2.15-5.87,1.18-3.2,1.68-3.43,4.94-2.5s5.81,2.81,7,6.11a11.82,11.82,0,0,1,.59,3.75c.06,4.83.07,9.67,0,14.5a10.64,10.64,0,0,1-.8,2.79,2.46,2.46,0,0,1-.31.48c-1.53,2.39-3.66,4.6-4.43,7.22s-.2,5.63-.21,8.48c0,4,0,8,0,11.94,0,2.32-.77,3.08-3.06,3.09H60.74c-2.38,0-3.1-.74-3.11-3.18,0-6.44,0-12.89,0-19.34A4.2,4.2,0,0,0,57,88.2c-1.42-2.3-3-4.52-4.39-6.81a4.32,4.32,0,0,1-.76-2.09c0-5.35-.14-10.71.09-16.06.18-4.27,2.65-7.09,6.64-8.5s4.48-1.24,6,2.85ZM60.27,59c-2.78,1-3.88,2.54-3.9,5.31q0,6.82,0,13.65a3.59,3.59,0,0,0,.55,1.83c1.44,2.28,3,4.48,4.43,6.78a5.48,5.48,0,0,1,.78,2.63c.07,5.83,0,11.66,0,17.48v1.47H75.31c0-6.27,0-12.42,0-18.58a7.12,7.12,0,0,1,1-3.28c1.28-2.21,2.77-4.3,4.15-6.45a2.62,2.62,0,0,0,.56-1.27c0-5.16,0-10.32-.1-15.48,0-2.06-1.5-3.42-3.71-4-.18.46-.37.94-.55,1.42-1.9,5.19-3.81,10.38-5.69,15.59a2.29,2.29,0,0,1-2.25,1.81,2.32,2.32,0,0,1-2.28-1.79c-.49-1.33-1-2.67-1.44-4Z"/><path class="cls-2" d="M68.77,113.19h-8c-2.6,0-3.48-.9-3.48-3.55v-5.88c0-4.48,0-9,0-13.45a3.85,3.85,0,0,0-.56-1.9c-.74-1.2-1.52-2.38-2.29-3.56s-1.42-2.15-2.1-3.25a4.51,4.51,0,0,1-.81-2.28l0-2.58c0-4.43-.09-9,.1-13.5.18-4.26,2.56-7.31,6.89-8.85s4.89-1.23,6.45,3.08c.41,1.13.82,2.26,1.29,3.53l.25.66c.06-.24.12-.44.18-.64l0-.09c.52-1.56.81-2.42-.57-4.06a2,2,0,0,1-.49-2.11c.18-.39.69-1,2.15-1.06h.45c.62,0,1.16,0,1.82,0a2.22,2.22,0,0,1,2,1c.27.6.06,1.32-.6,2.14-1.35,1.68-1,3-.43,4.78l1.76-4.81c1.24-3.36,1.94-3.71,5.39-2.73,3.68,1.06,6.11,3.19,7.22,6.34A12.06,12.06,0,0,1,86,64.31c.07,5.15.07,9.9,0,14.51a6.13,6.13,0,0,1-.53,2.1c-.1.27-.2.53-.28.8a1.49,1.49,0,0,1-.26.43l-.09.13c-.48.74-1,1.47-1.53,2.17a17,17,0,0,0-2.86,5,17,17,0,0,0-.29,5.76c0,.86.1,1.75.1,2.62v5.15q0,3.41,0,6.79c0,2.52-.93,3.46-3.43,3.46Zm-7-58.92a10.76,10.76,0,0,0-3,.82c-4,1.42-6.22,4.25-6.39,8.17-.19,4.48-.14,9.05-.1,13.46l0,2.58a3.81,3.81,0,0,0,.7,1.9c.67,1.08,1.38,2.16,2.08,3.23S56.56,86.8,57.3,88A4.68,4.68,0,0,1,58,90.29c0,4.49,0,9,0,13.47v5.87c0,2.22.56,2.8,2.73,2.8H76.8c2.08,0,2.68-.61,2.68-2.71q0-3.39,0-6.79V97.78c0-.85,0-1.73-.1-2.58a17.73,17.73,0,0,1,.32-6,17.52,17.52,0,0,1,3-5.18c.51-.7,1-1.41,1.5-2.13l.13-.18a2.06,2.06,0,0,0,.13-.21c.09-.28.19-.55.3-.83a5.89,5.89,0,0,0,.48-1.85c.08-4.61.08-9.35,0-14.49a11.7,11.7,0,0,0-.56-3.64c-1-3-3.24-4.87-6.72-5.87-3.08-.88-3.38-.73-4.48,2.27l-2.56,7-.31-1.12c-.09-.34-.19-.66-.29-1-.58-1.91-1.09-3.55.54-5.57.46-.57.63-1.05.49-1.36s-.67-.54-1.37-.58-1.17,0-1.77,0h-.45c-.77,0-1.31.24-1.49.62a1.32,1.32,0,0,0,.38,1.31c1.65,2,1.24,3.21.71,4.78l0,.1c-.1.28-.17.56-.27,1l-.51,1.93-1.07-2.89c-.47-1.27-.89-2.4-1.3-3.54C63.28,55.22,62.88,54.27,61.72,54.27Zm14,54.25H61.81v-6.15c0-4.31,0-8.78,0-13.16a5.08,5.08,0,0,0-.73-2.44c-.79-1.29-1.65-2.57-2.48-3.81-.65-1-1.31-2-1.94-3A4,4,0,0,1,56,78c0-4.34,0-8.8,0-13.65,0-2.93,1.22-4.57,4.14-5.66l.36-.13L66.06,73.9c.25.71.5,1.41.76,2.11a2,2,0,0,0,1.93,1.54c.94,0,1.5-.47,1.9-1.56,1.44-4,2.91-8,4.37-12l1.32-3.6c.12-.34.26-.68.39-1l.28-.73.32.08c2.49.63,3.94,2.21,4,4.34.12,4.6.11,9.28.1,13.8v1.7A2.79,2.79,0,0,1,80.83,80c-.49.77-1,1.5-1.46,2.23-.92,1.37-1.87,2.79-2.71,4.23a6.66,6.66,0,0,0-.93,3.11c-.07,4.58-.06,9.27-.06,13.8Zm-13.12-.75H74.93v-4.39c0-4.54,0-9.22.06-13.82a7.36,7.36,0,0,1,1-3.46c.85-1.47,1.81-2.9,2.73-4.28.49-.73,1-1.45,1.44-2.18a2.52,2.52,0,0,0,.49-1.07V76.88c0-4.52,0-9.19-.1-13.78,0-1.7-1.15-3-3.11-3.54l0,.11c-.12.32-.26.65-.38,1l-1.32,3.6q-2.19,6-4.37,12a2.64,2.64,0,0,1-2.6,2,2.69,2.69,0,0,1-2.64-2c-.25-.7-.5-1.41-.76-2.11l-5.3-14.67c-2.38,1-3.29,2.32-3.3,4.83,0,4.84,0,9.3,0,13.63a3.35,3.35,0,0,0,.5,1.64c.63,1,1.28,2,1.94,3,.83,1.25,1.69,2.53,2.49,3.84a5.92,5.92,0,0,1,.84,2.82c0,4.39,0,8.86,0,13.18Z"/><path class="cls-2" d="M78.33,42.86a9.61,9.61,0,1,1-9.47-9.7A9.67,9.67,0,0,1,78.33,42.86Zm-9.59,4.91a5,5,0,1,0-5-5A5.07,5.07,0,0,0,68.74,47.77Z"/><path class="cls-2" d="M68.82,52.74h-.16a10,10,0,0,1-9.91-10,10,10,0,0,1,10-9.95h.15a10,10,0,0,1,9.84,10.08h0a9.92,9.92,0,0,1-3,7A9.78,9.78,0,0,1,68.82,52.74Zm-.1-19.21a9.29,9.29,0,0,0-9.22,9.2A9.3,9.3,0,0,0,68.68,52h.13a9,9,0,0,0,6.33-2.64A9.13,9.13,0,0,0,78,42.85a9.28,9.28,0,0,0-9.1-9.32Zm0,14.62a5.41,5.41,0,0,1-5.41-5.42,5.47,5.47,0,0,1,5.31-5.38,5.4,5.4,0,0,1,3.85,1.55,5.4,5.4,0,0,1-3.74,9.25h0Zm0-10.06h-.07a4.71,4.71,0,0,0-4.58,4.63,4.66,4.66,0,0,0,4.66,4.67h0A4.65,4.65,0,0,0,72.05,46a4.55,4.55,0,0,0,1.34-3.28,4.73,4.73,0,0,0-4.66-4.62Z"/><path class="cls-3" d="M60.29,59c1.61,4.44,3.19,8.78,4.76,13.13.48,1.34,1,2.68,1.44,4a2.34,2.34,0,0,0,2.29,1.79A2.28,2.28,0,0,0,71,76.12c1.88-5.21,3.79-10.4,5.69-15.59.18-.48.37-1,.55-1.42,2.22.56,3.66,1.92,3.72,4,.13,5.16.1,10.32.09,15.48a2.61,2.61,0,0,1-.55,1.27c-1.39,2.15-2.88,4.24-4.16,6.45a7.12,7.12,0,0,0-1,3.28c-.09,6.16,0,12.31,0,18.58H62.21v-1.47c0-5.82,0-11.65,0-17.48a5.48,5.48,0,0,0-.78-2.63c-1.41-2.3-3-4.5-4.43-6.78A3.59,3.59,0,0,1,56.41,78q-.07-6.83,0-13.65C56.41,61.54,57.51,60,60.29,59Z"/><path class="cls-3" d="M76.83,109.65H60.71v-7.24c0-4.33,0-8.8,0-13.19a3.86,3.86,0,0,0-.56-1.87c-.78-1.27-1.63-2.53-2.45-3.76-.66-1-1.32-2-2-3A5.11,5.11,0,0,1,54.91,78c0-4.34,0-8.81,0-13.67,0-3.39,1.53-5.45,4.88-6.7l1.42-.53L67.9,75.63c.29.8.6.8.88.8s.53,0,.83-.82q2.25-6.24,4.55-12.46L75.31,60c.12-.34.25-.67.38-1l.66-1.68,1.28.32c3,.75,4.78,2.77,4.85,5.4.12,4.64.11,9.35.09,13.91v1.62a3.73,3.73,0,0,1-.77,2c-.5.77-1,1.5-1.47,2.23-.91,1.36-1.85,2.77-2.67,4.19a5.57,5.57,0,0,0-.79,2.55c-.07,4.58-.06,9.26-.05,13.79Zm-13.12-3H73.83v-3.27c0-4.54,0-9.23.05-13.83a8.65,8.65,0,0,1,1.19-4c.87-1.51,1.84-3,2.78-4.36L79.26,79a5.79,5.79,0,0,0,.31-.53V77c0-4.54,0-9.23-.09-13.83A2.4,2.4,0,0,0,78.13,61h0L77,64.18c-1.52,4.15-3,8.29-4.54,12.45a3.72,3.72,0,0,1-3.65,2.8,3.78,3.78,0,0,1-3.7-2.78L59.44,61.06a3.37,3.37,0,0,0-1.55,3.26c0,4.84,0,9.29,0,13.62a2.14,2.14,0,0,0,.32,1c.63,1,1.28,2,1.93,2.93.84,1.25,1.7,2.55,2.51,3.87a6.87,6.87,0,0,1,1,3.39c0,4.42,0,8.9,0,13.23ZM79.57,78.57Zm0-.1Z"/><path class="cls-3" d="M68.73,47.77a5,5,0,0,1-5-5,5,5,0,1,1,5,5Z"/><path class="cls-3" d="M68.73,49.27a6.54,6.54,0,0,1-6.54-6.54,6.63,6.63,0,0,1,6.43-6.51,6.57,6.57,0,0,1,4.64,1.87,6.48,6.48,0,0,1,2,4.6,6.57,6.57,0,0,1-6.52,6.58h0Zm0-10.05h-.06a3.58,3.58,0,0,0-3.47,3.51,3.53,3.53,0,0,0,3.54,3.54h0a3.51,3.51,0,0,0,2.51-1.07,3.42,3.42,0,0,0,1-2.47,3.6,3.6,0,0,0-3.54-3.51Z"/></svg>