<svg id="Слой_1" data-name="Слой 1" xmlns="http://www.w3.org/2000/svg" viewBox="0 0 137.76 137.76"><defs><style>.cls-1{fill:#737373;}.cls-2{fill:#e3e3e3;}.cls-3{fill:#00adad;}</style></defs><path class="cls-1" d="M68.92,28.34a40.54,40.54,0,1,1-40.6,40.5A40.67,40.67,0,0,1,68.92,28.34ZM34.12,68.83a34.76,34.76,0,1,0,34.81-34.7A34.9,34.9,0,0,0,34.12,68.83Z"/><path class="cls-2" d="M34.12,68.83a34.76,34.76,0,1,1,34.56,34.79A34.91,34.91,0,0,1,34.12,68.83ZM68.75,86.27a16.8,16.8,0,0,0,10.09-3.2,3.73,3.73,0,0,0,1.55-2.26,3.94,3.94,0,0,0-1.19-2.69c-1-.93-2.29-.7-3.46.08-4.47,3-9,3-13.55.14a5.49,5.49,0,0,0-1.55-.73,2.85,2.85,0,0,0-2.36,5C61.31,85.18,64.94,86.1,68.75,86.27ZM60.19,63.14a5.8,5.8,0,1,0-5.85,5.74A5.82,5.82,0,0,0,60.19,63.14ZM83.4,57.29a5.8,5.8,0,1,0,5.76,5.83A5.82,5.82,0,0,0,83.4,57.29Z"/><path class="cls-2" d="M68.81,105.62h-.14a36.75,36.75,0,0,1,.18-73.49h.08a36.75,36.75,0,0,1-.12,73.49Zm0-69.49a32.8,32.8,0,0,0-32.73,32.7h0a32.75,32.75,0,0,0,32.56,32.79h.13a32.75,32.75,0,1,0,.11-65.49Zm-.12,52.14h-.08C63.81,88.05,60,86.68,57,84.09a4.85,4.85,0,0,1,4.13-8.43,7.5,7.5,0,0,1,2.14,1,9.68,9.68,0,0,0,11.39-.11c2.12-1.41,4.33-1.36,5.93.13a5.93,5.93,0,0,1,1.81,4.25c-.08,1.89-1.8,3.35-2.32,3.75a18.79,18.79,0,0,1-11.25,3.61ZM60,79.53c-.18,0-.43.08-.63.51a.7.7,0,0,0,.21,1c2.33,2,5.25,3,9.18,3.21a14.68,14.68,0,0,0,8.87-2.79,2.93,2.93,0,0,0,.75-.83,2.12,2.12,0,0,0-.55-1.07c-.2-.2-.75.13-1,.28A13.68,13.68,0,0,1,61.13,80a4.05,4.05,0,0,0-1-.49ZM78.41,80.6Zm-24-9.72h-.06a7.8,7.8,0,0,1,.07-15.59h.06a7.79,7.79,0,0,1,5.39,13.35A7.73,7.73,0,0,1,54.39,70.88Zm0-11.59a3.8,3.8,0,0,0,0,7.59h0a3.81,3.81,0,0,0,3.8-3.76h0a3.8,3.8,0,0,0-3.76-3.83Zm29,11.59h0a7.8,7.8,0,0,1,.05-15.59h0a7.81,7.81,0,0,1,7.75,7.84,7.82,7.82,0,0,1-7.8,7.75Zm0-11.59a3.8,3.8,0,0,0,0,7.59h0a3.8,3.8,0,0,0,0-7.59Z"/><path class="cls-1" d="M68.75,86.27c-3.81-.17-7.44-1.09-10.47-3.7a2.85,2.85,0,0,1,2.36-5,5.49,5.49,0,0,1,1.55.73c4.55,2.85,9.08,2.82,13.55-.14,1.17-.78,2.46-1,3.46-.08a3.94,3.94,0,0,1,1.19,2.69,3.73,3.73,0,0,1-1.55,2.26A16.8,16.8,0,0,1,68.75,86.27Z"/><path class="cls-1" d="M60.19,63.14a5.8,5.8,0,1,1-5.74-5.85A5.82,5.82,0,0,1,60.19,63.14Z"/><path class="cls-1" d="M83.4,57.29a5.8,5.8,0,1,1-5.83,5.76A5.82,5.82,0,0,1,83.4,57.29Z"/><path class="cls-3" d="M68.88,137.76a68.88,68.88,0,1,1,68.88-68.88A69,69,0,0,1,68.88,137.76ZM68.88,4a64.88,64.88,0,1,0,64.88,64.88A64.95,64.95,0,0,0,68.88,4Z"/></svg>