<svg id="Слой_1" data-name="Слой 1" xmlns="http://www.w3.org/2000/svg" viewBox="0 0 137.76 137.76"><defs><style>.cls-1{fill:none;stroke:#00adad;stroke-width:4px;}.cls-1,.cls-4{stroke-miterlimit:10;}.cls-2{fill:#737373;}.cls-3,.cls-4{fill:#e3e3e3;}.cls-4{stroke:#737373;stroke-width:2.4px;}</style></defs><circle class="cls-1" cx="68.88" cy="68.88" r="66.88"/><path class="cls-2" d="M35.7,63.25V35.89c0-3.83,1.27-5.08,5.15-5.08H84.72c3.6,0,5,1.37,5,5V80.46c0,.34.12.75,0,1-.32.51-.72,1.21-1.2,1.32-.86.19-1.25-.51-1.28-1.35,0-.48,0-1,0-1.45V36.2c0-2.61-.21-2.82-2.78-2.82H40.8c-2.28,0-2.57.28-2.58,2.59q0,27.28,0,54.58c0,2.31.24,2.53,2.6,2.53H66.74c.39,0,.86-.13,1.14,0a9.28,9.28,0,0,1,1.36,1.23,17.62,17.62,0,0,1-1.42,1.32c-.19.14-.56,0-.85,0-7,0-19.36,0-26.36,0-3.47,0-4.91-1.44-4.91-4.93Z"/><path class="cls-2" d="M87.58,81.74c3.41-1.32,4.49-1.1,6.85,1.35,3.21-1.36,5.38-.85,6.81,1.74a5.22,5.22,0,0,1,.58,2.34c.05,4.62.09,9.26,0,13.89a10.67,10.67,0,0,1-11,10.84c-3.62,0-7.23,0-10.85,0a10.65,10.65,0,0,1-10.88-8.57c-.94-3.84-1.76-7.7-2.7-11.54a8.09,8.09,0,0,1,1.87-7.53,3.28,3.28,0,0,1,.59-.64c3-2,3.7-4.85,3.42-8.33s-.08-7.23-.06-10.85c0-3,2-5.2,4.67-5.2s4.63,2.14,4.65,5.21c0,4.63,0,9.26,0,13.89v1.58C84.87,79.39,85.76,79.66,87.58,81.74ZM72.25,84.06C69.85,86,68.21,88,68.86,91c.91,4.15,1.86,8.29,3,12.38a7.7,7.7,0,0,0,7.62,6q6.09.14,12.17,0A7.75,7.75,0,0,0,99.2,102c.19-4.87.09-9.75.11-14.62a3,3,0,0,0-.15-1,1.94,1.94,0,0,0-2-1.48,1.89,1.89,0,0,0-1.93,1.79,10.56,10.56,0,0,0,0,1.59c0,1-.14,1.87-1.27,1.91s-1.31-.89-1.3-1.84a25.3,25.3,0,0,0-.06-2.89,2,2,0,0,0-2-1.92,2,2,0,0,0-2.08,1.81,10.82,10.82,0,0,1-.15,2c-.21.57-.72,1.34-1.21,1.43-.95.18-1.26-.6-1.26-1.5a22.3,22.3,0,0,0-.11-3.17,2,2,0,0,0-2.14-1.91,2,2,0,0,0-2,2.09,8.83,8.83,0,0,1-.1,2,1.91,1.91,0,0,1-1.2,1.14c-.35.06-1-.52-1.21-1A3,3,0,0,1,79,85.06V67.69c0-1.31,0-2.61,0-3.91a2,2,0,0,0-2.49-1.9,2.27,2.27,0,0,0-1.61,2.46c0,3.28,0,6.57,0,9.85V87.94c0,.91-.36,1.57-1.3,1.57s-1.29-.66-1.27-1.58C72.27,86.73,72.25,85.53,72.25,84.06Z"/><path class="cls-2" d="M54.57,47.08H44.29c-.89,0-1.73-.11-1.74-1.23s.82-1.3,1.7-1.3H65c.89,0,1.72.22,1.67,1.33s-.88,1.21-1.77,1.21C61.42,47.07,58,47.08,54.57,47.08Z"/><path class="cls-2" d="M52,39.16c2.5,0,5,0,7.52,0,.85,0,1.61.15,1.65,1.17s-.74,1.36-1.64,1.36q-7.66,0-15.34,0c-.89,0-1.7-.23-1.65-1.35s.79-1.18,1.64-1.18C46.8,39.17,49.4,39.16,52,39.16Z"/><path class="cls-2" d="M48.74,58c-1.45,0-2.89,0-4.34,0-.83,0-1.6-.24-1.62-1.24s.75-1.32,1.66-1.32H53c.93,0,1.72.24,1.71,1.29S53.82,58,52.93,58Z"/><path class="cls-2" d="M48.66,52.52c-1.4,0-2.8,0-4.19,0-.91,0-1.71-.22-1.7-1.31s.76-1.26,1.6-1.27c2.9,0,5.79,0,8.68,0,.85,0,1.62.28,1.63,1.24s-.75,1.34-1.68,1.33C51.55,52.51,50.11,52.52,48.66,52.52Z"/><path class="cls-2" d="M63.39,76.68a41.6,41.6,0,0,1-4.47-.06,2,2,0,0,1-1.44-1.16c-.21-.95.6-1.28,1.47-1.28h8.8c.88,0,1.58.29,1.57,1.26s-.74,1.25-1.6,1.24Z"/><path class="cls-2" d="M61.85,82.09a19.56,19.56,0,0,1-3.16,0C58.22,82,57.46,81.3,57.5,81c.06-.5.66-1.31,1.07-1.34a66.17,66.17,0,0,1,6.9,0c.41,0,1.16.88,1.08,1.19A1.91,1.91,0,0,1,65.3,82,20.88,20.88,0,0,1,61.85,82.09Z"/><path class="cls-3" d="M72.25,84.06c0,1.47,0,2.67,0,3.87,0,.92.33,1.58,1.27,1.58s1.31-.66,1.3-1.57V74.19c0-3.28,0-6.57,0-9.85a2.27,2.27,0,0,1,1.61-2.46,2,2,0,0,1,2.49,1.9c.07,1.3,0,2.6,0,3.91V85.06a3,3,0,0,0,.13,1.41c.26.44.86,1,1.21,1a1.91,1.91,0,0,0,1.2-1.14,8.83,8.83,0,0,0,.1-2,2,2,0,0,1,2-2.09A2,2,0,0,1,85.7,84.1a22.3,22.3,0,0,1,.11,3.17c0,.9.31,1.68,1.26,1.5.49-.09,1-.86,1.21-1.43a10.82,10.82,0,0,0,.15-2,2,2,0,0,1,2.08-1.81,2,2,0,0,1,2,1.92,25.3,25.3,0,0,1,.06,2.89c0,1,.13,1.88,1.3,1.84s1.29-1,1.27-1.91a10.56,10.56,0,0,1,0-1.59,1.89,1.89,0,0,1,1.93-1.79,1.94,1.94,0,0,1,2,1.48,3,3,0,0,1,.15,1c0,4.87.08,9.75-.11,14.62a7.75,7.75,0,0,1-7.6,7.31q-6.09.15-12.17,0a7.7,7.7,0,0,1-7.62-6c-1.09-4.09-2-8.23-3-12.38C68.21,88,69.85,86,72.25,84.06Z"/><circle class="cls-4" cx="48.06" cy="83.01" r="5.07"/></svg>