<svg id="Слой_1" data-name="Слой 1" xmlns="http://www.w3.org/2000/svg" viewBox="0 0 137.76 137.76"><defs><style>.cls-1{fill:#737373;}.cls-2{fill:#00adad;}</style></defs><path class="cls-1" d="M31.55,69c0-10.73,0-21.46,0-32.2,0-1.37.39-1.88,1.82-1.87,11.27,0,22.53,0,33.8.1a6.5,6.5,0,0,1,3.63,1.57C80.86,44.74,90.88,53,100.91,61.22c4.51,3.69,9,7.4,13.55,11.06a4,4,0,0,1,1.64,4.38c-.39,1.68-.66,3.39-.93,5.09a3,3,0,0,1-2.68,2.68c-5.68,1.25-11.35,2.62-17,3.92C90.25,89.54,85,90.68,79.82,91.89s-10.16,2.47-15.25,3.66-10.2,2.32-15.3,3.5S39.08,101.37,34,102.61c-2,.48-2.22.39-2.22-1.61V69Zm77.73,4.94.13-.4a27.76,27.76,0,0,0-2.79-1.26C102.83,71,99,69.92,95.22,68.69c-6.84-2.21-13.66-4.49-20.5-6.7a4,4,0,0,0-1.94-.08c-3.61.68-7.22,1.44-10.83,2.16C55.42,65.38,48.9,66.67,42.37,68c-2.44.5-4.86,1.1-7.32,1.55-1.45.27-1.75,1.1-1.72,2.41.07,2.8,0,5.6,0,8.41,0,2.47.1,2.65,2.52,2.17,5.24-1,10.46-2.21,15.68-3.37,7-1.55,14-3.17,21.06-4.69a6.25,6.25,0,0,1,2.64.16c3.82.86,7.63,1.81,11.45,2.68a10.38,10.38,0,0,0,3.69.53c4.85-.77,9.69-1.72,14.51-2.68C106.39,74.86,107.83,74.34,109.28,73.92ZM71.64,60.5l.31-.56c-.55-.42-1.14-.8-1.66-1.25C63.79,53.09,57,47.83,50.92,41.77c-4.41-4.43-9.06-6.2-15.08-5.45-2.64.33-2.92.35-2.77,3.1,0,.89,0,1.79.06,2.68l.18,24c0,2,.29,2.22,2.23,1.88,2.34-.41,4.67-.95,7-1.42,4.25-.88,8.51-1.76,12.77-2.61s8.53-1.62,12.79-2.47C69.29,61.22,70.46,60.82,71.64,60.5ZM110.8,72l.19-.37c-.8-.76-1.56-1.56-2.41-2.25q-19.53-16-39.11-32a4.44,4.44,0,0,0-2.55-1c-5.6-.09-11.2-.06-16.8,0a8.46,8.46,0,0,0-2,.5,8.41,8.41,0,0,0,1.2,1.78c5.65,4.93,11.22,10,17,14.67,3.56,2.87,6.34,6.78,11.12,8.1s9.5,3,14.24,4.55c3.89,1.26,7.78,2.54,11.68,3.78C105.87,70.54,108.34,71.25,110.8,72ZM33.37,97.34h0c0,.83,0,1.67,0,2.5s.45,1.45,1.48,1.19c1.73-.44,3.47-.84,5.2-1.26,3.58-.86,7.16-1.73,10.74-2.57,3.88-.91,7.76-1.78,11.64-2.68l15.63-3.64c3.76-.87,7.51-1.78,11.28-2.65s7.3-1.66,10.94-2.52c3.93-.92,7.87-1.82,11.78-2.87a2.86,2.86,0,0,0,1.54-1.62,13.06,13.06,0,0,0,.73-3.3c.22-1.78-.19-2.24-2-1.9-4.31.82-8.6,1.74-12.89,2.68-4,.88-8,1.85-12,2.76L75.69,84.11c-3.6.81-7.19,1.63-10.79,2.42-3.83.84-7.67,1.64-11.5,2.49-5.45,1.23-10.87,2.59-16.34,3.7-3.68.76-3.71.61-3.69,4.26Zm0-9.23v1.07c0,3,.22,3,3.06,2.27,3.61-1,7.28-1.73,10.93-2.54,5.34-1.17,10.69-2.29,16-3.48q11.06-2.45,22.08-5a6.55,6.55,0,0,0,1.7-1,7.22,7.22,0,0,0-1.81-1.08c-2.31-.58-4.69-.88-7-1.55a15.21,15.21,0,0,0-7.74-.49L55.49,79.67C49.4,81,43.31,82.36,37.2,83.6,33.4,84.37,33.37,84.29,33.36,88.11Z"/><path class="cls-1" d="M32.64,103.85a1.74,1.74,0,0,1-1.12-.35c-.68-.53-.74-1.41-.74-2.5V70h-.23V61.34c0-8.19,0-16.37,0-24.55a2.91,2.91,0,0,1,.69-2.19,2.86,2.86,0,0,1,2.14-.69l12.91,0c6.85,0,13.93,0,20.89.08A7.76,7.76,0,0,1,71.4,35.8c7.7,6.23,15.48,12.62,23,18.79l9.94,8.15q5.36,4.4,10.74,8.77a5,5,0,0,1,2,5.37c-.36,1.54-.62,3.14-.87,4.7l-.06.33a4,4,0,0,1-3.44,3.49c-3.58.79-7.2,1.64-10.71,2.46l-6.31,1.46c-2.2.51-4.41,1-6.61,1.49-3,.68-6,1.35-9,2q-3.93.93-7.86,1.89c-2.46.6-4.92,1.2-7.38,1.78l-9.17,2.1L49.5,100l-3,.67c-4,.93-8.22,1.89-12.31,2.89A7,7,0,0,1,32.64,103.85Zm.15-2.56a3.54,3.54,0,0,0,0,.55l.42-.08-.05,0A1.64,1.64,0,0,1,32.79,101.29Zm1.58-5h0v1.78c0,.56,0,1.13,0,1.7,0,.13,0,.22,0,.28l.21,0,4.12-1,4.14-1,7.7-1.84,6.84-1.57,4.8-1.11q7.82-1.8,15.62-3.63l5.22-1.23,6.06-1.43,5.06-1.16q2.94-.66,5.88-1.35l1.57-.37c3.35-.78,6.81-1.59,10.18-2.49a2.18,2.18,0,0,0,.88-1,12.51,12.51,0,0,0,.66-3,3.46,3.46,0,0,0,0-.88,3,3,0,0,0-.81.08c-4.58.87-9.07,1.84-12.86,2.67-2.4.53-4.79,1.09-7.18,1.65l-4.8,1.11c-2.57.59-5.13,1.16-7.7,1.73l-7.89,1.77-7,1.58-5,1.07c-2.18.47-4.35.93-6.53,1.42-2,.44-3.91.9-5.87,1.35-3.43.81-7,1.64-10.49,2.35l-.42.09a6.34,6.34,0,0,0-2.28.66A4.82,4.82,0,0,0,34.37,96.34ZM32.78,92v1.52a2.05,2.05,0,0,1,.79-.84,1.53,1.53,0,0,1-.37-.21A1.87,1.87,0,0,1,32.78,92Zm1.58-3.91v1.07a10.39,10.39,0,0,0,.09,1.67,11.08,11.08,0,0,0,1.71-.37c3-.79,6.05-1.46,9-2.11l2-.43,7.77-1.69c2.76-.59,5.51-1.18,8.26-1.79,8.21-1.82,15.43-3.45,22.07-5l.11,0a1.17,1.17,0,0,0-.24-.09c-.95-.24-1.94-.43-2.9-.62-1.35-.27-2.74-.54-4.09-.94a14.22,14.22,0,0,0-7.25-.48L64.3,78.76l-8.6,1.89-4.52,1c-4.51,1-9.17,2-13.78,3l-.25,0a6.64,6.64,0,0,0-2.55.75A7.19,7.19,0,0,0,34.36,88.11ZM32.78,83v1.53a2.09,2.09,0,0,1,.82-.9,1.65,1.65,0,0,1-.5-.28A2.07,2.07,0,0,1,32.78,83ZM73.63,62.83a3.68,3.68,0,0,0-.66.06c-2.53.48-5.06,1-7.59,1.51l-9.76,1.95L42.57,69l-3,.66c-1.41.31-2.86.63-4.31.9-.7.13-.93.26-.9,1.39.05,2,0,4,0,6,0,.82,0,1.64,0,2.46a12.37,12.37,0,0,0,0,1.39,12.6,12.6,0,0,0,1.27-.2c5.21-1,10.49-2.22,15.59-3.35l8.48-1.89c4.21-1,8.43-1.91,12.66-2.82a7.23,7.23,0,0,1,3.07.16c2,.46,4.06.94,6.09,1.42,1.78.43,3.57.86,5.36,1.26l.75.19a7,7,0,0,0,2.56.33c4.64-.73,9.12-1.61,14.48-2.67a22.75,22.75,0,0,0,2.41-.65c-.27-.12-.55-.23-.82-.32-1.85-.6-3.72-1.17-5.58-1.74s-3.88-1.2-5.82-1.83L85.1,66.43q-5.34-1.75-10.68-3.49A2.43,2.43,0,0,0,73.63,62.83ZM87.57,78.55l.12.07,1.4.87-1.41.84-.16.1,4.56-1.06c2.4-.56,4.8-1.12,7.21-1.65,3.8-.84,8.31-1.81,12.91-2.69a2.88,2.88,0,0,1,2.59.4,1.7,1.7,0,0,1,.41.59,3.06,3.06,0,0,0-1.37-3l-1.74-1.41-.76,1.54-.72-.21h0l-.56,1.74-.51.15-1.35.41a30,30,0,0,1-3.1.85c-5.39,1.07-9.88,2-14.56,2.69A7.64,7.64,0,0,1,87.57,78.55ZM49.64,37.47a2.15,2.15,0,0,0,.36.45l3.9,3.42C58.15,45.09,62.55,49,67,52.57c1,.83,2,1.75,2.95,2.64,2.37,2.26,4.62,4.38,7.81,5.26,3.37.93,6.73,2.06,10,3.15,1.42.48,2.85,1,4.28,1.42l3.68,1.19c2.67.87,5.33,1.74,8,2.58,1.38.44,2.76.86,4.15,1.27-13.1-10.75-25.94-21.27-39-31.92a3.48,3.48,0,0,0-1.93-.75c-5.8-.09-11.71-.06-16.79,0A1.84,1.84,0,0,0,49.64,37.47ZM32.78,68.34v1.5a2.46,2.46,0,0,1,.89-.86,1.74,1.74,0,0,1-.89-.64ZM32.55,68h0l0-.07Zm1.83-.89a5.69,5.69,0,0,0,1-.11c1.56-.28,3.16-.62,4.7-1l2.27-.47,3.41-.71c3.12-.64,6.24-1.28,9.37-1.9l6-1.15c2.27-.44,4.53-.87,6.79-1.32.75-.15,1.5-.37,2.28-.6-.19-.14-.37-.28-.54-.43-1.92-1.65-3.86-3.27-5.81-4.89-4.59-3.83-9.34-7.78-13.62-12.09S41.58,36.61,36,37.31a6.94,6.94,0,0,0-1.84.35,5.41,5.41,0,0,0,0,1.71c0,.82,0,1.65.06,2.48l.07,9.38q.06,7.43.11,14.84A6.14,6.14,0,0,0,34.38,67.09Zm38.5-6.76-.34.61.06,0a5.39,5.39,0,0,1,1.05-.09Zm-29.3-24.4a17.28,17.28,0,0,1,3.9,1.78l-.17-.27-.76-1.16,1.32-.35Zm-10.4,0a1,1,0,0,0-.55.1s-.07.08-.09.42A1.75,1.75,0,0,1,33.18,35.91Z"/><path class="cls-2" d="M68.88,137.76a68.88,68.88,0,1,1,68.88-68.88A69,69,0,0,1,68.88,137.76ZM68.88,4a64.88,64.88,0,1,0,64.88,64.88A64.95,64.95,0,0,0,68.88,4Z"/></svg>