<svg id="Слой_1" data-name="Слой 1" xmlns="http://www.w3.org/2000/svg" viewBox="0 0 137.76 137.76"><defs><style>.cls-1{fill:#00adad;}.cls-2{fill:#737373;}</style></defs><path class="cls-1" d="M68.88,137.76a68.88,68.88,0,1,1,68.88-68.88A69,69,0,0,1,68.88,137.76ZM68.88,4a64.88,64.88,0,1,0,64.88,64.88A64.95,64.95,0,0,0,68.88,4Z"/><path class="cls-2" d="M102.65,106.56H36.56V35.81h66.09Zm-63.59-2.5h61.09V38.31H39.06Z"/><rect class="cls-2" x="70.24" y="42.74" width="18.6" height="2.5" transform="translate(-7.81 69.13) rotate(-45)"/><rect class="cls-2" x="52.54" y="97.2" width="18.6" height="2.5" transform="translate(-51.5 72.56) rotate(-45)"/><rect class="cls-2" x="58.3" y="52.25" width="45.5" height="2.5" transform="translate(-14.09 72.98) rotate(-45)"/><rect class="cls-2" x="39.81" y="87.98" width="45.5" height="2.5" transform="translate(-44.77 70.37) rotate(-45)"/><rect class="cls-2" x="31.14" y="52.25" width="45.5" height="2.5" transform="translate(-22.05 53.78) rotate(-45)"/><path class="cls-2" d="M49.24,49.58a1.47,1.47,0,0,1-1.39-1L46.7,45.33l-3.26-1.14a1.48,1.48,0,0,1,0-2.79l3.27-1.14L47.85,37a1.46,1.46,0,0,1,1.39-1,1.48,1.48,0,0,1,1.39,1l1.14,3.27L55,41.4a1.48,1.48,0,0,1,0,2.79l-3.27,1.14L50.63,48.6A1.48,1.48,0,0,1,49.24,49.58ZM47,42.8l.74.26A2,2,0,0,1,49,44.26l.26.75.26-.75a2,2,0,0,1,1.2-1.2l.75-.26-.74-.26a2,2,0,0,1-1.21-1.21l-.26-.75-.26.75a2,2,0,0,1-1.21,1.21Z"/><path class="cls-2" d="M91.88,101.56h0a1.47,1.47,0,0,1-1.39-1L89.34,97.3l-3.26-1.14a1.49,1.49,0,0,1-1-1.39,1.47,1.47,0,0,1,1-1.39l3.26-1.15L90.49,89a1.47,1.47,0,0,1,1.39-1h0a1.48,1.48,0,0,1,1.39,1l1.14,3.27,3.27,1.15a1.47,1.47,0,0,1,1,1.39,1.49,1.49,0,0,1-1,1.39L94.41,97.3l-1.14,3.27A1.49,1.49,0,0,1,91.88,101.56Zm1-1.82Zm-3.18-5,.74.26a2,2,0,0,1,1.21,1.2l.26.75.26-.74A2,2,0,0,1,93.35,95l.74-.26-.74-.26a2,2,0,0,1-1.21-1.21l-.26-.74-.26.74a2,2,0,0,1-1.21,1.21Zm-.41-2.3Zm3.59-2.68Z"/><path class="cls-2" d="M32,82.17a1.49,1.49,0,0,1-1.4-1l-1.14-3.27-3.27-1.14a1.48,1.48,0,0,1-1-1.39,1.46,1.46,0,0,1,1-1.39l3.27-1.15,1.14-3.27a1.48,1.48,0,0,1,2.79,0l1.14,3.27L37.82,74a1.48,1.48,0,0,1,0,2.79l-3.27,1.14-1.14,3.27A1.49,1.49,0,0,1,32,82.17ZM29.8,75.38l.75.26a2,2,0,0,1,1.21,1.2l.26.75.26-.75a2,2,0,0,1,1.2-1.2l.75-.26-.75-.26a2,2,0,0,1-1.2-1.21L32,73.16l-.26.75a2,2,0,0,1-1.21,1.21Zm-.4-2.3Z"/></svg>