<svg id="Слой_1" data-name="Слой 1" xmlns="http://www.w3.org/2000/svg" viewBox="0 0 137.76 137.76"><defs><style>.cls-1{fill:#00adad;}.cls-2{fill:#737373;}</style></defs><path class="cls-1" d="M68.88,137.76a68.88,68.88,0,1,1,68.88-68.88A69,69,0,0,1,68.88,137.76ZM68.88,4a64.88,64.88,0,1,0,64.88,64.88A64.95,64.95,0,0,0,68.88,4Z"/><path class="cls-2" d="M45.13,71.92l13.81,13.8a1.9,1.9,0,0,0,2.65,0L72.08,75.24,88.79,58.52l3.83-3.83A1.88,1.88,0,0,0,90,52L79.49,62.52,62.77,79.23l-3.83,3.84h2.65L47.78,69.27a1.87,1.87,0,0,0-2.65,2.65Z"/></svg>