<svg id="Слой_1" data-name="Слой 1" xmlns="http://www.w3.org/2000/svg" viewBox="0 0 137.76 137.76"><defs><style>.cls-1{fill:#737373;}.cls-2{fill:#00adad;}</style></defs><path class="cls-1" d="M28.21,101.48c-.11-2.36,1.31-4.32,3-6Q42.57,84,54,72.72l8.5-8.48A4,4,0,0,1,65,63c2.63-.28,4.59-4.52,3.27-6.86-1-1.82-1-2,.45-3.45Q80.1,41.3,91.52,29.89c2.26-2.25,4.38-2.24,6.66,0q4.88,4.85,9.72,9.72c2.22,2.24,2.2,4.41-.05,6.67q-5.56,5.58-11.16,11.15c-1.68,1.68-2.06,1.66-3.75-.06-.57-.59-1.18-1.14-1.74-1.74a1,1,0,0,0-1.59-.07c-.62.57-.53,1,0,1.56.78.73,1.51,1.5,2.25,2.25A1.77,1.77,0,0,1,92,62.18c-3.45,3.55-3.26,3.61-6.6.25C85,62,84.5,61.06,84,61.59s.42,1,.83,1.43c3.23,3.26,3.23,3.26-.07,6.42a1.94,1.94,0,0,1-2.79.32c-2.08-1.33-3.57-1.1-5.3.64-1,.95-2.22,1.71-2,3.41.05.5-.53.89-.9,1.26Q57.74,91,41.75,107c-4.53,4.5-11.65,2.81-13.32-3.07A9.72,9.72,0,0,1,28.21,101.48ZM36,106.54c1.61.2,2.8-.74,3.92-1.87,4.43-4.44,8.87-8.85,13.3-13.29,5.63-5.62,11.22-11.27,16.88-16.86.93-.93.84-1.49-.07-2.32-1.5-1.36-2.88-2.84-4.32-4.27s-1.43-1.39-2.91.08Q52.53,78.36,42.18,88.67c-3.21,3.21-6.43,6.39-9.59,9.64a4.62,4.62,0,0,0-1.07,5.57A4.35,4.35,0,0,0,36,106.54Zm70.44-63.7a1.89,1.89,0,0,0-.71-1.37c-3.17-3.17-6.35-6.33-9.51-9.52a1.63,1.63,0,0,0-2.7,0q-10.93,11-21.9,21.89a1.4,1.4,0,0,0-.42,1.79,5.8,5.8,0,0,1,0,5.17,1.2,1.2,0,0,0,.32,1.55l3.89,3.89a1.17,1.17,0,0,0,1.41.37,6.6,6.6,0,0,1,5.61,0c.32.15.67.21.9-.14s0-.64-.22-.9a7,7,0,0,0-.6-.62c-3.56-3.31-3-3.45.22-6.63l.11-.09a1.58,1.58,0,0,1,2.51.07c.83.88,1.7,1.71,2.56,2.55.24.23.54.52.87.18s0-.63-.19-.86c-.84-.87-1.68-1.73-2.55-2.57A1.56,1.56,0,0,1,86,55.12c1-1,2-2.07,3.07-3.07a1.64,1.64,0,0,1,2.55,0c.76.74,1.53,1.47,2.26,2.24s1.13.76,1.82.07c3.36-3.4,6.74-6.76,10.12-10.14A1.7,1.7,0,0,0,106.47,42.84ZM68.78,64.17a1.86,1.86,0,0,0-1,.92c-.23.38,0,.63.29.86l3.68,3.66c.48.49.9.63,1.46.07a1,1,0,0,0,0-1.58C72,67,70.81,65.79,69.65,64.64A1.21,1.21,0,0,0,68.78,64.17Z"/><path class="cls-1" d="M35.78,109.8A7.81,7.81,0,0,1,28.19,104a8.55,8.55,0,0,1-.22-2.24v-.26c-.12-2.64,1.6-4.72,3.1-6.24,5.68-5.71,11.48-11.49,17.09-17.08l14.14-14.1A4.12,4.12,0,0,1,65,62.77a3.91,3.91,0,0,0,2.81-2.32A4.57,4.57,0,0,0,68,56.29c-1.09-1.93-1-2.21.5-3.76q11.4-11.41,22.82-22.81c2.35-2.35,4.64-2.34,7,0,3.91,3.89,6.9,6.89,9.72,9.72,2.33,2.36,2.31,4.65,0,7q-5.58,5.6-11.16,11.15c-.88.88-1.43,1.32-2,1.32h0c-.6,0-1.15-.45-2.06-1.38l-.7-.68c-.35-.35-.71-.7-1-1.06a1,1,0,0,0-.62-.38c-.16,0-.38.1-.62.32a.84.84,0,0,0-.35.57c0,.18.13.38.39.63.55.52,1.08,1.07,1.6,1.6l.65.66a2,2,0,0,1,.06,3.14l-.36.37c-1.56,1.61-2.35,2.41-3.21,2.42h0c-.86,0-1.64-.79-3.2-2.37l-.18-.18a4.07,4.07,0,0,1-.3-.36c-.18-.23-.42-.55-.58-.56s-.07,0-.16.08-.07.11-.07.13c0,.18.36.47.59.67s.23.19.31.28c1.67,1.68,2.51,2.52,2.49,3.43S86.59,68,84.9,69.61a2.19,2.19,0,0,1-3.1.36c-2-1.25-3.32-1.09-5,.6l-.53.5c-.8.74-1.57,1.44-1.43,2.71.06.53-.36.92-.73,1.25l-.23.22Q69.43,79.69,65,84.14c-7.55,7.56-15.35,15.37-23.06,23A8.74,8.74,0,0,1,35.78,109.8ZM94.83,28.45a4.58,4.58,0,0,0-3.14,1.62L68.87,52.88c-1.39,1.4-1.4,1.43-.42,3.16a5.06,5.06,0,0,1-.24,4.64A4.38,4.38,0,0,1,65,63.26a3.7,3.7,0,0,0-2.36,1.16L48.5,78.52C42.9,84.11,37.1,89.89,31.42,95.6c-1.44,1.45-3.07,3.42-3,5.86v.28a8.21,8.21,0,0,0,.2,2.11,7.26,7.26,0,0,0,5.2,5.21,8.06,8.06,0,0,0,7.71-2.25c7.7-7.65,15.51-15.47,23-23l8.89-8.89.25-.24c.3-.27.61-.55.58-.83-.17-1.52.72-2.34,1.59-3.13l.51-.48c1.84-1.85,3.47-2,5.62-.67a1.7,1.7,0,0,0,2.48-.29c1.6-1.53,2.39-2.3,2.4-3s-.82-1.55-2.34-3.08c-.08-.08-.18-.16-.29-.25-.35-.3-.74-.64-.75-1a.6.6,0,0,1,.21-.49.76.76,0,0,1,.54-.23c.39,0,.68.41.94.75a3.21,3.21,0,0,0,.27.32l.18.18c1.41,1.43,2.19,2.22,2.84,2.22h0c.65,0,1.43-.81,2.85-2.27l.36-.37a1.52,1.52,0,0,0,0-2.44l-.66-.66c-.51-.53-1-1.07-1.59-1.59a1.38,1.38,0,0,1-.54-1,1.33,1.33,0,0,1,.51-.94,1.29,1.29,0,0,1,1-.45,1.42,1.42,0,0,1,1,.54c.33.36.68.7,1,1l.7.69c.8.82,1.29,1.23,1.72,1.23h0c.42,0,.92-.41,1.68-1.17q5.6-5.57,11.15-11.15c2.16-2.17,2.18-4.17,0-6.31C104.91,37,101.91,34,98,30.09A4.59,4.59,0,0,0,94.83,28.45ZM36.45,106.82l-.43,0A4.61,4.61,0,0,1,31.3,104a4.87,4.87,0,0,1,1.11-5.85c2.4-2.47,4.88-5,7.28-7.34l9.5-9.49L62.66,67.84l.06-.07c1.52-1.52,1.67-1.52,3.19,0,.49.48,1,1,1.45,1.45.92.94,1.88,1.91,2.86,2.81a1.54,1.54,0,0,1,.08,2.67c-3.91,3.87-7.86,7.84-11.69,11.67Q56,89,53.43,91.56L47.94,97q-3.9,3.9-7.81,7.81A5.33,5.33,0,0,1,36.45,106.82Zm-.41-.53h0c1.43.16,2.52-.6,3.72-1.81,2.6-2.6,5.2-5.21,7.81-7.8l5.49-5.48L58.26,86C62.08,82.18,66,78.21,70,74.34c.41-.4.59-.71.58-1s-.2-.57-.64-1c-1-.91-2-1.89-2.89-2.83l-1.44-1.45c-1.25-1.23-1.24-1.23-2.48,0l-.07.07q-6.72,6.75-13.47,13.48l-9.49,9.48c-2.4,2.4-4.88,4.87-7.28,7.34a4.34,4.34,0,0,0-1,5.28A4.1,4.1,0,0,0,36,106.29Zm36.43-36h0a1.43,1.43,0,0,1-1-.5c-.74-.75-1.49-1.5-2.25-2.24l-1.42-1.42c-.27-.26-.66-.65-.34-1.17a2.1,2.1,0,0,1,1.2-1h.09a1.44,1.44,0,0,1,1,.54L71,65.66c.76.75,1.51,1.51,2.28,2.26a1.39,1.39,0,0,1,.52,1,1.42,1.42,0,0,1-.48,1A1.25,1.25,0,0,1,72.47,70.29Zm-3.66-5.87a1.64,1.64,0,0,0-.87.8c-.1.15-.06.24.22.52l1.46,1.45c.76.75,1.51,1.49,2.26,2.25a.94.94,0,0,0,.59.35h0A.75.75,0,0,0,73,69.5a.89.89,0,0,0,.34-.6,1,1,0,0,0-.37-.62c-.77-.75-1.53-1.51-2.28-2.27l-1.19-1.19C69.24,64.59,69.07,64.43,68.81,64.42ZM82.9,67a1.35,1.35,0,0,1-.56-.14,6.3,6.3,0,0,0-5.4,0,1.4,1.4,0,0,1-1.69-.43L75,66.14q-1.8-1.81-3.63-3.62A1.47,1.47,0,0,1,71,60.68a5.56,5.56,0,0,0,0-5,1.64,1.64,0,0,1,.47-2.07q11-10.94,21.89-21.89A2.22,2.22,0,0,1,94.9,31h0a2.18,2.18,0,0,1,1.52.79q3.52,3.57,7.08,7.1l2.43,2.42a2.15,2.15,0,0,1,.78,1.54,2,2,0,0,1-.72,1.58l-2.47,2.46q-3.84,3.83-7.66,7.67a1.49,1.49,0,0,1-1.05.55h0a1.59,1.59,0,0,1-1.11-.62c-.54-.58-1.13-1.14-1.69-1.69l-.56-.54a1.41,1.41,0,0,0-2.21,0c-1.14,1.09-2.23,2.21-3.06,3.06a1.57,1.57,0,0,0-.53,1.09,1.54,1.54,0,0,0,.58,1.07c.89.85,1.74,1.73,2.56,2.58.24.24.69.7.19,1.21s-1,0-1.22-.18l-.33-.32c-.75-.72-1.52-1.47-2.24-2.24A1.34,1.34,0,0,0,83,58.44l-.1.1-.52.5c-1.34,1.31-2.08,2-2.07,2.73s.81,1.57,2.37,3c.22.21.43.43.62.65s.59.69.24,1.2A.78.78,0,0,1,82.9,67Zm-3.23-1.26a6.74,6.74,0,0,1,2.89.66c.38.18.5.07.59,0s0-.28-.2-.58a7,7,0,0,0-.59-.62c-1.74-1.62-2.52-2.49-2.53-3.38s.78-1.69,2.22-3.1l.59-.57a1.84,1.84,0,0,1,2.91,0c.72.76,1.49,1.51,2.23,2.22l.33.32c.32.32.39.31.52.19s.13-.17-.18-.49c-.84-.87-1.68-1.74-2.57-2.58a2.07,2.07,0,0,1-.73-1.43A2,2,0,0,1,85.82,55c.83-.86,1.93-2,3.08-3.08a1.89,1.89,0,0,1,2.9,0l.56.54c.57.55,1.15,1.12,1.7,1.71a1.2,1.2,0,0,0,.75.46,1.06,1.06,0,0,0,.71-.4q3.81-3.86,7.66-7.67l2.46-2.46a1.48,1.48,0,0,0,.58-1.2v0a1.68,1.68,0,0,0-.63-1.19l-2.43-2.43c-2.37-2.36-4.74-4.72-7.08-7.1a1.75,1.75,0,0,0-1.18-.64h0a1.75,1.75,0,0,0-1.17.64Q82.79,43.09,71.83,54c-.54.54-.64.94-.37,1.5a6,6,0,0,1,0,5.39,1,1,0,0,0,.27,1.26l3.64,3.63.25.26c.42.42.71.5,1.14.32A7.72,7.72,0,0,1,79.67,65.75Z"/><path class="cls-1" d="M102.56,42.91a7.76,7.76,0,0,1-7.79,7.82A8,8,0,0,1,87.05,43a7.76,7.76,0,0,1,7.82-7.8A7.55,7.55,0,0,1,102.56,42.91Zm-7.71,4.83a4.78,4.78,0,0,0,4.8-5.67c-.1-.41,0-1.19-.67-1.08s-.31.77-.26,1.23A4,4,0,0,1,95,46.89a4,4,0,0,1-4.07-4,4,4,0,0,1,4.65-3.8c.46.05,1.14.38,1.25-.23s-.74-.66-1.17-.73A4.59,4.59,0,0,0,91,40a4.7,4.7,0,0,0-.5,5.18A4.43,4.43,0,0,0,94.85,47.74Z"/><path class="cls-1" d="M94.86,51h-.1a8.2,8.2,0,0,1-8-7.95,7.86,7.86,0,0,1,2.29-5.64A8.06,8.06,0,0,1,94.87,35a7.77,7.77,0,0,1,7.94,7.93,8,8,0,0,1-2.4,5.78A7.84,7.84,0,0,1,94.86,51Zm0-15.5a7.53,7.53,0,0,0-5.42,2.26A7.35,7.35,0,0,0,87.3,43a7.79,7.79,0,0,0,7.47,7.45h.09a7.37,7.37,0,0,0,5.2-2.14,7.6,7.6,0,0,0,2.25-5.43A7.28,7.28,0,0,0,94.87,35.48ZM94.77,48a4.65,4.65,0,0,1-4.46-2.75,5.12,5.12,0,0,1,5.35-7.37l.22,0a1.43,1.43,0,0,1,1,.38.78.78,0,0,1,.12.61.66.66,0,0,1-.27.46,1.2,1.2,0,0,1-1,0l-.3-.05a4,4,0,0,0-3.12.88A3.7,3.7,0,0,0,95,46.64a3.67,3.67,0,0,0,2.67-1.28,4,4,0,0,0,.85-3.11c0-.09,0-.19,0-.29a1.2,1.2,0,0,1,0-.93.7.7,0,0,1,.48-.29.73.73,0,0,1,.55.11,1.29,1.29,0,0,1,.37.9,2,2,0,0,0,0,.26A4.68,4.68,0,0,1,99,46a5.28,5.28,0,0,1-4.09,2Zm0-9.69a4.28,4.28,0,0,0-3.51,1.8A4.44,4.44,0,0,0,90.76,45a4.17,4.17,0,0,0,4,2.47h.09a4.76,4.76,0,0,0,3.69-1.79,4.16,4.16,0,0,0,.84-3.58c0-.08,0-.19-.05-.3s-.06-.49-.17-.57a.2.2,0,0,0-.16,0,.22.22,0,0,0-.16.07c-.06.09,0,.35,0,.54a2.29,2.29,0,0,1,.07.34,4.51,4.51,0,0,1-1,3.5,4.15,4.15,0,0,1-3,1.45,4.23,4.23,0,0,1-3-1.22,4.11,4.11,0,0,1,.14-6.09,4.53,4.53,0,0,1,3.51-1,2.41,2.41,0,0,1,.35.07c.19,0,.47.1.56,0a.3.3,0,0,0,.06-.14.26.26,0,0,0,0-.21c-.1-.14-.44-.17-.68-.19l-.25,0A4.92,4.92,0,0,0,94.74,38.3Z"/><path class="cls-2" d="M68.88,137.76a68.88,68.88,0,1,1,68.88-68.88A69,69,0,0,1,68.88,137.76ZM68.88,4a64.88,64.88,0,1,0,64.88,64.88A64.95,64.95,0,0,0,68.88,4Z"/></svg>