<svg id="Слой_1" data-name="Слой 1" xmlns="http://www.w3.org/2000/svg" viewBox="0 0 137.76 137.76"><defs><style>.cls-1{fill:#00adad;}.cls-2{fill:#737373;}.cls-3{fill:#e3e3e3;}</style></defs><path class="cls-1" d="M68.88,137.76a68.88,68.88,0,1,1,68.88-68.88A69,69,0,0,1,68.88,137.76ZM68.88,4a64.88,64.88,0,1,0,64.88,64.88A64.95,64.95,0,0,0,68.88,4Z"/><path class="cls-2" d="M45,66.09q0-18.35,0-36.67c0-2.59.21-2.79,2.8-2.79,13.17,0,26.33,0,39.49,0a4.33,4.33,0,0,1,3.45,1.45c3.72,3.89,7.51,7.72,11.29,11.55a3,3,0,0,1,.94,2.25q0,30.69,0,61.4c0,1.82-.4,2.19-2.27,2.19H47.33c-2,0-2.35-.35-2.35-2.4V66.09Zm29,36.47q12.22,0,24.46,0c1.06,0,1.65-.19,1.65-1.45q0-28.61,0-57.21c0-1.08-.34-1.52-1.45-1.49-2.58,0-5.16,0-7.74,0-3,0-4-.93-4-3.91,0-2.48.16-5,.2-7.44,0-1.84,0-1.87-1.9-1.87H49.84c-2,0-2,0-2,2.07q0,34.65,0,69.3c0,2,0,2,1.94,2Zm15.81-71.1c0,2.69,0,5,0,7.31,0,.58.42.8,1,.8,2,0,4.1,0,6.15,0,.61,0,.81-.28.34-.75Z"/><path class="cls-2" d="M72.55,105.81H47.33c-2.21,0-2.72-.52-2.72-2.77q0-13.44,0-26.87l0-46.75c0-2.78.39-3.17,3.18-3.17h9q15.25,0,30.51,0h0A4.69,4.69,0,0,1,91,27.79c3.56,3.72,7.24,7.45,10.8,11.05l.49.5a3.38,3.38,0,0,1,1,2.51q0,18.23,0,36.45v25c0,2-.57,2.56-2.64,2.56ZM45.36,66.46v9.71q0,13.44,0,26.87c0,1.85.16,2,2,2h53.41c1.68,0,1.89-.2,1.89-1.81v-25q0-18.22,0-36.45a2.61,2.61,0,0,0-.83-2l-.49-.5C97.74,35.76,94.06,32,90.5,28.31A4,4,0,0,0,87.35,27h0Q72.06,27,56.81,27h-9c-2.38,0-2.43.05-2.43,2.42v37ZM98.5,103h0q-9.3,0-18.61,0h-30c-2.14,0-2.31-.17-2.31-2.35l-.05-69.3c0-1.13,0-1.7.36-2.07s.91-.38,2-.38H85.27c1,0,1.58,0,1.94.37s.35.89.34,1.89-.06,2.12-.1,3.19c0,1.39-.11,2.83-.11,4.24,0,2.74.81,3.53,3.6,3.54H93c1.85,0,3.76,0,5.64,0a1.8,1.8,0,0,1,1.39.42,1.9,1.9,0,0,1,.45,1.45c0,20.79,0,39.5,0,57.21a1.85,1.85,0,0,1-.44,1.38A2.12,2.12,0,0,1,98.5,103Zm-12.79-.77,12.76,0c.59,0,.89-.07,1-.23a1.21,1.21,0,0,0,.22-.85c0-17.71,0-36.43,0-57.21a1.32,1.32,0,0,0-.22-.92,1.15,1.15,0,0,0-.86-.2c-1.88,0-3.8,0-5.65,0H90.94c-3.21,0-4.35-1.13-4.35-4.29,0-1.43.06-2.87.11-4.27,0-1.06.08-2.12.1-3.18a3,3,0,0,0-.12-1.34,3.07,3.07,0,0,0-1.41-.15H49.84c-.77,0-1.33,0-1.47.15a3.48,3.48,0,0,0-.15,1.55l.05,69.3c0,1.6,0,1.6,1.56,1.6H85.71ZM94.85,40H90.77a1.18,1.18,0,0,1-1.32-1.17c0-1.68,0-3.35,0-5.17v-3l2.86,2.82,5.23,5.17c.42.42.41.75.33.95s-.31.44-.92.45Zm-4.66-7.6v1.25c0,1.81,0,3.49,0,5.16,0,.14,0,.42.58.43h6.15l.16,0-.09-.1-5.22-5.17Zm7,6.8Z"/><path class="cls-2" d="M73.94,66.06H55.25c-2,0-2.37-.33-2.38-2.36q0-4.37,0-8.71c0-1.65.56-2.22,2.2-2.22q18.9,0,37.8,0c1.66,0,2.22.56,2.23,2.19,0,3,0,6,0,9,0,1.74-.4,2.1-2.21,2.11Zm0-10.42c-5.53,0-11,0-16.58,0-1.3,0-1.76.43-1.68,1.71a29.1,29.1,0,0,1,0,4.07c-.11,1.42.43,1.86,1.84,1.84,6.84-.06,13.67,0,20.51,0,4.12,0,8.24-.06,12.36,0,1.44,0,1.92-.48,1.82-1.88a29.1,29.1,0,0,1,0-4.07c.09-1.3-.43-1.69-1.7-1.68C85,55.67,79.51,55.64,74,55.64Z"/><path class="cls-2" d="M84.79,66.44H55.25c-2.26,0-2.75-.49-2.75-2.73,0-2.91,0-5.81,0-8.72,0-1.86.73-2.58,2.57-2.59h37.8c1.86,0,2.59.72,2.61,2.56,0,2.78,0,5.73,0,9,0,1.94-.56,2.48-2.58,2.48Zm-10.85-.76h19c1.6,0,1.82-.21,1.83-1.73,0-3.27,0-6.21,0-9,0-1.42-.42-1.82-1.86-1.82H55.08c-1.42,0-1.81.4-1.82,1.85,0,2.9,0,5.8,0,8.71,0,1.83.15,2,2,2H73.94Zm16.6-2.07h-.11c-3-.06-6,0-8.86,0h-8.9c-4.94,0-10.06,0-15.09,0a2.45,2.45,0,0,1-1.81-.54,2.16,2.16,0,0,1-.41-1.71,29.91,29.91,0,0,0,0-4,2,2,0,0,1,.41-1.6,2.09,2.09,0,0,1,1.65-.5c4,0,8.13,0,12.09,0h8.91c4,0,8.09,0,12.14,0a2.25,2.25,0,0,1,1.67.5,2,2,0,0,1,.41,1.58,27,27,0,0,0,0,4,2.21,2.21,0,0,1-.43,1.74A2.17,2.17,0,0,1,90.54,63.61ZM85,62.82c1.8,0,3.62,0,5.42,0a1.64,1.64,0,0,0,1.21-.29,1.55,1.55,0,0,0,.23-1.18,28.32,28.32,0,0,1,0-4.12,1.35,1.35,0,0,0-.2-1A1.45,1.45,0,0,0,90.62,56h-.06c-4,0-8.16,0-12.15,0h-8.9c-4,0-8.07,0-12.1,0a1.67,1.67,0,0,0-1.1.26,1.38,1.38,0,0,0-.2,1,29.68,29.68,0,0,1,0,4.12,1.54,1.54,0,0,0,.22,1.15,1.66,1.66,0,0,0,1.19.3h.06c5,0,10.15,0,15.11,0H85Z"/><path class="cls-2" d="M73.94,73.93c-7.3,0-14.61,0-21.92,0-1.25,0-1.82-.34-1.72-1.67.07-.82.37-1.21,1.19-1.2H95.91c.82,0,1.71-.15,1.78,1.18S97.31,74,96,74C88.66,73.91,81.3,73.93,73.94,73.93Z"/><path class="cls-2" d="M96.05,74.33h0c-5.48,0-11,0-16.44,0H68.4q-8.19,0-16.38,0a2.3,2.3,0,0,1-1.71-.52,1.93,1.93,0,0,1-.38-1.56c.08-1,.58-1.55,1.53-1.55h5q19.73,0,39.47,0h.22c.75,0,1.86,0,1.94,1.53a2.07,2.07,0,0,1-.43,1.6A2,2,0,0,1,96.05,74.33ZM85.2,73.55q5.42,0,10.81,0c.6,0,.91-.08,1.09-.26a1.49,1.49,0,0,0,.22-1c0-.8-.34-.83-1.17-.82h-.24q-19.74,0-39.47,0h-5c-.49,0-.72.14-.77.86a1.32,1.32,0,0,0,.18,1,1.54,1.54,0,0,0,1.16.28q8.19,0,16.38,0H85.2Z"/><path class="cls-2" d="M64.86,34.49c4.26,0,8.51,0,12.77,0,1.1,0,1.77.18,1.75,1.52s-.84,1.33-1.78,1.33q-12.76,0-25.54,0c-1.09,0-1.8-.16-1.75-1.52,0-1.08.54-1.34,1.5-1.33C56.16,34.5,60.51,34.49,64.86,34.49Z"/><path class="cls-2" d="M52,37.7a2.23,2.23,0,0,1-1.67-.48,1.84,1.84,0,0,1-.41-1.42c.06-1.49,1-1.7,1.84-1.7h0q4.92,0,9.85,0h6.76c3.07,0,6.14,0,9.21,0a2.4,2.4,0,0,1,1.68.47A1.89,1.89,0,0,1,79.75,36c0,1.71-1.21,1.68-2.1,1.71h-1q-12.31,0-24.63,0Zm-.24-2.85c-.83,0-1.06.21-1.09,1a1.19,1.19,0,0,0,.2.87A1.7,1.7,0,0,0,52,37h0q12.31,0,24.63,0h.92C78.67,37,79,36.9,79,36a1.21,1.21,0,0,0-.22-.89c-.18-.18-.5-.24-1.15-.25-3.07,0-6.14,0-9.22,0H61.66c-3.28,0-6.57,0-9.86,0Z"/><path class="cls-2" d="M64.82,42.43c-4.26,0-8.52,0-12.78,0-1,0-1.72,0-1.74-1.37s.71-1.5,1.78-1.49q12.78,0,25.57,0c1.1,0,1.79.19,1.73,1.53,0,1.08-.53,1.35-1.49,1.34C73.53,42.42,69.18,42.43,64.82,42.43Z"/><path class="cls-2" d="M77.92,42.82h0c-3.19,0-6.37,0-9.57,0h-7.1c-3.06,0-6.12,0-9.18,0-.9,0-2.09,0-2.11-1.74a1.87,1.87,0,0,1,.43-1.41,2.34,2.34,0,0,1,1.72-.47q12.78,0,25.57,0a2.28,2.28,0,0,1,1.7.48,1.93,1.93,0,0,1,.41,1.44C79.7,42.61,78.8,42.82,77.92,42.82Zm-6.1-.77,6.07,0c.87,0,1.09-.2,1.12-1a1.27,1.27,0,0,0-.2-.89C78.63,40,78.3,40,77.67,40h0q-12.8,0-25.58,0a1.52,1.52,0,0,0-1.17.25,1.15,1.15,0,0,0-.22.87c0,1,.4,1,1.36,1,3.06,0,6.11,0,9.18,0h10.6Z"/><path class="cls-2" d="M64.85,44.9c4.32,0,8.63,0,12.94,0,1.12,0,1.62.33,1.59,1.53s-.5,1.36-1.47,1.35c-4,0-8.06,0-12.09,0H52c-1,0-1.72,0-1.74-1.37s.68-1.51,1.76-1.5C56.33,44.91,60.59,44.9,64.85,44.9Z"/><path class="cls-2" d="M77.94,48.14h0q-4.41,0-8.81,0h-17c-.89,0-2.1,0-2.13-1.74A2,2,0,0,1,50.36,45a2.32,2.32,0,0,1,1.71-.46q4.66,0,9.33,0h7c3.14,0,6.27,0,9.4,0a2.14,2.14,0,0,1,1.54.46,1.87,1.87,0,0,1,.44,1.45C79.72,47.93,78.77,48.14,77.94,48.14Zm-5.2-.77,5.17,0h0c.83,0,1-.21,1.07-1a1.22,1.22,0,0,0-.22-.9,1.33,1.33,0,0,0-1-.24c-3.14,0-6.27,0-9.41,0h-7c-3.11,0-6.23,0-9.34,0a1.69,1.69,0,0,0-1.16.24,1.24,1.24,0,0,0-.23.88c0,1,.37,1,1.37,1h20.7Z"/><path class="cls-2" d="M87.07,76.38c3,0,6.09,0,9.13,0,1.07,0,1.5.36,1.5,1.47s-.51,1.43-1.54,1.42q-9.06,0-18.12,0c-1,0-1.56-.23-1.57-1.39s.51-1.52,1.61-1.51C81.08,76.41,84.07,76.38,87.07,76.38Z"/><path class="cls-2" d="M78,79.64c-1,0-1.91-.22-1.93-1.77a1.9,1.9,0,0,1,.45-1.43A2.12,2.12,0,0,1,78.09,76c2.14,0,4.29,0,6.43,0h5.06c2.2,0,4.41,0,6.61,0a2,2,0,0,1,1.43.43,1.85,1.85,0,0,1,.45,1.41,1.79,1.79,0,0,1-.43,1.37,2.15,2.15,0,0,1-1.48.44c-5.93,0-12,0-18.12,0Zm0-2.9a1.31,1.31,0,0,0-.93.23,1.24,1.24,0,0,0-.23.89c0,.82.24,1,1.18,1h0c6.09,0,12.19,0,18.12,0h0a1.29,1.29,0,0,0,.93-.23,1.08,1.08,0,0,0,.21-.82,1.21,1.21,0,0,0-.23-.88c-.15-.16-.41-.22-.89-.22-2.21,0-4.41,0-6.62,0h-5c-2.15,0-4.3,0-6.45,0Z"/><path class="cls-3" d="M68.6,85.3c-1.75-1-3.56-1.78-5.35-2.65s-3.94-1-4.38.54c-1,3.43-3.15,4.87-6.47,3.54C48.69,85.24,47.25,85,44,82.59c-3.06-2.27-6-4-8-7.29-1.08-1.8-2.38-4.07-.94-5.54.6-.61,1.24-1.19,1.89-1.76a2.06,2.06,0,0,0,.23-2.6c-1.75-2-2.31-3.35-4.47-5-1.3-1-2.76-1.29-4-.16A9.68,9.68,0,0,0,26.4,63.9c-.61,1.65-1.56,4.62-.88,6.57,1.64,4.72,4,7.6,7.5,10.93A58.42,58.42,0,0,0,41.3,88a65.27,65.27,0,0,0,7,4.22c1.76.86,3.49,1.81,5.29,2.54,2.05.82,4,2,6.36,1.89a7.09,7.09,0,0,0,2.69-.42c2.24-.91,4.64-3.22,6.17-5C70.74,88.88,71.16,86.75,68.6,85.3Z"/><path class="cls-3" d="M59.61,97a12.38,12.38,0,0,1-5-1.39c-.41-.19-.83-.37-1.25-.54-1.28-.52-2.54-1.15-3.76-1.76-.52-.26-1-.53-1.56-.78a50.24,50.24,0,0,1-5.69-3.39l-1.3-.85a58.26,58.26,0,0,1-8.33-6.64c-3.43-3.24-5.9-6.22-7.6-11.07-.53-1.54-.24-3.77.88-6.83A10.32,10.32,0,0,1,28.5,60c1.28-1.15,2.87-1.1,4.49.14a15.38,15.38,0,0,1,3.11,3.28c.42.56.85,1.13,1.41,1.78a2.46,2.46,0,0,1-.26,3.14c-.78.67-1.36,1.21-1.88,1.73-1.17,1.21-.19,3.1,1,5.09,1.62,2.69,3.9,4.31,6.3,6,.52.37,1,.74,1.57,1.14a21.94,21.94,0,0,0,6.31,3.32c.59.22,1.25.47,2,.77a4.36,4.36,0,0,0,3.57.15,5.2,5.2,0,0,0,2.4-3.44,1.92,1.92,0,0,1,1.07-1.24,4.86,4.86,0,0,1,3.83.47L64.8,83c1.32.61,2.68,1.25,4,2h0a3.5,3.5,0,0,1,1.93,2.38c.21,1.18-.35,2.56-1.67,4.1-1,1.18-3.63,4-6.31,5.12A7.71,7.71,0,0,1,59.9,97ZM30.53,59.88a2.2,2.2,0,0,0-1.53.63A9.25,9.25,0,0,0,26.75,64c-1.05,2.85-1.35,5-.88,6.32,1.65,4.73,4,7.53,7.41,10.77a58.07,58.07,0,0,0,8.22,6.56l1.3.85a50.67,50.67,0,0,0,5.61,3.35c.53.25,1.05.51,1.57.78,1.2.6,2.45,1.23,3.71,1.74q.63.25,1.26.54a11,11,0,0,0,4.93,1.32,6.74,6.74,0,0,0,2.56-.39c2.61-1.05,5.28-4,6-4.9,1.17-1.37,1.67-2.54,1.51-3.49a2.85,2.85,0,0,0-1.57-1.86h0c-1.28-.72-2.62-1.35-3.92-2L63.08,83a4.2,4.2,0,0,0-3.19-.45,1.12,1.12,0,0,0-.66.76,5.86,5.86,0,0,1-2.79,3.9,5.06,5.06,0,0,1-4.18-.12c-.74-.3-1.39-.55-2-.77a22.07,22.07,0,0,1-6.48-3.42l-1.56-1.13c-2.48-1.77-4.81-3.44-6.51-6.26-1-1.71-2.57-4.28-.89-6,.53-.54,1.12-1.09,1.92-1.78a1.72,1.72,0,0,0,.18-2.08c-.57-.67-1-1.25-1.44-1.81a14.55,14.55,0,0,0-3-3.14A3.39,3.39,0,0,0,30.53,59.88Z"/><path class="cls-2" d="M69.28,81.78A37.06,37.06,0,0,0,59.71,78a2.89,2.89,0,0,0-3.09,1.36,8,8,0,0,0-1.49,3.35c-.08.91-.36,1.26-1.54.8A31.42,31.42,0,0,1,48,80.81c-3.35-2.15-6.62-4.39-9-7.65-.59-.8-.44-1.23.26-1.82.9-.75,2-1.22,2.71-2.27a3,3,0,0,0,0-3.53,36,36,0,0,0-8.57-9.35c-.22-.17-4.22-2.18-6,.54a67,67,0,0,0-4.6,8.35,8.49,8.49,0,0,0-.35,6.26,27.6,27.6,0,0,0,4.74,8.41c2.9,3.72,6.7,6.45,10.34,9.36A56.42,56.42,0,0,0,47,95c1.54.79,3.13,1.44,4.69,2.16,2.6,1.21,5.19,2.66,8.11,2.68,3.77,0,5.24-.87,7.74-2.62a20.45,20.45,0,0,0,6-8.22C74.56,86.32,70.75,82.7,69.28,81.78Zm-.52,9.43c-1.53,1.79-3.93,4.1-6.17,5a7.09,7.09,0,0,1-2.69.42c-2.33.09-4.31-1.07-6.36-1.89-1.8-.73-3.53-1.68-5.29-2.54a65.27,65.27,0,0,1-7-4.22A58.42,58.42,0,0,1,33,81.4c-3.53-3.33-5.86-6.21-7.5-10.93-.68-2,.27-4.92.88-6.57a9.68,9.68,0,0,1,2.35-3.67c1.25-1.13,2.71-.84,4,.16,2.16,1.66,2.72,3,4.47,5A2.06,2.06,0,0,1,37,68c-.65.57-1.29,1.15-1.89,1.76-1.44,1.47-.14,3.74.94,5.54,2,3.33,4.91,5,8,7.29,3.23,2.4,4.67,2.65,8.38,4.14,3.32,1.33,5.46-.11,6.47-3.54.44-1.51,2.47-1.45,4.38-.54s3.6,1.66,5.35,2.65C71.16,86.75,70.74,88.88,68.76,91.21Z"/></svg>