<svg id="Слой_1" data-name="Слой 1" xmlns="http://www.w3.org/2000/svg" viewBox="0 0 137.76 137.76"><defs><style>.cls-1{fill:#737373;}.cls-2{fill:#00adad;}</style></defs><path class="cls-1" d="M66.81,106.54H28.44c-1,0-2.12.11-2.18-1.26s1.12-1.47,2.06-1.42c1.43.06,1.7-.6,1.66-1.84-.08-2,0-4,0-5.93a9,9,0,0,0-.88-4.57c-1.37-2.48.65-5.32,3.65-5.39,2.55-.06,5.11,0,7.67,0,1.05,0,1.43-.34,1.45-1.42.08-6.75.08-13.5.38-20.24.24-5.25,0-10.51.42-15.75.12-1.43.72-2,2.07-2,2,0,4.05,0,6.08,0,1.66,0,2.15.51,2.18,2.18.12,6.12.15,12.25.37,18.36.14,4.2.24,8.39.25,12.58,0,.79.15,1.34,1.11,1.27s8.91.34,9-1.16c.1-2.07.34-4.13.46-6.2.23-3.65.42-7.31.63-11,.09-1.55.59-2.06,2.15-2.12,1.25-.05,2.51,0,3.76,0a1.85,1.85,0,0,1,2,2q.45,7.65.92,15.29c0,.68.14,1.35.16,2,0,.94.53,1.19,1.41,1.19s1.14-.41,1.19-1.23c.35-5.58.75-11.15,1.1-16.73.12-2,.5-2.47,2.48-2.52,1.06,0,2.12,0,3.18,0,1.65,0,2.16.52,2.28,2.16.23,3.37.42,6.73.62,10.1.12,2.21.24,4.43.33,6.64,0,1,.36,1.59,1.54,1.58s1.14-.7,1.2-1.52c.36-5.72.76-11.44,1.12-17.16a1.63,1.63,0,0,1,1.7-1.75c1.44-.06,2.89-.06,4.34,0A1.65,1.65,0,0,1,98,62.44c.14,2,.32,3.93.44,5.91.23,3.79.47,7.59.62,11.4,0,1.06.41,1.44,1.47,1.41,2.07,0,4.08,3,2.58,5.7a5,5,0,0,0-.64,2.6c0,4.06,0,8.11,0,12.16,0,2.17,0,2.16,2.11,2.2a10,10,0,0,1,1.72.17,1.18,1.18,0,0,1,1.08,1.31,1.23,1.23,0,0,1-1.23,1.2,14,14,0,0,1-1.59,0Zm7.66-22.86H50.72a9.86,9.86,0,0,0-1.44,0c-.72.1-1.37.46-1.36,1.25s.67,1.11,1.42,1.13H99.75a9.29,9.29,0,0,1,1.58.07,1.25,1.25,0,0,1,1.16,1.28,1.27,1.27,0,0,1-1.13,1.31,9.87,9.87,0,0,1-1.72.09c-13.23,0-35.45,0-48.67,0-1.39,0-1.85.42-1.82,1.81.08,3.66,0,7.33,0,11,0,2.16,0,2.16,2.16,2.16H95.93c.87,0,1.73,0,2.6,0s1.23-.31,1.22-1.19q0-6.3,0-12.59c0-.9-.38-1.22-1.22-1.16a6.79,6.79,0,0,1-1,0c-.8-.08-1.44-.41-1.47-1.3s.62-1.35,1.49-1.41c.67,0,1.35,0,2,0s1.24-.28,1.33-1-.54-1.18-1.24-1.31a8.63,8.63,0,0,0-1.44-.06Zm-23.6-9.05h0l-.57-21.8c-.08-3.36-.08-3.31-3.43-3.35-1.25,0-1.67.34-1.67,1.63,0,8.33-.33,16.65-.51,25-.19,8.72-.28,17.43-.61,26.14,0,.79-.11,1.56,1.09,1.59s1.33-.58,1.32-1.53c0-4.43,0-8.87,0-13.3a2.14,2.14,0,0,0-.34-1.52,3.84,3.84,0,0,1,3.39-6.32c1.12.15,1.4-.46,1.38-1.46C50.84,78,50.87,76.32,50.87,74.63Zm-18.19,24c0,1.3,0,2.61,0,3.91,0,.92.37,1.31,1.29,1.3q3,0,6.09,0c.81,0,1.19-.28,1.29-1.16.29-2.5.13-5,.21-7.51,0-.81-.36-1.12-1.13-1.13s-7.74,0-8.6-.1-1.53-.5-1.43-1.48.78-1.14,1.58-1.14,7.74,0,8.6,0,1-.5,1-1.22-.22-1.19-1.07-1.19c-2.6,0-5.21,0-7.81,0a1.2,1.2,0,0,0-1.3.94c-.14.68.34,1.06.89,1.33.13.06.27.08.41.14,1.27.57,1.48,1.32.52,2.3a2,2,0,0,0-.58,1.55C32.68,96.3,32.68,97.45,32.68,98.61ZM66.43,80.09c0,.24-.21,1,.66,1,1.24,0,2.65.45,3.68-.19s.1-3.86.06-4.44c-.26-3.93-.54-7.86-.78-11.8-.06-.87-.33-1.29-1.3-1.29s-1.25.41-1.31,1.29C67.13,69.71,66.78,74.75,66.43,80.09Zm17.14-2.91c-.23-3.4-.55-8-.82-12.62,0-.87-.4-1.12-1.24-1.17-1.28-.07-1.42.74-1.48,1.65-.31,4.8-.57,9.6-.91,14.4-.09,1.32.3,1.78,1.67,1.74C83.69,81.1,83.69,81.17,83.57,77.18Zm12.75.9c-.27-4.19-.58-8.84-.85-13.5,0-.86-.35-1.19-1.21-1.18s-1.46.19-1.52,1.25c-.26,4.85-.6,9.7-.86,14.54-.1,2,0,2,1.83,2C96.39,81.16,96.39,81.16,96.32,78.08Z"/><path class="cls-1" d="M105.21,106.79h-77c-.9,0-2.13,0-2.19-1.5a1.49,1.49,0,0,1,.4-1.2,2.59,2.59,0,0,1,1.93-.48,1.46,1.46,0,0,0,1.11-.27c.22-.22.3-.61.28-1.31-.05-1.32,0-2.67,0-4,0-.65,0-1.31,0-2a8.59,8.59,0,0,0-.85-4.45,3.57,3.57,0,0,1,0-3.59,4.52,4.52,0,0,1,3.83-2.17c2.3-.06,4.75-.06,7.68,0a1.26,1.26,0,0,0,.94-.23,1.32,1.32,0,0,0,.26-.94c0-1.42,0-2.84,0-4.25,0-5.25.1-10.67.34-16,.1-2.18.12-4.41.13-6.56,0-3,0-6.13.29-9.2.13-1.54.81-2.2,2.27-2.2h2.92c1.07,0,2.14,0,3.22,0,1.79,0,2.38.61,2.42,2.43q.06,3.14.1,6.27c.06,4,.13,8.06.26,12.09.17,4.62.25,8.74.26,12.58,0,.49.07.75.21.89a.86.86,0,0,0,.63.13c.16,0,.54,0,1.1,0,6.32,0,7.63-.48,7.65-.93.06-1.16.16-2.34.26-3.47.07-.91.15-1.82.21-2.72q.2-3.37.38-6.75l.24-4.22c.1-1.69.7-2.29,2.39-2.35,1,0,2.1,0,3.12,0h.65A2.1,2.1,0,0,1,73,62.66l.21,3.47Q73.52,72,73.88,78c0,.29,0,.58.07.87S74,79.58,74,80c0,.72.3,1,1.14,1h0c.69,0,.89-.22.94-1,.17-2.69.35-5.39.53-8.08q.3-4.32.57-8.64c.13-2.2.64-2.71,2.72-2.76,1.25,0,2.26,0,3.2,0,1.78.06,2.4.64,2.52,2.4.23,3.44.43,6.87.62,10.09.15,2.68.25,4.73.33,6.65,0,1,.34,1.34,1.25,1.34h0c.87,0,.89-.39.94-1.14v-.15c.17-2.67.34-5.35.52-8l.6-9.13a1.87,1.87,0,0,1,1.94-2c1.3-.06,2.68-.06,4.35,0a1.9,1.9,0,0,1,2,2l.18,2.31c.09,1.2.19,2.4.26,3.6l0,.67c.22,3.52.44,7.15.58,10.74,0,.93.33,1.21,1.21,1.18a3.26,3.26,0,0,1,2.73,1.72,4.25,4.25,0,0,1,.08,4.34,4.71,4.71,0,0,0-.61,2.48q0,4.23,0,8.44v3.72c0,1.91,0,1.91,1.83,1.95a9.7,9.7,0,0,1,1.8.18,1.41,1.41,0,0,1,1.27,1.57,1.46,1.46,0,0,1-1.44,1.43A8.61,8.61,0,0,1,105.21,106.79Zm-.61-.5h.31a10.55,10.55,0,0,0,1.26,0,1,1,0,0,0,1-1,.93.93,0,0,0-.88-1.05,9.54,9.54,0,0,0-1.68-.17c-2.24,0-2.35-.16-2.35-2.45V97.9q0-4.22,0-8.43a6.28,6.28,0,0,1,0-.89,1.67,1.67,0,0,1-.89.44,8.39,8.39,0,0,1-1.58.1h0a1.62,1.62,0,0,1,.2.91c0,4,0,8.11,0,12.59a1.45,1.45,0,0,1-.36,1.11,1.43,1.43,0,0,1-1.11.33c-.58,0-1.16,0-1.73,0H51.34c-2.3,0-2.41-.11-2.41-2.41,0-1.09,0-2.17,0-3.26,0-2.54,0-5.16,0-7.73A1.71,1.71,0,0,1,51,88.59h0c11.65,0,30.12,0,43.6,0h1.67a1.64,1.64,0,0,1,0-2.25H49.33c-1,0-1.64-.52-1.66-1.37s.56-1.36,1.57-1.51a7.46,7.46,0,0,1,1.15,0H98.45a5.87,5.87,0,0,1,1.25.07c.39.07,1.58.29,1.44,1.58a1.41,1.41,0,0,1-.34.8,5.51,5.51,0,0,1,.57.06,1.51,1.51,0,0,1,1.34,1.21,3.17,3.17,0,0,1,.21-.41,3.77,3.77,0,0,0-.06-3.84,2.73,2.73,0,0,0-2.29-1.48c-1.2,0-1.68-.46-1.73-1.66-.14-3.58-.36-7.22-.58-10.73l0-.67c-.07-1.2-.17-2.4-.26-3.6l-.18-2.3A1.4,1.4,0,0,0,96.27,61c-1.66,0-3,0-4.32,0-.94,0-1.4.52-1.46,1.52l-.6,9.13c-.18,2.68-.36,5.35-.53,8v.14c0,.75-.1,1.59-1.44,1.61h0c-1.49,0-1.73-.92-1.76-1.82-.08-1.92-.18-4-.33-6.64-.19-3.22-.39-6.65-.62-10.09-.11-1.5-.5-1.88-2-1.93-.92,0-1.93,0-3.17,0-1.8,0-2.12.36-2.23,2.29-.18,2.88-.38,5.76-.57,8.64-.18,2.7-.36,5.39-.53,8.09,0,.75-.26,1.45-1.44,1.46-.74,0-1.62-.16-1.66-1.43,0-.38-.05-.75-.08-1.12s-.06-.59-.08-.89q-.36-5.91-.71-11.82l-.21-3.47A1.6,1.6,0,0,0,70.69,61H70c-1,0-2.07,0-3.1,0-1.41,0-1.82.46-1.91,1.88l-.24,4.22q-.18,3.38-.39,6.75c-.05.91-.13,1.82-.21,2.73-.09,1.13-.19,2.3-.25,3.46s-3.3,1.42-8.15,1.4c-.51,0-.92,0-1.06,0a1.27,1.27,0,0,1-1-.26,1.65,1.65,0,0,1-.38-1.26c0-3.84-.09-7.95-.26-12.57-.13-4-.2-8.13-.26-12.09q0-3.13-.1-6.27c0-1.54-.41-1.92-1.93-1.94H44.67c-1.19,0-1.67.47-1.77,1.74-.26,3-.28,6.16-.29,9.17,0,2.15,0,4.38-.13,6.57-.24,5.32-.29,10.74-.34,16,0,1.42,0,2.84,0,4.26a1.43,1.43,0,0,1-1.71,1.66c-2.93-.06-5.36-.06-7.66,0a4,4,0,0,0-3.41,1.92,3.12,3.12,0,0,0,0,3.1,9.07,9.07,0,0,1,.92,4.69c0,.66,0,1.31,0,2,0,1.3,0,2.65,0,4a2.23,2.23,0,0,1-.43,1.69,1.93,1.93,0,0,1-1.49.41,2.17,2.17,0,0,0-1.55.33,1,1,0,0,0-.25.83c0,1,.67,1,1.69,1h76.4Zm-6.94-2.74h.88a1,1,0,0,0,.75-.19,1,1,0,0,0,.21-.75c0-4.48,0-8.6,0-12.59a.94.94,0,0,0-.21-.75.66.66,0,0,0-.44-.16H94.57c-13.49,0-31.95,0-43.6,0h0a1.23,1.23,0,0,0-1.54,1.55c.06,2.59.05,5.21,0,7.75,0,1.09,0,2.17,0,3.26,0,1.91,0,1.91,1.91,1.91H97.66Zm2-14.93h.19a8.17,8.17,0,0,0,1.49-.09,1,1,0,0,0,.92-1.06,1,1,0,0,0-.95-1,7.11,7.11,0,0,0-1.31-.06H98l-.46,0c-1.29.09-1.26.89-1.26,1.15s.16.95,1.25,1.06l.26,0h.73a1.93,1.93,0,0,1,.34,0Zm-49.59-4.7a4.53,4.53,0,0,0-.74,0c-.52.07-1.15.31-1.14,1,0,.21,0,.84,1.18.88H98c.52,0,1,0,1.54,0,.89,0,1-.46,1.09-.83.06-.59-.23-.88-1-1a5.57,5.57,0,0,0-1.16-.06H50.05Zm-4.8,20.16h-.11a1.38,1.38,0,0,1-1-.37,1.85,1.85,0,0,1-.3-1.39v-.09c.24-6.28.35-12.66.47-18.84q.06-3.64.14-7.29.09-4,.2-8c.16-5.56.31-11.31.31-17a1.58,1.58,0,0,1,1.92-1.88H47c3.35,0,3.45.14,3.54,3.59l.58,21.81v1.51c0,1.16,0,2.36,0,3.54a1.87,1.87,0,0,1-.43,1.45,1.48,1.48,0,0,1-1.24.26,3.48,3.48,0,0,0-3.59,1.84,3.53,3.53,0,0,0,.43,4.08,2.1,2.1,0,0,1,.4,1.53v4.07c0,3.13,0,6.25,0,9.38a1.88,1.88,0,0,1-.39,1.44A1.55,1.55,0,0,1,45.25,104.08Zm1.52-54.35a1.51,1.51,0,0,0-1.06.26,1.58,1.58,0,0,0-.28,1.12c0,5.66-.15,11.41-.31,17-.07,2.67-.14,5.35-.2,8q-.08,3.65-.14,7.29c-.12,6.18-.23,12.57-.47,18.85v.09c0,.42,0,.82.16,1a1,1,0,0,0,.7.22,1.08,1.08,0,0,0,.82-.2,1.53,1.53,0,0,0,.24-1.08q0-4.68,0-9.38V88.84a1.64,1.64,0,0,0-.28-1.2A4.06,4.06,0,0,1,45.44,83a4,4,0,0,1,4.1-2.1,1,1,0,0,0,.83-.14,1.39,1.39,0,0,0,.27-1.06c0-1.19,0-2.4,0-3.56V74.87h0l0-.23L50,52.83c-.08-3.06-.08-3.06-3-3.1h-.22ZM33.92,104.07a1.57,1.57,0,0,1-1.14-.38,1.59,1.59,0,0,1-.36-1.18c0-.91,0-1.82,0-2.73V97.12c0-.66,0-1.32,0-2a2.86,2.86,0,0,1,.14-.94c-.37,0-.64,0-.77,0-1.15-.13-1.75-.77-1.65-1.75a1.47,1.47,0,0,1,1.54-1.36,1.23,1.23,0,0,1-.49-1.28,1.43,1.43,0,0,1,1.53-1.14h7.84a1.31,1.31,0,0,1,.95.32,2,2,0,0,1,0,2.29,1.23,1.23,0,0,1-.93.3c-.65,0-4.63,0-7,0a1.28,1.28,0,0,1,.47.75,1.7,1.7,0,0,1-.61,1.44c2,0,5.13,0,6.41,0h.54a1.47,1.47,0,0,1,1.07.36,1.36,1.36,0,0,1,.31,1c0,.85,0,1.73,0,2.57a43.47,43.47,0,0,1-.19,5,1.34,1.34,0,0,1-1.52,1.38h0c-1.66,0-3.85,0-6.07,0Zm-.82-9.85a2,2,0,0,0-.18.92c0,.66,0,1.32,0,2v2.66c0,.91,0,1.83,0,2.74a1.09,1.09,0,0,0,.22.82,1.25,1.25,0,0,0,.82.23c2.23,0,4.42,0,6.09,0,.72,0,1-.21,1-.94a42.34,42.34,0,0,0,.19-4.9c0-.85,0-1.72,0-2.59a.92.92,0,0,0-.17-.66,1,1,0,0,0-.71-.21h-.54C37.62,94.26,34.77,94.25,33.1,94.22Zm-.44-2.69H32c-1.1,0-1.29.49-1.33.92-.07.7.34,1.11,1.21,1.21l1,0a3.31,3.31,0,0,1,.25-.3c.4-.4.57-.75.52-1S33.22,91.79,32.66,91.53Zm2.06-2.4h-2c-.6,0-.95.25-1,.74s.13.75.75,1l.18.07.14,0c2,0,7.09,0,7.83,0a.76.76,0,0,0,.58-.16,1.15,1.15,0,0,0,.2-.81,1,1,0,0,0-.2-.76.79.79,0,0,0-.62-.18H34.72Zm34.56-7.6c-.4,0-.82,0-1.23-.09s-.65-.07-1-.08a1,1,0,0,1-.71-.28,1.13,1.13,0,0,1-.2-.85.57.57,0,0,0,0-.12v0l.24-3.6c.27-4,.53-7.92.78-11.81.06-1.06.53-1.52,1.55-1.52h0c1.27,0,1.49.73,1.54,1.53.15,2.56.33,5.12.5,7.68.1,1.37.19,2.74.28,4.11,0,.11,0,.32.09.59.29,1.72.54,3.6-.26,4.09A3.07,3.07,0,0,1,69.28,81.53Zm-2.6-1.44a1,1,0,0,1,0,.17.79.79,0,0,0,.07.49.55.55,0,0,0,.36.11c.33,0,.67,0,1,.08a4.07,4.07,0,0,0,2.53-.23c.58-.36.19-2.69,0-3.57-.05-.3-.09-.53-.1-.64l-.27-4.11c-.18-2.57-.36-5.13-.51-7.69,0-.82-.29-1.06-1-1.06h0c-.76,0-1,.25-1.06,1-.24,3.89-.5,7.78-.77,11.81Zm14,1.34A1.86,1.86,0,0,1,79.23,81a2,2,0,0,1-.36-1.58c.22-3,.4-6.1.58-9.08L79.78,65c0-.71.12-1.88,1.57-1.88h.17c.84,0,1.41.31,1.48,1.41.21,3.53.45,7,.65,10l.17,2.58c.07,2.27.09,3.21-.41,3.75s-1.15.47-2.46.51h-.3Zm.69-17.79c-.82,0-1,.45-1.06,1.42L80,70.37c-.18,3-.36,6.06-.58,9.09a1.55,1.55,0,0,0,.23,1.19c.19.21.57.3,1.19.28h.14c1.18,0,1.83-.05,2.12-.36s.33-1.38.27-3.38l-.17-2.57c-.2-3-.44-6.51-.65-10,0-.7-.25-.89-1-.94ZM94.1,81.4h-.39c-1,0-1.53,0-1.84-.33s-.29-.84-.24-1.89c.14-2.47.29-5,.44-7.42s.29-4.75.42-7.12c.07-1.3.89-1.48,1.76-1.49h0c1,0,1.39.41,1.44,1.42.2,3.49.43,6.94.64,10.27l.21,3.23c0,1.7.06,2.47-.38,2.92S95.22,81.4,94.1,81.4Zm.19-17.75h0c-.84,0-1.22.15-1.27,1q-.19,3.56-.42,7.12c-.15,2.47-.31,4.94-.44,7.42,0,.83-.06,1.34.1,1.51s.66.18,1.48.18c1.2,0,1.86,0,2.12-.26s.27-1.1.24-2.55l-.21-3.21c-.21-3.34-.44-6.79-.64-10.29C95.18,63.86,95,63.65,94.29,63.65Z"/><path class="cls-1" d="M104.72,38.38c-.07-3-2.45-6.82-6.94-9.06-4.68-2.35-9.27-1.7-13.47,1.43-1.79,1.34-1.75,1.39-3.6.1a8.45,8.45,0,0,0-10.79.66,3,3,0,0,1-3.61.67,6.1,6.1,0,0,0-7.84,3.54c-.73,1.69-1,1.82-2.72,1.34a2.91,2.91,0,0,0-3.9,2.14c-.34,1.31-1,2-2.35,1.58a1.23,1.23,0,0,0-1.63,1c-.27.88-.73,1.57-1.76,1.19s-1-1.17-.81-2a3.54,3.54,0,0,1,3-2.9,1.94,1.94,0,0,0,1.55-1.09,5.11,5.11,0,0,1,5-2.71,1.68,1.68,0,0,0,1.83-1,8.61,8.61,0,0,1,9.76-3.87A2.25,2.25,0,0,0,68.77,29c4-3.05,8.26-3.12,12.62-.9a1.83,1.83,0,0,0,2.2-.12,15.29,15.29,0,1,1,11.5,27.61c-6,1.12-10.92-.88-14.8-5.5a2.09,2.09,0,0,0-2.44-.79,10.46,10.46,0,0,1-8.87-2,2.84,2.84,0,0,0-2.76-.55,7.89,7.89,0,0,1-7-1.34,1.59,1.59,0,0,0-2.06-.19,4.25,4.25,0,0,1-2.22.54,1.33,1.33,0,0,1-1.45-1.15,1.21,1.21,0,0,1,1.07-1.47,5.08,5.08,0,0,0,2.69-1.3,1.37,1.37,0,0,1,2.16.12c2.23,2.48,4.88,2.89,7.87,1.64a1.65,1.65,0,0,1,2,.42,8.94,8.94,0,0,0,10,2.12c1.19-.45,1.81.26,2.34,1.13a11.77,11.77,0,0,0,7.08,5.38C96.87,54.92,104.74,49,104.72,38.38Z"/><path class="cls-1" d="M91.92,56.1c-4.56,0-8.53-2-11.82-5.9a1.88,1.88,0,0,0-2.2-.71,10.69,10.69,0,0,1-9.07-2.08,2.61,2.61,0,0,0-2.55-.51,8.15,8.15,0,0,1-7.21-1.38c-.71-.53-1.14-.57-1.77-.18a4.4,4.4,0,0,1-2.36.58h0a1.55,1.55,0,0,1-1.66-1.36,1.49,1.49,0,0,1,.23-1.15,1.56,1.56,0,0,1,1-.61,4.82,4.82,0,0,0,2.56-1.24A1.68,1.68,0,0,1,58.36,41a1.8,1.8,0,0,1,1.24.67c2.08,2.32,4.57,2.84,7.59,1.58a1.88,1.88,0,0,1,2.23.47,8.76,8.76,0,0,0,9.74,2.07c1.35-.51,2.06.29,2.63,1.23a12.1,12.1,0,0,0,17.35,3.48c3.4-2.56,5.34-7,5.33-12.15-.07-2.74-2.2-6.53-6.8-8.84S88.74,27.76,84.46,31l-.15.11c-1.73,1.3-1.87,1.3-3.74,0a8.21,8.21,0,0,0-10.49.65,3.25,3.25,0,0,1-3.86.71,5.85,5.85,0,0,0-7.52,3.41c-.78,1.8-1.17,2-3,1.48a3,3,0,0,0-2.34.19,2.77,2.77,0,0,0-1.24,1.77,2.54,2.54,0,0,1-1,1.66,2.11,2.11,0,0,1-1.65.1c-.42-.11-1-.15-1.32.84a2.09,2.09,0,0,1-.93,1.35,1.43,1.43,0,0,1-1.15,0c-.66-.24-1.36-.84-1-2.35a3.77,3.77,0,0,1,3.24-3.08,1.75,1.75,0,0,0,1.37-1A5.35,5.35,0,0,1,55,34a1.45,1.45,0,0,0,1.6-.85,8.89,8.89,0,0,1,10-4,2,2,0,0,0,2-.38c3.89-3,8.23-3.3,12.88-.93a1.59,1.59,0,0,0,2-.11,15.55,15.55,0,0,1,24,16.21A15.35,15.35,0,0,1,95.14,55.79,17.19,17.19,0,0,1,91.92,56.1ZM78.64,48.9a2.25,2.25,0,0,1,1.84,1C84.4,54.55,89.3,56.37,95,55.3A15,15,0,1,0,83.73,28.13a2.07,2.07,0,0,1-2.46.14c-4.46-2.27-8.62-2-12.35.88a2.5,2.5,0,0,1-2.47.47A8.38,8.38,0,0,0,57,33.38a2,2,0,0,1-2.07,1.09,4.89,4.89,0,0,0-4.82,2.58,2.2,2.2,0,0,1-1.72,1.22A3.32,3.32,0,0,0,45.54,41c-.32,1.25.22,1.6.66,1.76a1,1,0,0,0,.76,0,1.69,1.69,0,0,0,.67-1,1.47,1.47,0,0,1,1.93-1.17,1.67,1.67,0,0,0,1.27,0,2.06,2.06,0,0,0,.78-1.35,3.24,3.24,0,0,1,1.48-2.08,3.49,3.49,0,0,1,2.72-.24c1.61.44,1.75.38,2.44-1.2A6.33,6.33,0,0,1,66.41,32a2.76,2.76,0,0,0,3.34-.62,8.68,8.68,0,0,1,11.11-.69c1.64,1.15,1.64,1.15,3.15,0l.15-.11c4.38-3.26,9.13-3.77,13.73-1.46,4.79,2.4,7,6.39,7.08,9.28h0c0,5.32-2,9.89-5.53,12.55a12.59,12.59,0,0,1-18.07-3.62c-.56-.92-1.08-1.39-2-1a9.2,9.2,0,0,1-10.25-2.17,1.41,1.41,0,0,0-1.7-.37c-3.19,1.34-5.94.76-8.16-1.71a1.26,1.26,0,0,0-.89-.5,1.34,1.34,0,0,0-.92.4,5.27,5.27,0,0,1-2.81,1.36,1.1,1.1,0,0,0-.71.41,1,1,0,0,0-.15.78,1.06,1.06,0,0,0,1.19.94,4,4,0,0,0,2.1-.5,1.81,1.81,0,0,1,2.34.2,7.68,7.68,0,0,0,6.78,1.3,3.07,3.07,0,0,1,3,.59,10.18,10.18,0,0,0,8.67,2A4.54,4.54,0,0,1,78.64,48.9Z"/><path class="cls-1" d="M66.61,95.52c0,.88-.08,1.77-.15,2.66-.13,1.84-.56,3.24-1.7,3.23S63.2,100,63.05,98.16a32.83,32.83,0,0,1,0-5.34c.15-1.84.56-3.23,1.72-3.22s1.56,1.4,1.69,3.24C66.53,93.72,66.56,94.61,66.61,95.52Z"/><path class="cls-1" d="M64.76,101.66h0c-1.49,0-1.82-2-2-3.48a33.33,33.33,0,0,1,0-5.38c.12-1.48.45-3.45,2-3.45h0c1.52,0,1.84,2,1.94,3.47.05.62.08,1.23.11,1.86l0,.85,0,.83c0,.61-.06,1.23-.11,1.83C66.65,99.05,66.46,101.66,64.76,101.66Zm0-11.81c-.83,0-1.29,1-1.46,3a33.49,33.49,0,0,0,0,5.3c.17,2.06.63,3,1.46,3h0c.83,0,1.31-1,1.45-3,.05-.61.08-1.21.11-1.82l0-.82,0-.82c0-.62-.06-1.23-.11-1.84-.14-2-.6-3-1.45-3Z"/><path class="cls-1" d="M53.47,95.37c0,.79,0,1.58,0,2.37,0,1.86-.29,3.44-1.45,3.65s-1.8-1.22-1.91-3.24a50,50,0,0,1,0-5.05c.09-1.95.53-3.56,1.79-3.49s1.59,1.73,1.6,3.73Z"/><path class="cls-1" d="M51.77,101.66a1.34,1.34,0,0,1-.84-.29c-.63-.49-1-1.57-1.08-3.2a50.57,50.57,0,0,1,0-5.08c.08-1.73.4-2.83,1-3.36a1.43,1.43,0,0,1,1.06-.37c1.61.1,1.82,2.18,1.83,4v4.4c0,1.54-.17,3.62-1.65,3.89Zm0-11.8a.92.92,0,0,0-.63.24c-.48.44-.76,1.45-.83,3a49.58,49.58,0,0,0,0,5c.08,1.44.39,2.45.89,2.84a.87.87,0,0,0,.73.16c.83-.15,1.24-1.27,1.24-3.4v-4.4c0-2.35-.43-3.42-1.36-3.48Z"/><path class="cls-1" d="M37.71,99.22v1.19c0,.93-.29,1.72-1.45,1.82a1.61,1.61,0,0,1-1.91-1.62,12.48,12.48,0,0,1,0-2.52c.09-1,.53-1.78,1.79-1.75s1.59.87,1.59,1.87C37.72,98.55,37.72,98.89,37.71,99.22Z"/><path class="cls-1" d="M36,102.49a1.84,1.84,0,0,1-1.92-1.85,13,13,0,0,1,0-2.57c.12-1.33.81-2,2.05-2A1.82,1.82,0,0,1,38,98.21v2.2c0,1.27-.56,2-1.67,2.07Zm0-5.9c-.9,0-1.37.49-1.46,1.52a12.07,12.07,0,0,0,0,2.48A1.37,1.37,0,0,0,36.24,102c.86-.07,1.22-.55,1.22-1.57v-2.2c0-1.12-.39-1.59-1.34-1.62Z"/><path class="cls-1" d="M76.05,95.56V93.87c0-2,.07-4,1.49-4.24s1.86,1.76,1.93,4c0,1.57,0,3.16-.06,4.72-.12,1.87-.66,3.21-1.8,3.1s-1.53-1.56-1.55-3.47c0-.79,0-1.58,0-2.37Z"/><path class="cls-1" d="M77.74,101.66h-.15c-1.18-.11-1.76-1.33-1.78-3.72,0-.55,0-1.1,0-1.66v-2.4c0-1.79,0-4.25,1.71-4.49a1.49,1.49,0,0,1,1.15.31c.66.56,1,1.76,1.06,3.88.06,1.65,0,3.24-.06,4.74a4.3,4.3,0,0,1-1,3A1.31,1.31,0,0,1,77.74,101.66ZM76.3,95.31h0v1c0,.56,0,1.11,0,1.66,0,2.08.45,3.14,1.32,3.22a.83.83,0,0,0,.69-.21,4.08,4.08,0,0,0,.84-2.66c.09-1.49.12-3.06.06-4.69-.06-1.92-.35-3.07-.88-3.51a.88.88,0,0,0-.76-.2c-1.18.16-1.28,2-1.28,4Z"/><path class="cls-1" d="M89,95.59V93.9c0-2.18.13-4.28,1.66-4.27s1.71,2.14,1.78,4.26a39.06,39.06,0,0,1,0,4c-.12,2-.57,3.56-1.82,3.45S89,99.62,89,97.62Z"/><path class="cls-1" d="M90.67,101.65h-.14c-1.62-.14-1.81-2.36-1.81-4V93.9c0-1.57,0-3.32.83-4.1a1.39,1.39,0,0,1,1.09-.42c1.73,0,2,2.33,2,4.5,0,1.52,0,2.85,0,4.08-.1,1.74-.45,2.84-1.05,3.35A1.31,1.31,0,0,1,90.67,101.65Zm0-11.77a1,1,0,0,0-.72.28c-.61.61-.69,2.16-.68,3.74v3.72c0,2.32.43,3.45,1.35,3.52a.86.86,0,0,0,.68-.21c.48-.41.78-1.43.87-3,.08-1.2.09-2.52,0-4-.08-2.41-.37-4-1.53-4Z"/><path class="cls-1" d="M60.05,95.9c-.08,2,.3,5.43-1.76,5.4s-1.67-3.41-1.74-5.91c0-.45,0-.9,0-1.35,0-2.17.22-4.3,1.67-4.39s1.81,2.14,1.83,4.44C60.06,94.54,60.05,95,60.05,95.9Z"/><path class="cls-1" d="M58.31,101.55h0c-2,0-2-2.63-2-4.93,0-.42,0-.83,0-1.22s0-.64,0-1V94c0-2.35.26-4.54,1.91-4.64a1.49,1.49,0,0,1,1.13.4c.82.76.95,2.51,1,4.29v1.82c0,.33,0,.69,0,1.07,0,1.55,0,3.32-.85,4.13A1.54,1.54,0,0,1,58.31,101.55Zm0-11.65h-.08C57,90,56.81,92,56.8,94v.4c0,.32,0,.63,0,.94s0,.82,0,1.24c0,2.58.1,4.41,1.48,4.43a1.17,1.17,0,0,0,.8-.29c.68-.67.69-2.4.7-3.79,0-.38,0-.74,0-1.07V94.1c0-1.59-.12-3.3-.8-3.94A1,1,0,0,0,58.32,89.9Z"/><path class="cls-1" d="M73,95.59c0,.68,0,1.35,0,2,0,2-.43,3.67-1.65,3.76s-1.77-1.63-1.83-3.77c0-1.45,0-2.92,0-4.38.06-2,.51-3.6,1.73-3.6s1.67,1.59,1.73,3.61C73,94,73,94.8,73,95.59Z"/><path class="cls-1" d="M71.2,101.62a1.38,1.38,0,0,1-1-.37c-.62-.57-1-1.76-1-3.64,0-1.53,0-3,0-4.4.07-2.54.74-3.84,2-3.84h0c1.23,0,1.9,1.3,2,3.85,0,.53,0,1.06,0,1.58v1.35c0,.49,0,1,0,1.47-.07,2.6-.68,3.91-1.88,4Zm0-11.75c-1.14,0-1.43,1.83-1.48,3.36,0,1.37,0,2.85,0,4.37,0,1.71.32,2.82.83,3.28a.92.92,0,0,0,.72.24c.89-.07,1.36-1.25,1.42-3.51,0-.48,0-1,0-1.45V94.8c0-.52,0-1,0-1.56-.07-2.23-.57-3.36-1.48-3.37Z"/><path class="cls-1" d="M85.87,95.63c0,.79,0,1.58,0,2.36-.08,1.89-.53,3.32-1.65,3.39s-1.72-1.48-1.79-3.48c-.06-1.57-.06-3.15,0-4.72.07-2,.52-3.59,1.76-3.55s1.65,1.62,1.7,3.64c0,.79,0,1.58,0,2.36Z"/><path class="cls-1" d="M84.13,101.63a1.4,1.4,0,0,1-1-.37c-.59-.54-.93-1.67-1-3.35-.06-1.5-.06-3.09,0-4.74a7.58,7.58,0,0,1,.46-2.63,1.63,1.63,0,0,1,1.56-1.16c1.22,0,1.87,1.35,1.94,3.88,0,.55,0,1.1,0,1.64v1.46c0,.54,0,1.1,0,1.64-.1,2.34-.73,3.56-1.89,3.63Zm0-11.75c-.45,0-.79.28-1,.86a7.28,7.28,0,0,0-.42,2.45c0,1.63,0,3.22,0,4.7s.34,2.56.83,3a.86.86,0,0,0,.69.24c1.07-.06,1.36-1.75,1.42-3.15,0-.53,0-1.08,0-1.61V94.9q0-.81,0-1.62c-.06-2.23-.55-3.37-1.46-3.4Z"/><path class="cls-1" d="M98.79,95.59c0,.68,0,1.35,0,2,0,2-.42,3.63-1.64,3.76s-1.69-1.52-1.8-3.46c-.08-1.56-.07-3.15,0-4.71.07-2,.51-3.6,1.74-3.57s1.66,1.58,1.71,3.61C98.8,94,98.79,94.81,98.79,95.59Z"/><path class="cls-1" d="M97,101.63a1.31,1.31,0,0,1-.86-.32c-.61-.52-1-1.62-1.05-3.39-.07-1.39-.08-2.94,0-4.73.09-2.53.75-3.81,2-3.81h0c1.23,0,1.89,1.32,2,3.85,0,.52,0,1,0,1.56v2.83c0,2.56-.65,3.87-1.86,4Zm0-11.75c-1.12,0-1.42,1.8-1.47,3.33-.06,1.77,0,3.31,0,4.68.11,2,.53,2.75.87,3a.78.78,0,0,0,.66.19c.9-.09,1.37-1.28,1.41-3.51V94.79c0-.51,0-1,0-1.55,0-2.21-.54-3.35-1.46-3.36Z"/><path class="cls-2" d="M68.88,137.76a68.88,68.88,0,1,1,68.88-68.88A69,69,0,0,1,68.88,137.76ZM68.88,4a64.88,64.88,0,1,0,64.88,64.88A64.95,64.95,0,0,0,68.88,4Z"/></svg>