<svg id="Слой_1" data-name="Слой 1" xmlns="http://www.w3.org/2000/svg" viewBox="0 0 137.76 137.76"><defs><style>.cls-1{fill:#00adad;}.cls-2{fill:#737373;}</style></defs><path class="cls-1" d="M68.88,137.76a68.88,68.88,0,1,1,68.88-68.88A69,69,0,0,1,68.88,137.76ZM68.88,4a64.88,64.88,0,1,0,64.88,64.88A64.95,64.95,0,0,0,68.88,4Z"/><path class="cls-2" d="M62.08,50.05c.3.12.61.23.9.38a9.69,9.69,0,0,0,5.85,1.13h.46a10,10,0,0,0,2.79-.09c1.38-.45,2.71-1.06,4.06-1.62.4-.17.88-1.27.63-1.57a4,4,0,0,1-.53-1.85,7.65,7.65,0,0,0-4-5.48c-.74-.37-.86-.3-.86.51s0,1.74,0,2.61a3.33,3.33,0,0,1-.61,1.9A2.15,2.15,0,0,1,67,46a3.39,3.39,0,0,1-.58-1.84c0-.83,0-1.66,0-2.48,0-1-.12-1.08-1-.61l-.33.2a7.86,7.86,0,0,0-3.68,5.6,5.43,5.43,0,0,1-.21,1.08C60.74,49,61,49.59,62.08,50.05Z"/><path class="cls-2" d="M75.82,51.93c0-.77-.11-.86-.8-.57a7.67,7.67,0,0,0-.78.34,10.38,10.38,0,0,1-5.07,1.12,13,13,0,0,1-6.41-1.28c-.74-.39-.84-.29-.83.56a6.95,6.95,0,0,0,13.89-.17Z"/><path class="cls-2" d="M81.18,73.76q0-3.08,0-6.15A7.18,7.18,0,0,0,81,65.94c-.07-.29-.14-.4-.21-.39a5.24,5.24,0,0,0-.26-.76,8.68,8.68,0,0,0-5.77-5.3l-.17.17a2.72,2.72,0,0,1,.25.11,5.47,5.47,0,0,1,2.54,5c0,2.48,0,5,0,7.44,0,1.11,0,2.22,0,3.33a.93.93,0,0,0,0,.31,1,1,0,0,1-.93.29c-.19,0-.47-.33-.78-.73,0-3.69,0-7.38,0-11.07a3.47,3.47,0,0,0-1.4-2.89c-.17-.13-.34-.34-.56-.26s-.17.37-.17.57c0,1,0,2,0,2.94a3.55,3.55,0,0,1-3.49,3.45c-.73,0-1.47,0-2.21,0a3.53,3.53,0,0,1-3.61-3.58c0-.92,0-1.83,0-2.74,0-.22.11-.54-.17-.64s-.43.15-.61.3a3.6,3.6,0,0,0-1.36,3c0,1.87,0,3.74,0,5.61v5.46c-.24.34-.46.58-.63.6a1.63,1.63,0,0,1-1.07-.25,2.12,2.12,0,0,0,0-.59c0-3.66,0-7.31,0-11a5.39,5.39,0,0,1,1.28-3.54c.4-.49.94-.82,1.35-1.34l-.31.07a8.81,8.81,0,0,0-6,7.06l0,.3c0-.08-.08.1-.09.68,0,.3,0,.61,0,.92,0,.9,0,1.8,0,2.69,0,2.54,0,5.09,0,7.62A4.53,4.53,0,0,0,57.29,81c1.08,1.8,2.3,3.51,3.4,5.29A3.28,3.28,0,0,1,61.18,88q.06,7.92,0,15.84c0,1,.3,1.34,1.29,1.33q6.41-.06,12.8,0c1,0,1.3-.38,1.28-1.34,0-2.62,0-5.24,0-7.86s0-5.17,0-7.76a4.47,4.47,0,0,1,.63-2.06c1.1-1.82,2.34-3.56,3.47-5.38a3.46,3.46,0,0,0,.5-1.66c0-1.5,0-3,0-4.5v-.81Z"/><path class="cls-2" d="M66,64.91a1.75,1.75,0,0,0,1.8,1.54c.77,0,1.53,0,2.29,0a1.72,1.72,0,0,0,1.76-1.51,26.15,26.15,0,0,0,.09-3.19,3.87,3.87,0,0,0-.6-2.17.69.69,0,0,0-.67-.4H67.17a.78.78,0,0,0-.73.43,5.3,5.3,0,0,0-.56,3.22A13.29,13.29,0,0,0,66,64.91Z"/><path class="cls-2" d="M69,45.46c.65,0,1.15-.58,1.23-1.48a16.57,16.57,0,0,0,.07-1.73c0-1.62,0-1.62-1.33-1.62H68c-.27,0-.39.14-.39.44a19.88,19.88,0,0,0,.07,3C67.77,45,68.26,45.47,69,45.46Z"/><path class="cls-2" d="M89.06,42.05c.3.12.61.23.91.38a9.66,9.66,0,0,0,5.85,1.13h.46a10,10,0,0,0,2.79-.09c1.38-.45,2.71-1.06,4.05-1.62.4-.17.88-1.27.64-1.57a4,4,0,0,1-.54-1.85,7.61,7.61,0,0,0-4-5.48c-.74-.37-.86-.3-.87.51s0,1.74,0,2.61a3.32,3.32,0,0,1-.6,1.9A2.16,2.16,0,0,1,94,38a3.38,3.38,0,0,1-.57-1.84c0-.83,0-1.66,0-2.48,0-1-.11-1.08-1-.61a3.79,3.79,0,0,0-.34.2,7.86,7.86,0,0,0-3.68,5.6,5.43,5.43,0,0,1-.2,1.08C87.72,41,87.94,41.59,89.06,42.05Z"/><path class="cls-2" d="M102.8,43.93c0-.77-.11-.86-.8-.57a6.65,6.65,0,0,0-.77.34,10.43,10.43,0,0,1-5.07,1.12,13,13,0,0,1-6.42-1.28c-.74-.39-.83-.29-.82.56a6.94,6.94,0,0,0,13.88-.17Z"/><path class="cls-2" d="M108.17,65.76c0-2.05,0-4.1,0-6.15a7.77,7.77,0,0,0-.18-1.67c-.06-.29-.13-.4-.2-.39-.08-.26-.16-.51-.26-.76a8.72,8.72,0,0,0-5.78-5.3l-.16.17a1.75,1.75,0,0,1,.24.11,5.45,5.45,0,0,1,2.54,5c0,2.48,0,5,0,7.44,0,1.11,0,2.22,0,3.33a1.3,1.3,0,0,0,0,.31,1,1,0,0,1-.92.29c-.2,0-.47-.33-.78-.73,0-3.69,0-7.38,0-11.07a3.48,3.48,0,0,0-1.39-2.89c-.18-.13-.34-.34-.57-.26s-.16.37-.16.57c0,1,0,2,0,2.94A3.55,3.55,0,0,1,97,60.19c-.74,0-1.48,0-2.22,0a3.54,3.54,0,0,1-3.61-3.58c0-.92,0-1.83,0-2.74,0-.22.12-.54-.16-.64s-.43.15-.62.3a3.62,3.62,0,0,0-1.35,3c0,1.87,0,3.74,0,5.61s0,3.64,0,5.46c-.23.34-.45.58-.63.6a1.6,1.6,0,0,1-1.06-.25,2.22,2.22,0,0,0,0-.59c0-3.66,0-7.31,0-11a5.33,5.33,0,0,1,1.27-3.54c.41-.49.94-.82,1.35-1.34l-.3.07a8.81,8.81,0,0,0-6,7.06c0,.1,0,.2,0,.3-.06-.08-.09.1-.1.68v.92c0,.9,0,1.8,0,2.69,0,2.54,0,5.09,0,7.62A4.64,4.64,0,0,0,84.27,73c1.08,1.8,2.31,3.51,3.41,5.29A3.37,3.37,0,0,1,88.16,80q.06,7.92,0,15.84c0,1,.29,1.34,1.28,1.33q6.4-.06,12.81,0c1,0,1.29-.38,1.27-1.34,0-2.62,0-5.24,0-7.86s0-5.17,0-7.76a4.45,4.45,0,0,1,.62-2.06c1.11-1.82,2.35-3.56,3.47-5.38a3.36,3.36,0,0,0,.5-1.66c0-1.5,0-3,0-4.5,0,0,0,0,0-.07Z"/><path class="cls-2" d="M92.94,56.91a1.76,1.76,0,0,0,1.81,1.54c.76,0,1.52,0,2.28,0a1.72,1.72,0,0,0,1.76-1.51,24.28,24.28,0,0,0,.09-3.19,3.86,3.86,0,0,0-.59-2.17.7.7,0,0,0-.68-.4H94.15a.77.77,0,0,0-.72.43,5.3,5.3,0,0,0-.57,3.22A13.29,13.29,0,0,0,92.94,56.91Z"/><path class="cls-2" d="M95.93,37.46c.66,0,1.15-.58,1.24-1.48,0-.57.06-1.15.07-1.73,0-1.62,0-1.62-1.34-1.62h-1c-.26,0-.39.14-.39.44a21.29,21.29,0,0,0,.08,3C94.76,37,95.24,37.47,95.93,37.46Z"/><path class="cls-2" d="M35.09,42.05a9.17,9.17,0,0,1,.91.38,9.66,9.66,0,0,0,5.85,1.13h.46a10,10,0,0,0,2.79-.09c1.38-.45,2.71-1.06,4-1.62.41-.17.88-1.27.64-1.57a3.87,3.87,0,0,1-.53-1.85,7.65,7.65,0,0,0-4-5.48c-.74-.37-.86-.3-.87.51s0,1.74,0,2.61a3.32,3.32,0,0,1-.6,1.9A2.15,2.15,0,0,1,40,38a3.31,3.31,0,0,1-.58-1.84c0-.83,0-1.66,0-2.48,0-1-.11-1.08-1-.61l-.34.2a7.86,7.86,0,0,0-3.68,5.6,5.43,5.43,0,0,1-.2,1.08C33.76,41,34,41.59,35.09,42.05Z"/><path class="cls-2" d="M48.84,43.93c0-.77-.12-.86-.81-.57a6.65,6.65,0,0,0-.77.34,10.38,10.38,0,0,1-5.07,1.12,13,13,0,0,1-6.42-1.28c-.74-.39-.83-.29-.82.56a6.95,6.95,0,0,0,13.89-.17Z"/><path class="cls-2" d="M54.2,65.76c0-2.05,0-4.1,0-6.15A8.45,8.45,0,0,0,54,57.94c-.07-.29-.14-.4-.21-.39-.08-.26-.16-.51-.26-.76a8.72,8.72,0,0,0-5.78-5.3l-.16.17a1.75,1.75,0,0,1,.24.11,5.47,5.47,0,0,1,2.55,5c-.06,2.48,0,5,0,7.44,0,1.11,0,2.22,0,3.33a1.3,1.3,0,0,0,0,.31,1,1,0,0,1-.92.29c-.2,0-.47-.33-.78-.73,0-3.69,0-7.38,0-11.07a3.48,3.48,0,0,0-1.39-2.89c-.17-.13-.34-.34-.57-.26s-.16.37-.16.57c0,1,0,2,0,2.94a3.54,3.54,0,0,1-3.48,3.45c-.74,0-1.48,0-2.22,0a3.54,3.54,0,0,1-3.61-3.58c0-.92,0-1.83,0-2.74,0-.22.11-.54-.17-.64s-.43.15-.62.3a3.62,3.62,0,0,0-1.35,3c0,1.87,0,3.74,0,5.61s0,3.64,0,5.46c-.23.34-.45.58-.63.6a1.6,1.6,0,0,1-1.06-.25,2.12,2.12,0,0,0,.05-.59c0-3.66,0-7.31,0-11a5.29,5.29,0,0,1,1.28-3.54c.4-.49.94-.82,1.34-1.34l-.3.07a8.82,8.82,0,0,0-6,7.06c0,.1,0,.2,0,.3-.06-.08-.09.1-.09.68,0,.3,0,.61,0,.92,0,.9,0,1.8,0,2.69,0,2.54,0,5.09,0,7.62A4.51,4.51,0,0,0,30.3,73c1.08,1.8,2.31,3.51,3.41,5.29A3.48,3.48,0,0,1,34.2,80c0,5.28,0,10.56,0,15.84,0,1,.3,1.34,1.28,1.33q6.41-.06,12.81,0c1,0,1.29-.38,1.27-1.34,0-2.62,0-5.24,0-7.86s0-5.17,0-7.76a4.45,4.45,0,0,1,.62-2.06c1.11-1.82,2.35-3.56,3.47-5.38a3.26,3.26,0,0,0,.5-1.66c0-1.5,0-3,0-4.5,0,0,0,0,0-.07Z"/><path class="cls-2" d="M39,56.91a1.76,1.76,0,0,0,1.81,1.54c.76,0,1.52,0,2.28,0a1.72,1.72,0,0,0,1.76-1.51,26.16,26.16,0,0,0,.1-3.19,4,4,0,0,0-.6-2.17.7.7,0,0,0-.68-.4H40.18a.78.78,0,0,0-.72.43,5.38,5.38,0,0,0-.57,3.22A14.61,14.61,0,0,0,39,56.91Z"/><path class="cls-2" d="M42,37.46c.66,0,1.15-.58,1.24-1.48,0-.57.07-1.15.07-1.73,0-1.62,0-1.62-1.33-1.62H41c-.26,0-.38.14-.39.44a21.29,21.29,0,0,0,.08,3C40.79,37,41.28,37.47,42,37.46Z"/></svg>