<svg id="Слой_1" data-name="Слой 1" xmlns="http://www.w3.org/2000/svg" viewBox="0 0 137.76 137.76"><defs><style>.cls-1{fill:#737373;}.cls-2{fill:#00adad;}</style></defs><path class="cls-1" d="M66.17,81.67H108.4a12,12,0,0,1,1.59.06,1.55,1.55,0,0,1,1.49,1.65v12.3a1.49,1.49,0,0,1-1.39,1.58,9.9,9.9,0,0,1-1.72.14h-75a11.1,11.1,0,0,1-1.73-.12,1.56,1.56,0,0,1-1.45-1.68V83.45c0-1,.52-1.77,1.42-1.67,3.14.33,5.39-1.56,7.81-3q17.22-10,34.39-20l.89-.56a2.27,2.27,0,0,0-1.47-.17H33.13c-2.67,0-3-.29-3-3,0-3.48,0-6.95,0-10.42,0-1.68.45-2.12,2.12-2.25.48,0,1,0,1.45,0h74.13c3.48,0,3.61.13,3.61,3.53s0,6.75,0,10.12c0,1.24-.57,2.15-1.75,2-3.67-.52-6.34,1.6-9.17,3.24Q84.17,70.73,67.81,80.3c-.58.33-1.15.69-1.72,1Zm4.52,12.75h35.9c2.11,0,2.11,0,2.11-2.17s0-4,0-6.08c0-.75,0-1.59-1-1.46-.91.12-2.28-.69-2.54,1-.11.79-.48,1.26-1.3,1.27s-1.19-.5-1.44-1.2c-.45-1.23-1.42-1.58-2.37-.72a1.66,1.66,0,0,1-2.61,0,1.38,1.38,0,0,0-2.42.8A1.24,1.24,0,0,1,93.68,87a1.46,1.46,0,0,1-1.44-1.19c-.42-1.24-1.32-1.57-2.33-.71a1.72,1.72,0,0,1-2.64,0c-1-.88-1.87-.55-2.34.76A1.43,1.43,0,0,1,83.61,87c-.81,0-1.19-.45-1.46-1.15-.5-1.34-1.38-1.6-2.47-.65a1.53,1.53,0,0,1-2.38,0c-1.06-.94-2-.68-2.5.61-.26.67-.62,1.21-1.43,1.21s-1.14-.58-1.4-1.25c-.44-1.16-1.36-1.5-2.3-.69a1.76,1.76,0,0,1-2.75,0,1.36,1.36,0,0,0-2.34.62c-.14.76-.42,1.29-1.24,1.33s-1.27-.49-1.53-1.25a1.36,1.36,0,0,0-2.41-.61,1.61,1.61,0,0,1-2.5,0c-1.11-1-2.1-.58-2.49.81a1.25,1.25,0,0,1-1.21,1,1.39,1.39,0,0,1-1.44-1c-.68-1.61-1.23-1.77-2.68-.69a1.4,1.4,0,0,1-2.06,0,2.16,2.16,0,0,0-1.7-.64c-3.66,0-7.33,0-11,0-1,0-1.38.35-1.36,1.35,0,2,0,4,0,6.08,0,2.31,0,2.32,2.25,2.32Zm.16-39.37h36.34c.83,0,1.54,0,1.52-1.18,0-2.46,0-4.92,0-7.38,0-.89-.39-1.18-1.23-1.17-3.76,0-7.52,0-11.29,0-.73,0-1.2.23-1.21,1.06a1.29,1.29,0,0,1-1.22,1.38c-.86.08-1.27-.53-1.51-1.28-.39-1.25-1.39-1.65-2.29-.78s-1.7,1-2.68,0a1.31,1.31,0,0,0-2.32.66c-.18.77-.53,1.41-1.39,1.42s-1.23-.6-1.46-1.36c-.38-1.24-1.41-1.57-2.36-.66a1.61,1.61,0,0,1-2.6,0c-1-.95-1.91-.68-2.31.62-.24.77-.63,1.34-1.48,1.34s-1.19-.65-1.41-1.4a1.29,1.29,0,0,0-2.28-.66c-1,1-1.72.89-2.7,0s-2.18-.51-2.38.67c-.15.85-.56,1.37-1.39,1.38S62,47.2,61.82,46.51c-.39-1.23-1.5-1.68-2.31-.82-1,1-1.7.92-2.68,0a1.36,1.36,0,0,0-2.4.79,1.36,1.36,0,0,1-1.35,1.26c-.76,0-1.17-.57-1.39-1.27-.41-1.31-1.39-1.65-2.38-.72a1.56,1.56,0,0,1-2.57-.06,1.31,1.31,0,0,0-2.33.63c-.18.77-.53,1.42-1.38,1.44s-1.24-.59-1.48-1.35c-.36-1.17-1.4-1.6-2.23-.78-1.08,1.07-1.85,1-2.94,0-.78-.71-2-.49-2.91-.2S33,46.72,33,47.39c-.05,1.88,0,3.76,0,5.64s0,2,2,2ZM40.7,81.44l.09.23c5.83,0,11.67,0,17.5,0A5.17,5.17,0,0,0,61,80.94q17.85-10.43,35.74-20.8c1-.6,2.06-1.25,3.43-2.08-6.12,0-11.81,0-17.5,0a6.89,6.89,0,0,0-3.67,1C70.5,64.08,62,69,53.42,74Z"/><path class="cls-1" d="M69.16,97.65H33.37a10.61,10.61,0,0,1-1.77-.13,1.78,1.78,0,0,1-1.66-1.92V83.45a2.09,2.09,0,0,1,.6-1.58,1.43,1.43,0,0,1,1.1-.34c2.49.27,4.38-.91,6.37-2.15.43-.26.85-.53,1.29-.78,8.57-5,17.27-10,25.69-14.95l8.69-5.07c.16-.09.31-.18.47-.29a2.63,2.63,0,0,0-.56,0,2.23,2.23,0,0,1-.36,0H33.13c-2.81,0-3.2-.4-3.2-3.26V52.89c0-2.75,0-5.51,0-8.26,0-1.8.54-2.36,2.35-2.5a10.89,10.89,0,0,1,1.14,0h74.46c3.61,0,3.86.25,3.86,3.78v3q0,3.58,0,7.17a2.39,2.39,0,0,1-.67,1.87,1.63,1.63,0,0,1-1.36.36c-3-.43-5.31,1-7.73,2.44l-1.29.77c-8.2,4.74-16.53,9.6-24.58,14.29l-8.18,4.77-1.21.73-.3.18H108.6a8.62,8.62,0,0,1,1.43.07,1.78,1.78,0,0,1,1.7,1.89v12.3a1.76,1.76,0,0,1-1.59,1.83,10.16,10.16,0,0,1-1.77.14ZM31.47,82a.88.88,0,0,0-.6.23,1.57,1.57,0,0,0-.43,1.2V95.6A1.31,1.31,0,0,0,31.69,97a10.43,10.43,0,0,0,1.68.12h75a10.06,10.06,0,0,0,1.68-.13,1.26,1.26,0,0,0,1.18-1.34V83.38A1.3,1.3,0,0,0,110,82a8.79,8.79,0,0,0-1.36-.06H66l-.16-.71.66-.4,1.21-.73,8.19-4.77c8-4.69,16.38-9.55,24.58-14.3.43-.24.85-.5,1.28-.76,2.39-1.46,4.85-3,8.06-2.51a1.18,1.18,0,0,0,1-.23,2,2,0,0,0,.5-1.49q0-3.6,0-7.18v-3c0-3.25,0-3.28-3.36-3.28H33.41a9.91,9.91,0,0,0-1.09,0c-1.56.12-1.88.46-1.89,2,0,2.75,0,5.51,0,8.26v2.16c0,2.58.18,2.76,2.7,2.76h40.1l.32,0a1.89,1.89,0,0,1,1.28.23l.34.22-.64.4-.59.36-8.7,5.07c-8.42,4.91-17.12,10-25.69,15-.43.25-.85.51-1.27.78-2,1.22-4,2.49-6.69,2.22ZM70.69,94.67H35.23c-2.39,0-2.5-.12-2.5-2.57V90.29c0-1.4,0-2.84,0-4.26a1.64,1.64,0,0,1,.37-1.23,1.59,1.59,0,0,1,1.25-.38c3.52,0,7.09,0,10.55,0h.46a2.48,2.48,0,0,1,1.86.71c.51.52,1,.52,1.73,0s1.38-.83,1.85-.7S51.6,85,52,85.92a1.13,1.13,0,0,0,1.2.83,1,1,0,0,0,1-.86,1.87,1.87,0,0,1,1.17-1.47,1.81,1.81,0,0,1,1.72.53,1.37,1.37,0,0,0,2.17,0,1.79,1.79,0,0,1,1.64-.53A1.76,1.76,0,0,1,62,85.67c.28.8.64,1.12,1.29,1.08s.85-.32,1-1.13a1.53,1.53,0,0,1,1-1.18,1.8,1.8,0,0,1,1.74.42,1.53,1.53,0,0,0,2.42,0,1.66,1.66,0,0,1,1.5-.47,1.88,1.88,0,0,1,1.21,1.26c.27.71.53,1.09,1.15,1.09h0c.65,0,.94-.4,1.2-1.05a1.9,1.9,0,0,1,1.24-1.3,1.85,1.85,0,0,1,1.66.6,1.28,1.28,0,0,0,2,0,1.84,1.84,0,0,1,1.65-.59,1.92,1.92,0,0,1,1.22,1.35c.28.73.63,1,1.21,1s.86-.31,1.1-1c.34-1,.84-1.29,1.2-1.38a1.64,1.64,0,0,1,1.53.52,1.49,1.49,0,0,0,2.32,0,1.68,1.68,0,0,1,1.58-.49,1.82,1.82,0,0,1,1.15,1.31c.24.72.57,1,1.19,1s.9-.28,1.06-.92a1.81,1.81,0,0,1,1.13-1.4,1.75,1.75,0,0,1,1.69.47c.89.77,1.44.77,2.28,0a1.63,1.63,0,0,1,1.53-.5,1.93,1.93,0,0,1,1.25,1.32c.26.73.61,1,1.18,1h0c.63,0,1-.33,1-1.05.23-1.51,1.27-1.38,2-1.28a3.06,3.06,0,0,0,.73,0,1.23,1.23,0,0,1,1,.22,1.9,1.9,0,0,1,.37,1.44v6.13c0,2.3-.11,2.42-2.36,2.42Zm-36.4-9.75a1.18,1.18,0,0,0-.86.23,1.22,1.22,0,0,0-.22.87c0,1.42,0,2.87,0,4.27V92.1c0,2.07,0,2.07,2,2.07h71.36c1.86,0,1.86,0,1.86-1.92V86.17c0-.47,0-.93-.2-1.11a.74.74,0,0,0-.57-.1,3.57,3.57,0,0,1-.86,0c-.86-.11-1.32-.12-1.46.86a1.49,1.49,0,0,1-1.54,1.48h0a1.73,1.73,0,0,1-1.65-1.36,1.45,1.45,0,0,0-.9-1,1.19,1.19,0,0,0-1.07.39,1.92,1.92,0,0,1-3,0A1.24,1.24,0,0,0,96,84.91a1.38,1.38,0,0,0-.8,1,1.49,1.49,0,0,1-1.53,1.3h0A1.69,1.69,0,0,1,92,85.89a1.37,1.37,0,0,0-.81-1,1.26,1.26,0,0,0-1.12.39,2,2,0,0,1-3,0A1.3,1.3,0,0,0,86,84.88c-.35.09-.65.46-.86,1.07a1.69,1.69,0,0,1-1.54,1.3,1.67,1.67,0,0,1-1.71-1.31c-.16-.41-.44-.93-.87-1a1.49,1.49,0,0,0-1.2.48,1.78,1.78,0,0,1-2.72,0,1.49,1.49,0,0,0-1.21-.48c-.44.1-.73.6-.88,1a1.76,1.76,0,0,1-1.67,1.37h0c-1,0-1.36-.73-1.62-1.41a1.4,1.4,0,0,0-.86-.95,1.16,1.16,0,0,0-1,.36,2,2,0,0,1-3.08,0,1.27,1.27,0,0,0-1.25-.32,1,1,0,0,0-.67.8c-.14.73-.43,1.48-1.47,1.53a1.73,1.73,0,0,1-1.79-1.42,1.11,1.11,0,0,0-2-.51,1.85,1.85,0,0,1-2.83,0,1.39,1.39,0,0,0-1.25-.43A1.48,1.48,0,0,0,54.65,86a1.49,1.49,0,0,1-1.43,1.23,1.64,1.64,0,0,1-1.69-1.13c-.32-.76-.59-1.13-.88-1.21s-.74.11-1.42.62a1.62,1.62,0,0,1-2.39,0,1.94,1.94,0,0,0-1.5-.56h-.45c-3.47,0-7,0-10.57,0Zm24-3h0q-6.48,0-13,0h-4.7l-.23-.59,4-2.32,8.92-5.22,7.79-4.53Q70,64.07,78.89,58.86a7.14,7.14,0,0,1,3.73-1.07h.07c4.15,0,8.26,0,12.62,0h5.77l-.76.47-1.3.79c-.77.47-1.45.89-2.13,1.29L86.24,66.55l-25.1,14.6A5.38,5.38,0,0,1,58.32,81.93Zm-8.48-.52,8.45,0h0a5,5,0,0,0,2.57-.71Q73.43,73.4,86,66.12l10.64-6.19c.69-.4,1.36-.81,2.13-1.29l.54-.33h-4c-4.36,0-8.47,0-12.62,0h-.07a6.6,6.6,0,0,0-3.48,1q-8.9,5.22-17.81,10.4l-7.79,4.54-8.92,5.21-3.38,2h8.6ZM107.27,55.3H35c-2.13,0-2.23-.11-2.23-2.27V51.59c0-1.38,0-2.8,0-4.2a2.28,2.28,0,0,0,0-.51c-.07-.58-.16-1.38.69-1.66,1.44-.45,2.47-.37,3.16.25,1.05,1,1.66,1,2.59,0A1.49,1.49,0,0,1,40.55,45a1.89,1.89,0,0,1,1.24,1.35c.25.81.62,1.17,1.2,1.17h0c.6,0,.94-.39,1.13-1.24a1.64,1.64,0,0,1,1.1-1.26,1.68,1.68,0,0,1,1.65.5c.84.83,1.4.85,2.23.06a1.69,1.69,0,0,1,1.6-.56,1.87,1.87,0,0,1,1.19,1.39c.23.73.6,1.09,1.14,1.09h0c.59,0,1-.36,1.1-1.06a1.78,1.78,0,0,1,1.11-1.4,1.75,1.75,0,0,1,1.7.47c1,.86,1.5.85,2.34,0a1.43,1.43,0,0,1,1.4-.49,2,2,0,0,1,1.33,1.4c.25.77.6,1.09,1.13,1.1s1-.14,1.14-1.18a1.58,1.58,0,0,1,1-1.28,1.8,1.8,0,0,1,1.78.47c.93.84,1.5.84,2.37,0a1.64,1.64,0,0,1,1.55-.5,1.72,1.72,0,0,1,1.14,1.27c.23.77.49,1.22,1.17,1.22h0c.61,0,1-.35,1.23-1.16s.76-1.24,1.11-1.33a1.71,1.71,0,0,1,1.62.59c.82.77,1.41.76,2.25,0a1.68,1.68,0,0,1,1.59-.54,1.78,1.78,0,0,1,1.18,1.3c.25.83.62,1.19,1.2,1.19h0c.6,0,1-.39,1.15-1.23a1.56,1.56,0,0,1,2.74-.78c.86.87,1.43.87,2.33,0A1.55,1.55,0,0,1,91.25,45a1.87,1.87,0,0,1,1.23,1.37c.26.83.64,1.17,1.25,1.11a1,1,0,0,0,1-1.13,1.25,1.25,0,0,1,1.44-1.32h0c3.77,0,7.53,0,11.29,0a1.5,1.5,0,0,1,1.14.35,1.4,1.4,0,0,1,.34,1.07c0,2.89,0,5.23,0,7.38a1.44,1.44,0,0,1-.34,1.07A1.85,1.85,0,0,1,107.27,55.3Zm-7.74-.5h7.66c.51,0,.88,0,1.08-.21a1,1,0,0,0,.19-.72c0-2.14,0-4.49,0-7.38a.94.94,0,0,0-.19-.72,1.05,1.05,0,0,0-.76-.2h0c-3.77,0-7.53,0-11.3,0h0c-.7,0-1,.22-1,.82A1.54,1.54,0,0,1,93.77,48c-.83.08-1.44-.41-1.77-1.46a1.43,1.43,0,0,0-.87-1,1.08,1.08,0,0,0-1,.37c-1.1,1.06-2,1.07-3,0a1.07,1.07,0,0,0-1.9.53c-.09.4-.37,1.6-1.63,1.62h0c-1.22,0-1.57-1.16-1.69-1.54a1.32,1.32,0,0,0-.82-1,1.22,1.22,0,0,0-1.12.42,1.85,1.85,0,0,1-3,0,1.31,1.31,0,0,0-1.14-.48c-.32.09-.59.43-.76,1A1.84,1.84,0,0,1,73.36,48h0c-1.19,0-1.5-1.07-1.65-1.58a1.25,1.25,0,0,0-.79-.93,1.17,1.17,0,0,0-1.07.38c-1.06,1-1.94,1-3,0a1.36,1.36,0,0,0-1.29-.37,1.11,1.11,0,0,0-.68.9c-.22,1.29-1,1.58-1.62,1.59h0c-1.12,0-1.47-1.09-1.59-1.45a1.44,1.44,0,0,0-1-1.06,1,1,0,0,0-.93.34c-1.18,1.24-2.06.92-3,.06a1.25,1.25,0,0,0-1.22-.37,1.27,1.27,0,0,0-.77,1A1.59,1.59,0,0,1,53.08,48h0c-.53,0-1.25-.25-1.62-1.45a1.39,1.39,0,0,0-.84-1,1.24,1.24,0,0,0-1.13.44,1.81,1.81,0,0,1-2.92-.07,1.2,1.2,0,0,0-1.16-.38,1.12,1.12,0,0,0-.75.89c-.09.39-.36,1.6-1.61,1.63h0a1.82,1.82,0,0,1-1.67-1.52,1.4,1.4,0,0,0-.89-1,1,1,0,0,0-.94.33c-1.29,1.28-2.24.92-3.28,0-.54-.49-1.42-.54-2.67-.14-.41.13-.42.44-.34,1.12a3.77,3.77,0,0,1,0,.58c0,1.39,0,2.81,0,4.18V53c0,1.77,0,1.77,1.73,1.77H99.53Z"/><path class="cls-1" d="M37.92,93.41a3.88,3.88,0,0,1-4-3.92,4,4,0,0,1,4-3.93,4,4,0,0,1,3.9,3.88A4,4,0,0,1,37.92,93.41Z"/><path class="cls-1" d="M37.92,93.66a4.23,4.23,0,0,1-3-1.23,4.14,4.14,0,0,1-1.19-2.94,4.2,4.2,0,0,1,1.27-3,4.14,4.14,0,0,1,2.92-1.21H38a4.25,4.25,0,0,1,4.15,4.13,4.2,4.2,0,0,1-4.19,4.22Zm0-7.85a3.68,3.68,0,1,0,0,7.35h0a3.7,3.7,0,0,0,3.69-3.72A3.79,3.79,0,0,0,38,85.81Z"/><path class="cls-1" d="M103.75,46.32a3.84,3.84,0,0,1,4,3.91,4,4,0,0,1-4,3.93,4,4,0,0,1-3.91-3.87A4,4,0,0,1,103.75,46.32Z"/><path class="cls-1" d="M103.76,54.41h0a4.28,4.28,0,0,1-4.16-4.12,4.2,4.2,0,0,1,4.19-4.22h0a4.27,4.27,0,0,1,3,1.21A4.12,4.12,0,0,1,108,50.23a4.18,4.18,0,0,1-1.27,3A4.13,4.13,0,0,1,103.76,54.41Zm0-7.84a3.7,3.7,0,0,0-3.69,3.71,3.76,3.76,0,0,0,3.66,3.63,3.7,3.7,0,0,0,2.69-6.27,3.69,3.69,0,0,0-2.65-1.07Z"/><path class="cls-2" d="M68.88,137.76a68.88,68.88,0,1,1,68.88-68.88A69,69,0,0,1,68.88,137.76ZM68.88,4a64.88,64.88,0,1,0,64.88,64.88A64.95,64.95,0,0,0,68.88,4Z"/></svg>