<svg id="Слой_1" data-name="Слой 1" xmlns="http://www.w3.org/2000/svg" xmlns:xlink="http://www.w3.org/1999/xlink" viewBox="0 0 245.05 230.81"><defs><style>.cls-1{fill:#36758c;}.cls-1,.cls-2,.cls-3,.cls-4,.cls-5{stroke:#fff;stroke-miterlimit:10;stroke-width:5px;}.cls-2{fill:url(#Безымянный_градиент_78);}.cls-3{fill:url(#Безымянный_градиент_78-2);}.cls-4{fill:url(#Безымянный_градиент_78-3);}.cls-5{fill:url(#Безымянный_градиент_78-4);}.cls-6{fill:#fff;}</style><linearGradient id="Безымянный_градиент_78" x1="15.42" y1="184.89" x2="104.27" y2="82.76" gradientUnits="userSpaceOnUse"><stop offset="0" stop-color="#36758c"/><stop offset="0.42" stop-color="#03dcff"/><stop offset="0.44" stop-color="#05d8fa"/><stop offset="0.56" stop-color="#17b4d3"/><stop offset="0.68" stop-color="#2499b4"/><stop offset="0.79" stop-color="#2e859e"/><stop offset="0.9" stop-color="#347991"/><stop offset="1" stop-color="#36758c"/></linearGradient><linearGradient id="Безымянный_градиент_78-2" x1="27.79" y1="195.45" x2="115.6" y2="94.53" xlink:href="#Безымянный_градиент_78"/><linearGradient id="Безымянный_градиент_78-3" x1="41.14" y1="206.12" x2="126.88" y2="107.58" xlink:href="#Безымянный_градиент_78"/><linearGradient id="Безымянный_градиент_78-4" x1="61.12" y1="221.16" x2="144.13" y2="125.74" xlink:href="#Безымянный_градиент_78"/></defs><path class="cls-1" d="M169.55,168.55c17.06-13.75,27.38-31.69,27.38-51.3s-9.68-39-26.74-52.77"/><path class="cls-2" d="M169.56,33.05v16L62.46,83.64V208.76q-7.26,0-14.33-.59V69.35Z"/><path class="cls-3" d="M169.56,49.05v17l-90,30.4V207.91q-8.41.84-17.11.85V83.64Z"/><path class="cls-4" d="M169.56,66.05v15l-60,20.67-2.74.94c-.2.08-.41.15-.61.21l-6.87,2.37v99.54a168.34,168.34,0,0,1-19.73,3.13V96.45Z"/><path class="cls-5" d="M169.56,81.05v87.5C151.34,185.84,127,198.67,99.3,204.78V105.24l6.87-2.37c.2-.06.41-.13.61-.21l2.74-.94Z"/><path class="cls-6" d="M124.43,114.33c-4.74,2.64-8.42,5-14.45-5.18,6,10.18,2.2,12.26-2.39,15.15,4.78-2.66,8.43-5,14.13,4.61h0C115.86,119,119.79,117.24,124.43,114.33Z"/></svg>