<svg id="Слой_1" data-name="Слой 1" xmlns="http://www.w3.org/2000/svg" xmlns:xlink="http://www.w3.org/1999/xlink" viewBox="0 0 281.87 330.89"><defs><style>.cls-1{fill:#36758c;}.cls-1,.cls-2,.cls-3,.cls-4,.cls-5,.cls-6{stroke:#fff;stroke-miterlimit:10;stroke-width:5px;}.cls-2{fill:url(#Безымянный_градиент_79);}.cls-3{fill:url(#Безымянный_градиент_78);}.cls-4{fill:url(#Безымянный_градиент_78-2);}.cls-5{fill:url(#Безымянный_градиент_78-3);}.cls-6{fill:url(#Безымянный_градиент_78-4);}.cls-7{fill:#fff;}</style><linearGradient id="Безымянный_градиент_79" x1="112.09" y1="291.16" x2="192.64" y2="197.73" gradientUnits="userSpaceOnUse"><stop offset="0" stop-color="#36758c"/><stop offset="0.61" stop-color="#03dcff"/><stop offset="0.62" stop-color="#05d8fa"/><stop offset="0.7" stop-color="#17b4d3"/><stop offset="0.78" stop-color="#2499b4"/><stop offset="0.86" stop-color="#2e859e"/><stop offset="0.93" stop-color="#347991"/><stop offset="1" stop-color="#36758c"/></linearGradient><linearGradient id="Безымянный_градиент_78" x1="37.62" y1="204.17" x2="126.47" y2="102.04" gradientUnits="userSpaceOnUse"><stop offset="0" stop-color="#36758c"/><stop offset="0.42" stop-color="#03dcff"/><stop offset="0.44" stop-color="#05d8fa"/><stop offset="0.56" stop-color="#17b4d3"/><stop offset="0.68" stop-color="#2499b4"/><stop offset="0.79" stop-color="#2e859e"/><stop offset="0.9" stop-color="#347991"/><stop offset="1" stop-color="#36758c"/></linearGradient><linearGradient id="Безымянный_градиент_78-2" x1="49.99" y1="214.73" x2="137.8" y2="113.8" xlink:href="#Безымянный_градиент_78"/><linearGradient id="Безымянный_градиент_78-3" x1="63.34" y1="225.4" x2="149.08" y2="126.85" xlink:href="#Безымянный_градиент_78"/><linearGradient id="Безымянный_градиент_78-4" x1="83.32" y1="240.44" x2="166.33" y2="145.02" xlink:href="#Безымянный_градиент_78"/></defs><path class="cls-1" d="M84.66,228v27.28l-14.33,1.92V227.45Q77.4,228,84.66,228Z"/><path class="cls-1" d="M101.77,227.19v39.62l-17.11,4.73V228Q93.35,228,101.77,227.19Z"/><path class="cls-1" d="M121.5,224.06v49.87l-19.73,8.41V227.19A168.34,168.34,0,0,0,121.5,224.06Z"/><path class="cls-2" d="M191.76,187.83v67.11L121.5,290.13V224.06C149.19,218,173.54,205.12,191.76,187.83Z"/><path class="cls-1" d="M191.75,187.83c21.45-18.24,34.43-42,34.43-68s-12.18-51.72-33.63-70"/><path class="cls-3" d="M191.76,52.33v16L84.66,102.92V228q-7.26,0-14.33-.59V88.63Z"/><path class="cls-4" d="M191.76,68.33v17l-90,30.4V227.19q-8.42.84-17.11.85V102.92Z"/><path class="cls-5" d="M191.76,85.33v15l-60,20.67-2.74.94c-.2.08-.41.15-.61.21l-6.87,2.37v99.54a168.34,168.34,0,0,1-19.73,3.13V115.73Z"/><path class="cls-6" d="M191.76,100.33v87.5c-18.22,17.29-42.57,30.12-70.26,36.23V124.52l6.87-2.37c.2-.06.41-.13.61-.21l2.74-.94Z"/><path class="cls-7" d="M218.52,123.8c-45,12.26-44.57,15.32-56.93-35.8,12.57,52,10.21,46.37-26.27,55.5,36.48-9.13,36.11-10,47.8,33h0C172.75,134.27,173.5,136.06,218.52,123.8Z"/><path class="cls-7" d="M194.29,148c-12-7-21.85-12.1-9.91-33.6-11.94,21.5-21.51,15.8-33.76,9.34,12,7,21.81,12.18,10.63,32.45h0C172.85,135.27,181.93,141.45,194.29,148Z"/></svg>