<svg id="Слой_1" data-name="Слой 1" xmlns="http://www.w3.org/2000/svg" xmlns:xlink="http://www.w3.org/1999/xlink" viewBox="0 0 281.87 330.89"><defs><style>.cls-1,.cls-2,.cls-3,.cls-4,.cls-5,.cls-6,.cls-7,.cls-8,.cls-9{stroke:#fff;stroke-miterlimit:10;stroke-width:5px;}.cls-1{fill:url(#Безымянный_градиент_69);}.cls-2{fill:url(#Безымянный_градиент_69-2);}.cls-3{fill:url(#Безымянный_градиент_69-3);}.cls-4{fill:url(#Безымянный_градиент_61);}.cls-5{fill:url(#Безымянный_градиент_69-4);}.cls-6{fill:url(#Безымянный_градиент_61-2);}.cls-7{fill:url(#Безымянный_градиент_61-3);}.cls-8{fill:url(#Безымянный_градиент_61-4);}.cls-9{fill:url(#Безымянный_градиент_61-5);}.cls-10{fill:#fff;}</style><linearGradient id="Безымянный_градиент_69" x1="70.33" y1="242.35" x2="84.66" y2="242.35" gradientUnits="userSpaceOnUse"><stop offset="0" stop-color="#00bcb2"/><stop offset="0.81" stop-color="#00bcb2"/></linearGradient><linearGradient id="Безымянный_градиент_69-2" x1="84.66" y1="249.37" x2="101.77" y2="249.37" xlink:href="#Безымянный_градиент_69"/><linearGradient id="Безымянный_градиент_69-3" x1="101.77" y1="253.2" x2="121.5" y2="253.2" xlink:href="#Безымянный_градиент_69"/><linearGradient id="Безымянный_градиент_61" x1="115.17" y1="284.27" x2="198.6" y2="194.17" gradientUnits="userSpaceOnUse"><stop offset="0" stop-color="#00bcb2"/><stop offset="0.61" stop-color="#03dcff"/><stop offset="0.95" stop-color="#00c1bd"/><stop offset="1" stop-color="#00bcb2"/></linearGradient><linearGradient id="Безымянный_градиент_69-4" x1="191.75" y1="118.84" x2="226.18" y2="118.84" xlink:href="#Безымянный_градиент_69"/><linearGradient id="Безымянный_градиент_61-2" x1="37.62" y1="204.17" x2="126.47" y2="102.04" xlink:href="#Безымянный_градиент_61"/><linearGradient id="Безымянный_градиент_61-3" x1="49.99" y1="214.73" x2="137.8" y2="113.8" xlink:href="#Безымянный_градиент_61"/><linearGradient id="Безымянный_градиент_61-4" x1="63.34" y1="225.4" x2="149.08" y2="126.85" xlink:href="#Безымянный_градиент_61"/><linearGradient id="Безымянный_градиент_61-5" x1="83.32" y1="240.44" x2="166.33" y2="145.02" xlink:href="#Безымянный_градиент_61"/></defs><path class="cls-1" d="M84.66,228v27.28l-14.33,1.92V227.45Q77.4,228,84.66,228Z"/><path class="cls-2" d="M101.77,227.19v39.62l-17.11,4.73V228Q93.35,228,101.77,227.19Z"/><path class="cls-3" d="M121.5,224.06v49.87l-19.73,8.41V227.19A168.34,168.34,0,0,0,121.5,224.06Z"/><path class="cls-4" d="M191.76,187.83v67.11L121.5,290.13V224.06C149.19,218,173.54,205.12,191.76,187.83Z"/><path class="cls-5" d="M191.75,187.83c21.45-18.24,34.43-42,34.43-68s-12.18-51.72-33.63-70"/><path class="cls-6" d="M191.76,52.33v16L84.66,102.92V228q-7.26,0-14.33-.59V88.63Z"/><path class="cls-7" d="M191.76,68.33v17l-90,30.4V227.19q-8.42.84-17.11.85V102.92Z"/><path class="cls-8" d="M191.76,85.33v15l-60,20.67-2.74.94c-.2.08-.41.15-.61.21l-6.87,2.37v99.54a168.34,168.34,0,0,1-19.73,3.13V115.73Z"/><path class="cls-9" d="M191.76,100.33v87.5c-18.22,17.29-42.57,30.12-70.26,36.23V124.52l6.87-2.37c.2-.06.41-.13.61-.21l2.74-.94Z"/><path class="cls-10" d="M153.5,134.6c-7.47,4.16-13.26,7.88-22.76-8.17,9.5,16,3.46,19.34-3.78,23.89,7.53-4.19,13.29-7.82,22.28,7.26h0C140,142,146.2,139.19,153.5,134.6Z"/></svg>